<?xml version="1.0" encoding="UTF-8"?>
<svg id="Auto_Body_Paint_Shop" data-name="Auto Body Paint Shop" xmlns="http://www.w3.org/2000/svg" xmlns:xlink="http://www.w3.org/1999/xlink" viewBox="0 0 800 600">
  <defs>
    <linearGradient id="linear-gradient" x1="404.9955" y1="223.4046" x2="506.0408" y2="223.4046" gradientUnits="userSpaceOnUse">
      <stop offset="0" stop-color="#e65a55" stop-opacity="0"/>
      <stop offset="1" stop-color="#e65a55"/>
    </linearGradient>
  </defs>
  <g>
    <path d="M481.2314,401.667h85.3931v126.4232c0,13.033-10.5812,23.6142-23.6142,23.6142h-38.1647c-13.033,0-23.6142-10.5812-23.6142-23.6142v-126.4232h0Z" fill="#2c2535"/>
    <path d="M481.2314,401.667h85.3931v126.4232c0,13.033-10.5812,23.6142-23.6142,23.6142h-38.1647c-13.033,0-23.6142-10.5812-23.6142-23.6142v-126.4232h0Z" fill="none" stroke="#191421" stroke-linecap="round" stroke-linejoin="round" stroke-width="1.0794"/>
    <path d="M24.9473,401.667H110.3404v126.4232c0,13.033-10.5812,23.6142-23.6142,23.6142H48.5615c-13.033,0-23.6142-10.5812-23.6142-23.6142v-126.4232h0Z" fill="#2c2535"/>
    <path d="M24.9473,401.667H110.3404v126.4232c0,13.033-10.5812,23.6142-23.6142,23.6142H48.5615c-13.033,0-23.6142-10.5812-23.6142-23.6142v-126.4232h0Z" fill="none" stroke="#191421" stroke-linecap="round" stroke-linejoin="round" stroke-width="1.0794"/>
    <path d="M425.2668,450.1697H166.305l-30.5644,65.9138h17.7702c5.3901,0,10.6812-1.4493,15.3189-4.196l2.0864-1.2357c6.4795-3.8375,13.8715-5.8622,21.4021-5.8622h206.9353c7.5306,0,14.9226,2.0248,21.4021,5.8622l2.0864,1.2357c4.6378,2.7468,9.9287,4.196,15.3189,4.196h17.7702l-30.5644-65.9138Z" fill="#2c2535"/>
    <path d="M425.2668,450.1697H166.305l-30.5644,65.9138h17.7702c5.3901,0,10.6812-1.4493,15.3189-4.196l2.0864-1.2357c6.4795-3.8375,13.8715-5.8622,21.4021-5.8622h206.9353c7.5306,0,14.9226,2.0248,21.4021,5.8622l2.0864,1.2357c4.6378,2.7468,9.9287,4.196,15.3189,4.196h17.7702l-30.5644-65.9138Z" fill="none" stroke="#191421" stroke-linecap="round" stroke-linejoin="round" stroke-width="1.0794"/>
    <path d="M455.8297,501.9784h-17.7636c-5.3995,0-10.6851-1.451-15.3281-4.1973l-2.0831-1.2333c-6.4774-3.8346-13.8668-5.8556-21.4013-5.8556H192.3194c-7.5345,0-14.9239,2.021-21.4012,5.8556l-2.0935,1.2333c-4.6327,2.7464-9.9285,4.1973-15.3177,4.1973h-17.7635l2.7256-5.8763h15.0379c5.3892,0,10.6851-1.4405,15.3177-4.1973l2.0935-1.2333c6.4774-3.8346,13.8667-5.8555,21.4012-5.8555h206.9342c7.5345,0,14.9239,2.0209,21.4013,5.8555l2.0831,1.2333c4.643,2.7568,9.9285,4.1973,15.3281,4.1973h15.0379l2.7257,5.8763Z" fill="#413f4d"/>
    <path d="M455.8297,501.9784h-17.7636c-5.3995,0-10.6851-1.451-15.3281-4.1973l-2.0831-1.2333c-6.4774-3.8346-13.8668-5.8556-21.4013-5.8556H192.3194c-7.5345,0-14.9239,2.021-21.4012,5.8556l-2.0935,1.2333c-4.6327,2.7464-9.9285,4.1973-15.3177,4.1973h-17.7635l2.7256-5.8763h15.0379c5.3892,0,10.6851-1.4405,15.3177-4.1973l2.0935-1.2333c6.4774-3.8346,13.8667-5.8555,21.4012-5.8555h206.9342c7.5345,0,14.9239,2.0209,21.4013,5.8555l2.0831,1.2333c4.643,2.7568,9.9285,4.1973,15.3281,4.1973h15.0379l2.7257,5.8763Z" fill="none" stroke="#191421" stroke-linecap="round" stroke-linejoin="round" stroke-width="1.0794"/>
    <path d="M424.7819,408.7144H166.7898l-128.9961,53.4772,1.4623,21.1218c1.2776,18.4534,16.6196,32.7701,35.1172,32.7701h61.3674c4.6497,0,8.4972-3.4412,9.2289-8.0329,1.683-10.5609,6.6562-20.4013,14.3139-28.059l9.8975-9.8975c9.5722-9.5722,22.5549-14.9498,36.092-14.9498h181.0259c13.5371,0,26.5198,5.3776,36.092,14.9498l9.8975,9.8975c7.6577,7.6577,12.631,17.4982,14.3139,28.059,.7317,4.5917,4.5793,8.0329,9.2289,8.0329h61.3674c18.4976,0,33.8396-14.3167,35.1172-32.7701l1.4623-21.1218-128.9961-53.4772Z" fill="#384778"/>
    <path d="M424.7819,408.7144H166.7898l-128.9961,53.4772,1.4623,21.1218c1.2776,18.4534,16.6196,32.7701,35.1172,32.7701h61.3674c4.6497,0,8.4972-3.4412,9.2289-8.0329,1.683-10.5609,6.6562-20.4013,14.3139-28.059l9.8975-9.8975c9.5722-9.5722,22.5549-14.9498,36.092-14.9498h181.0259c13.5371,0,26.5198,5.3776,36.092,14.9498l9.8975,9.8975c7.6577,7.6577,12.631,17.4982,14.3139,28.059,.7317,4.5917,4.5793,8.0329,9.2289,8.0329h61.3674c18.4976,0,33.8396-14.3167,35.1172-32.7701l1.4623-21.1218-128.9961-53.4772Z" fill="none" stroke="#191421" stroke-linecap="round" stroke-linejoin="round" stroke-width="1.0794"/>
    <g>
      <path d="M515.0841,217.7439h14.3712s-1.3867-5.9689-1.2314-12.8941c.2648-11.8078,10.9308-20.5187,22.5552-18.4286,6.9238,1.2449,13.8211,3.0499,20.6918,5.4208,5.1224,1.7676,9.3976,5.4953,11.6541,10.422,1.7467,3.8136,2.9023,7.7861,3.3872,11.9388,.5103,4.3708-2.3093,8.4509-6.5727,9.5409-12.5264,3.2025-29.8524,4.135-48.826,4.2881l-11.8838,3.2543-4.1455-13.542Z" fill="#e65a55"/>
      <path d="M515.0841,217.7439h14.3712s-1.3867-5.9689-1.2314-12.8941c.2648-11.8078,10.9308-20.5187,22.5552-18.4286,6.9238,1.2449,13.8211,3.0499,20.6918,5.4208,5.1224,1.7676,9.3976,5.4953,11.6541,10.422,1.7467,3.8136,2.9023,7.7861,3.3872,11.9388,.5103,4.3708-2.3093,8.4509-6.5727,9.5409-12.5264,3.2025-29.8524,4.135-48.826,4.2881l-11.8838,3.2543-4.1455-13.542Z" fill="none" stroke="#191421" stroke-linecap="round" stroke-linejoin="round" stroke-width="1.0794"/>
      <path d="M76.4876,217.7439h-14.3712s1.3867-5.9689,1.2314-12.8941c-.2648-11.8078-10.9308-20.5187-22.5552-18.4286-6.9238,1.2449-13.8211,3.0499-20.6918,5.4208-5.1224,1.7676-9.3976,5.4953-11.6541,10.422-1.7467,3.8136-2.9023,7.7861-3.3872,11.9388-.5103,4.3708,2.3093,8.4509,6.5727,9.5409,12.5264,3.2025,29.8524,4.135,48.826,4.2881l11.8838,3.2543,4.1455-13.542Z" fill="#384778"/>
      <path d="M76.4876,217.7439h-14.3712s1.3867-5.9689,1.2314-12.8941c-.2648-11.8078-10.9308-20.5187-22.5552-18.4286-6.9238,1.2449-13.8211,3.0499-20.6918,5.4208-5.1224,1.7676-9.3976,5.4953-11.6541,10.422-1.7467,3.8136-2.9023,7.7861-3.3872,11.9388-.5103,4.3708,2.3093,8.4509,6.5727,9.5409,12.5264,3.2025,29.8524,4.135,48.826,4.2881l11.8838,3.2543,4.1455-13.542Z" fill="none" stroke="#191421" stroke-linecap="round" stroke-linejoin="round" stroke-width="1.0794"/>
    </g>
    <path d="M524.6165,231.0096s-23.8575-82.3747-58.0373-122.1548c-30.1089-35.0423-311.4776-35.0423-341.5865,0-34.1799,39.7802-58.0373,122.1548-58.0373,122.1548l-42.008,90.6488v81.805l12.1602,66.3284,9.3965,3.3164s11.6075,24.3204,72.9613,15.4766c0,0,29.8478-69.0921,124.9185-68.5394h102.8043c95.0707-.5527,124.9185,68.5394,124.9185,68.5394,61.3538,8.8438,72.9613-15.4766,72.9613-15.4766l9.3965-3.3164,12.1602-66.3284v-81.805l-42.008-90.6488Z" fill="#384778"/>
    <path d="M524.6165,231.0096s-23.8575-82.3747-58.0373-122.1548c-30.1089-35.0423-311.4776-35.0423-341.5865,0-34.1799,39.7802-58.0373,122.1548-58.0373,122.1548l-42.008,90.6488v81.805l12.1602,66.3284,9.3965,3.3164s11.6075,24.3204,72.9613,15.4766c0,0,29.8478-69.0921,124.9185-68.5394h102.8043c95.0707-.5527,124.9185,68.5394,124.9185,68.5394,61.3538,8.8438,72.9613-15.4766,72.9613-15.4766l9.3965-3.3164,12.1602-66.3284v-81.805l-42.008-90.6488Z" fill="none" stroke="#191421" stroke-linecap="round" stroke-linejoin="round" stroke-width="1.0794"/>
    <path d="M466.5791,108.8548c-9.9059-11.5291-47.0108-19.2644-93.4153-23.2072-3.9959,6.9-6.9291,18.1578,1.3328,33.0292,14.3922,25.9059,42.4986,93.962-.0511,112.6092-42.5497,18.6471-36.6007,46.8557-9.3517,49.7341,27.249,2.8784,32.0707,17.8462,5.1932,23.0275-26.8775,5.1812-23.5061,21.275-5.1932,31.9379s-21.4922,51.7133,0,63.0502c9.7901,5.1642,16.542,13.9856,19.8083,24.8298,65.4575,14.4119,87.2044,64.7194,87.2044,64.7194,61.3538,8.8437,72.9613-15.4767,72.9613-15.4767l9.3965-3.3164,12.1602-66.3284v-81.8049l-42.008-90.6488s-23.8574-82.3747-58.0374-122.1548Z" fill="#e65a55"/>
    <path d="M466.5791,108.8548c-9.9059-11.5291-47.0108-19.2644-93.4153-23.2072-3.9959,6.9-6.9291,18.1578,1.3328,33.0292,14.3922,25.9059,42.4986,93.962-.0511,112.6092-42.5497,18.6471-36.6007,46.8557-9.3517,49.7341,27.249,2.8784,32.0707,17.8462,5.1932,23.0275-26.8775,5.1812-23.5061,21.275-5.1932,31.9379s-21.4922,51.7133,0,63.0502c9.7901,5.1642,16.542,13.9856,19.8083,24.8298,65.4575,14.4119,87.2044,64.7194,87.2044,64.7194,61.3538,8.8437,72.9613-15.4767,72.9613-15.4767l9.3965-3.3164,12.1602-66.3284v-81.8049l-42.008-90.6488s-23.8574-82.3747-58.0374-122.1548Z" fill="none" stroke="#191421" stroke-linecap="round" stroke-linejoin="round" stroke-width="1.0794"/>
    <rect x="246.5209" y="431.6534" width="98.53" height="47.8808" rx="5.1819" ry="5.1819" fill="#c2cce0"/>
    <rect x="246.5209" y="431.6534" width="98.53" height="47.8808" rx="5.1819" ry="5.1819" fill="none" stroke="#191421" stroke-linecap="round" stroke-linejoin="round" stroke-width="1.0794"/>
    <rect x="250.4591" y="434.9698" width="90.6535" height="41.248" rx="4.6134" ry="4.6134" fill="none" stroke="#191421" stroke-linecap="round" stroke-linejoin="round" stroke-width="1.0794"/>
    <path d="M167.0673,393.376H424.5044c0,9.3807-7.6159,16.9967-16.9966,16.9967H184.064c-9.3807,0-16.9966-7.6159-16.9966-16.9966h0Z" fill="#2c2535"/>
    <path d="M167.0673,393.376H424.5044c0,9.3807-7.6159,16.9967-16.9966,16.9967H184.064c-9.3807,0-16.9966-7.6159-16.9966-16.9966h0Z" fill="none" stroke="#191421" stroke-linecap="round" stroke-linejoin="round" stroke-width="1.0794"/>
    <circle cx="86.1311" cy="401.667" r="16.1675" fill="#c2cce0"/>
    <circle cx="86.1311" cy="401.667" r="16.1675" fill="none" stroke="#191421" stroke-linecap="round" stroke-linejoin="round" stroke-width="1.0794"/>
    <path d="M65.8045,442.6987l49.5681,6.0314c6.8723,.8362,11.051,8.067,8.2678,14.4058-2.2235,5.064-5.3981,9.398-9.7659,12.8162-2.0588,1.6112-4.7013,2.2835-7.3011,2.0082l-38.8824-4.1174c-2.9054-.3077-5.5753-1.8108-7.2779-4.185-3.9887-5.5621-6.0849-11.0813-6.2303-16.5562-.1663-6.2643,5.4011-11.16,11.6217-10.4031Z" fill="#413f4d"/>
    <path d="M65.8045,442.6987l49.5681,6.0314c6.8723,.8362,11.051,8.067,8.2678,14.4058-2.2235,5.064-5.3981,9.398-9.7659,12.8162-2.0588,1.6112-4.7013,2.2835-7.3011,2.0082l-38.8824-4.1174c-2.9054-.3077-5.5753-1.8108-7.2779-4.185-3.9887-5.5621-6.0849-11.0813-6.2303-16.5562-.1663-6.2643,5.4011-11.16,11.6217-10.4031Z" fill="none" stroke="#191421" stroke-linecap="round" stroke-linejoin="round" stroke-width="1.0794"/>
    <path d="M116.975,449.0678c-.5176-.1471-1.0475-.2702-1.6024-.3377l-49.568-6.0314c-6.2206-.7569-11.788,4.1388-11.6217,10.4031,.0402,1.5125,.2443,3.0287,.581,4.548l43.3057,3.8584c3.0899,.2753,6.2304-.3971,8.6774-2.0082,4.3543-2.8671,7.6995-6.3859,10.2281-10.4321Z" fill="#2c2535"/>
    <path d="M116.975,449.0678c-.5176-.1471-1.0475-.2702-1.6024-.3377l-49.568-6.0314c-6.2206-.7569-11.788,4.1388-11.6217,10.4031,.0402,1.5125,.2443,3.0287,.581,4.548l43.3057,3.8584c3.0899,.2753,6.2304-.3971,8.6774-2.0082,4.3543-2.8671,7.6995-6.3859,10.2281-10.4321Z" fill="none" stroke="#191421" stroke-linecap="round" stroke-linejoin="round" stroke-width="1.0794"/>
    <path d="M124.4053,460.492c-.1347,.8913-.3835,1.7722-.767,2.6428-2.2178,5.0679-5.3995,9.4-9.7627,12.82-2.0624,1.6064-4.7051,2.2801-7.3065,2.0106l-38.8747-4.1248c-2.9122-.3005-5.5757-1.8033-7.2857-4.187-2.477-3.4512-4.2285-6.892-5.2338-10.3224,2.0313,2.2282,5.1094,3.6377,8.4362,3.9382l46.2123,4.1145c3.0884,.2798,6.2287-.3938,8.6745-2.0106,2.2179-1.4613,4.187-3.0988,5.9074-4.8814Z" fill="#2c2535"/>
    <path d="M124.4053,460.492c-.1347,.8913-.3835,1.7722-.767,2.6428-2.2178,5.0679-5.3995,9.4-9.7627,12.82-2.0624,1.6064-4.7051,2.2801-7.3065,2.0106l-38.8747-4.1248c-2.9122-.3005-5.5757-1.8033-7.2857-4.187-2.477-3.4512-4.2285-6.892-5.2338-10.3224,2.0313,2.2282,5.1094,3.6377,8.4362,3.9382l46.2123,4.1145c3.0884,.2798,6.2287-.3938,8.6745-2.0106,2.2179-1.4613,4.187-3.0988,5.9074-4.8814Z" fill="none" stroke="#191421" stroke-linecap="round" stroke-linejoin="round" stroke-width="1.0794"/>
    <path d="M179.9899,339.9702h0c0,7.596-5.1252,14.2409-12.4808,16.1367-11.7689,3.0333-29.9627,6.3815-46.1093,3.6904-26.5314-4.4219-33.9933-1.068-41.1789,.986-7.1856,2.054-32.9961,5.1396-35.0988-14.2517-2.4873-22.9386,6.8457-36.757,24.8414-38.9679,13.7711-1.6919,70.8973,10.3727,96.9595,16.1304,7.6358,1.6869,13.0668,8.4562,13.0668,16.2761Z" fill="#c2cce0"/>
    <path d="M179.9899,339.9702h0c0,7.596-5.1252,14.2409-12.4808,16.1367-11.7689,3.0333-29.9627,6.3815-46.1093,3.6904-26.5314-4.4219-33.9933-1.068-41.1789,.986-7.1856,2.054-32.9961,5.1396-35.0988-14.2517-2.4873-22.9386,6.8457-36.757,24.8414-38.9679,13.7711-1.6919,70.8973,10.3727,96.9595,16.1304,7.6358,1.6869,13.0668,8.4562,13.0668,16.2761Z" fill="none" stroke="#191421" stroke-linecap="round" stroke-linejoin="round" stroke-width="1.0794"/>
    <path d="M167.0673,338.2974h0c0,5.4509-3.765,10.17-9.0781,11.3879-9.9521,2.2813-26.443,5.0948-40.9896,3.035-22.6721-3.2104-29.0487-.7754-35.189,.7159-6.1404,1.4912-28.1965,3.7315-29.9934-10.347-2.1255-16.6538,5.85-26.6862,21.228-28.2914,12.0693-1.2598,63.1086,7.9858,84.5132,12.0228,5.5189,1.0409,9.5088,5.8607,9.5088,11.4769Z" fill="#2c2535"/>
    <path d="M167.0673,338.2974h0c0,5.4509-3.765,10.17-9.0781,11.3879-9.9521,2.2813-26.443,5.0948-40.9896,3.035-22.6721-3.2104-29.0487-.7754-35.189,.7159-6.1404,1.4912-28.1965,3.7315-29.9934-10.347-2.1255-16.6538,5.85-26.6862,21.228-28.2914,12.0693-1.2598,63.1086,7.9858,84.5132,12.0228,5.5189,1.0409,9.5088,5.8607,9.5088,11.4769Z" fill="none" stroke="#191421" stroke-linecap="round" stroke-linejoin="round" stroke-width="1.0794"/>
    <path d="M159.1239,327.2407c-.5074-.1709-1.0265-.3186-1.5653-.4202-6.5201-1.2297-15.7951-2.943-25.8758-4.6952-2.7289,2.9454-4.4101,6.8754-4.4101,11.2073,0,9.1199,7.3931,16.513,16.513,16.513s16.513-7.3931,16.513-16.513c0-2.1538-.4247-4.2053-1.1748-6.0918Z" fill="#413f4d"/>
    <path d="M159.1239,327.2407c-.5074-.1709-1.0265-.3186-1.5653-.4202-6.5201-1.2297-15.7951-2.943-25.8758-4.6952-2.7289,2.9454-4.4101,6.8754-4.4101,11.2073,0,9.1199,7.3931,16.513,16.513,16.513s16.513-7.3931,16.513-16.513c0-2.1538-.4247-4.2053-1.1748-6.0918Z" fill="none" stroke="#191421" stroke-linecap="round" stroke-linejoin="round" stroke-width="1.0794"/>
    <path d="M84.9455,330.3839c0,10.0994,8.1872,18.2865,18.2866,18.2865s18.2865-8.1871,18.2865-18.2865c0-3.9301-1.2514-7.5616-3.3612-10.5428-9.2122-1.5044-18.3825-2.8836-26.1956-3.8384-4.2657,3.3477-7.0163,8.5381-7.0163,14.3812Z" fill="#413f4d"/>
    <path d="M84.9455,330.3839c0,10.0994,8.1872,18.2865,18.2866,18.2865s18.2865-8.1871,18.2865-18.2865c0-3.9301-1.2514-7.5616-3.3612-10.5428-9.2122-1.5044-18.3825-2.8836-26.1956-3.8384-4.2657,3.3477-7.0163,8.5381-7.0163,14.3812Z" fill="none" stroke="#191421" stroke-linecap="round" stroke-linejoin="round" stroke-width="1.0794"/>
    <path d="M205.8988,322.1253h64.6702c11.4399,0,20.7276,9.2877,20.7276,20.7276v17.6352c0,12.5839-10.2165,22.8004-22.8004,22.8004h-42.8895c-22.317,0-40.4355-18.1186-40.4355-40.4355h0c0-11.4399,9.2877-20.7277,20.7276-20.7277Z" fill="#2c2535"/>
    <path d="M205.8988,322.1253h64.6702c11.4399,0,20.7276,9.2877,20.7276,20.7276v17.6352c0,12.5839-10.2165,22.8004-22.8004,22.8004h-42.8895c-22.317,0-40.4355-18.1186-40.4355-40.4355h0c0-11.4399,9.2877-20.7277,20.7276-20.7277Z" fill="none" stroke="#191421" stroke-linecap="round" stroke-linejoin="round" stroke-width="1.0794"/>
    <g>
      <path d="M278.6707,323.7622v57.1253c-3.0677,1.5442-6.5188,2.4044-10.1773,2.4044h-.1865v-61.1672h2.2593c2.8812,0,5.6172,.5804,8.1045,1.6375Z" fill="#413f4d"/>
      <rect x="244.8017" y="322.1247" width="10.3638" height="61.1672" fill="#413f4d"/>
      <path d="M231.6604,322.1247v61.1672h-6.0525c-1.4509,0-2.8915-.0726-4.3113-.228v-60.9393h10.3638Z" fill="#413f4d"/>
      <path d="M208.1656,322.1247v57.2186c-3.8242-1.8344-7.3168-4.2491-10.3638-7.1407v-48.4404c2.4873-1.0571,5.2234-1.6375,8.0942-1.6375h2.2696Z" fill="#413f4d"/>
    </g>
    <g>
      <path d="M278.6707,323.7622v57.1253c-3.0677,1.5442-6.5188,2.4044-10.1773,2.4044h-.1865v-61.1672h2.2593c2.8812,0,5.6172,.5804,8.1045,1.6375Z" fill="none" stroke="#191421" stroke-linecap="round" stroke-linejoin="round" stroke-width="1.0794"/>
      <rect x="244.8017" y="322.1247" width="10.3638" height="61.1672" fill="none" stroke="#191421" stroke-linecap="round" stroke-linejoin="round" stroke-width="1.0794"/>
      <path d="M231.6604,322.1247v61.1672h-6.0525c-1.4509,0-2.8915-.0726-4.3113-.228v-60.9393h10.3638Z" fill="none" stroke="#191421" stroke-linecap="round" stroke-linejoin="round" stroke-width="1.0794"/>
      <path d="M208.1656,322.1247v57.2186c-3.8242-1.8344-7.3168-4.2491-10.3638-7.1407v-48.4404c2.4873-1.0571,5.2234-1.6375,8.0942-1.6375h2.2696Z" fill="none" stroke="#191421" stroke-linecap="round" stroke-linejoin="round" stroke-width="1.0794"/>
    </g>
    <circle cx="505.4413" cy="401.667" r="16.1675" fill="#c2cce0"/>
    <circle cx="505.4413" cy="401.667" r="16.1675" fill="none" stroke="#191421" stroke-linecap="round" stroke-linejoin="round" stroke-width="1.0794"/>
    <path d="M525.7679,442.6987l-49.5681,6.0314c-6.8723,.8362-11.051,8.067-8.2678,14.4058,2.2235,5.064,5.3981,9.398,9.7659,12.8162,2.0588,1.6112,4.7013,2.2835,7.3011,2.0082l38.8824-4.1174c2.9054-.3077,5.5753-1.8108,7.2779-4.185,3.9887-5.5621,6.0849-11.0813,6.2303-16.5562,.1663-6.2643-5.4011-11.16-11.6217-10.4031Z" fill="#413f4d"/>
    <path d="M525.7679,442.6987l-49.5681,6.0314c-6.8723,.8362-11.051,8.067-8.2678,14.4058,2.2235,5.064,5.3981,9.398,9.7659,12.8162,2.0588,1.6112,4.7013,2.2835,7.3011,2.0082l38.8824-4.1174c2.9054-.3077,5.5753-1.8108,7.2779-4.185,3.9887-5.5621,6.0849-11.0813,6.2303-16.5562,.1663-6.2643-5.4011-11.16-11.6217-10.4031Z" fill="none" stroke="#191421" stroke-linecap="round" stroke-linejoin="round" stroke-width="1.0794"/>
    <path d="M474.5974,449.0678c.5176-.1471,1.0475-.2702,1.6024-.3377l49.568-6.0314c6.2206-.7569,11.788,4.1388,11.6217,10.4031-.0402,1.5125-.2443,3.0287-.581,4.548l-43.3057,3.8584c-3.0899,.2753-6.2304-.3971-8.6774-2.0082-4.3543-2.8671-7.6995-6.3859-10.2281-10.4321Z" fill="#2c2535"/>
    <path d="M474.5974,449.0678c.5176-.1471,1.0475-.2702,1.6024-.3377l49.568-6.0314c6.2206-.7569,11.788,4.1388,11.6217,10.4031-.0402,1.5125-.2443,3.0287-.581,4.548l-43.3057,3.8584c-3.0899,.2753-6.2304-.3971-8.6774-2.0082-4.3543-2.8671-7.6995-6.3859-10.2281-10.4321Z" fill="none" stroke="#191421" stroke-linecap="round" stroke-linejoin="round" stroke-width="1.0794"/>
    <path d="M467.167,460.492c.1347,.8913,.3835,1.7722,.767,2.6428,2.2178,5.0679,5.3995,9.4,9.7627,12.82,2.0624,1.6064,4.7051,2.2801,7.3065,2.0106l38.8747-4.1248c2.9122-.3005,5.5757-1.8033,7.2857-4.187,2.477-3.4512,4.2285-6.892,5.2338-10.3224-2.0313,2.2282-5.1094,3.6377-8.4362,3.9382l-46.2123,4.1145c-3.0884,.2798-6.2287-.3938-8.6745-2.0106-2.2179-1.4613-4.187-3.0988-5.9074-4.8814Z" fill="#2c2535"/>
    <path d="M467.167,460.492c.1347,.8913,.3835,1.7722,.767,2.6428,2.2178,5.0679,5.3995,9.4,9.7627,12.82,2.0624,1.6064,4.7051,2.2801,7.3065,2.0106l38.8747-4.1248c2.9122-.3005,5.5757-1.8033,7.2857-4.187,2.477-3.4512,4.2285-6.892,5.2338-10.3224-2.0313,2.2282-5.1094,3.6377-8.4362,3.9382l-46.2123,4.1145c-3.0884,.2798-6.2287-.3938-8.6745-2.0106-2.2179-1.4613-4.187-3.0988-5.9074-4.8814Z" fill="none" stroke="#191421" stroke-linecap="round" stroke-linejoin="round" stroke-width="1.0794"/>
    <path d="M411.5825,339.9702h0c0,7.596,5.1252,14.2409,12.4808,16.1367,11.7689,3.0333,29.9627,6.3815,46.1093,3.6904,26.5314-4.4219,33.9933-1.068,41.1789,.986,7.1856,2.054,32.9961,5.1396,35.0988-14.2517,2.4873-22.9386-6.8457-36.757-24.8414-38.9679-13.7711-1.6919-70.8973,10.3727-96.9595,16.1304-7.6358,1.6869-13.0668,8.4562-13.0668,16.2761Z" fill="#c2cce0"/>
    <path d="M411.5825,339.9702h0c0,7.596,5.1252,14.2409,12.4808,16.1367,11.7689,3.0333,29.9627,6.3815,46.1093,3.6904,26.5314-4.4219,33.9933-1.068,41.1789,.986,7.1856,2.054,32.9961,5.1396,35.0988-14.2517,2.4873-22.9386-6.8457-36.757-24.8414-38.9679-13.7711-1.6919-70.8973,10.3727-96.9595,16.1304-7.6358,1.6869-13.0668,8.4562-13.0668,16.2761Z" fill="none" stroke="#191421" stroke-linecap="round" stroke-linejoin="round" stroke-width="1.0794"/>
    <path d="M424.505,338.2974h0c0,5.4509,3.765,10.17,9.0781,11.3879,9.9521,2.2813,26.443,5.0948,40.9896,3.035,22.6721-3.2104,29.0487-.7754,35.189,.7159,6.1404,1.4912,28.1965,3.7315,29.9934-10.347,2.1255-16.6538-5.85-26.6862-21.228-28.2914-12.0693-1.2598-63.1086,7.9858-84.5132,12.0228-5.5189,1.0409-9.5088,5.8607-9.5088,11.4769Z" fill="#2c2535"/>
    <path d="M424.505,338.2974h0c0,5.4509,3.765,10.17,9.0781,11.3879,9.9521,2.2813,26.443,5.0948,40.9896,3.035,22.6721-3.2104,29.0487-.7754,35.189,.7159,6.1404,1.4912,28.1965,3.7315,29.9934-10.347,2.1255-16.6538-5.85-26.6862-21.228-28.2914-12.0693-1.2598-63.1086,7.9858-84.5132,12.0228-5.5189,1.0409-9.5088,5.8607-9.5088,11.4769Z" fill="none" stroke="#191421" stroke-linecap="round" stroke-linejoin="round" stroke-width="1.0794"/>
    <path d="M432.4485,327.2407c.5074-.1709,1.0265-.3186,1.5653-.4202,6.5201-1.2297,15.7951-2.943,25.8758-4.6952,2.7289,2.9454,4.4101,6.8754,4.4101,11.2073,0,9.1199-7.3931,16.513-16.513,16.513-9.1199,0-16.513-7.3931-16.513-16.513,0-2.1538,.4247-4.2053,1.1748-6.0918Z" fill="#413f4d"/>
    <path d="M432.4485,327.2407c.5074-.1709,1.0265-.3186,1.5653-.4202,6.5201-1.2297,15.7951-2.943,25.8758-4.6952,2.7289,2.9454,4.4101,6.8754,4.4101,11.2073,0,9.1199-7.3931,16.513-16.513,16.513-9.1199,0-16.513-7.3931-16.513-16.513,0-2.1538,.4247-4.2053,1.1748-6.0918Z" fill="none" stroke="#191421" stroke-linecap="round" stroke-linejoin="round" stroke-width="1.0794"/>
    <path d="M506.6269,330.3839c0,10.0994-8.1872,18.2865-18.2866,18.2865-10.0993,0-18.2865-8.1871-18.2865-18.2865,0-3.9301,1.2514-7.5616,3.3612-10.5428,9.2122-1.5044,18.3825-2.8836,26.1956-3.8384,4.2657,3.3477,7.0163,8.5381,7.0163,14.3812Z" fill="#413f4d"/>
    <path d="M506.6269,330.3839c0,10.0994-8.1872,18.2865-18.2866,18.2865-10.0993,0-18.2865-8.1871-18.2865-18.2865,0-3.9301,1.2514-7.5616,3.3612-10.5428,9.2122-1.5044,18.3825-2.8836,26.1956-3.8384,4.2657,3.3477,7.0163,8.5381,7.0163,14.3812Z" fill="none" stroke="#191421" stroke-linecap="round" stroke-linejoin="round" stroke-width="1.0794"/>
    <path d="M470.5285,139.0861c-6.5941-13.3183-19.0826-22.7937-33.7296-25.3084-42.4277-7.2843-239.5978-7.2843-282.0254,0-14.647,2.5147-27.1355,11.9902-33.7296,25.3084-14.9521,30.1994-24.1572,64.9671-27.5365,79.0549-.7866,3.2791,1.702,6.4231,5.0741,6.4231H492.9909c3.3721,0,5.8607-3.144,5.0741-6.4231-3.3793-14.0878-12.5844-48.8555-27.5365-79.0549Z" fill="#c2cce0"/>
    <path d="M505.1075,219.941c-3.497-14.5782-13.0225-50.5565-28.4952-81.8072-6.8237-13.782-19.7469-23.5873-34.9039-26.1895-43.9049-7.5379-247.9396-7.5379-291.8444,0-15.1569,2.6023-28.0803,12.4076-34.9039,26.1895-15.4726,31.2508-24.9982,67.229-28.4951,81.8072-.814,3.3933,1.7612,6.6467,5.2507,6.6467H499.8568c3.4895,0,6.0647-3.2534,5.2507-6.6467Zm-18.9262-1.4217H105.391c-3.5365,0-6.1211-3.3388-5.2226-6.7594,3.4698-13.2089,12.2944-43.4623,26.4033-69.8293,6.3855-11.9332,18.4789-20.4232,32.6626-22.6764,41.0855-6.5267,232.0182-6.5267,273.1038,0,14.1837,2.2532,26.2771,10.7432,32.6626,22.6764,14.1089,26.367,22.9335,56.6204,26.4033,69.8293,.8985,3.4205-1.6861,6.7594-5.2227,6.7594Z" fill="#c2cce0"/>
    <path d="M505.1075,219.941c-3.497-14.5782-13.0225-50.5565-28.4952-81.8072-6.8237-13.782-19.7469-23.5873-34.9039-26.1895-43.9049-7.5379-247.9396-7.5379-291.8444,0-15.1569,2.6023-28.0803,12.4076-34.9039,26.1895-15.4726,31.2508-24.9982,67.229-28.4951,81.8072-.814,3.3933,1.7612,6.6467,5.2507,6.6467H499.8568c3.4895,0,6.0647-3.2534,5.2507-6.6467Zm-18.9262-1.4217H105.391c-3.5365,0-6.1211-3.3388-5.2226-6.7594,3.4698-13.2089,12.2944-43.4623,26.4033-69.8293,6.3855-11.9332,18.4789-20.4232,32.6626-22.6764,41.0855-6.5267,232.0182-6.5267,273.1038,0,14.1837,2.2532,26.2771,10.7432,32.6626,22.6764,14.1089,26.367,22.9335,56.6204,26.4033,69.8293,.8985,3.4205-1.6861,6.7594-5.2227,6.7594Z" fill="none" stroke="#191421" stroke-linecap="round" stroke-linejoin="round" stroke-width="1.0794"/>
    <path d="M340.7113,322.1253h42.8895c12.5839,0,22.8004,10.2165,22.8004,22.8004v17.6352c0,11.4399-9.2877,20.7276-20.7276,20.7276h-64.6702c-11.4399,0-20.7276-9.2877-20.7276-20.7276h0c0-22.317,18.1186-40.4356,40.4355-40.4356Z" transform="translate(706.6769 705.4139) rotate(180)" fill="#2c2535"/>
    <path d="M340.7113,322.1253h42.8895c12.5839,0,22.8004,10.2165,22.8004,22.8004v17.6352c0,11.4399-9.2877,20.7276-20.7276,20.7276h-64.6702c-11.4399,0-20.7276-9.2877-20.7276-20.7276h0c0-22.317,18.1186-40.4356,40.4355-40.4356Z" transform="translate(706.6769 705.4139) rotate(180)" fill="none" stroke="#191421" stroke-linecap="round" stroke-linejoin="round" stroke-width="1.0794"/>
    <g>
      <path d="M312.9017,323.7622v57.1253c3.0677,1.5442,6.5188,2.4044,10.1773,2.4044h.1865s0-61.1672,0-61.1672h-2.2593c-2.8812,0-5.6172,.5804-8.1045,1.6375Z" fill="#413f4d"/>
      <rect x="336.4068" y="322.1247" width="10.3638" height="61.1672" fill="#413f4d"/>
      <path d="M359.912,322.1247v61.1672s6.0525,0,6.0525,0c1.4509,0,2.8915-.0726,4.3113-.228v-60.9393s-10.3638,0-10.3638,0Z" fill="#413f4d"/>
      <path d="M383.4068,322.1247v57.2186c3.8242-1.8344,7.3168-4.2491,10.3638-7.1407v-48.4404c-2.4873-1.0571-5.2234-1.6375-8.0942-1.6375h-2.2696Z" fill="#413f4d"/>
    </g>
    <g>
      <path d="M312.9017,323.7622v57.1253c3.0677,1.5442,6.5188,2.4044,10.1773,2.4044h.1865s0-61.1672,0-61.1672h-2.2593c-2.8812,0-5.6172,.5804-8.1045,1.6375Z" fill="none" stroke="#191421" stroke-linecap="round" stroke-linejoin="round" stroke-width="1.0794"/>
      <rect x="336.4068" y="322.1247" width="10.3638" height="61.1672" fill="none" stroke="#191421" stroke-linecap="round" stroke-linejoin="round" stroke-width="1.0794"/>
      <path d="M359.912,322.1247v61.1672s6.0525,0,6.0525,0c1.4509,0,2.8915-.0726,4.3113-.228v-60.9393s-10.3638,0-10.3638,0Z" fill="none" stroke="#191421" stroke-linecap="round" stroke-linejoin="round" stroke-width="1.0794"/>
      <path d="M383.4068,322.1247v57.2186c3.8242-1.8344,7.3168-4.2491,10.3638-7.1407v-48.4404c-2.4873-1.0571-5.2234-1.6375-8.0942-1.6375h-2.2696Z" fill="none" stroke="#191421" stroke-linecap="round" stroke-linejoin="round" stroke-width="1.0794"/>
    </g>
    <path d="M134.6339,74.7029c-3.1439,8.3695-7.8701,15.2508-13.6183,19.8282,5.7482,4.5773,10.4745,11.4587,13.6183,19.8281,3.1439-8.3694,7.8701-15.2508,13.6183-19.8281-5.7482-4.5774-10.4745-11.4587-13.6183-19.8282Z" fill="#c2cce0"/>
    <path d="M134.6339,74.7029c-3.1439,8.3695-7.8701,15.2508-13.6183,19.8282,5.7482,4.5773,10.4745,11.4587,13.6183,19.8281,3.1439-8.3694,7.8701-15.2508,13.6183-19.8281-5.7482-4.5774-10.4745-11.4587-13.6183-19.8282Z" fill="none" stroke="#191421" stroke-linecap="round" stroke-linejoin="round" stroke-width="1.0794"/>
    <path d="M474.5974,71.6836c-2.7436,7.3038-6.868,13.309-11.8844,17.3036,5.0164,3.9945,9.1408,9.9998,11.8844,17.3035,2.7436-7.3038,6.868-13.309,11.8844-17.3035-5.0164-3.9946-9.1408-9.9998-11.8844-17.3036Z" fill="#c2cce0"/>
    <path d="M474.5974,71.6836c-2.7436,7.3038-6.868,13.309-11.8844,17.3036,5.0164,3.9945,9.1408,9.9998,11.8844,17.3035,2.7436-7.3038,6.868-13.309,11.8844-17.3035-5.0164-3.9946-9.1408-9.9998-11.8844-17.3036Z" fill="none" stroke="#191421" stroke-linecap="round" stroke-linejoin="round" stroke-width="1.0794"/>
  </g>
  <g>
    <g>
      <polygon points="566.6245 204.6415 559.5645 220.6286 546.2482 217.6679 534.4006 197.5715 551.376 190.1338 566.6245 204.6415" fill="#697fbc"/>
      <polygon points="566.6245 204.6415 559.5645 220.6286 546.2482 217.6679 534.4006 197.5715 551.376 190.1338 566.6245 204.6415" fill="none" stroke="#191421" stroke-linecap="round" stroke-linejoin="round" stroke-width="1.0794"/>
    </g>
    <g>
      <rect x="526.7435" y="175.2911" width="5.8165" height="9.4988" transform="translate(-29.6024 166.6098) rotate(-17.3983)" fill="#c2cce0"/>
      <rect x="526.7435" y="175.2911" width="5.8165" height="9.4988" transform="translate(-29.6024 166.6098) rotate(-17.3983)" fill="none" stroke="#191421" stroke-linecap="round" stroke-linejoin="round" stroke-width="1.0794"/>
      <polygon points="539.7743 165.557 513.074 173.9235 523.5337 176.9805 532.9295 174.0363 539.7743 165.557" fill="#c2cce0"/>
      <polygon points="539.7743 165.557 513.074 173.9235 523.5337 176.9805 532.9295 174.0363 539.7743 165.557" fill="none" stroke="#191421" stroke-linecap="round" stroke-linejoin="round" stroke-width="1.0794"/>
      <ellipse cx="514.7157" cy="132.3661" rx="3.6736" ry="2.8598" transform="translate(-16.0304 159.9625) rotate(-17.3983)" fill="#c2cce0"/>
      <ellipse cx="514.7157" cy="132.3661" rx="3.6736" ry="2.8598" transform="translate(-16.0304 159.9625) rotate(-17.3983)" fill="none" stroke="#191421" stroke-linecap="round" stroke-linejoin="round" stroke-width="1.0794"/>
      <path d="M528.6944,130.1923l1.0974,3.5021c-.8618-2.7502-27.56,5.6157-26.6983,8.3659l-1.0974-3.5021c-.8618-2.7502,25.8365-11.116,26.6983-8.3659Z" fill="#c2cce0"/>
      <path d="M528.6944,130.1923l1.0974,3.5021c-.8618-2.7502-27.56,5.6157-26.6983,8.3659l-1.0974-3.5021c-.8618-2.7502,25.8365-11.116,26.6983-8.3659Z" fill="none" stroke="#191421" stroke-linecap="round" stroke-linejoin="round" stroke-width="1.0794"/>
      <path d="M529.7903,133.6949c-.8607-2.7467-27.561,5.6198-26.7003,8.3665l9.984,31.8621,26.7003-8.3665-9.984-31.8622Z" fill="#e65a55"/>
      <path d="M529.7903,133.6949c-.8607-2.7467-27.561,5.6198-26.7003,8.3665l9.984,31.8621,26.7003-8.3665-9.984-31.8622Z" fill="none" stroke="#191421" stroke-linecap="round" stroke-linejoin="round" stroke-width="1.0794"/>
      <line x1="508.6314" y1="143.002" x2="515.8838" y2="166.4393" fill="none" stroke="#c2cce0" stroke-linecap="round" stroke-linejoin="round" stroke-width="1.0794"/>
    </g>
    <rect x="506.2665" y="191.9334" width="10.8456" height="8.3149" transform="translate(-34.0165 146.264) rotate(-15.7509)" fill="#384778"/>
    <rect x="506.2665" y="191.9334" width="10.8456" height="8.3149" transform="translate(-34.0165 146.264) rotate(-15.7509)" fill="none" stroke="#191421" stroke-linecap="round" stroke-linejoin="round" stroke-width="1.0794"/>
    <polygon points="544.18 213.8089 555.3339 209.2034 549.7569 189.774 552.8507 188.4787 560.7986 194.2355 563.2404 192.6063 555.9815 179.5556 546.2482 179.5556 511.222 190.2057 514.6761 200.4242 527.7729 196.6102 534.8251 201.9952 544.18 213.8089" fill="#384778"/>
    <polygon points="544.18 213.8089 555.3339 209.2034 549.7569 189.774 552.8507 188.4787 560.7986 194.2355 563.2404 192.6063 555.9815 179.5556 546.2482 179.5556 511.222 190.2057 514.6761 200.4242 527.7729 196.6102 534.8251 201.9952 544.18 213.8089" fill="none" stroke="#191421" stroke-linecap="round" stroke-linejoin="round" stroke-width="1.0794"/>
    <polyline points="527.7729 196.6102 537.7027 193.8038 541.0283 196.0908" fill="none" stroke="#191421" stroke-linecap="round" stroke-linejoin="round" stroke-width="1.0794"/>
    <path d="M447.6087,281.2523c18.9976-56.3615,58.4321-78.4386,58.4321-78.4386l-4.065-9.0099s-48.3223-8.136-90.3474-28.2468c-14.8663,49.7157-5.5253,89.3819,35.9804,115.6953Z" fill="url(#linear-gradient)"/>
    <g>
      <path d="M506.0408,202.8137s-39.4345,22.0771-58.4321,78.4386" fill="none" stroke="#191421" stroke-linecap="round" stroke-linejoin="round" stroke-width="1.0794"/>
      <path d="M501.9757,193.8038s-48.3223-8.136-90.3474-28.2468" fill="none" stroke="#191421" stroke-linecap="round" stroke-linejoin="round" stroke-width="1.0794"/>
      <line x1="503.0697" y1="200.4961" x2="481.862" y2="213.2783" fill="none" stroke="#191421" stroke-linecap="round" stroke-linejoin="round" stroke-width="1.0794"/>
      <line x1="501.9757" y1="197.5715" x2="485.9637" y2="202.8137" fill="none" stroke="#191421" stroke-linecap="round" stroke-linejoin="round" stroke-width="1.0794"/>
      <line x1="501.9757" y1="196.0908" x2="474.522" y2="195.207" fill="none" stroke="#191421" stroke-linecap="round" stroke-linejoin="round" stroke-width="1.0794"/>
    </g>
    <path d="M654.7116,520.5054s-3.1663,7.34-8.3474,11.8016-13.5286,6.7643-18.9976,6.6204-8.0596,8.2837-3.742,12.7771h65.916s3.3102-14.936-2.1588-25.6581l-1.5831-5.541h-31.087Z" fill="#384778"/>
    <path d="M654.7116,520.5054s-3.1663,7.34-8.3474,11.8016-13.5286,6.7643-18.9976,6.6204-8.0596,8.2837-3.742,12.7771h65.916s3.3102-14.936-2.1588-25.6581l-1.5831-5.541h-31.087Z" fill="none" stroke="#191421" stroke-linecap="round" stroke-linejoin="round" stroke-width="1.0794"/>
    <path d="M688.4612,505.3217l-37.1317-1.2953s-2.3747,11.6576,1.2953,18.5659c0,0,14.68,7.7717,34.1093,0,0,0,2.8065-7.34,1.7271-17.2706Z" fill="#c2cce0"/>
    <path d="M688.4612,505.3217l-37.1317-1.2953s-2.3747,11.6576,1.2953,18.5659c0,0,14.68,7.7717,34.1093,0,0,0,2.8065-7.34,1.7271-17.2706Z" fill="none" stroke="#191421" stroke-linecap="round" stroke-linejoin="round" stroke-width="1.0794"/>
    <path d="M731.4217,515.0363s.8145,10.5063-4.1982,15.5435-12.9284,8.3474-17.8217,9.7867-5.3251,9.2911-2.0149,11.3379h46.1988s15.2557-9.4669,18.278-13.2089-6.4638-21.7321-6.4638-21.7321l-2.1715-5.9008-31.8066,4.1737Z" fill="#384778"/>
    <path d="M731.4217,515.0363s.8145,10.5063-4.1982,15.5435-12.9284,8.3474-17.8217,9.7867-5.3251,9.2911-2.0149,11.3379h46.1988s15.2557-9.4669,18.278-13.2089-6.4638-21.7321-6.4638-21.7321l-2.1715-5.9008-31.8066,4.1737Z" fill="none" stroke="#191421" stroke-linecap="round" stroke-linejoin="round" stroke-width="1.0794"/>
    <path d="M764.3906,495.9725l-37.0498,2.7849s-1.0819,11.8477,3.3237,18.3118c0,0,15.4438,6.1148,33.9036-3.7409,0,0,1.9846-7.6036-.1775-17.3558Z" fill="#c2cce0"/>
    <path d="M764.3906,495.9725l-37.0498,2.7849s-1.0819,11.8477,3.3237,18.3118c0,0,15.4438,6.1148,33.9036-3.7409,0,0,1.9846-7.6036-.1775-17.3558Z" fill="none" stroke="#191421" stroke-linecap="round" stroke-linejoin="round" stroke-width="1.0794"/>
    <polygon points="678.5306 151.4909 690.7249 150.4115 714.7988 134.6496 715.2305 92.1233 695.8011 74.2051 661.4759 84.7833 654.3518 95.1457 659.3526 113.8534 669.7638 134.0419 678.5306 151.4909" fill="#e6a298"/>
    <polygon points="678.5306 151.4909 690.7249 150.4115 714.7988 134.6496 715.2305 92.1233 695.8011 74.2051 661.4759 84.7833 654.3518 95.1457 659.3526 113.8534 669.7638 134.0419 678.5306 151.4909" fill="none" stroke="#191421" stroke-linecap="round" stroke-linejoin="round" stroke-width="1.0794"/>
    <polygon points="676.8755 103.709 683.7521 98.24 711.4166 98.24 711.4166 109.0341 708.1516 122.9944 665.0739 122.9944 656.8704 107.8827 656.2947 98.24 670.6869 98.24 676.8755 103.709" fill="#c2cce0"/>
    <g>
      <path d="M682.4715,105.6869c.6745,.2156,1.2954-.1326,1.9188-.3683,.6603-.2497,1.3262-.445,2.0101-.6123,1.3702-.3352,2.743-.6115,4.1537-.7342,1.3992-.1217,2.834-.1143,4.2278,.0686,1.3272,.1741,2.9865,.9271,4.2917,.4166,.6665-.2606,1.0835-.9824,.6778-1.6662-.8769-1.478-3.0321-1.6882-4.5758-1.8886-1.582-.2054-3.1676-.2306-4.7534-.0483-1.6159,.1858-3.1112,.5794-4.6231,1.1744-.755,.2972-1.4863,.6958-2.1928,1.0938-.6579,.3707-1.504,.8147-1.6768,1.6102-.0918,.4225,.124,.8208,.5419,.9544h0Z" fill="#191421"/>
      <path d="M672.0533,104.2644c.2265-1.1887-1.212-2.071-2.1373-2.5146-1.0615-.5089-2.1865-.7781-3.3576-.871-1.2167-.0965-2.5328,.096-3.6884,.4813-.6426,.2143-1.2931,.4927-1.8813,.8293-.6213,.3555-1.0751,.8452-1.5034,1.4115-.3627,.4795,.1259,1.2424,.6917,1.2055,.534-.0348,1.0863-.0792,1.5938-.247,.5421-.1792,1.0743-.3838,1.619-.5557,.9832-.3102,1.9626-.6028,2.9994-.6462,.8599-.036,1.699,.0759,2.5059,.3841,.8643,.3301,1.6171,1.247,2.5784,1.1026,.2598-.0391,.5315-.3269,.5797-.5797h0Z" fill="#191421"/>
    </g>
    <polygon points="676.8755 103.709 683.7521 98.24 711.4166 98.24 711.4166 109.0341 708.1516 122.9944 665.0739 122.9944 656.8704 107.8827 656.2947 98.24 670.6869 98.24 676.8755 103.709" fill="none" stroke="#191421" stroke-linecap="round" stroke-linejoin="round" stroke-width="3.2382"/>
    <g>
      <path d="M559.3636,187.3273l-17.7023-3.8859-.3197,1.3244c-.7017,2.9069,.6493,5.9208,3.2862,7.3312l4.8053,2.5702s-1.5112,9.4989,12.9529,15.1117l7.1241-8.6353-10.1465-13.8164Z" fill="#697fbc"/>
      <path d="M559.3636,187.3273l-17.7023-3.8859-.3197,1.3244c-.7017,2.9069,.6493,5.9208,3.2862,7.3312l4.8053,2.5702s-1.5112,9.4989,12.9529,15.1117l7.1241-8.6353-10.1465-13.8164Z" fill="none" stroke="#191421" stroke-linecap="round" stroke-linejoin="round" stroke-width="1.0794"/>
    </g>
    <path d="M761.6452,413.14l-2.5906-117.4398c3.4541-10.3624-4.7494-33.8617-4.7494-33.8617l4.7494-104.3028c-9.9305-12.0894-31.3748-22.7396-31.3748-22.7396,1.1514-6.6203-1.0075-20.8686-1.0075-20.8686,12.953-32.311-7.7717-66.0353-31.087-65.6281-20.9551,.3659-42.3129,16.1911-42.7446,42.097-.4318,25.9059,10.3623,28.4965,11.6576,39.0747s5.8288,14.68,5.8288,14.68c0,0-18.6378,3.598-30.4394,22.5957-11.8016,18.9976-23.3153,46.6305-23.3153,46.6305,0,0-2.0149-1.7271-3.7419,2.0149,0,0-25.3302-15.2556-33.9655-14.3921l-9.7867-2.5906s-11.8015,9.7866-10.938,23.891l5.7568,4.3176s.2878,5.7568,10.6502,10.6502c10.3623,4.8933,31.087,21.5882,48.6454,19.8612,17.5584-1.7271,26.7694-21.3004,26.7694-21.3004,0,0-4.4615,21.876-4.4615,79.7324s-2.1588,174.4328,4.7494,192.5669c0,0,14.3922,12.6651,39.1466,1.4392,0,0,5.1812-9.211,2.8784-22.4517l6.3325-111.9709s20.9372,111.2796,23.891,123.7724c4.0298,17.044,41.7372,1.871,41.7372,1.871,9.9305-9.4988-2.5906-87.6481-2.5906-87.6481Zm-60.282-287.4263c-2.5064,.9951-4.9309,2.2179-7.0299,3.911-8.6857,7.0059-11.5571,17.2606-11.5571,17.2606-4.0298-16.4071-12.3772-19.5733-20.149-32.2384-1.0794-1.759-1.859-3.5126-2.4012-5.2281-3.2279-10.2132,2.7978-21.0648,13.0161-24.2762,10.9001-3.4258,27.8216-2.4492,32.9213,15.4,5.3731,18.8057-1.4863,23.8554-4.8002,25.171Z" fill="#c2cce0"/>
    <path d="M761.6452,413.14l-2.5906-117.4398c3.4541-10.3624-4.7494-33.8617-4.7494-33.8617l4.7494-104.3028c-9.9305-12.0894-31.3748-22.7396-31.3748-22.7396,1.1514-6.6203-1.0075-20.8686-1.0075-20.8686,12.953-32.311-7.7717-66.0353-31.087-65.6281-20.9551,.3659-42.3129,16.1911-42.7446,42.097-.4318,25.9059,10.3623,28.4965,11.6576,39.0747s5.8288,14.68,5.8288,14.68c0,0-18.6378,3.598-30.4394,22.5957-11.8016,18.9976-23.3153,46.6305-23.3153,46.6305,0,0-2.0149-1.7271-3.7419,2.0149,0,0-25.3302-15.2556-33.9655-14.3921l-9.7867-2.5906s-11.8015,9.7866-10.938,23.891l5.7568,4.3176s.2878,5.7568,10.6502,10.6502c10.3623,4.8933,31.087,21.5882,48.6454,19.8612,17.5584-1.7271,26.7694-21.3004,26.7694-21.3004,0,0-4.4615,21.876-4.4615,79.7324s-2.1588,174.4328,4.7494,192.5669c0,0,14.3922,12.6651,39.1466,1.4392,0,0,5.1812-9.211,2.8784-22.4517l6.3325-111.9709s20.9372,111.2796,23.891,123.7724c4.0298,17.044,41.7372,1.871,41.7372,1.871,9.9305-9.4988-2.5906-87.6481-2.5906-87.6481Zm-60.282-287.4263c-2.5064,.9951-4.9309,2.2179-7.0299,3.911-8.6857,7.0059-11.5571,17.2606-11.5571,17.2606-4.0298-16.4071-12.3772-19.5733-20.149-32.2384-1.0794-1.759-1.859-3.5126-2.4012-5.2281-3.2279-10.2132,2.7978-21.0648,13.0161-24.2762,10.9001-3.4258,27.8216-2.4492,32.9213,15.4,5.3731,18.8057-1.4863,23.8554-4.8002,25.171Z" fill="none" stroke="#191421" stroke-linecap="round" stroke-linejoin="round" stroke-width="1.0794"/>
    <path d="M576.5236,202.5618c-.633,.7386-1.2913,1.4351-1.8701,2.2212-.5965,.8101-1.1764,1.6287-1.7548,2.4517-1.1104,1.58-2.1216,3.2356-3.0739,4.9156-1.9349,3.4136-3.6012,6.9644-4.8498,10.6863-.1869,.5572,.7211,.9569,.9633,.4061,1.5519-3.529,3.1886-7.0341,5.056-10.4089,.9358-1.6912,1.9356-3.3438,2.9466-4.99,.5041-.8209,1.0375-1.6297,1.5826-2.4238s1.0208-1.6307,1.5597-2.4265c.2247-.3318-.2954-.74-.5596-.4318h0Z" fill="#191421"/>
    <path d="M648.3891,286.6638c3.2039,1.3144,6.5252,2.3422,9.8445,3.3232,3.244,.9588,6.5239,1.7997,9.8137,2.5853,6.6447,1.5868,13.3722,2.8535,20.1484,3.7248,13.5738,1.7454,27.3422,2.0529,40.9831,.9639,3.8271-.3055,7.6443-.7251,11.4476-1.2491,3.8101-.5249,7.592-1.1463,11.31-2.1419,.5807-.1555,.4862-1.1672-.1468-1.085-6.778,.8809-13.4993,2.0646-20.3123,2.6859-6.7394,.6146-13.5094,.883-20.2763,.8137-13.6057-.1393-27.2463-1.6392-40.558-4.4578-3.6869-.7806-7.3485-1.6776-10.9822-2.677-3.7065-1.0194-7.3666-2.1903-11.0677-3.2262-.489-.1368-.6478,.5579-.204,.74h0Z" fill="#191421"/>
    <circle cx="661.4759" cy="128.247" r="11.9455" fill="#384778"/>
    <circle cx="661.4759" cy="128.247" r="11.9455" fill="none" stroke="#191421" stroke-linecap="round" stroke-linejoin="round" stroke-width="1.0794"/>
    <path d="M659.7459,140.0531c4.314-.8402,7.6308-5.798,7.6308-11.8061s-3.3168-10.9659-7.6308-11.8061c-5.7751,.8402-10.2155,5.798-10.2155,11.8061s4.4403,10.9659,10.2155,11.8061Z" fill="#697fbc"/>
    <path d="M659.7459,140.0531c4.314-.8402,7.6308-5.798,7.6308-11.8061s-3.3168-10.9659-7.6308-11.8061c-5.7751,.8402-10.2155,5.798-10.2155,11.8061s4.4403,10.9659,10.2155,11.8061Z" fill="none" stroke="#191421" stroke-linecap="round" stroke-linejoin="round" stroke-width="1.0794"/>
    <polygon points="676.8755 110.4733 666.2253 121.5552 666.2253 132.2054 677.5951 143.002 692.2751 132.925 692.2751 119.1086 676.8755 110.4733" fill="#697fbc"/>
    <polygon points="676.8755 110.4733 666.2253 121.5552 666.2253 132.2054 677.5951 143.002 692.2751 132.925 692.2751 119.1086 676.8755 110.4733" fill="none" stroke="#191421" stroke-linecap="round" stroke-linejoin="round" stroke-width="1.0794"/>
    <circle cx="697.3123" cy="127.0255" r="12.6651" fill="#384778"/>
    <circle cx="697.3123" cy="127.0255" r="12.6651" fill="none" stroke="#191421" stroke-linecap="round" stroke-linejoin="round" stroke-width="1.0794"/>
    <path d="M699.2864,114.5294c-6.0171,.2502-10.8222,5.1934-10.8222,11.2721,0,6.2386,5.0574,11.296,11.296,11.296,3.5236,0,6.669-1.6145,8.7405-4.1428,.9398-1.7696,1.4767-3.7859,1.4767-5.9292,0-6.3215-4.6364-11.546-10.6911-12.496Z" fill="#697fbc"/>
    <path d="M699.2864,114.5294c-6.0171,.2502-10.8222,5.1934-10.8222,11.2721,0,6.2386,5.0574,11.296,11.296,11.296,3.5236,0,6.669-1.6145,8.7405-4.1428,.9398-1.7696,1.4767-3.7859,1.4767-5.9292,0-6.3215-4.6364-11.546-10.6911-12.496Z" fill="none" stroke="#191421" stroke-linecap="round" stroke-linejoin="round" stroke-width="1.0794"/>
    <polyline points="676.8755 112.0816 680.1857 117.9572 680.1857 133.0689" fill="none" stroke="#191421" stroke-linecap="round" stroke-linejoin="round" stroke-width="1.0794"/>
    <ellipse cx="685.675" cy="110.5802" rx="2.4682" ry="3.2732" fill="#191421"/>
    <ellipse cx="668.5398" cy="110.5802" rx="2.4682" ry="3.2732" fill="#191421"/>
    <path d="M682.5408,148.3147c-1.2021,3.6685-2.0145,7.4701-2.7827,11.2496-.7517,3.6983-1.4005,7.4147-1.9452,11.1492-1.101,7.5476-1.8148,15.1346-2.1484,22.7547-.6731,15.3753-.0893,30.7747,.9434,46.1204,.2882,4.2826,.6116,8.5628,.9537,12.8414,.3482,4.3553,.8599,8.6918,1.3141,13.0363,.0742,.7094,1.1778,.7354,1.13,0-.4991-7.6773-1.0631-15.347-1.6054-23.0217-.5378-7.612-.9764-15.2321-1.2204-22.8596-.4872-15.2324-.1598-30.5026,1.556-45.6555,.4803-4.2415,1.1155-8.4651,1.8699-12.6663,.7678-4.2758,1.8062-8.4914,2.6628-12.748,.0955-.4747-.5755-.6652-.7278-.2006h0Z" fill="#191421"/>
    <path d="M678.7097,269.3623c-.2685,4.9048-.0732,9.871,.1778,14.7733,.2498,4.8784,.6378,9.747,1.1989,14.5999,1.1215,9.7007,2.8966,19.3227,5.2501,28.7994,1.3315,5.3615,2.8459,10.6888,4.7925,15.8629,.2402,.6384,1.226,.3964,1.0409-.287-2.5476-9.4045-5.1624-18.764-7.0148-28.3385s-3.1176-19.2522-3.9164-28.9713c-.4499-5.4741-.5234-10.9579-.808-16.4389-.0241-.4639-.6956-.4641-.721,0h0Z" fill="#191421"/>
    <path d="M690.6252,344.9813c1.0532,4.7447,2.1616,9.4771,3.1335,14.2395,.9713,4.7595,1.7328,9.5539,2.6224,14.3279,.0941,.5049,.968,.3964,.9069-.1227-.5673-4.8244-1.502-9.6113-2.4829-14.3668-.9892-4.7959-2.0968-9.5722-3.501-14.265-.1303-.4355-.7771-.2547-.679,.1872h0Z" fill="#191421"/>
    <path d="M642.5455,175.2022c2.0976,2.8871,3.2982,6.2587,4.1422,9.6962,.9024,3.6749,1.4636,7.4481,1.9895,11.1926,1.1126,7.9214,1.6464,15.9343,1.5361,23.9331-.0311,2.2581-.1054,4.5179-.2058,6.7739-.1002,2.2505-.1356,4.5077-.2649,6.7559-.0302,.5248,.8519,.6592,.9318,.1261,.3013-2.0122,.6135-4.0069,.7872-6.0363,.1721-2.0116,.2706-4.0282,.3181-6.0463,.0967-4.1147,.0244-8.2333-.2164-12.342-.4683-7.9921-1.5839-15.9662-3.4871-23.7461-.9465-3.8692-2.328-7.6939-4.9411-10.762-.273-.3205-.8409,.1086-.5894,.4548h0Z" fill="#191421"/>
    <path d="M638.9468,186.2477c.4264,1.051,1.1889,1.9927,1.8105,2.9362,.661,1.0032,1.3683,1.978,2.06,2.9602,.6925,.9834,1.386,1.9661,2.0799,2.9486,.664,.9401,1.2863,2.0004,2.0878,2.8292,.4052,.4191,1.0241-.1116,.7781-.6004-.5303-1.0536-1.3538-2.014-2.0381-2.973-.6771-.949-1.3548-1.8976-2.0332-2.8457s-1.3456-1.9073-2.0528-2.8343c-.6862-.8994-1.3317-1.9671-2.1849-2.7161-.2034-.1785-.6315-.0106-.5074,.2954h0Z" fill="#191421"/>
    <path d="M612.8546,217.7113c-.1314,1.4527,.1549,2.9608,.3446,4.3999,.1969,1.4933,.4562,2.9776,.7564,4.4534,.5885,2.8927,1.259,5.8468,2.4297,8.5633,.2103,.4879,.9134,.1229,.8169-.3444-.592-2.8671-1.4484-5.6793-2.0444-8.5503-.2896-1.3949-.5434-2.7969-.7851-4.2007-.2517-1.4626-.3386-3-.7644-4.4231-.1292-.4319-.7156-.319-.7537,.102h0Z" fill="#191421"/>
    <path d="M614.5568,215.7526c.0476,1.3909,.5837,2.7361,1.025,4.0444,.4525,1.3414,.9767,2.6616,1.5361,3.9619,1.1098,2.5802,2.3785,5.2044,4.1352,7.4114,.2917,.3665,.751-.1019,.596-.4599-1.0995-2.5385-2.4628-4.9593-3.5861-7.4902-.5626-1.2676-1.076-2.5528-1.5802-3.8443-.4927-1.2624-.8217-2.6201-1.517-3.7883-.1613-.271-.6203-.1658-.6089,.1649h0Z" fill="#191421"/>
    <polygon points="677.3072 305.6307 661.188 308.2213 656.5826 317.9337 663.0801 320.0228 675.868 316.8566 677.3072 305.6307" fill="#697fbc"/>
    <polygon points="677.3072 305.6307 661.188 308.2213 656.5826 317.9337 663.0801 320.0228 675.868 316.8566 677.3072 305.6307" fill="none" stroke="#191421" stroke-linecap="round" stroke-linejoin="round" stroke-width="1.0794"/>
    <path d="M792.304,487.0794c-.1402,0-.2814-.0105-.4238-.0327-.7231-.1149-17.7987-2.9515-25.2418-16.4768-.838-1.5232-1.6708-3.1286-2.5446-4.812-6.1023-11.7649-14.4603-27.8781-42.3721-46.4863-23.6669-15.7779-35.9526-50.0882-44.922-75.1413-3.642-10.1711-6.7864-18.955-9.8739-24.2857-8.1968-14.1515-33.3226-27.8465-55.4906-39.9292-6.4607-3.5218-12.564-6.848-18.1044-10.0958-25.461-14.9262-39.6251-44.0935-40.2154-45.3273-.643-1.344-.0748-2.9547,1.2681-3.5982,1.3472-.6441,2.9557-.0754,3.5998,1.2676,.1381,.2878,14.0682,28.9275,38.0777,43.002,5.4677,3.205,11.5341,6.5118,17.9578,10.013,22.7899,12.4222,48.622,26.5025,57.5766,41.9631,3.3331,5.7555,6.5545,14.7533,10.285,25.1711,8.7165,24.3437,20.6532,57.6821,42.8349,72.4702,29.0692,19.3798,37.7973,36.2056,44.1694,48.4923,.8528,1.6423,1.6644,3.2087,2.4824,4.695,6.1813,11.2337,21.2035,13.7235,21.3542,13.7467,1.4726,.233,2.4772,1.6149,2.2453,3.0864-.2098,1.3292-1.3577,2.2779-2.6627,2.2779Z" fill="#e65a55"/>
    <path d="M792.304,487.0794c-.1402,0-.2814-.0105-.4238-.0327-.7231-.1149-17.7987-2.9515-25.2418-16.4768-.838-1.5232-1.6708-3.1286-2.5446-4.812-6.1023-11.7649-14.4603-27.8781-42.3721-46.4863-23.6669-15.7779-35.9526-50.0882-44.922-75.1413-3.642-10.1711-6.7864-18.955-9.8739-24.2857-8.1968-14.1515-33.3226-27.8465-55.4906-39.9292-6.4607-3.5218-12.564-6.848-18.1044-10.0958-25.461-14.9262-39.6251-44.0935-40.2154-45.3273-.643-1.344-.0748-2.9547,1.2681-3.5982,1.3472-.6441,2.9557-.0754,3.5998,1.2676,.1381,.2878,14.0682,28.9275,38.0777,43.002,5.4677,3.205,11.5341,6.5118,17.9578,10.013,22.7899,12.4222,48.622,26.5025,57.5766,41.9631,3.3331,5.7555,6.5545,14.7533,10.285,25.1711,8.7165,24.3437,20.6532,57.6821,42.8349,72.4702,29.0692,19.3798,37.7973,36.2056,44.1694,48.4923,.8528,1.6423,1.6644,3.2087,2.4824,4.695,6.1813,11.2337,21.2035,13.7235,21.3542,13.7467,1.4726,.233,2.4772,1.6149,2.2453,3.0864-.2098,1.3292-1.3577,2.2779-2.6627,2.2779Z" fill="none" stroke="#191421" stroke-linecap="round" stroke-linejoin="round" stroke-width="1.0794"/>
    <path d="M675.0045,307.3578l-22.02,9.6427s-1.0074,5.0901,2.5906,7.7982c0,0-.4318,7.6014,4.4616,8.6089,0,0,1.871,5.1812,5.6129,5.6129,0,0,1.7271,3.4541,7.0521,3.4541s20.4368-19.7172,20.4368-19.7172l-18.1341-15.3996Z" fill="#697fbc"/>
    <path d="M675.0045,307.3578l-22.02,9.6427s-1.0074,5.0901,2.5906,7.7982c0,0-.4318,7.6014,4.4616,8.6089,0,0,1.871,5.1812,5.6129,5.6129,0,0,1.7271,3.4541,7.0521,3.4541s20.4368-19.7172,20.4368-19.7172l-18.1341-15.3996Z" fill="none" stroke="#191421" stroke-linecap="round" stroke-linejoin="round" stroke-width="1.0794"/>
    <path d="M759.0546,157.5356s-27.345,4.6055-26.7694,42.8886c0,0-11.2259,28.4964-8.6353,41.4494,0,0-35.4342,36.0197-42.7594,57.3004,0,0-5.3103,.4722-7.0374,7.1345-1.7271,6.6623,17.4576,27.0991,26.2872,14.4341,0,0,49.9911-38.5709,58.9143-63.3254,8.9232-24.7545,17.0042-85.5336,0-99.8815Z" fill="#c2cce0"/>
    <path d="M735.4379,179.5545c-2.0271,5.5033-3.2808,12.3531-3.1527,20.8697,0,0-11.2259,28.4964-8.6353,41.4494,0,0-35.4342,36.0197-42.7594,57.3004,0,0-5.3103,.4722-7.0374,7.1345-1.7271,6.6623,17.4576,27.0991,26.2872,14.4341,0,0,49.9911-38.5709,58.9143-63.3254,8.9232-24.7545,17.0042-85.5336,0-99.8815" fill="none" stroke="#191421" stroke-linecap="round" stroke-linejoin="round" stroke-width="1.0794"/>
    <path d="M734.1463,192.1757c1.856-3.5667,3.8414-7.0476,6.2481-10.2765,1.2033-1.6144,2.5019-3.1584,3.8789-4.6273,1.3864-1.4791,2.9068-2.8204,4.3202-4.2676,.3605-.3691-.1229-1.0652-.5723-.7417-1.6759,1.2064-3.1391,2.7027-4.5418,4.2155-1.3857,1.4944-2.6856,3.0672-3.901,4.703-2.4492,3.2964-4.5812,6.8911-6.0256,10.7445-.1291,.3445,.4247,.5743,.5934,.2502h0Z" fill="#191421"/>
    <path d="M725.5701,243.0462c1.1519,.215,2.3595,.1947,3.5262,.3042,1.2065,.1132,2.4064,.2797,3.5959,.5121,2.3607,.4614,4.6465,1.2148,6.9236,1.9733,.4608,.1535,.7717-.5684,.333-.7899-2.2257-1.1238-4.6308-1.8059-7.0772-2.2637-1.173-.2195-2.3576-.3814-3.5471-.478-1.2211-.0992-2.5475-.2002-3.7543,.059-.3326,.0715-.3432,.619,0,.6831h0Z" fill="#191421"/>
    <path d="M728.6287,241.3191c1.2729-.184,2.6049-.1535,3.8881-.1596,1.2553-.0059,2.5119,.0542,3.7597,.1932,1.2364,.1377,2.4632,.3594,3.6709,.6579,1.1985,.2962,2.3998,.8093,3.6298,.9323,.4121,.0412,.4578-.5093,.1905-.7032-1.0173-.7382-2.4312-1.0408-3.6356-1.3281-1.2684-.3026-2.5584-.5202-3.8556-.6547-1.2834-.1331-2.5844-.1907-3.8738-.1232-1.3444,.0704-2.625,.3355-3.9456,.5634-.4124,.0712-.2316,.6803,.1715,.6221h0Z" fill="#191421"/>
    <path d="M680.7134,301.9467c.9014,1.7629,2.2262,3.4008,3.5123,4.8994,1.3284,1.5479,2.7385,3.0199,4.2315,4.41,2.9514,2.7479,6.2086,5.3546,9.877,7.0745,.542,.2541,.937-.4418,.4639-.7937-3.2028-2.3823-6.4745-4.6432-9.4299-7.3408-1.4522-1.3255-2.8469-2.7194-4.1688-4.175-1.337-1.4722-2.5677-3.0625-3.9529-4.4858-.2773-.2849-.7046,.0759-.5331,.4113h0Z" fill="#191421"/>
    <polygon points="552.0956 227.4814 560.7986 222.9767 552.8507 207.8545 544.18 211.65 552.0956 227.4814" fill="#e65a55"/>
    <polygon points="552.0956 227.4814 560.7986 222.9767 552.8507 207.8545 544.18 211.65 552.0956 227.4814" fill="none" stroke="#191421" stroke-linecap="round" stroke-linejoin="round" stroke-width="1.0794"/>
    <g>
      <path d="M532.405,199.0735l12.0628-1.502c1.5789,1.4737,2.1109,3.22,1.5831,5.2422l-12.1943,3.4621c-1.6871,.479-3.5243-.2721-4.2856-1.8521-.0284-.0589-.0565-.1189-.0844-.1801-1.0273-2.2549,.4595-4.864,2.9184-5.1702Z" fill="#697fbc"/>
      <path d="M546.0509,202.8137l-12.1943,3.4621s-1.6221,4.4104,3.1273,6.6194l11.2259-5.0407c.7182-2.2053-.0873-3.8541-2.1588-5.0407Z" fill="#697fbc"/>
      <path d="M548.2097,207.8545l-11.2259,5.0407s1.0074,5.5191,5.6129,5.807l8.7792-5.807s-.4318-2.9355-3.1663-5.0407Z" fill="#697fbc"/>
      <path d="M551.376,212.8952l-8.7792,5.807s1.5831,3.9436,6.4765,4.2746l5.7569-5.2654s-1.0075-2.7074-3.4541-4.8161Z" fill="#697fbc"/>
    </g>
    <g>
      <path d="M532.405,199.0735l12.0628-1.502c1.5789,1.4737,2.1109,3.22,1.5831,5.2422l-12.1943,3.4621c-1.6871,.479-3.5243-.2721-4.2856-1.8521-.0284-.0589-.0565-.1189-.0844-.1801-1.0273-2.2549,.4595-4.864,2.9184-5.1702Z" fill="none" stroke="#191421" stroke-linecap="round" stroke-linejoin="round" stroke-width="1.0794"/>
      <path d="M546.0509,202.8137l-12.1943,3.4621s-1.6221,4.4104,3.1273,6.6194l11.2259-5.0407c.7182-2.2053-.0873-3.8541-2.1588-5.0407Z" fill="none" stroke="#191421" stroke-linecap="round" stroke-linejoin="round" stroke-width="1.0794"/>
      <path d="M548.2097,207.8545l-11.2259,5.0407s1.0074,5.5191,5.6129,5.807l8.7792-5.807s-.4318-2.9355-3.1663-5.0407Z" fill="none" stroke="#191421" stroke-linecap="round" stroke-linejoin="round" stroke-width="1.0794"/>
      <path d="M551.376,212.8952l-8.7792,5.807s1.5831,3.9436,6.4765,4.2746l5.7569-5.2654s-1.0075-2.7074-3.4541-4.8161Z" fill="none" stroke="#191421" stroke-linecap="round" stroke-linejoin="round" stroke-width="1.0794"/>
    </g>
  </g>
</svg>