<?xml version="1.0" encoding="UTF-8"?>
<svg id="Car_Mechanic_with_Client" data-name="Car Mechanic with Client" xmlns="http://www.w3.org/2000/svg" viewBox="0 0 800 600">
  <g>
    <path d="M616.1879,420.0854h99.5492v147.3811c0,15.1936-12.3353,27.5288-27.5288,27.5288h-44.4915c-15.1936,0-27.5288-12.3353-27.5288-27.5288v-147.3811h0Z" fill="#2c2535"/>
    <path d="M616.1879,420.0854h99.5492v147.3811c0,15.1936-12.3353,27.5288-27.5288,27.5288h-44.4915c-15.1936,0-27.5288-12.3353-27.5288-27.5288v-147.3811h0Z" fill="none" stroke="#191421" stroke-linecap="round" stroke-linejoin="round" stroke-width="1.1879"/>
    <path d="M84.2629,420.0854h99.5492v147.3811c0,15.1936-12.3353,27.5288-27.5288,27.5288h-44.4915c-15.1936,0-27.5288-12.3353-27.5288-27.5288v-147.3811h0Z" fill="#2c2535"/>
    <path d="M84.2629,420.0854h99.5492v147.3811c0,15.1936-12.3353,27.5288-27.5288,27.5288h-44.4915c-15.1936,0-27.5288-12.3353-27.5288-27.5288v-147.3811h0Z" fill="none" stroke="#191421" stroke-linecap="round" stroke-linejoin="round" stroke-width="1.1879"/>
    <path d="M550.9457,476.6286H249.0543l-35.6312,76.8407h20.716c6.2837,0,12.4518-1.6895,17.8585-4.8916l2.4323-1.4405c7.5536-4.4736,16.1711-6.834,24.9501-6.834h241.2402c8.779,0,17.3965,2.3604,24.9501,6.834l2.4323,1.4405c5.4066,3.2021,11.5747,4.8916,17.8585,4.8916h20.716l-35.6312-76.8407Z" fill="#2c2535"/>
    <path d="M550.9457,476.6286H249.0543l-35.6312,76.8407h20.716c6.2837,0,12.4518-1.6895,17.8585-4.8916l2.4323-1.4405c7.5536-4.4736,16.1711-6.834,24.9501-6.834h241.2402c8.779,0,17.3965,2.3604,24.9501,6.834l2.4323,1.4405c5.4066,3.2021,11.5747,4.8916,17.8585,4.8916h20.716l-35.6312-76.8407Z" fill="none" stroke="#191421" stroke-linecap="round" stroke-linejoin="round" stroke-width="1.1879"/>
    <path d="M586.5752,537.0259h-20.7084c-6.2946,0-12.4564-1.6915-17.8691-4.8931l-2.4285-1.4377c-7.5512-4.4703-16.1656-6.8263-24.9491-6.8263h-241.2389c-8.7836,0-17.3979,2.356-24.949,6.8263l-2.4406,1.4377c-5.4006,3.2017-11.5745,4.8931-17.8571,4.8931h-20.7083l3.1775-6.8505h17.5308c6.2826,0,12.4564-1.6793,17.8571-4.8931l2.4406-1.4377c7.5512-4.4703,16.1655-6.8262,24.949-6.8262h241.2389c8.7836,0,17.3979,2.3559,24.9491,6.8262l2.4285,1.4377c5.4127,3.2138,11.5745,4.8931,17.8691,4.8931h17.5308l3.1775,6.8505Z" fill="#413f4d"/>
    <path d="M586.5752,537.0259h-20.7084c-6.2946,0-12.4564-1.6915-17.8691-4.8931l-2.4285-1.4377c-7.5512-4.4703-16.1656-6.8263-24.9491-6.8263h-241.2389c-8.7836,0-17.3979,2.356-24.949,6.8263l-2.4406,1.4377c-5.4006,3.2017-11.5745,4.8931-17.8571,4.8931h-20.7083l3.1775-6.8505h17.5308c6.2826,0,12.4564-1.6793,17.8571-4.8931l2.4406-1.4377c7.5512-4.4703,16.1655-6.8262,24.949-6.8262h241.2389c8.7836,0,17.3979,2.3559,24.9491,6.8262l2.4285,1.4377c5.4127,3.2138,11.5745,4.8931,17.8691,4.8931h17.5308l3.1775,6.8505Z" fill="none" stroke="#191421" stroke-linecap="round" stroke-linejoin="round" stroke-width="1.1879"/>
    <path d="M550.3805,428.3011H249.6195l-150.3806,62.3425,1.7047,24.6233c1.4894,21.5125,19.3747,38.2025,40.9388,38.2025h71.5406c5.4205,0,9.9058-4.0117,10.7589-9.3646,1.962-12.3116,7.7596-23.7833,16.6868-32.7105l11.5383-11.5383c11.159-11.1591,26.2939-17.4281,42.0752-17.4281h211.0356c15.7812,0,30.9162,6.269,42.0752,17.4281l11.5383,11.5383c8.9272,8.9272,14.7249,20.3989,16.6868,32.7105,.853,5.3529,5.3384,9.3646,10.7589,9.3646h71.5406c21.5641,0,39.4494-16.69,40.9388-38.2025l1.7047-24.6233-150.3806-62.3425Z" fill="#697fbc"/>
    <path d="M550.3805,428.3011H249.6195l-150.3806,62.3425,1.7047,24.6233c1.4894,21.5125,19.3747,38.2025,40.9388,38.2025h71.5406c5.4205,0,9.9058-4.0117,10.7589-9.3646,1.962-12.3116,7.7596-23.7833,16.6868-32.7105l11.5383-11.5383c11.159-11.1591,26.2939-17.4281,42.0752-17.4281h211.0356c15.7812,0,30.9162,6.269,42.0752,17.4281l11.5383,11.5383c8.9272,8.9272,14.7249,20.3989,16.6868,32.7105,.853,5.3529,5.3384,9.3646,10.7589,9.3646h71.5406c21.5641,0,39.4494-16.69,40.9388-38.2025l1.7047-24.6233-150.3806-62.3425Z" fill="none" stroke="#191421" stroke-linecap="round" stroke-linejoin="round" stroke-width="1.1879"/>
    <g>
      <path d="M655.6526,205.6723h16.7535s-1.6166-6.9584-1.4356-15.0317c.3087-13.7653,12.7429-23.9203,26.2943-21.4836,8.0716,1.4513,16.1124,3.5555,24.122,6.3195,5.9716,2.0607,10.9555,6.4063,13.5861,12.1497,2.0363,4.4458,3.3835,9.0768,3.9487,13.9179,.5949,5.0954-2.6922,9.8518-7.6623,11.1225-14.6029,3.7334-34.8012,4.8204-56.9202,4.9989l-13.8539,3.7938-4.8328-15.787Z" fill="#697fbc"/>
      <path d="M144.3474,205.6723h-16.7535s1.6166-6.9584,1.4356-15.0317c-.3087-13.7653-12.7429-23.9203-26.2943-21.4836-8.0716,1.4513-16.1124,3.5555-24.122,6.3195-5.9716,2.0607-10.9555,6.4063-13.5861,12.1497-2.0363,4.4458-3.3835,9.0768-3.9487,13.9179-.5949,5.0954,2.6922,9.8518,7.6623,11.1225,14.6029,3.7334,34.8012,4.8204,56.9202,4.9989l13.8539,3.7938,4.8328-15.787Z" fill="#697fbc"/>
      <g>
        <path d="M655.6526,205.6723h16.7535s-1.6166-6.9584-1.4356-15.0317c.3087-13.7653,12.7429-23.9203,26.2943-21.4836,8.0716,1.4513,16.1124,3.5555,24.122,6.3195,5.9716,2.0607,10.9555,6.4063,13.5861,12.1497,2.0363,4.4458,3.3835,9.0768,3.9487,13.9179,.5949,5.0954-2.6922,9.8518-7.6623,11.1225-14.6029,3.7334-34.8012,4.8204-56.9202,4.9989l-13.8539,3.7938-4.8328-15.787Z" fill="none" stroke="#191421" stroke-linecap="round" stroke-linejoin="round" stroke-width="1.1879"/>
        <path d="M144.3474,205.6723h-16.7535s1.6166-6.9584,1.4356-15.0317c-.3087-13.7653-12.7429-23.9203-26.2943-21.4836-8.0716,1.4513-16.1124,3.5555-24.122,6.3195-5.9716,2.0607-10.9555,6.4063-13.5861,12.1497-2.0363,4.4458-3.3835,9.0768-3.9487,13.9179-.5949,5.0954,2.6922,9.8518,7.6623,11.1225,14.6029,3.7334,34.8012,4.8204,56.9202,4.9989l13.8539,3.7938,4.8328-15.787Z" fill="none" stroke="#191421" stroke-linecap="round" stroke-linejoin="round" stroke-width="1.1879"/>
      </g>
    </g>
    <path d="M666.7652,221.1371s-27.8124-96.0304-67.6585-142.4052c-35.1003-40.8514-363.1131-40.8514-398.2133,0-39.8461,46.3748-67.6585,142.4052-67.6585,142.4052l-48.9719,105.6762v95.3663l14.1761,77.324,10.9542,3.8662s13.5317,28.3522,85.0565,18.0423c0,0,34.7958-80.5459,145.6269-79.9015h119.8468c110.8311-.6444,145.6269,79.9015,145.6269,79.9015,71.5248,10.3099,85.0565-18.0423,85.0565-18.0423l10.9542-3.8662,14.1761-77.324v-95.3663l-48.9719-105.6762Z" fill="#697fbc"/>
    <path d="M666.7652,221.1371s-27.8124-96.0304-67.6585-142.4052c-35.1003-40.8514-363.1131-40.8514-398.2133,0-39.8461,46.3748-67.6585,142.4052-67.6585,142.4052l-48.9719,105.6762v95.3663l14.1761,77.324,10.9542,3.8662s13.5317,28.3522,85.0565,18.0423c0,0,34.7958-80.5459,145.6269-79.9015h119.8468c110.8311-.6444,145.6269,79.9015,145.6269,79.9015,71.5248,10.3099,85.0565-18.0423,85.0565-18.0423l10.9542-3.8662,14.1761-77.324v-95.3663l-48.9719-105.6762Z" fill="none" stroke="#191421" stroke-linecap="round" stroke-linejoin="round" stroke-width="1.1879"/>
    <rect x="342.5681" y="435.0669" width="114.8639" height="55.8183" rx="6.0409" ry="6.0409" fill="#c2cce0"/>
    <rect x="347.1592" y="438.9331" width="105.6817" height="48.0859" rx="5.3782" ry="5.3782" fill="none" stroke="#191421" stroke-linecap="round" stroke-linejoin="round" stroke-width="1.1879"/>
    <path d="M249.943,410.4199h300.114c0,10.9358-8.8785,19.8143-19.8143,19.8143H269.7573c-10.9358,0-19.8143-8.8785-19.8143-19.8143h0Z" fill="#2c2535"/>
    <path d="M249.943,410.4199h300.114c0,10.9358-8.8785,19.8143-19.8143,19.8143H269.7573c-10.9358,0-19.8143-8.8785-19.8143-19.8143h0Z" fill="none" stroke="#191421" stroke-linecap="round" stroke-linejoin="round" stroke-width="1.1879"/>
    <circle cx="155.5895" cy="420.0854" r="18.8477" fill="#c2cce0"/>
    <circle cx="155.5895" cy="420.0854" r="18.8477" fill="none" stroke="#191421" stroke-linecap="round" stroke-linejoin="round" stroke-width="1.1879"/>
    <path d="M131.8933,467.9192l57.7853,7.0312c8.0116,.9748,12.883,9.4043,9.6384,16.794-2.5921,5.9035-6.2929,10.956-11.3848,14.9408-2.4001,1.8783-5.4806,2.6621-8.5114,2.3411l-45.3282-4.7999c-3.387-.3587-6.4995-2.111-8.4844-4.8788-4.6499-6.4842-7.0937-12.9183-7.2631-19.3008-.1939-7.3027,6.2965-13.01,13.5483-12.1276Z" fill="#413f4d"/>
    <path d="M131.8933,467.9192l57.7853,7.0312c8.0116,.9748,12.883,9.4043,9.6384,16.794-2.5921,5.9035-6.2929,10.956-11.3848,14.9408-2.4001,1.8783-5.4806,2.6621-8.5114,2.3411l-45.3282-4.7999c-3.387-.3587-6.4995-2.111-8.4844-4.8788-4.6499-6.4842-7.0937-12.9183-7.2631-19.3008-.1939-7.3027,6.2965-13.01,13.5483-12.1276Z" fill="none" stroke="#191421" stroke-linecap="round" stroke-linejoin="round" stroke-width="1.1879"/>
    <path d="M191.5465,475.3441c-.6034-.1715-1.2211-.315-1.868-.3937l-57.7852-7.0313c-7.2519-.8824-13.7421,4.8249-13.5483,12.1277,.0468,1.7632,.2848,3.5308,.6773,5.302l50.4847,4.498c3.6021,.3209,7.2633-.4629,10.1158-2.3412,5.0762-3.3424,8.9759-7.4445,11.9237-12.1615Z" fill="#2c2535"/>
    <path d="M191.5465,475.3441c-.6034-.1715-1.2211-.315-1.868-.3937l-57.7852-7.0313c-7.2519-.8824-13.7421,4.8249-13.5483,12.1277,.0468,1.7632,.2848,3.5308,.6773,5.302l50.4847,4.498c3.6021,.3209,7.2633-.4629,10.1158-2.3412,5.0762-3.3424,8.9759-7.4445,11.9237-12.1615Z" fill="none" stroke="#191421" stroke-linecap="round" stroke-linejoin="round" stroke-width="1.1879"/>
    <path d="M200.2087,488.6621c-.1571,1.039-.447,2.066-.8941,3.0809-2.5855,5.9081-6.2946,10.9583-11.3811,14.9453-2.4043,1.8728-5.4851,2.658-8.5177,2.3439l-45.3192-4.8086c-3.395-.3503-6.5001-2.1022-8.4935-4.8811-2.8876-4.0233-4.9294-8.0345-6.1014-12.0336,2.3681,2.5976,5.9564,4.2408,9.8347,4.5911l53.8731,4.7965c3.6004,.3262,7.2612-.4591,10.1125-2.3439,2.5855-1.7036,4.8811-3.6125,6.8867-5.6906Z" fill="#2c2535"/>
    <path d="M200.2087,488.6621c-.1571,1.039-.447,2.066-.8941,3.0809-2.5855,5.9081-6.2946,10.9583-11.3811,14.9453-2.4043,1.8728-5.4851,2.658-8.5177,2.3439l-45.3192-4.8086c-3.395-.3503-6.5001-2.1022-8.4935-4.8811-2.8876-4.0233-4.9294-8.0345-6.1014-12.0336,2.3681,2.5976,5.9564,4.2408,9.8347,4.5911l53.8731,4.7965c3.6004,.3262,7.2612-.4591,10.1125-2.3439,2.5855-1.7036,4.8811-3.6125,6.8867-5.6906Z" fill="none" stroke="#191421" stroke-linecap="round" stroke-linejoin="round" stroke-width="1.1879"/>
    <path d="M265.0078,348.1607h0c0,8.8553-5.9748,16.6017-14.5498,18.8118-13.7199,3.5362-34.9298,7.4394-53.7531,4.3021-30.9296-5.1549-39.6286-1.245-48.0053,1.1495s-38.4661,5.9917-40.9173-16.6143c-2.8997-26.7412,7.9806-42.8504,28.9595-45.4279,16.054-1.9724,82.6503,12.0923,113.033,18.8044,8.9016,1.9665,15.233,9.8581,15.233,18.9743Z" fill="#c2cce0"/>
    <path d="M265.0078,348.1607h0c0,8.8553-5.9748,16.6017-14.5498,18.8118-13.7199,3.5362-34.9298,7.4394-53.7531,4.3021-30.9296-5.1549-39.6286-1.245-48.0053,1.1495s-38.4661,5.9917-40.9173-16.6143c-2.8997-26.7412,7.9806-42.8504,28.9595-45.4279,16.054-1.9724,82.6503,12.0923,113.033,18.8044,8.9016,1.9665,15.233,9.8581,15.233,18.9743Z" fill="none" stroke="#191421" stroke-linecap="round" stroke-linejoin="round" stroke-width="1.1879"/>
    <path d="M249.943,346.2106h0c0,6.3545-4.3892,11.8559-10.583,13.2757-11.6019,2.6594-30.8267,5.9394-47.7847,3.5381-26.4306-3.7426-33.8643-.9039-41.0225,.8346s-32.8708,4.3501-34.9655-12.0623c-2.4779-19.4146,6.8197-31.1101,24.7471-32.9814,14.0701-1.4687,73.5705,9.3097,98.5235,14.0158,6.4338,1.2134,11.0851,6.8323,11.0851,13.3795Z" fill="#2c2535"/>
    <path d="M240.6827,333.321c-.5915-.1992-1.1967-.3714-1.8248-.4899-7.601-1.4335-18.4136-3.4309-30.1653-5.4736-3.1812,3.4337-5.1412,8.0152-5.1412,13.0652,0,10.6317,8.6187,19.2505,19.2504,19.2505s19.2505-8.6187,19.2505-19.2505c0-2.5108-.4951-4.9024-1.3695-7.1017Z" fill="#413f4d"/>
    <path d="M154.2074,336.9853c0,11.7736,9.5444,21.318,21.3181,21.318s21.318-9.5443,21.318-21.318c0-4.5816-1.4588-8.8151-3.9184-12.2905-10.7394-1.7538-21.4299-3.3616-30.5382-4.4747-4.9729,3.9026-8.1794,9.9535-8.1794,16.7652Z" fill="#413f4d"/>
    <path d="M240.6827,333.321c-.5915-.1992-1.1967-.3714-1.8248-.4899-7.601-1.4335-18.4136-3.4309-30.1653-5.4736-3.1812,3.4337-5.1412,8.0152-5.1412,13.0652,0,10.6317,8.6187,19.2505,19.2504,19.2505s19.2505-8.6187,19.2505-19.2505c0-2.5108-.4951-4.9024-1.3695-7.1017Z" fill="none" stroke="#191421" stroke-linecap="round" stroke-linejoin="round" stroke-width="1.1879"/>
    <path d="M154.2074,336.9853c0,11.7736,9.5444,21.318,21.3181,21.318s21.318-9.5443,21.318-21.318c0-4.5816-1.4588-8.8151-3.9184-12.2905-10.7394-1.7538-21.4299-3.3616-30.5382-4.4747-4.9729,3.9026-8.1794,9.9535-8.1794,16.7652Z" fill="none" stroke="#191421" stroke-linecap="round" stroke-linejoin="round" stroke-width="1.1879"/>
    <path d="M249.943,346.2106h0c0,6.3545-4.3892,11.8559-10.583,13.2757-11.6019,2.6594-30.8267,5.9394-47.7847,3.5381-26.4306-3.7426-33.8643-.9039-41.0225,.8346s-32.8708,4.3501-34.9655-12.0623c-2.4779-19.4146,6.8197-31.1101,24.7471-32.9814,14.0701-1.4687,73.5705,9.3097,98.5235,14.0158,6.4338,1.2134,11.0851,6.8323,11.0851,13.3795Z" fill="none" stroke="#191421" stroke-linecap="round" stroke-linejoin="round" stroke-width="1.1879"/>
    <path d="M295.2119,327.3576h75.3909c13.3363,0,24.1638,10.8274,24.1638,24.1638v20.5587c0,14.67-11.9102,26.5801-26.5801,26.5801h-49.9995c-26.0166,0-47.1388-21.1222-47.1388-47.1388h0c0-13.3364,10.8274-24.1638,24.1638-24.1638Z" fill="#2c2535"/>
    <g>
      <path d="M380.0475,329.2659v66.5953c-3.5763,1.8002-7.5995,2.803-11.8644,2.803h-.2175v-71.3073h2.6338c3.3588,0,6.5484,.6766,9.448,1.909Z" fill="#413f4d"/>
      <rect x="340.5639" y="327.3569" width="12.0819" height="71.3073" fill="#413f4d"/>
      <path d="M325.2441,327.3569v71.3073h-7.0559c-1.6914,0-3.3708-.0846-5.026-.2658v-71.0415h12.0819Z" fill="#413f4d"/>
      <path d="M297.8544,327.3569v66.7041c-4.4581-2.1385-8.5298-4.9535-12.0819-8.3244v-56.4707c2.8997-1.2324,6.0893-1.909,9.436-1.909h2.6459Z" fill="#413f4d"/>
    </g>
    <path d="M295.2119,327.3576h75.3909c13.3363,0,24.1638,10.8274,24.1638,24.1638v20.5587c0,14.67-11.9102,26.5801-26.5801,26.5801h-49.9995c-26.0166,0-47.1388-21.1222-47.1388-47.1388h0c0-13.3364,10.8274-24.1638,24.1638-24.1638Z" fill="none" stroke="#191421" stroke-linecap="round" stroke-linejoin="round" stroke-width="1.1879"/>
    <circle cx="644.4112" cy="420.0854" r="18.8477" fill="#c2cce0"/>
    <circle cx="644.4112" cy="420.0854" r="18.8477" fill="none" stroke="#191421" stroke-linecap="round" stroke-linejoin="round" stroke-width="1.1879"/>
    <path d="M668.1075,467.9192l-57.7853,7.0312c-8.0116,.9748-12.883,9.4043-9.6384,16.794,2.5921,5.9035,6.2929,10.956,11.3848,14.9408,2.4001,1.8783,5.4806,2.6621,8.5114,2.3411l45.3282-4.7999c3.387-.3587,6.4995-2.111,8.4844-4.8788,4.6499-6.4842,7.0937-12.9183,7.2631-19.3008,.1939-7.3027-6.2965-13.01-13.5483-12.1276Z" fill="#413f4d"/>
    <path d="M668.1075,467.9192l-57.7853,7.0312c-8.0116,.9748-12.883,9.4043-9.6384,16.794,2.5921,5.9035,6.2929,10.956,11.3848,14.9408,2.4001,1.8783,5.4806,2.6621,8.5114,2.3411l45.3282-4.7999c3.387-.3587,6.4995-2.111,8.4844-4.8788,4.6499-6.4842,7.0937-12.9183,7.2631-19.3008,.1939-7.3027-6.2965-13.01-13.5483-12.1276Z" fill="none" stroke="#191421" stroke-linecap="round" stroke-linejoin="round" stroke-width="1.1879"/>
    <path d="M608.4542,475.3441c.6034-.1715,1.2211-.315,1.868-.3937l57.7852-7.0313c7.2519-.8824,13.7421,4.8249,13.5483,12.1277-.0468,1.7632-.2848,3.5308-.6773,5.302l-50.4847,4.498c-3.6021,.3209-7.2633-.4629-10.1158-2.3412-5.0762-3.3424-8.9759-7.4445-11.9237-12.1615Z" fill="#2c2535"/>
    <path d="M608.4542,475.3441c.6034-.1715,1.2211-.315,1.868-.3937l57.7852-7.0313c7.2519-.8824,13.7421,4.8249,13.5483,12.1277-.0468,1.7632-.2848,3.5308-.6773,5.302l-50.4847,4.498c-3.6021,.3209-7.2633-.4629-10.1158-2.3412-5.0762-3.3424-8.9759-7.4445-11.9237-12.1615Z" fill="none" stroke="#191421" stroke-linecap="round" stroke-linejoin="round" stroke-width="1.1879"/>
    <path d="M599.792,488.6621c.1571,1.039,.447,2.066,.8941,3.0809,2.5855,5.9081,6.2946,10.9583,11.3811,14.9453,2.4043,1.8728,5.4851,2.658,8.5177,2.3439l45.3192-4.8086c3.395-.3503,6.5001-2.1022,8.4935-4.8811,2.8876-4.0233,4.9294-8.0345,6.1014-12.0336-2.3681,2.5976-5.9564,4.2408-9.8347,4.5911l-53.8731,4.7965c-3.6004,.3262-7.2612-.4591-10.1125-2.3439-2.5855-1.7036-4.8811-3.6125-6.8867-5.6906Z" fill="#2c2535"/>
    <path d="M599.792,488.6621c.1571,1.039,.447,2.066,.8941,3.0809,2.5855,5.9081,6.2946,10.9583,11.3811,14.9453,2.4043,1.8728,5.4851,2.658,8.5177,2.3439l45.3192-4.8086c3.395-.3503,6.5001-2.1022,8.4935-4.8811,2.8876-4.0233,4.9294-8.0345,6.1014-12.0336-2.3681,2.5976-5.9564,4.2408-9.8347,4.5911l-53.8731,4.7965c-3.6004,.3262-7.2612-.4591-10.1125-2.3439-2.5855-1.7036-4.8811-3.6125-6.8867-5.6906Z" fill="none" stroke="#191421" stroke-linecap="round" stroke-linejoin="round" stroke-width="1.1879"/>
    <path d="M534.9929,348.1607h0c0,8.8553,5.9748,16.6017,14.5498,18.8118,13.7199,3.5362,34.9298,7.4394,53.7531,4.3021,30.9296-5.1549,39.6286-1.245,48.0053,1.1495,8.3768,2.3945,38.4661,5.9917,40.9173-16.6143,2.8997-26.7412-7.9806-42.8504-28.9595-45.4279-16.054-1.9724-82.6503,12.0923-113.033,18.8044-8.9016,1.9665-15.233,9.8581-15.233,18.9743Z" fill="#c2cce0"/>
    <path d="M534.9929,348.1607h0c0,8.8553,5.9748,16.6017,14.5498,18.8118,13.7199,3.5362,34.9298,7.4394,53.7531,4.3021,30.9296-5.1549,39.6286-1.245,48.0053,1.1495,8.3768,2.3945,38.4661,5.9917,40.9173-16.6143,2.8997-26.7412-7.9806-42.8504-28.9595-45.4279-16.054-1.9724-82.6503,12.0923-113.033,18.8044-8.9016,1.9665-15.233,9.8581-15.233,18.9743Z" fill="none" stroke="#191421" stroke-linecap="round" stroke-linejoin="round" stroke-width="1.1879"/>
    <path d="M550.0577,346.2106h0c0,6.3545,4.3892,11.8559,10.583,13.2757,11.6019,2.6594,30.8267,5.9394,47.7847,3.5381,26.4306-3.7426,33.8643-.9039,41.0225,.8346,7.1583,1.7385,32.8708,4.3501,34.9655-12.0623,2.4779-19.4146-6.8197-31.1101-24.7471-32.9814-14.0701-1.4687-73.5705,9.3097-98.5235,14.0158-6.4338,1.2134-11.0851,6.8323-11.0851,13.3795Z" fill="#2c2535"/>
    <path d="M559.318,333.321c.5915-.1992,1.1967-.3714,1.8248-.4899,7.601-1.4335,18.4136-3.4309,30.1653-5.4736,3.1812,3.4337,5.1412,8.0152,5.1412,13.0652,0,10.6317-8.6187,19.2505-19.2504,19.2505-10.6317,0-19.2505-8.6187-19.2505-19.2505,0-2.5108,.4951-4.9024,1.3695-7.1017Z" fill="#413f4d"/>
    <path d="M559.318,333.321c.5915-.1992,1.1967-.3714,1.8248-.4899,7.601-1.4335,18.4136-3.4309,30.1653-5.4736,3.1812,3.4337,5.1412,8.0152,5.1412,13.0652,0,10.6317-8.6187,19.2505-19.2504,19.2505-10.6317,0-19.2505-8.6187-19.2505-19.2505,0-2.5108,.4951-4.9024,1.3695-7.1017Z" fill="none" stroke="#191421" stroke-linecap="round" stroke-linejoin="round" stroke-width="1.1879"/>
    <path d="M645.7934,336.9853c0,11.7736-9.5444,21.318-21.3181,21.318-11.7736,0-21.318-9.5443-21.318-21.318,0-4.5816,1.4588-8.8151,3.9184-12.2905,10.7394-1.7538,21.4299-3.3616,30.5382-4.4747,4.9729,3.9026,8.1794,9.9535,8.1794,16.7652Z" fill="#413f4d"/>
    <path d="M645.7934,336.9853c0,11.7736-9.5444,21.318-21.3181,21.318-11.7736,0-21.318-9.5443-21.318-21.318,0-4.5816,1.4588-8.8151,3.9184-12.2905,10.7394-1.7538,21.4299-3.3616,30.5382-4.4747,4.9729,3.9026,8.1794,9.9535,8.1794,16.7652Z" fill="none" stroke="#191421" stroke-linecap="round" stroke-linejoin="round" stroke-width="1.1879"/>
    <path d="M550.0577,346.2106h0c0,6.3545,4.3892,11.8559,10.583,13.2757,11.6019,2.6594,30.8267,5.9394,47.7847,3.5381,26.4306-3.7426,33.8643-.9039,41.0225,.8346,7.1583,1.7385,32.8708,4.3501,34.9655-12.0623,2.4779-19.4146-6.8197-31.1101-24.7471-32.9814-14.0701-1.4687-73.5705,9.3097-98.5235,14.0158-6.4338,1.2134-11.0851,6.8323-11.0851,13.3795Z" fill="none" stroke="#191421" stroke-linecap="round" stroke-linejoin="round" stroke-width="1.1879"/>
    <path d="M610.8031,112.8647c-7.9548-16.0667-23.0205-27.4975-40.6901-30.5312-51.1832-8.7875-289.042-8.7875-340.2252,0-17.6696,3.0337-32.7353,14.4645-40.6901,30.5312-23.259,46.9771-34.9903,103.1175-34.9903,103.1175h491.586s-11.7313-56.1404-34.9903-103.1175Z" fill="#c2cce0"/>
    <path d="M610.8031,112.8647c-7.9548-16.0667-23.0205-27.4975-40.6901-30.5312-51.1832-8.7875-289.042-8.7875-340.2252,0-17.6696,3.0337-32.7353,14.4645-40.6901,30.5312-23.259,46.9771-34.9903,103.1175-34.9903,103.1175h491.586s-11.7313-56.1404-34.9903-103.1175Z" fill="none" stroke="#191421" stroke-linecap="round" stroke-linejoin="round" stroke-width="1.1879"/>
    <path d="M599.6134,116.0037c-7.5326-14.5383-21.7986-24.8817-38.5303-27.6267-48.4663-7.9515-273.6993-7.9515-322.1656,0-16.7317,2.7451-30.9977,13.0885-38.5303,27.6267-16.9447,32.7043-27.4282,70.3165-31.3626,85.9263-.9448,3.7486,1.8958,7.3816,5.7617,7.3816h450.428c3.8659,0,6.7065-3.6329,5.7617-7.3816-3.9344-15.6098-14.4179-53.2221-31.3626-85.9263Z" fill="none" stroke="#191421" stroke-linecap="round" stroke-linejoin="round" stroke-width="1.1879"/>
    <path d="M452.373,327.3576h49.9995c14.67,0,26.5801,11.9102,26.5801,26.5801v20.5587c0,13.3363-10.8274,24.1638-24.1638,24.1638h-75.3909c-13.3363,0-24.1638-10.8274-24.1638-24.1638h0c0-26.0167,21.1222-47.1389,47.1388-47.1389Z" transform="translate(934.1868 726.0178) rotate(-180)" fill="#2c2535"/>
    <g>
      <path d="M419.9532,329.2659v66.5953c3.5763,1.8002,7.5995,2.803,11.8644,2.803h.2175s0-71.3073,0-71.3073h-2.6338c-3.3588,0-6.5484,.6766-9.448,1.909Z" fill="#413f4d"/>
      <rect x="447.3549" y="327.3569" width="12.0819" height="71.3073" fill="#413f4d"/>
      <path d="M474.7566,327.3569v71.3073s7.0559,0,7.0559,0c1.6914,0,3.3708-.0846,5.026-.2658v-71.0415s-12.0819,0-12.0819,0Z" fill="#413f4d"/>
      <path d="M502.1463,327.3569v66.7041c4.4581-2.1385,8.5298-4.9535,12.0819-8.3244v-56.4707c-2.8997-1.2324-6.0893-1.909-9.436-1.909h-2.6459Z" fill="#413f4d"/>
    </g>
    <path d="M452.373,327.3576h49.9995c14.67,0,26.5801,11.9102,26.5801,26.5801v20.5587c0,13.3363-10.8274,24.1638-24.1638,24.1638h-75.3909c-13.3363,0-24.1638-10.8274-24.1638-24.1638h0c0-26.0167,21.1222-47.1389,47.1388-47.1389Z" transform="translate(934.1868 726.0178) rotate(-180)" fill="none" stroke="#191421" stroke-linecap="round" stroke-linejoin="round" stroke-width="1.1879"/>
  </g>
  <g>
    <path d="M493.5282,546.5231v14.9671l2.3757,10.1005s3.326,4.4059,2.1382,23.4046h-8.0775v-5.9465l-12.1162,5.9465h-53.4541s-2.3757-10.6909,8.0775-12.9514c10.4533-2.2605,26.1331-17.4652,26.1331-17.4652l.7127-14.2544,34.2106-3.8012Z" fill="#e65a55"/>
    <path d="M493.5282,546.5231v14.9671l2.3757,10.1005s3.326,4.4059,2.1382,23.4046h-8.0775v-5.9465l-12.1162,5.9465h-53.4541s-2.3757-10.6909,8.0775-12.9514c10.4533-2.2605,26.1331-17.4652,26.1331-17.4652l.7127-14.2544,34.2106-3.8012Z" fill="none" stroke="#191421" stroke-linecap="round" stroke-linejoin="round" stroke-width="1.1879"/>
    <path d="M493.5282,561.4903v-14.9672l-34.2106,3.8012-.7128,14.2544s-8.5306,8.2681-17.2023,13.5165c4.1868,2.4542,12.988,6.1936,25.2798,3.9487,16.4612-3.0064,19.3844-11.7367,28.661-12.8362l-1.8152-7.7174Z" fill="#e6a298"/>
    <path d="M493.5282,561.4903v-14.9672l-34.2106,3.8012-.7128,14.2544s-8.5306,8.2681-17.2023,13.5165c4.1868,2.4542,12.988,6.1936,25.2798,3.9487,16.4612-3.0064,19.3844-11.7367,28.661-12.8362l-1.8152-7.7174Z" fill="none" stroke="#191421" stroke-linecap="round" stroke-linejoin="round" stroke-width="1.1879"/>
    <path d="M467.8702,259.0589h-33.2603s-.7127,5.7018-.4751,38.9621c.2376,33.2603,6.8697,109.1921,6.8697,109.1921,0,0-1.4284,14.8214,2.7406,20.5232l13.1968,125.9141s13.3041,8.2359,38.0118,0l6.1769-130.1904,12.3538-164.401h-45.6142Z" fill="#c2cce0"/>
    <path d="M467.8702,259.0589h-33.2603s-.7127,5.7018-.4751,38.9621c.2376,33.2603,6.8697,109.1921,6.8697,109.1921,0,0-1.4284,14.8214,2.7406,20.5232l13.1968,125.9141s13.3041,8.2359,38.0118,0l6.1769-130.1904,12.3538-164.401h-45.6142Z" fill="none" stroke="#191421" stroke-linecap="round" stroke-linejoin="round" stroke-width="1.1879"/>
    <path d="M467.1336,418.8247c1.7813,1.3701,3.6785,2.5575,5.6286,3.672,.9403,.5374,1.8967,1.0464,2.8605,1.5401,.9665,.495,2.0386,1.0965,3.0998,1.3487,.5258,.125,.7539-.5328,.3504-.8311-.8475-.6265-1.9125-1.0642-2.8515-1.5417-.9978-.5074-1.9843-1.0365-2.9661-1.5741-1.931-1.0573-3.8205-2.1897-5.7353-3.2749-.4423-.2507-.7653,.3697-.3864,.6611h0Z" fill="#191421"/>
    <path d="M469.9317,280.9384c.3744,5.5955,1.3206,11.2001,2.4547,16.6878,1.1375,5.5046,2.5303,10.9415,4.2385,16.2982,.9552,2.9953,1.9929,6.0356,3.3919,8.8568,.3137,.6327,1.3163,.1888,1.128-.4755-.7578-2.6725-1.7227-5.2984-2.5998-7.9341-.8806-2.6461-1.7066-5.3092-2.4614-7.994-1.5101-5.3712-2.7828-10.7883-3.816-16.2711-.5804-3.0797-.9984-6.1886-1.4927-9.2823-.076-.4755-.8753-.3669-.8431,.1141h0Z" fill="#191421"/>
    <path d="M509.6832,551.037l2.6133,21.8568s-4.5139,6.1913-1.3067,22.1016h45.9705s2.1382-5.4714-3.0885-9.7477c0,0-1.9006-14.492-7.3648-16.155l-3.8012-20.9065-33.0228,2.8509Z" fill="#e6a298"/>
    <path d="M509.6832,551.037l2.6133,21.8568s-4.5139,6.1913-1.3067,22.1016h45.9705s2.1382-5.4714-3.0885-9.7477c0,0-1.9006-14.492-7.3648-16.155l-3.8012-20.9065-33.0228,2.8509Z" fill="none" stroke="#191421" stroke-linecap="round" stroke-linejoin="round" stroke-width="1.1879"/>
    <path d="M553.8719,585.2476s-1.9005-14.4919-7.3647-16.1551h0c-1.1879,18.2932-21.4197,22.1444-34.2106,3.8012,0,0-4.5139,6.1913-1.3066,22.1016h45.9705s2.1381-5.4714-3.0885-9.7477Z" fill="#e65a55"/>
    <path d="M553.8719,585.2476s-1.9005-14.4919-7.3647-16.1551h0c-1.1879,18.2932-21.4197,22.1444-34.2106,3.8012,0,0-4.5139,6.1913-1.3066,22.1016h45.9705s2.1381-5.4714-3.0885-9.7477Z" fill="none" stroke="#191421" stroke-linecap="round" stroke-linejoin="round" stroke-width="1.1879"/>
    <path d="M535.1827,436.4473s36.428-120.6875,29.1424-177.3885l-87.9882,4.7566,6.3662,56.5375v119.262l26.0297,117.6958s15.2047,5.8426,36.5863-5.561c0,0-2.8508-78.5578-10.1365-102.9487,0,0,2.5342-5.385,0-12.3538Z" fill="#c2cce0"/>
    <path d="M478.8434,286.0753l3.8597,34.2776v119.262l26.0297,117.6958s15.2047,5.8426,36.5863-5.561c0,0-2.8508-78.5578-10.1365-102.9487,0,0,2.5342-5.385,0-12.3538,0,0,36.428-120.6875,29.1424-177.3885" fill="none" stroke="#191421" stroke-linecap="round" stroke-linejoin="round" stroke-width="1.1879"/>
    <path d="M515.4198,436.9071c1.0941,.669,2.5127,.9321,3.7527,1.1925,1.3477,.283,2.7232,.4724,4.0948,.5885,1.3568,.1149,2.7249,.1472,4.0853,.0878,1.2854-.0561,2.7582-.0733,3.9459-.6144,.3332-.1518,.2644-.7577-.1064-.8142-1.2482-.1901-2.5821,.0565-3.8395,.0968-1.3237,.0423-2.647,.0267-3.9689-.0551-1.3068-.0809-2.6026-.2293-3.895-.4367-1.2809-.2055-2.606-.6235-3.9039-.6548-.3321-.008-.4349,.4446-.1651,.6096h0Z" fill="#191421"/>
    <path d="M469.0581,120.5534s-16.155,4.0388-34.2106-2.1382c0,0,3.8012-4.1088,0-14.8834-3.8012-10.7746,3.5636-22.4927,3.5636-22.4927,0,0-6.218-9.1883-4.6532-22.2549,1.5648-13.0666,5.9961-27.321,29.4384-33.973,23.4423-6.6521,54.0893,4.989,59.7911,28.0337,5.7018,23.0447,1.4254,32.9983,1.4254,32.9983,0,0,10.2157,13.3286,4.989,25.2073l-33.973,5.803-26.3707,3.7Z" fill="#2c2535"/>
    <path d="M469.0581,120.5534s-16.155,4.0388-34.2106-2.1382c0,0,3.8012-4.1088,0-14.8834-3.8012-10.7746,3.5636-22.4927,3.5636-22.4927,0,0-6.218-9.1883-4.6532-22.2549,1.5648-13.0666,5.9961-27.321,29.4384-33.973,23.4423-6.6521,54.0893,4.989,59.7911,28.0337,5.7018,23.0447,1.4254,32.9983,1.4254,32.9983,0,0,10.2157,13.3286,4.989,25.2073l-33.973,5.803-26.3707,3.7Z" fill="none" stroke="#191421" stroke-linecap="round" stroke-linejoin="round" stroke-width="1.1879"/>
    <path d="M453.1406,49.7564s-9.503,11.4035-3.5636,28.7464c0,0-11.8787,23.0447,5.9393,38.7245h11.6411l2.1382,23.7574,24.7077,1.4254,15.4423-20.6689-4.0388-21.6192s14.9671-3.8012,11.4035-16.3926-17.1053-8.5527-19.2435,4.0388l-3.0885,4.2763s.1061-.561,.2035-1.5183c.7196-7.0753-3.7866-13.5002-10.538-15.7355-4.3951-1.4551-9.3842-4.7218-11.7599-11.9678-4.7515-14.492-19.2435-13.0666-19.2435-13.0666Z" fill="#e6a298"/>
    <path d="M453.1406,49.7564s-9.503,11.4035-3.5636,28.7464c0,0-11.8787,23.0447,5.9393,38.7245h11.6411l2.1382,23.7574,24.7077,1.4254,15.4423-20.6689-4.0388-21.6192s14.9671-3.8012,11.4035-16.3926-17.1053-8.5527-19.2435,4.0388l-3.0885,4.2763s.1061-.561,.2035-1.5183c.7196-7.0753-3.7866-13.5002-10.538-15.7355-4.3951-1.4551-9.3842-4.7218-11.7599-11.9678-4.7515-14.492-19.2435-13.0666-19.2435-13.0666Z" fill="none" stroke="#191421" stroke-linecap="round" stroke-linejoin="round" stroke-width="1.1879"/>
    <path d="M467.9404,117.1845c.9299,.1627,1.8371,.0097,2.7607-.1278,.942-.1402,1.882-.2976,2.8166-.4812,1.8963-.3725,3.8089-.7797,5.6243-1.4504,.7054-.2606,.4331-1.2694-.3108-1.1275-1.869,.3565-3.7056,.8651-5.5653,1.2678-.8939,.1936-1.7884,.3837-2.6858,.5609-.9292,.1834-1.863,.309-2.7217,.7306-.2543,.1249-.2056,.5773,.082,.6276h0Z" fill="#191421"/>
    <path d="M503.7839,94.6722c-.0222-1.37,.3963-2.6875,.7919-3.985,.3953-1.2963,.8739-2.5618,1.577-3.7257,.6219-1.0295,1.414-1.9726,2.3939-2.6796,.4644-.3351,.9671-.6231,1.4969-.8413,.5429-.2237,1.1117-.3427,1.6327-.6165,.3515-.1847,.2846-.7863-.1136-.8693-1.2371-.2578-2.6013,.4636-3.5852,1.1648-1.1317,.8065-2.0668,1.8432-2.7878,3.0295-.7732,1.2723-1.3179,2.6907-1.7185,4.121-.3952,1.411-.8575,3.0604-.3345,4.4897,.1217,.3325,.6535,.3053,.6471-.0876h0Z" fill="#191421"/>
    <path d="M507.6128,87.5362c.4236,.4874,.8602,.876,1.0824,1.5074,.2014,.5721,.2304,1.2131,.092,1.8035-.3402,1.4521-1.4773,2.4268-2.5179,3.4015-.3463,.3243,.011,.991,.4785,.8221,1.7295-.6247,3.117-2.2714,3.3724-4.1047,.1182-.8489-.0216-1.6948-.3651-2.4778-.3099-.7064-.9272-1.5049-1.7248-1.6693-.4278-.0882-.7029,.3891-.4176,.7174h0Z" fill="#191421"/>
    <path d="M458.435,72.9816c.2647,.685,.6911,1.322,1.0266,1.9755,.3449,.672,.6795,1.3498,.9698,2.0475,.2909,.6992,.5401,1.4132,.7732,2.1333,.2252,.6957,.4053,1.4614,.7836,2.0932,.2089,.3488,.6683,.1645,.709-.192,.0861-.7533-.1452-1.5719-.3693-2.2844-.2352-.7481-.5209-1.4794-.8382-2.1962-.3066-.6926-.6499-1.3653-1.032-2.0192-.3832-.6559-.8286-1.409-1.3984-1.9211-.2521-.2266-.769-.011-.6243,.3634h0Z" fill="#191421"/>
    <path d="M461.938,82.7022c-.5953,1.5137-1.0118,3.0942-1.6019,4.6132-.5922,1.5246-1.2287,3.0373-1.6822,4.611-.2133,.7403-.4792,1.5556-.393,2.3347,.0842,.7605,.5243,1.4004,.984,1.9886,.8881,1.1363,2.1385,2.3615,3.6067,2.6345,.4665,.0868,.8629-.461,.4853-.8337-.95-.9378-2.0904-1.6152-2.9563-2.6541-.5411-.6492-.8633-1.1961-.7033-2.061,.1382-.7473,.357-1.4824,.5918-2.2042,.4501-1.3831,1.0078-2.7274,1.4854-4.1007,.4697-1.351,.9598-2.7907,.8351-4.2402-.0329-.3821-.5137-.4391-.6517-.0882h0Z" fill="#191421"/>
    <ellipse cx="473.7275" cy="85.8431" rx="2.6953" ry="3.4297" fill="#191421"/>
    <ellipse cx="456.2175" cy="85.8431" rx="2.6953" ry="3.4297" fill="#191421"/>
    <g>
      <polygon points="445.696 256.208 445.696 267.7699 432.7093 267.1364 432.7093 256.208 445.696 256.208" fill="#2c2535"/>
      <polygon points="445.696 256.208 445.696 267.7699 432.7093 267.1364 432.7093 256.208 445.696 256.208" fill="none" stroke="#191421" stroke-linecap="round" stroke-linejoin="round" stroke-width="1.1879"/>
      <path d="M451.2632,256.208v11.7203s40.0476,4.9099,84.5531-1.9798l-.8092-9.7405h-83.7438Z" fill="#2c2535"/>
      <path d="M451.2632,256.208v11.7203s40.0476,4.9099,84.5531-1.9798l-.8092-9.7405h-83.7438Z" fill="none" stroke="#191421" stroke-linecap="round" stroke-linejoin="round" stroke-width="1.1879"/>
      <path d="M462.9603,257.6334s-.3168,5.6363,0,11.2916c0,0,16.8848,1.8678,26.894,.6731v-11.9647h-26.894Z" fill="#c2cce0"/>
      <path d="M462.9603,257.6334s-.3168,5.6363,0,11.2916c0,0,16.8848,1.8678,26.894,.6731v-11.9647h-26.894Z" fill="none" stroke="#191421" stroke-linecap="round" stroke-linejoin="round" stroke-width="1.1879"/>
    </g>
    <path d="M475.5991,126.9679l3.3874,9.503,2.542-9.503s16.2508-5.7181,24.9416-11.4657c1.7972-1.1886,4.2287-.6114,5.2325,1.2952,.5403,1.0262,1.1474,2.2761,1.7816,3.756,0,0,12.1163,2.1382,22.3319,13.3041,10.2157,11.166,20.9065,75.5485,23.7574,104.2949,2.8509,28.7464-24.4701,23.0447-39.9124,19.7186-15.4423-3.326-29.0745,10.9284-48.6291,4.989s-36.6599,2.8509-41.649-5.7018c-4.989-8.5527,12.1163-54.642,12.1163-54.642l-14.492,14.2544-21.3816-32.7852,13.0666-33.2603s4.989-19.7186,19.7186-20.6689c14.7296-.9503,24.7852-1.4254,24.7852-1.4254l.9697-2.6831c.598-1.6546,2.4421-2.4911,4.0808-1.8511l7.3524,2.8712Z" fill="#e65a55"/>
    <path d="M475.5991,126.9679l3.3874,9.503,2.542-9.503s16.2508-5.7181,24.9416-11.4657c1.7972-1.1886,4.2287-.6114,5.2325,1.2952,.5403,1.0262,1.1474,2.2761,1.7816,3.756,0,0,12.1163,2.1382,22.3319,13.3041,10.2157,11.166,20.9065,75.5485,23.7574,104.2949,2.8509,28.7464-24.4701,23.0447-39.9124,19.7186-15.4423-3.326-29.0745,10.9284-48.6291,4.989s-36.6599,2.8509-41.649-5.7018c-4.989-8.5527,12.1163-54.642,12.1163-54.642l-14.492,14.2544-21.3816-32.7852,13.0666-33.2603s4.989-19.7186,19.7186-20.6689c14.7296-.9503,24.7852-1.4254,24.7852-1.4254l.9697-2.6831c.598-1.6546,2.4421-2.4911,4.0808-1.8511l7.3524,2.8712Z" fill="none" stroke="#191421" stroke-linecap="round" stroke-linejoin="round" stroke-width="1.1879"/>
    <path d="M517.3589,248.2889c-9.2923-22.1441-12.2688-73.4895-9.2923-94.0792,1.6995-11.756,7.4652-19.2621,12.0998-23.5389,5.261-4.8548,13.3661-5.3585,18.9986-.9402,4.8521,3.8061,9.9538,11.2371,13.0235,25.5723,7.2227,33.7297,10.8697,84.1166,10.8697,84.1166l-45.6992,8.8694Z" fill="#384778"/>
    <path d="M517.3589,248.2889c-9.2923-22.1441-12.2688-73.4895-9.2923-94.0792,1.6995-11.756,7.4652-19.2621,12.0998-23.5389,5.261-4.8548,13.3661-5.3585,18.9986-.9402,4.8521,3.8061,9.9538,11.2371,13.0235,25.5723,7.2227,33.7297,10.8697,84.1166,10.8697,84.1166l-45.6992,8.8694Z" fill="none" stroke="#191421" stroke-linecap="round" stroke-linejoin="round" stroke-width="1.1879"/>
    <path d="M566.4633,232.213s-56.7801,4.6304-70.5594,13.3624-3.5636,53.871,3.326,60.0479c5.55,4.9759,60.5883-5.0026,81.7815-9.0711,4.9378-.9479,8.4956-5.2679,8.4734-10.2959-.0722-16.4008-2.6872-50.6243-23.0216-54.0433Z" fill="#384778"/>
    <path d="M566.4633,232.213s-56.7801,4.6304-70.5594,13.3624-3.5636,53.871,3.326,60.0479c5.55,4.9759,60.5883-5.0026,81.7815-9.0711,4.9378-.9479,8.4956-5.2679,8.4734-10.2959-.0722-16.4008-2.6872-50.6243-23.0216-54.0433Z" fill="none" stroke="#191421" stroke-linecap="round" stroke-linejoin="round" stroke-width="1.1879"/>
    <path d="M495.9039,245.5754s8.5625,17.7598,11.0521,44.8432c0,0,57.1316,0,84.215-11.166,0,0,3.8012-35.3985-17.5804-47.0396-28.2665-2.1028-64.1449,3.326-77.6866,13.3624Z" fill="#384778"/>
    <path d="M495.9039,245.5754s8.5625,17.7598,11.0521,44.8432c0,0,57.1316,0,84.215-11.166,0,0,3.8012-35.3985-17.5804-47.0396-28.2665-2.1028-64.1449,3.326-77.6866,13.3624Z" fill="none" stroke="#191421" stroke-linecap="round" stroke-linejoin="round" stroke-width="1.1879"/>
    <path d="M561.2367,265.9485c-10.4532,2.8508-15.9175,2.3757-15.9175,2.3757l1.663,7.3647c7.1272,1.1879,16.0758-2.3757,16.0758-2.3757l-1.8214-7.3647Z" fill="#697fbc"/>
    <path d="M561.2367,265.9485c-10.4532,2.8508-15.9175,2.3757-15.9175,2.3757l1.663,7.3647c7.1272,1.1879,16.0758-2.3757,16.0758-2.3757l-1.8214-7.3647Z" fill="none" stroke="#191421" stroke-linecap="round" stroke-linejoin="round" stroke-width="1.1879"/>
    <path d="M432.8333,170.2697c-.3114,2.0797-.1138,4.2974,.0632,6.3831,.1826,2.1532,.4553,4.3023,.8206,6.4318,.7364,4.293,2.0329,8.4695,3.7024,12.4893,.9296,2.2383,1.8912,4.5875,3.4387,6.4798,.3893,.4761,1.2013-.0361,1.0198-.5937-.6438-1.9781-1.6712-3.8314-2.4992-5.7358-.8517-1.959-1.5964-3.966-2.2469-6.0004-1.2909-4.0368-2.3452-8.1957-2.9061-12.4-.1526-1.1434-.2412-2.2917-.3646-3.4378-.1293-1.2012-.1419-2.4236-.3388-3.6163-.0559-.3387-.6376-.3436-.6891,0h0Z" fill="#191421"/>
    <path d="M478.7815,137.9793c-.2554,4.9578-.6793,9.8959-1.393,14.8101-.7103,4.8905-1.6643,9.7402-2.5066,14.6084-1.6126,9.3202-2.9154,18.8309-2.3976,28.3096,.2827,5.1756,1.0615,10.4608,3.153,15.2405,.2453,.5605,1.083,.1494,.9541-.4022-1.0568-4.5229-1.9519-9.0473-2.2798-13.6898-.3262-4.6177-.1873-9.2585,.2132-13.8669,.8333-9.5884,2.8027-19.0337,3.9946-28.5778,.6802-5.4466,1.3124-10.9346,1.0742-16.4319-.0227-.523-.7851-.5222-.812,0h0Z" fill="#191421"/>
    <path d="M470.0084,241.4784c15.2047,8.5527,72.46,14.492,82.2005,2.1382,9.7405-12.3538,5.7018-41.9944,5.7018-41.9944l-39.1997,2.7947,.2376,11.166-48.9402,7.3648-17.5805-8.5527-14.0169,2.1382s-1.9006,3.8012,.9503,5.9393c0,0-3.1547,2.2174-1.1087,6.6521,0,0-2.8509,5.7018,.1584,8.711,0,0-.6335,3.1677,.9503,6.3353,1.5838,3.1677,6.0185,6.4963,6.0185,6.4963l6.1769-3.487c7.1393,1.4617,13.2308-.6397,18.4516-5.7018Z" fill="#e6a298"/>
    <path d="M470.0084,241.4784c15.2047,8.5527,72.46,14.492,82.2005,2.1382,9.7405-12.3538,5.7018-41.9944,5.7018-41.9944l-39.1997,2.7947,.2376,11.166-48.9402,7.3648-17.5805-8.5527-14.0169,2.1382s-1.9006,3.8012,.9503,5.9393c0,0-3.1547,2.2174-1.1087,6.6521,0,0-2.8509,5.7018,.1584,8.711,0,0-.6335,3.1677,.9503,6.3353,1.5838,3.1677,6.0185,6.4963,6.0185,6.4963l6.1769-3.487c7.1393,1.4617,13.2308-.6397,18.4516-5.7018Z" fill="none" stroke="#191421" stroke-linecap="round" stroke-linejoin="round" stroke-width="1.1879"/>
    <path d="M520.6108,216.345c3.0711,.2203,6.1538,.4497,9.2021,.9034,3.0308,.4511,5.9778,1.2862,8.9948,1.779,.6027,.0984,.8048-.6728,.2492-.9038-2.871-1.1937-6.0797-1.6871-9.1464-2.1179-3.0876-.4338-6.1863-.6662-9.2997-.5005-.5425,.0289-.5381,.8013,0,.8399h0Z" fill="#191421"/>
    <path d="M451.5601,246.2027c-.5238-.4624-1.2143-.6721-1.882-.847-.6794-.178-1.384-.2812-2.0856-.3119-1.3942-.0609-2.8518,.1444-4.0876,.8118-.4745,.2563-.151,1.0195,.3665,.8693,1.2019-.3488,2.3974-.638,3.6576-.6062,.6108,.0154,1.2137,.0937,1.8074,.2376,.6159,.1492,1.1943,.4359,1.8151,.5483,.3762,.0681,.7514-.3993,.4086-.7019h0Z" fill="#191421"/>
    <path d="M443.3987,243.0221c.199,.0705,.3904,.1768,.5864,.2584,.1759,.0732,.3533,.1515,.5256,.2351,.3911,.1898,.7798,.3776,1.1502,.6066,.3483,.2153,.655,.4433,.9623,.704,.3479,.2952,.6619,.6096,1.0593,.8378,.3005,.1726,.7765-.1209,.6339-.4873-.3566-.9168-1.2672-1.5431-2.0918-2.0188-.4129-.2382-.8562-.453-1.3122-.5951-.2265-.0706-.4526-.1206-.6829-.1688-.2501-.0524-.4855-.0415-.7376-.06-.4153-.0304-.4453,.5635-.0931,.6881h0Z" fill="#191421"/>
    <path d="M424.8693,159.0403l10.9284-18.0556,14.492-3.0054,8.6342-2.6394,.385,1.668c.6076,2.6324-.722,5.3287-3.1802,6.4492l-2.3941,1.0913-6.2304,2.3923s3.0696,.9337,3.7591,5.9227c0,0,3.3028,2.1382,4.0156,7.246,0,0,2.8509,1.663,3.4448,7.3648l-3.8012,7.8399h-6.1769s-3.6824,7.7211-9.503,7.1272c0,0-14.294,42.7237-31.0826,51.9099-16.7885,9.1862-26.8022-6.6802-24.3909-23.5047,2.8509-19.8921,41.1003-51.8062,41.1003-51.8062Z" fill="#e6a298"/>
    <path d="M424.8693,159.0403l10.9284-18.0556,14.492-3.0054,8.6342-2.6394,.385,1.668c.6076,2.6324-.722,5.3287-3.1802,6.4492l-2.3941,1.0913-6.2304,2.3923s3.0696,.9337,3.7591,5.9227c0,0,3.3028,2.1382,4.0156,7.246,0,0,2.8509,1.663,3.4448,7.3648l-3.8012,7.8399h-6.1769s-3.6824,7.7211-9.503,7.1272c0,0-14.294,42.7237-31.0826,51.9099-16.7885,9.1862-26.8022-6.6802-24.3909-23.5047,2.8509-19.8921,41.1003-51.8062,41.1003-51.8062Z" fill="none" stroke="#191421" stroke-linecap="round" stroke-linejoin="round" stroke-width="1.1879"/>
    <path d="M449.1339,174.819c.558-1.0503,1.2347-2.0408,2.1023-2.8601,.4218-.3983,.8804-.7498,1.3749-1.0533,.5192-.3186,1.0781-.557,1.6115-.8488,.4827-.2641,.1408-.9547-.3593-.8523-.651,.1332-1.2586,.4611-1.8143,.8164-.5496,.3514-1.0677,.7607-1.5355,1.2152-.943,.9162-1.6977,2.023-2.0877,3.2843-.1287,.4163,.501,.6885,.7082,.2986h0Z" fill="#191421"/>
    <path d="M536.8053,135.1023s-12.9586-3.3829-19.4465,14.1975c-6.4878,17.5805-1.2612,61.3847-1.2612,61.3847,0,0,30.1719,1.5724,45.139-5.0797,0,0-4.989-68.8964-24.4313-70.5025Z" fill="#e65a55"/>
    <path d="M536.8053,135.1023s-12.9586-3.3829-19.4465,14.1975c-6.4878,17.5805-1.2612,61.3847-1.2612,61.3847,0,0,30.1719,1.5724,45.139-5.0797,0,0-4.989-68.8964-24.4313-70.5025Z" fill="none" stroke="#191421" stroke-linecap="round" stroke-linejoin="round" stroke-width="1.1879"/>
    <path d="M456.4059,70.6158c-.0826-.0686-.1658-.1418-.2539-.2034-.119-.1-.1153-.0864,.0111,.0408l-.1528-.1977c-.1636-.1636-.3796-.2833-.5886-.3773-.4224-.19-.8511-.3245-1.3086-.3928-.9224-.1376-1.8191-.1411-2.7405,.0128-.8199,.137-1.6157,.4207-2.3567,.7949-.4162,.2102-.7851,.4784-1.1355,.7861-.4307,.3782-.7505,.7593-.8251,1.344-.0629,.4932,.4869,.9758,.9512,.9512,.48-.0254,.7889-.2716,1.1812-.5078,.2943-.1772,.6017-.342,.906-.5015,.068-.0357,.1367-.0702,.2058-.1037,.0229-.0111,.287-.1309,.1756-.0832-.0927,.0397,.109-.0421,.1276-.0492,.0899-.0341,.1805-.0666,.2717-.097,.3287-.1096,.6652-.1962,1.006-.2588,.0667-.0123,.4517-.0675,.2609-.0446,.1723-.0206,.3452-.0359,.5185-.0448,.3456-.0178,.6922-.0113,1.0369,.0204,.0638,.0059,.2602,.0282,.099,.0077,.1382,.0176,.2756,.0414,.414,.0584,.1941,.0238-.014-.0052,.1028,.0132,.0763,.012,.1521,.0258,.2282,.039,.2204,.0383,.4465,.0886,.6703,.0957,.1001,.0031,.2888-.0615,.3682-.0298-.1811-.0086-.2164-.0056-.1058,.0089,.0567,.0087,.1132,.0184,.1696,.029,.3471,.0615,.6987-.0408,.8856-.3604,.1643-.281,.1417-.7307-.1226-.9503h0Z" fill="#191421"/>
    <path d="M466.3064,71.4879c2.7375-1.1756,5.336-2.1084,8.3733-1.6901,1.3497,.1859,2.6781,.6173,3.8814,1.2539,.6331,.3349,1.2251,.7238,1.8098,1.1357,.5618,.3958,1.1046,.9067,1.7273,1.1965,.8485,.3949,1.5855-.3937,1.2253-1.2253-.6191-1.4295-2.3839-2.4894-3.7211-3.1528-1.5066-.7475-3.1043-1.2232-4.774-1.4189-3.1815-.373-7.0761,.4221-9.4442,2.7058-.67,.6461,.1788,1.5144,.9222,1.1952h0Z" fill="#191421"/>
    <path d="M476.4229,99.8844c-11.4035,4.0388-17.6276,3.8012-17.6276,3.8012,4.189,8.0775,15.441,5.3146,17.6276-3.8012Z" fill="#e65a55"/>
    <path d="M476.4229,99.8844c-11.4035,4.0388-17.6276,3.8012-17.6276,3.8012,4.189,8.0775,15.441,5.3146,17.6276-3.8012Z" fill="none" stroke="#191421" stroke-linecap="round" stroke-linejoin="round" stroke-width="1.1879"/>
  </g>
  <g>
    <path d="M389.2333,585.0101v9.9899h-68.5875l-.5464-16.1669c-2.6133-10.2156,1.9006-16.8678,1.9006-16.8678,7.6024,9.2654,21.2272,4.1932,21.2272,4.1932,1.7343-12.829,12.9835-8.8496,12.9835-8.8496l7.6023,15.8224,25.4204,11.8787Z" fill="#2c2535"/>
    <path d="M389.2333,585.0101v9.9899h-68.5875l-.5464-16.1669c-2.6133-10.2156,1.9006-16.8678,1.9006-16.8678,7.6024,9.2654,21.2272,4.1932,21.2272,4.1932,1.7343-12.829,12.9835-8.8496,12.9835-8.8496l7.6023,15.8224,25.4204,11.8787Z" fill="none" stroke="#191421" stroke-linecap="round" stroke-linejoin="round" stroke-width="1.1879"/>
    <path d="M356.2106,557.3089s-11.2492-3.9793-12.9835,8.8496c0,0-13.6248,5.0722-21.2272-4.1932l-.9503-18.2931h33.2128l1.9481,13.6367Z" fill="#e6a298"/>
    <path d="M356.2106,557.3089s-11.2492-3.9793-12.9835,8.8496c0,0-13.6248,5.0722-21.2272-4.1932l-.9503-18.2931h33.2128l1.9481,13.6367Z" fill="none" stroke="#191421" stroke-linecap="round" stroke-linejoin="round" stroke-width="1.1879"/>
    <path d="M263.0816,595h-52.8958s-.9503-4.0863,5.7018-12.2706c0,0-.6415-12.7577,5.7018-20.9184l3.326,3.5636s10.2513-9.0159,21.3816-.9503l9.1822-4.1219s2.2213,6.3313,2.0551,18.0556c0,0,7.1272,3.5042,5.5473,16.642Z" fill="#2c2535"/>
    <path d="M263.0816,595h-52.8958s-.9503-4.0863,5.7018-12.2706c0,0-.6415-12.7577,5.7018-20.9184l3.326,3.5636s10.2513-9.0159,21.3816-.9503l9.1822-4.1219s2.2213,6.3313,2.0551,18.0556c0,0,7.1272,3.5042,5.5473,16.642Z" fill="none" stroke="#191421" stroke-linecap="round" stroke-linejoin="round" stroke-width="1.1879"/>
    <path d="M259.6012,528.6219l-4.1219,31.6805-9.1822,4.1219c-11.1303-8.0656-21.3816,.9503-21.3816,.9503l-3.326-3.5636,3.4804-29.3047,34.5314-3.8844Z" fill="#e6a298"/>
    <path d="M259.6012,528.6219l-4.1219,31.6805-9.1822,4.1219c-11.1303-8.0656-21.3816,.9503-21.3816,.9503l-3.326-3.5636,3.4804-29.3047,34.5314-3.8844Z" fill="none" stroke="#191421" stroke-linecap="round" stroke-linejoin="round" stroke-width="1.1879"/>
    <path d="M230.138,113.1886s18.3724-12.6238,37.2199-14.7853c18.8475-2.1616,41.1003,5.4664,41.1003,5.4664,0,0,19.4138,4.0923,26.5291,14.5455,0,0,16.7885,3.6428,25.9747,23.9949s14.294,59.2121,14.294,59.2121l-31.7161,6.3596-103.5822,18.1629-9.8197-112.9561Z" fill="#413f4d"/>
    <path d="M353.5004,283.839c2.3574-33.9731-11.1879-127.6492-11.1879-127.6492-8.909-1.7412-14.3732-16.6305-14.3732-16.6305,0,0-36.8239,12.829-65.0952,2.8509,0,0-16.3926,30.647-44.6639,33.7355l3.2723,47.4287s-3.5099,4.6-.4214,9.3514l-.4751,34.8442s-6.8896,13.1457-.7127,35.2401l-.4752,109.0464c-1.961,25.2332,.5344,83.0743,2.3757,136.1297,0,0,17.7047,4.0388,38.7866,0,0,0,17.7559-92.2928,15.8553-123.2391l13.7793-69.9084,16.155,61.294s-2.3757,4.2763,1.9006,12.3538c0,0,.8718,83.8899,10.3747,121.2946h40.1889c-1.3747-95.0869,.8594-233.0524-5.2839-266.1421Z" fill="#384778"/>
    <path d="M353.5004,283.839c2.3574-33.9731-11.1879-127.6492-11.1879-127.6492-8.909-1.7412-14.3732-16.6305-14.3732-16.6305,0,0-36.8239,12.829-65.0952,2.8509,0,0-16.3926,30.647-44.6639,33.7355l3.2723,47.4287s-3.5099,4.6-.4214,9.3514l-.4751,34.8442s-6.8896,13.1457-.7127,35.2401l-.4752,109.0464c-1.961,25.2332,.5344,83.0743,2.3757,136.1297,0,0,17.7047,4.0388,38.7866,0,0,0,17.7559-92.2928,15.8553-123.2391l13.7793-69.9084,16.155,61.294s-2.3757,4.2763,1.9006,12.3538c0,0,.8718,83.8899,10.3747,121.2946h40.1889c-1.3747-95.0869,.8594-233.0524-5.2839-266.1421Z" fill="none" stroke="#191421" stroke-linecap="round" stroke-linejoin="round" stroke-width="1.1879"/>
    <path d="M230.138,113.1886s18.3724-12.6238,37.2199-14.7853c18.8475-2.1616,41.1003,5.4664,41.1003,5.4664,0,0,19.4138,4.0923,26.5291,14.5455,0,0,16.7885,3.6428,25.9747,23.9949s14.294,59.2121,14.294,59.2121l-31.7161,6.3596-103.5822,18.1629" fill="none" stroke="#191421" stroke-linecap="round" stroke-linejoin="round" stroke-width="1.1879"/>
    <path d="M340.4177,151.9735c.4261-.3685,.4552-.9822,.581-1.5041,.1466-.6082,.308-1.2131,.4856-1.813,.3553-1.2003,.7754-2.3847,1.2517-3.5422,.7585-1.8435,1.6789-3.6971,3.0376-5.177,.6244-.6802,1.3213-1.2747,2.1397-1.7093,.4086-.217,.8586-.4132,1.3147-.5044,.0961-.0313,.1945-.0445,.2951-.0394,.1644,.0491,.1624,.0071-.0059-.1259-.1208,.2045-.1894,.4944-.2979,.7146-1.028,2.0856-2.4415,4.0155-4.0224,5.7171-.4441,.478,.2274,1.1394,.712,.712,1.6286-1.4366,3.0121-3.0756,4.1619-4.9245,.4944-.795,1.3645-1.897,.8467-2.8699-.4718-.8865-1.52-.8601-2.3622-.5998-3.704,1.1447-5.7478,4.837-7.0491,8.2254-.4627,1.2049-.8586,2.4322-1.195,3.6781-.1734,.6422-.3315,1.2883-.4713,1.9387-.1243,.5782-.3427,1.1913-.056,1.742,.1278,.2454,.4479,.2427,.634,.0817h0Z" fill="#191421"/>
    <path d="M344.2834,147.5912c-.0681,.0722-.1349,.1456-.2045,.2164l.1774-.1034c-.2376,.0493-.3791,.2582-.5304,.432-.1518,.1744-.3026,.3449-.4411,.5306-.2542,.3408-.4925,.691-.7031,1.0604-.2089,.3664-.4142,.7427-.5731,1.1338-.1681,.4138-.3979,.9373-.3257,1.3866,.0587,.3647,.5335,.4061,.7639,.2017,.1584-.1405,.2325-.355,.327-.5405,.09-.1766,.1762-.3548,.2671-.5308,.1889-.3656,.3468-.7454,.5439-1.1077,.1903-.3499,.3841-.6991,.5933-1.0381,.1046-.1695,.1982-.3437,.3043-.5122,.1256-.1996,.2888-.3802,.2827-.6281l-.0549,.2029c.054-.0829,.1123-.1625,.1707-.2424,.2564-.351-.305-.7713-.5976-.4611h0Z" fill="#191421"/>
    <path d="M254.7659,42.2346s-2.2174,16.2803,5.7018,27.2252l16.6302,3.5259,5.7018-5.8851-7.444-27.2418-20.5897,2.3757Z" fill="#2c2535"/>
    <path d="M254.7659,42.2346s-2.2174,16.2803,5.7018,27.2252l16.6302,3.5259,5.7018-5.8851-7.444-27.2418-20.5897,2.3757Z" fill="none" stroke="#191421" stroke-linecap="round" stroke-linejoin="round" stroke-width="1.1879"/>
    <path d="M325.1669,32.494s3.326,14.492,2.3757,29.9343c0,0,3.326,5.3882,2.3757,11.3656-.6392,4.0206-3.8581,13.9271-5.8971,19.9823-1.0029,2.9784-3.7914,4.9817-6.9341,4.9817h-9.9758v7.8057s-13.7793,16.3346-41.1003-5.4664v-18.9501s-9.7405-1.1879-9.9781-11.8787,8.3151-15.2047,13.3041-5.4642l3.8012,3.0885,3.326-1.9006-5.2266-26.3707c16.9736-9.0548,34.8412-12.1549,53.9292-7.1272Z" fill="#e6a298"/>
    <path d="M325.1669,32.494s3.326,14.492,2.3757,29.9343c0,0,3.326,5.3882,2.3757,11.3656-.6392,4.0206-3.8581,13.9271-5.8971,19.9823-1.0029,2.9784-3.7914,4.9817-6.9341,4.9817h-9.9758v7.8057s-13.7793,16.3346-41.1003-5.4664v-18.9501s-9.7405-1.1879-9.9781-11.8787,8.3151-15.2047,13.3041-5.4642l3.8012,3.0885,3.326-1.9006-5.2266-26.3707c16.9736-9.0548,34.8412-12.1549,53.9292-7.1272Z" fill="none" stroke="#191421" stroke-linecap="round" stroke-linejoin="round" stroke-width="1.1879"/>
    <path d="M294.2412,94.8158c.7038,.7032,1.7436,1.1583,2.6341,1.5762,.8868,.4162,1.7939,.7872,2.7183,1.1109,.9391,.3289,1.8938,.6172,2.8597,.8566,.9825,.2435,2.0694,.5394,3.0893,.4687,.5497-.0382,.6213-.7352,.1258-.9297-.9133-.3585-1.9405-.4763-2.8922-.7102-.9346-.2297-1.8592-.4967-2.7705-.8062-.9257-.3144-1.8426-.6634-2.7419-1.047-.8685-.3705-1.7561-.8993-2.675-1.1165-.341-.0806-.6067,.3383-.3476,.5972h0Z" fill="#191421"/>
    <path d="M266.8423,82.6569c1.3753,.3183,2.7228,.9641,3.8252,1.8469,.5888,.4716,1.1214,1.0032,1.64,1.5497,.5095,.537,.9982,1.2539,1.6382,1.6386,.3321,.1996,.8724-.1408,.7089-.545-.2975-.7354-.956-1.3759-1.4885-1.9522-.5705-.6174-1.1913-1.1897-1.8581-1.7014-1.268-.9731-2.7352-1.6834-4.3632-1.5931-.4149,.023-.5456,.6539-.1024,.7565h0Z" fill="#191421"/>
    <path d="M259.441,67.3467c.9544-.7956,2.3864-.6001,3.4661-.1933,1.1341,.4274,2.1682,1.1562,3.0226,2.0078,1.7751,1.7692,2.7973,4.1167,3.5986,6.4527,.1961,.5716,1.0088,.341,.8993-.2479-.5206-2.802-1.9811-5.5653-4.1482-7.4459-1.8455-1.6015-5.2907-3.2335-7.3535-1.0885-.3304,.3436,.1599,.8112,.5151,.5151h0Z" fill="#191421"/>
    <path d="M263.8275,69.1553c-.3423,.1911-.4943,.7439-.594,1.1025-.1128,.4058-.1747,.8446-.1999,1.2645-.0502,.8375,.0967,1.6954,.4589,2.4536,.3101,.6491,.8136,1.2088,1.4133,1.603s1.4791,.7058,2.1706,.3828c.399-.1863,.2325-.7375-.1125-.8608-.2643-.0945-.564-.1026-.8356-.1874-.2599-.0812-.5-.2072-.7212-.3662-.4273-.3072-.7736-.7553-.9831-1.2366-.2668-.6129-.3092-1.291-.2746-1.9495,.0184-.3509,.078-.6929,.1331-1.0392s.1713-.71,.0274-1.0401c-.0772-.1771-.332-.2105-.4825-.1265h0Z" fill="#191421"/>
    <path d="M300.38,79.1377c3.6428,13.3041,19.1643,8.1377,19.1643,0h-19.1643Z" fill="#e65a55"/>
    <path d="M300.38,79.1377c3.6428,13.3041,19.1643,8.1377,19.1643,0h-19.1643Z" fill="none" stroke="#191421" stroke-linecap="round" stroke-linejoin="round" stroke-width="1.1879"/>
    <path d="M314.6754,51.244c-.0814,.1633-.2047,.2909-.2652,.4685-.041,.1202-.111,.2079-.1626,.3305-.0306,.0726-.0595,.1459-.0886,.2191-.1351,.3406-.2537,.6876-.3767,1.0327-.1236,.3465-.2424,.6884-.3331,1.0448-.095,.373-.243,.7563-.1909,1.1436,.0441,.3274,.4966,.3789,.698,.1843,.2596-.2509,.3593-.6629,.5066-.9846,.1568-.3424,.275-.6941,.394-1.0512,.1114-.3343,.2296-.6672,.3294-1.0052,.0525-.1776,.083-.3545,.1275-.5331,.0188-.0753,.0449-.1508,.0602-.2269,.0213-.1058,.0014-.2158,.0224-.3186,.0392-.1918-.0392-.3892-.2284-.4653-.1712-.0689-.4035-.0172-.4925,.1614h0Z" fill="#191421"/>
    <path d="M313.4654,57.752c.0052,.7342,.2452,1.4759,.44,2.1786,.2103,.7586,.4271,1.5154,.6446,2.272,.4466,1.5532,.9025,3.1034,1.3598,4.6535,.375,1.2709,.8615,2.5867,.1328,3.8244-.2709,.4602-.6709,.8495-1.115,1.1427-.4639,.3063-1.0176,.454-1.4603,.7799-.2351,.1731-.3371,.6166,0,.7653,1.2123,.5346,2.5961-.431,3.3169-1.3668,.8715-1.1314,1.1415-2.4673,.8434-3.8565-.385-1.7943-1.0481-3.5686-1.595-5.3197-.2719-.8706-.5436-1.7412-.8194-2.6106-.2793-.8801-.5106-1.8796-1.0172-2.6606-.2057-.3172-.7335-.2051-.7306,.1979h0Z" fill="#191421"/>
    <path d="M316.3471,50.876c.7531,.1116,1.5733-.1161,2.3097-.2842,.6921-.158,1.3826-.3319,2.0873-.4007,1.5394-.1502,3.026-.0874,4.563,.0333,.8763,.0689,2.1014-.0042,2.2661-1.099,.1774-1.1798-1.1721-1.6071-2.0761-1.7338-1.6032-.2246-3.2553-.0908-4.8381,.2133-.8295,.1594-1.6629,.3893-2.4539,.6861-.8165,.3064-1.8066,.7517-2.2961,1.508-.2343,.3621-.0252,1.0083,.4381,1.077h0Z" fill="#191421"/>
    <path d="M306.581,50.5246c-1.0829-1.3147-3.1183-1.842-4.7266-2.1248-1.8413-.3238-3.7152-.3284-5.5555,.0013-1.7045,.3054-3.3711,.9177-4.9022,1.7225-1.5866,.8339-3.1702,1.9837-3.9875,3.5919-.3619,.7121,.239,1.6421,1.0742,1.3973,1.5307-.4485,2.8544-1.3336,4.284-2.0501,1.3133-.6581,2.6483-1.1986,4.0755-1.5614,1.4855-.3776,2.9708-.5483,4.5028-.488,1.6107,.0633,3.1279,.6871,4.7234,.747,.6804,.0255,.8836-.7843,.5118-1.2357h0Z" fill="#191421"/>
    <ellipse cx="320.7586" cy="62.072" rx="2.6953" ry="3.4297" fill="#191421"/>
    <ellipse cx="303.2486" cy="62.072" rx="2.6953" ry="3.4297" fill="#191421"/>
    <ellipse cx="269.1787" cy="12.7754" rx="6.9688" ry="6.4937" fill="#e65a55"/>
    <ellipse cx="269.1787" cy="12.7754" rx="6.9688" ry="6.4937" fill="none" stroke="#191421" stroke-linecap="round" stroke-linejoin="round" stroke-width="1.1879"/>
    <path d="M326.5251,27.8218s-4.605-18.214-27.7288-22.1736c-23.1239-3.9596-40.8365,11.0643-44.3161,22.1736-3.4796,11.1093-.8958,21.0977-.8958,21.0977l46.4339-11.9116,26.5068-9.1862Z" fill="#e65a55"/>
    <path d="M326.5251,27.8218s-4.605-18.214-27.7288-22.1736c-23.1239-3.9596-40.8365,11.0643-44.3161,22.1736-3.4796,11.1093-.8958,21.0977-.8958,21.0977l46.4339-11.9116,26.5068-9.1862Z" fill="none" stroke="#191421" stroke-linecap="round" stroke-linejoin="round" stroke-width="1.1879"/>
    <path d="M323.454,25.2876s-34.7942-3.0093-42.2382,15.5215c0,0-18.214,2.1334-28.8256,7.8771l.6335,2.7569s46.8812-17.1277,92.1786-13.4848c0,0-3.4259-11.2452-21.7483-12.6706Z" fill="#c2cce0"/>
    <path d="M323.454,25.2876s-34.7942-3.0093-42.2382,15.5215c0,0-18.214,2.1334-28.8256,7.8771l.6335,2.7569s46.8812-17.1277,92.1786-13.4848c0,0-3.4259-11.2452-21.7483-12.6706Z" fill="none" stroke="#191421" stroke-linecap="round" stroke-linejoin="round" stroke-width="1.1879"/>
    <polygon points="317.7236 198.7151 317.7236 191.7463 325.6427 183.1936 331.5029 190.9544 317.7236 198.7151" fill="#e6a298"/>
    <polygon points="317.7236 198.7151 317.7236 191.7463 325.6427 183.1936 331.5029 190.9544 317.7236 198.7151" fill="none" stroke="#191421" stroke-linecap="round" stroke-linejoin="round" stroke-width="1.1879"/>
    <g>
      <path d="M383.4128,159.9906c-1.3066-4.6327-5.7018-6.3002-5.7018-6.3002-3.0884-7.488-7.3648-4.6282-7.3648-4.6282-3.326-4.7515-8.909-1.3066-13.6605,3.6824-4.7515,4.9891-2.2569,7.84-2.2569,7.84l1.5442-.1233c.2376,2.5304,4.7515,4.8351,4.7515,4.8351,.9503,3.8804,4.9891,3.7213,4.9891,3.7213,.1188,3.7214,3.4448,5.1085,3.4448,5.1085l16.3926-7.6023c0-4.6327-2.1381-6.5333-2.1381-6.5333Z" fill="#e6a298"/>
      <line x1="355.973" y1="160.4613" x2="368.3268" y2="150.0125" fill="#e6a298"/>
      <line x1="360.9243" y1="165.9402" x2="375.256" y2="155.2369" fill="#e6a298"/>
      <line x1="365.7685" y1="169.6542" x2="380.9182" y2="161.4161" fill="#e6a298"/>
    </g>
    <g>
      <path d="M383.4128,159.9906c-1.3066-4.6327-5.7018-6.3002-5.7018-6.3002-3.0884-7.488-7.3648-4.6282-7.3648-4.6282-3.326-4.7515-8.909-1.3066-13.6605,3.6824-4.7515,4.9891-2.2569,7.84-2.2569,7.84l1.5442-.1233c.2376,2.5304,4.7515,4.8351,4.7515,4.8351,.9503,3.8804,4.9891,3.7213,4.9891,3.7213,.1188,3.7214,3.4448,5.1085,3.4448,5.1085l16.3926-7.6023c0-4.6327-2.1381-6.5333-2.1381-6.5333Z" fill="none" stroke="#191421" stroke-linecap="round" stroke-linejoin="round" stroke-width="1.1879"/>
      <line x1="355.973" y1="160.4613" x2="368.3268" y2="150.0125" fill="none" stroke="#191421" stroke-linecap="round" stroke-linejoin="round" stroke-width="1.1879"/>
      <line x1="360.9243" y1="165.9402" x2="375.256" y2="155.2369" fill="none" stroke="#191421" stroke-linecap="round" stroke-linejoin="round" stroke-width="1.1879"/>
      <line x1="365.7685" y1="169.6542" x2="380.9182" y2="161.4161" fill="none" stroke="#191421" stroke-linecap="round" stroke-linejoin="round" stroke-width="1.1879"/>
    </g>
    <rect x="342.3125" y="157.931" width="32.9436" height="11.0868" rx="3.5636" ry="3.5636" fill="#e65a55"/>
    <rect x="342.3125" y="157.931" width="32.9436" height="11.0868" rx="3.5636" ry="3.5636" fill="none" stroke="#191421" stroke-linecap="round" stroke-linejoin="round" stroke-width="1.1879"/>
    <path d="M387.6455,250.6672h-57.7225c-1.9385,0-3.5214-1.5495-3.5628-3.4876l-1.6693-78.2436c-.0426-1.9974,1.5649-3.6396,3.5628-3.6396h61.0612c1.9979,0,3.6054,1.6422,3.5628,3.6396l-1.6693,78.2436c-.0413,1.9381-1.6243,3.4876-3.5628,3.4876Z" fill="#c2cce0"/>
    <path d="M387.6455,250.6672h-57.7225c-1.9385,0-3.5214-1.5495-3.5628-3.4876l-1.6693-78.2436c-.0426-1.9974,1.5649-3.6396,3.5628-3.6396h61.0612c1.9979,0,3.6054,1.6422,3.5628,3.6396l-1.6693,78.2436c-.0413,1.9381-1.6243,3.4876-3.5628,3.4876Z" fill="none" stroke="#191421" stroke-linecap="round" stroke-linejoin="round" stroke-width="1.1879"/>
    <path d="M346.3908,221.0471h-21.54s-62.1557,38.7096-81.0127,31.1222c-14.1118-5.6782-27.321-39.6748-27.321-39.6748l36.5864-20.1938,7.4269,15.2047s9.2033-4.0388,57.1932-8.7902l15.5215-10.77h18.214s2.1682,5.6946-1.1578,7.9119c0,0,2.8363,6.6943-.1729,9.5452,0,0,1.6475,2.9743-1.5201,8.5176,.5273,2.7093-.2202,5.0828-2.2174,7.1272Z" fill="#e6a298"/>
    <path d="M346.3908,221.0471h-21.54s-62.1557,38.7096-81.0127,31.1222c-14.1118-5.6782-27.321-39.6748-27.321-39.6748l36.5864-20.1938,7.4269,15.2047s9.2033-4.0388,57.1932-8.7902l15.5215-10.77h18.214s2.1682,5.6946-1.1578,7.9119c0,0,2.8363,6.6943-.1729,9.5452,0,0,1.6475,2.9743-1.5201,8.5176,.5273,2.7093-.2202,5.0828-2.2174,7.1272Z" fill="none" stroke="#191421" stroke-linecap="round" stroke-linejoin="round" stroke-width="1.1879"/>
    <path d="M258.6913,208.0389c-2.9279,.5052-5.8066,1.7067-8.3198,3.285-2.4837,1.5597-4.9455,3.725-6.3702,6.318-.3617,.6582,.5058,1.3645,1.0531,.8125,.9979-1.0065,1.9411-2.0686,2.9627-3.053,1.0202-.9829,2.1244-1.8747,3.2715-2.7049,2.3479-1.6994,4.8757-2.9537,7.6039-3.9284,.4622-.1651,.2774-.8119-.2011-.7293h0Z" fill="#191421"/>
    <path d="M271.5125,173.9577c2.9936,.8509,5.9875,1.4057,9.0852,1.7435,3.1137,.3395,6.2283,.4958,9.359,.5758,6.3143,.1612,12.666-.1675,18.9732-.4505,3.6018-.1616,7.2323-.2812,10.8058-.781,.5681-.0794,.3843-.9202-.1289-.9525-3.1755-.1995-6.3811-.0803-9.5595,.0214-3.1616,.1012-6.3214,.2416-9.4821,.3658-6.1368,.2411-12.2796,.4325-18.4145,.0481-3.4861-.2184-7.0097-.641-10.4456-1.2687-.4517-.0825-.6475,.5687-.1924,.698h0Z" fill="#191421"/>
    <path d="M268.0986,178.5225c.2718,4.0127,.874,8.0113,1.3772,12.0005,.501,3.972,.9923,7.9478,1.6658,11.8943,.0998,.5848,1.0986,.4558,1.0436-.1412-.3674-3.9871-.9195-7.955-1.4602-11.9222-.5429-3.9835-.9926-8.0016-1.7651-11.9481-.0942-.4815-.8948-.3773-.8613,.1166h0Z" fill="#191421"/>
    <path d="M289.9023,353.2693c.451-1.1266,1.0091-2.2107,1.468-3.3373,.4617-1.1334,.9505-2.257,1.4643-3.3677,1.0148-2.1941,2.1533-4.3051,3.3271-6.4166,2.3223-4.1776,4.9731-8.2011,7.9139-11.9694,1.6689-2.1385,3.6355-4.0857,5.0163-6.4227,.2501-.4233-.2664-.9981-.7015-.7015-2.048,1.3959-3.5627,3.3683-5.0963,5.2961-1.5269,1.9194-2.9745,3.9006-4.3361,5.9407-2.7479,4.1174-5.0425,8.4823-6.9936,13.0293-.5251,1.2237-1.0345,2.4558-1.5024,3.7026-.5035,1.3416-.8476,2.6861-1.2442,4.0579-.13,.4496,.5191,.6021,.6846,.1887h0Z" fill="#191421"/>
    <path d="M298.0587,341.8809c2.3447-1.3827,4.5444-2.9874,6.9288-4.3107,1.1597-.6436,2.3437-1.2444,3.5448-1.8068,1.2623-.591,2.5861-1.0674,3.7824-1.7793,.4534-.2698,.1411-.9108-.345-.8184-1.3516,.2567-2.6165,.8575-3.8623,1.4347-1.2704,.5885-2.5142,1.2319-3.7319,1.9228-2.3746,1.3475-4.8152,2.8487-6.7498,4.7966-.2843,.2862,.0797,.7695,.433,.5611h0Z" fill="#191421"/>
    <path d="M267.3708,316.4147c2.8529,4.0779,5.748,8.1093,8.273,12.4057,2.5266,4.2992,4.7428,8.7718,6.555,13.4193,.4953,1.2703,.9623,2.5518,1.3999,3.8431,.2305,.6801,.4327,1.3713,.7021,2.0373,.1207,.2983,.2415,.5977,.3663,.894,.1604,.3805,.423,.6912,.5786,1.0782,.2402,.5975,1.0874,.3792,.9709-.2677-.1166-.6477-.1108-1.2901-.2451-1.9419-.1309-.6351-.335-1.245-.5399-1.8592-.3974-1.1913-.8198-2.3743-1.2664-3.5481-.8945-2.3512-1.883-4.6676-2.9655-6.9384-2.1827-4.5789-4.7455-8.9373-7.6941-13.0638-1.6531-2.3134-3.4899-4.54-5.5119-6.5393-.3099-.3064-.8888,.101-.6231,.4808h0Z" fill="#191421"/>
    <path d="M328.5234,154.6011c-.1491,0-.2999-.0093-.4518-.029-1.9523-.2465-3.3351-2.0295-3.088-3.9824,2.1629-17.1104,.0133-37.8105-.0087-38.0176-.2071-1.957,1.2105-3.7121,3.1675-3.9197,1.9593-.2105,3.7115,1.2093,3.9203,3.1663,.0934,.8787,2.2603,21.7163-.0087,39.6648-.2274,1.8009-1.7615,3.1176-3.5305,3.1176Z" fill="#384778"/>
    <path d="M328.5234,154.6011c-.1491,0-.2999-.0093-.4518-.029-1.9523-.2465-3.3351-2.0295-3.088-3.9824,2.1629-17.1104,.0133-37.8105-.0087-38.0176-.2071-1.957,1.2105-3.7121,3.1675-3.9197,1.9593-.2105,3.7115,1.2093,3.9203,3.1663,.0934,.8787,2.2603,21.7163-.0087,39.6648-.2274,1.8009-1.7615,3.1176-3.5305,3.1176Z" fill="none" stroke="#191421" stroke-linecap="round" stroke-linejoin="round" stroke-width="1.1879"/>
    <path d="M262.3647,156.1898c-1.6791,0-3.1744-1.1925-3.4975-2.903-6.1186-32.4036-16.9068-45.6343-17.0147-45.7643-1.2569-1.5075-1.0626-3.7527,.4397-5.0154,1.5017-1.2633,3.7382-1.0782,5.0067,.4188,.4895,.5777,12.0573,14.5381,18.5715,49.0384,.3654,1.9338-.9066,3.7979-2.8403,4.1628-.2233,.0423-.446,.0626-.6653,.0626Z" fill="#384778"/>
    <path d="M262.3647,156.1898c-1.6791,0-3.1744-1.1925-3.4975-2.903-6.1186-32.4036-16.9068-45.6343-17.0147-45.7643-1.2569-1.5075-1.0626-3.7527,.4397-5.0154,1.5017-1.2633,3.7382-1.0782,5.0067,.4188,.4895,.5777,12.0573,14.5381,18.5715,49.0384,.3654,1.9338-.9066,3.7979-2.8403,4.1628-.2233,.0423-.446,.0626-.6653,.0626Z" fill="none" stroke="#191421" stroke-linecap="round" stroke-linejoin="round" stroke-width="1.1879"/>
    <path d="M353.464,261.9889c-40.5207,6.2561-132.8293,0-132.8293,0-1.4163,2.3174-1.7783,3.0486-1.2461,7.6351,0,0,86.4563,14.3801,134.3856,.3733,3.1081-3.1919,2.8481-5.8358-.3102-8.0084Z" fill="#384778"/>
    <path d="M353.464,261.9889c-40.5207,6.2561-132.8293,0-132.8293,0-1.4163,2.3174-1.7783,3.0486-1.2461,7.6351,0,0,86.4563,14.3801,134.3856,.3733,3.1081-3.1919,2.8481-5.8358-.3102-8.0084Z" fill="none" stroke="#191421" stroke-linecap="round" stroke-linejoin="round" stroke-width="1.1879"/>
    <path d="M218.101,221.0471c19.3227-21.8568,42.4294-23.4406,42.4294-23.4406-11.1039-49.0986-30.3924-84.4179-30.3924-84.4179,0,0-23.9378,3.4315-27.3722,22.1513-7.4719,40.7265,15.3351,85.7072,15.3351,85.7072Z" fill="#413f4d"/>
    <path d="M230.138,113.1886s-23.9378,3.4315-27.3722,22.1513c-7.4719,40.7265,15.3351,85.7072,15.3351,85.7072,19.3227-21.8568,42.4294-23.4406,42.4294-23.4406-5.2408-23.1736-12.3049-43.2776-18.3037-58.0474" fill="none" stroke="#191421" stroke-linecap="round" stroke-linejoin="round" stroke-width="1.1879"/>
    <path d="M223.2981,140.9681c1.8411,.4537,3.694,.7576,5.505,1.3445,1.8253,.5916,3.5804,1.3841,5.2583,2.3129,1.6851,.9327,3.2881,2.0066,4.8184,3.1748,1.5194,1.1599,2.9184,2.485,4.4893,3.5733,.31,.2148,.7672-.222,.5333-.5333-1.1663-1.552-2.6977-2.8107-4.2285-3.9916-1.6051-1.2382-3.3-2.3659-5.0791-3.3387-1.7145-.9374-3.514-1.7276-5.377-2.3197-1.8322-.5823-3.8929-1.0605-5.827-.9058-.3715,.0297-.496,.5842-.0925,.6836h0Z" fill="#191421"/>
  </g>
</svg>