<?xml version="1.0" encoding="UTF-8"?>
<svg id="Car_Repair_Tune_Up" data-name="Car Repair Tune Up" xmlns="http://www.w3.org/2000/svg" viewBox="0 0 800 600">
  <g>
    <polygon points="256.0266 594.9995 241.1845 545.3595 241.1845 65.8489 211.9646 65.8489 211.9646 545.3514 197.1132 595 241.1845 595 241.1845 594.9995 256.0266 594.9995" fill="#c2cce0"/>
    <polygon points="256.0266 594.9995 241.1845 545.3595 241.1845 65.8489 211.9646 65.8489 211.9646 545.3514 197.1132 595 241.1845 595 241.1845 594.9995 256.0266 594.9995" fill="none" stroke="#191421" stroke-linecap="round" stroke-linejoin="round" stroke-width="1.0503"/>
    <rect x="219.2831" y="79.0094" width="13.2416" height="466.342" fill="#413f4d"/>
    <line x1="226.5699" y1="79.0094" x2="225.9039" y2="545.3514" fill="none" stroke="#c2cce0" stroke-linecap="round" stroke-linejoin="round" stroke-width="2.1006"/>
    <rect x="219.2831" y="79.0094" width="13.2416" height="466.342" fill="none" stroke="#191421" stroke-linecap="round" stroke-linejoin="round" stroke-width="1.0503"/>
    <rect x="192.3552" y="65.8454" width="19.606" height="479.506" fill="#c2cce0"/>
    <rect x="192.3552" y="65.8454" width="19.606" height="479.506" fill="none" stroke="#191421" stroke-linecap="round" stroke-linejoin="round" stroke-width="1.0503"/>
    <polygon points="177.5107 594.9995 197.1166 594.9995 211.9612 545.3514 192.3552 545.3514 177.5107 594.9995" fill="#c2cce0"/>
    <polygon points="177.5107 594.9995 197.1166 594.9995 211.9612 545.3514 192.3552 545.3514 177.5107 594.9995" fill="none" stroke="#191421" stroke-linecap="round" stroke-linejoin="round" stroke-width="1.0503"/>
    <g>
      <rect x="184.3728" y="53.8017" width="27.7284" height="12.0437" transform="translate(396.474 119.6471) rotate(180)" fill="#c2cce0"/>
      <rect x="184.3728" y="53.8017" width="27.7284" height="12.0437" transform="translate(396.474 119.6471) rotate(180)" fill="none" stroke="#191421" stroke-linecap="round" stroke-linejoin="round" stroke-width="1.0503"/>
      <rect x="212.1012" y="53.8017" width="36.131" height="12.0437" fill="#c2cce0"/>
      <rect x="212.1012" y="53.8017" width="36.131" height="12.0437" fill="none" stroke="#191421" stroke-linecap="round" stroke-linejoin="round" stroke-width="1.0503"/>
    </g>
    <polygon points="546.4227 306.1538 219.2831 306.1538 219.2831 291.3093 277.5408 291.3093 474.1607 291.3093 546.4227 291.3093 546.4227 306.1538" fill="#e65a55"/>
    <polygon points="546.4227 306.1538 219.2831 306.1538 219.2831 291.3093 277.5408 291.3093 474.1607 291.3093 546.4227 291.3093 546.4227 306.1538" fill="none" stroke="#191421" stroke-linecap="round" stroke-linejoin="round" stroke-width="1.0503"/>
    <polygon points="259.7614 306.1538 244.6368 276.4648 231.1927 276.4648 231.1927 306.1538 259.7614 306.1538" fill="#e65a55"/>
    <polygon points="259.7614 306.1538 244.6368 276.4648 231.1927 276.4648 231.1927 306.1538 259.7614 306.1538" fill="none" stroke="#191421" stroke-linecap="round" stroke-linejoin="round" stroke-width="1.0503"/>
    <polygon points="247.8518 306.1538 232.7272 276.4648 219.2831 276.4648 219.2831 306.1538 247.8518 306.1538" fill="#e65a55"/>
    <polygon points="247.8518 306.1538 232.7272 276.4648 219.2831 276.4648 219.2831 306.1538 247.8518 306.1538" fill="none" stroke="#191421" stroke-linecap="round" stroke-linejoin="round" stroke-width="1.0503"/>
  </g>
  <g>
    <rect x="406.4447" y="206.5707" width="110.0678" height="86.7733" fill="#2c2535"/>
    <rect x="406.4447" y="206.5707" width="110.0678" height="86.7733" fill="none" stroke="#191421" stroke-linecap="round" stroke-linejoin="round" stroke-width="1.0503"/>
    <rect x="399.0925" y="256.7203" width="82.3339" height="16.5133" fill="#413f4d"/>
    <rect x="399.0925" y="256.7203" width="82.3339" height="16.5133" fill="none" stroke="#191421" stroke-linecap="round" stroke-linejoin="round" stroke-width="1.0503"/>
    <g>
      <path d="M614.3532,324.5857c-22.4866,0-40.7155-25.0881-40.7155-56.0359,0-30.9478,18.229-56.0359,40.7155-56.0359h20.1805v112.0718h-20.1805Z" fill="#2c2535"/>
      <path d="M614.3532,324.5857c-22.4866,0-40.7155-25.0881-40.7155-56.0359,0-30.9478,18.229-56.0359,40.7155-56.0359h20.1805v112.0718h-20.1805Z" fill="none" stroke="#191421" stroke-linecap="round" stroke-linejoin="round" stroke-width="1.0503"/>
      <ellipse cx="634.5337" cy="268.5498" rx="40.7155" ry="56.0359" fill="#413f4d"/>
      <ellipse cx="634.5337" cy="268.5498" rx="40.7155" ry="56.0359" fill="none" stroke="#191421" stroke-linecap="round" stroke-linejoin="round" stroke-width="1.0503"/>
      <ellipse cx="634.5337" cy="268.5498" rx="25.1273" ry="34.5822" fill="#c2cce0"/>
      <ellipse cx="634.5337" cy="268.5498" rx="25.1273" ry="34.5822" fill="none" stroke="#191421" stroke-linecap="round" stroke-linejoin="round" stroke-width="1.0503"/>
      <ellipse cx="634.5337" cy="268.5498" rx="21.7307" ry="29.9075" fill="#413f4d"/>
      <ellipse cx="634.5337" cy="268.5498" rx="21.7307" ry="29.9075" fill="none" stroke="#191421" stroke-linecap="round" stroke-linejoin="round" stroke-width="1.0503"/>
      <path d="M628.9696,268.5468l-13.8914,13.3094c.9461,2.6385,2.1732,5.0527,3.6344,7.1797l11.8868-11.3888v20.3186c1.2739,.3231,2.5853,.4936,3.9342,.4936s2.6603-.1705,3.9342-.4936v-20.3186s11.8868,11.3888,11.8868,11.3888c1.4613-2.127,2.6883-4.5412,3.6344-7.1797l-13.8914-13.3094,13.8914-13.3093c-.9461-2.6385-2.1732-5.0527-3.6344-7.1797l-11.8868,11.3888v-20.3096c-1.2739-.3231-2.5853-.4936-3.9342-.4936s-2.6603,.1705-3.9342,.4936v20.3096s-11.8868-11.3888-11.8868-11.3888c-1.4613,2.127-2.6883,4.5412-3.6344,7.1797l13.8914,13.3093Z" fill="#c2cce0"/>
      <path d="M628.9696,268.5468l-13.8914,13.3094c.9461,2.6385,2.1732,5.0527,3.6344,7.1797l11.8868-11.3888v20.3186c1.2739,.3231,2.5853,.4936,3.9342,.4936s2.6603-.1705,3.9342-.4936v-20.3186s11.8868,11.3888,11.8868,11.3888c1.4613-2.127,2.6883-4.5412,3.6344-7.1797l-13.8914-13.3094,13.8914-13.3093c-.9461-2.6385-2.1732-5.0527-3.6344-7.1797l-11.8868,11.3888v-20.3096c-1.2739-.3231-2.5853-.4936-3.9342-.4936s-2.6603,.1705-3.9342,.4936v20.3096s-11.8868-11.3888-11.8868-11.3888c-1.4613,2.127-2.6883,4.5412-3.6344,7.1797l13.8914,13.3093Z" fill="none" stroke="#191421" stroke-linecap="round" stroke-linejoin="round" stroke-width="1.0503"/>
      <ellipse cx="634.5337" cy="268.5498" rx="7.26" ry="9.9917" fill="#c2cce0"/>
      <ellipse cx="634.5337" cy="268.5498" rx="7.26" ry="9.9917" fill="none" stroke="#191421" stroke-linecap="round" stroke-linejoin="round" stroke-width="1.0503"/>
    </g>
    <path d="M458.7982,285.9338c-8.4097,0-15.2272-9.3827-15.2272-20.9569,0-11.5742,6.8174-20.9569,15.2272-20.9569h11.9096v41.9137h-11.9096Z" fill="#c2cce0"/>
    <path d="M458.7982,285.9338c-8.4097,0-15.2272-9.3827-15.2272-20.9569,0-11.5742,6.8174-20.9569,15.2272-20.9569h11.9096v41.9137h-11.9096Z" fill="none" stroke="#191421" stroke-linecap="round" stroke-linejoin="round" stroke-width="1.0503"/>
    <ellipse cx="470.7078" cy="264.9769" rx="15.2272" ry="20.9569" fill="#c2cce0"/>
    <ellipse cx="470.7078" cy="264.9769" rx="15.2272" ry="20.9569" fill="none" stroke="#191421" stroke-linecap="round" stroke-linejoin="round" stroke-width="1.0503"/>
    <path d="M475.4716,274.9687c-4.0096,0-7.26-4.4735-7.26-9.9917,0-5.5183,3.2504-9.9917,7.26-9.9917h5.9548v19.9835h-5.9548Z" fill="#c2cce0"/>
    <path d="M475.4716,274.9687c-4.0096,0-7.26-4.4735-7.26-9.9917,0-5.5183,3.2504-9.9917,7.26-9.9917h5.9548v19.9835h-5.9548Z" fill="none" stroke="#191421" stroke-linecap="round" stroke-linejoin="round" stroke-width="1.0503"/>
    <ellipse cx="481.4264" cy="264.9769" rx="7.26" ry="9.9917" fill="#c2cce0"/>
    <ellipse cx="481.4264" cy="264.9769" rx="7.26" ry="9.9917" fill="none" stroke="#191421" stroke-linecap="round" stroke-linejoin="round" stroke-width="1.0503"/>
    <path d="M422.2929,289.7253c-4.9194-91.7824,102.4449-93.227,86.1185,6.7056h93.5249c-20.6075-100.8747,75.3112-102.3107,67.8175-12.2055l12.7392-2.1539s8.243-99.4388-11.2405-152.9275c0,0-20.9822-81.8485-94.0453-108.7724C523.1479,.4506,407.7574,4.3749,351.3885,7.7641c-20.1808,1.2133-45.0767,9.4963-64.3104,39.1724l-47.6572,81.8485s-65.7467,18.6672-107.7111,56.7196c0,0-9.492,15.0774-9.492,35.6592,0,0-5.4953,9.5729-2.9975,19.6245,0,0-7.297,25.3683-.651,41.1636,0,0-2.846,6.2224,.1514,12.4448l296.9817,1.9865c3.7934,.0254,6.785-3.0281,6.5905-6.6579Z" fill="#697fbc"/>
    <path d="M459.8897,25.1861h-123.6674c-1.0261,0-10.299,.3228-11.1035,.9237-8.4647,6.3234-48.8504,44.6424-63.8229,100.4043-.7345,2.7356,1.4233,5.3995,4.4145,5.3995h159.3477c2.2685,0,4.188-1.5745,4.5158-3.6923,5.408-34.9343,12.45-65.8623,34.0917-96.3234,2.0353-2.8648-.1205-6.7119-3.776-6.7119Z" fill="#c2cce0"/>
    <path d="M459.8897,25.1861h-123.6674c-1.0261,0-10.299,.3228-11.1035,.9237-8.4647,6.3234-48.8504,44.6424-63.8229,100.4043-.7345,2.7356,1.4233,5.3995,4.4145,5.3995h159.3477c2.2685,0,4.188-1.5745,4.5158-3.6923,5.408-34.9343,12.45-65.8623,34.0917-96.3234,2.0353-2.8648-.1205-6.7119-3.776-6.7119Z" fill="none" stroke="#191421" stroke-linecap="round" stroke-linejoin="round" stroke-width="1.0503"/>
    <path d="M261.6054,134.1698h166.085c2.3643,0,4.365-1.6411,4.7067-3.8483,5.6366-36.4113,12.9764-68.647,35.5331-100.396,2.1214-2.9859-.1255-6.9956-3.9356-6.9956h-128.8961c-1.0694,0-10.7344,.3364-11.5729,.9628-8.8227,6.5907-50.9159,46.5299-66.5214,104.6494-.7656,2.8513,1.4835,5.6278,4.6011,5.6278Zm2.8239-9.1364c14.5103-54.0406,53.6494-91.1767,61.8528-97.3049,.7796-.5824,9.7663-.8952,10.7607-.8952h119.8499c3.5427,0,5.6319,3.7283,3.6594,6.5046-20.9736,29.5208-27.7983,59.4941-33.0393,93.35-.3177,2.0523-2.178,3.5782-4.3764,3.5782h-154.4289c-2.8988,0-4.9901-2.5816-4.2782-5.2328Z" fill="#413f4d"/>
    <path d="M261.6054,134.1698h166.085c2.3643,0,4.365-1.6411,4.7067-3.8483,5.6366-36.4113,12.9764-68.647,35.5331-100.396,2.1214-2.9859-.1255-6.9956-3.9356-6.9956h-128.8961c-1.0694,0-10.7344,.3364-11.5729,.9628-8.8227,6.5907-50.9159,46.5299-66.5214,104.6494-.7656,2.8513,1.4835,5.6278,4.6011,5.6278Zm2.8239-9.1364c14.5103-54.0406,53.6494-91.1767,61.8528-97.3049,.7796-.5824,9.7663-.8952,10.7607-.8952h119.8499c3.5427,0,5.6319,3.7283,3.6594,6.5046-20.9736,29.5208-27.7983,59.4941-33.0393,93.35-.3177,2.0523-2.178,3.5782-4.3764,3.5782h-154.4289c-2.8988,0-4.9901-2.5816-4.2782-5.2328Z" fill="none" stroke="#191421" stroke-linecap="round" stroke-linejoin="round" stroke-width="1.0503"/>
    <path d="M422.2929,289.7253c-4.9194-91.7824,102.4449-93.227,86.1185,6.7056h93.5249c-20.6075-100.8747,75.3112-102.3107,67.8175-12.2055l12.7392-2.1539s8.243-99.4388-11.2405-152.9275c0,0-20.9822-81.8485-94.0453-108.7724C523.1479,.4506,407.7574,4.3749,351.3885,7.7641c-20.1808,1.2133-45.0767,9.4963-64.3104,39.1724l-47.6572,81.8485s-65.7467,18.6672-107.7111,56.7196c0,0-9.492,15.0774-9.492,35.6592,0,0-5.4953,9.5729-2.9975,19.6245,0,0-7.297,25.3683-.651,41.1636,0,0-2.846,6.2224,.1514,12.4448l296.9817,1.9865c3.7934,.0254,6.785-3.0281,6.5905-6.6579Z" fill="none" stroke="#191421" stroke-linecap="round" stroke-linejoin="round" stroke-width="1.0503"/>
    <path d="M641.7936,143.1444h-180.4806s-11.7652,16.274-3.0763,61.7454c0,0,66.6398-7.6583,64.1419,67.4892h56.5162s10.5551-49.8964,3.7468-124.9853" fill="none" stroke="#384778" stroke-linecap="round" stroke-linejoin="round" stroke-width="1.0503"/>
    <path d="M676.5214,147.3941c1.7544,7.688,3.1359,15.8517,4.2133,24.2128-14.8052,2.6723-24.4704-1.1797-24.4704-1.1797-2.4982-23.4479,20.2457-23.0333,20.257-23.0331Z" fill="#e65a55"/>
    <path d="M676.5214,147.3941c1.7544,7.688,3.1359,15.8517,4.2133,24.2128-14.8052,2.6723-24.4704-1.1797-24.4704-1.1797-2.4982-23.4479,20.2457-23.0333,20.257-23.0331Z" fill="none" stroke="#191421" stroke-linecap="round" stroke-linejoin="round" stroke-width="1.0503"/>
    <rect x="596.0663" y="152.478" width="11.2405" height="5.5044" rx="1.8337" ry="1.8337" transform="translate(1203.373 310.4605) rotate(-180)" fill="#413f4d"/>
    <rect x="596.0663" y="152.478" width="11.2405" height="5.5044" rx="1.8337" ry="1.8337" transform="translate(1203.373 310.4605) rotate(-180)" fill="none" stroke="#191421" stroke-linecap="round" stroke-linejoin="round" stroke-width="1.0503"/>
    <rect x="500.4745" y="152.478" width="11.2405" height="5.5044" rx="1.8337" ry="1.8337" transform="translate(1012.1894 310.4605) rotate(-180)" fill="#413f4d"/>
    <rect x="500.4745" y="152.478" width="11.2405" height="5.5044" rx="1.8337" ry="1.8337" transform="translate(1012.1894 310.4605) rotate(-180)" fill="none" stroke="#191421" stroke-linecap="round" stroke-linejoin="round" stroke-width="1.0503"/>
    <rect x="342.5311" y="253.7117" width="30.4742" height="13.1628" rx="6.5814" ry="6.5814" transform="translate(715.5364 520.5863) rotate(180)" fill="#e65a55"/>
    <rect x="342.5311" y="253.7117" width="30.4742" height="13.1628" rx="6.5814" ry="6.5814" transform="translate(715.5364 520.5863) rotate(180)" fill="none" stroke="#191421" stroke-linecap="round" stroke-linejoin="round" stroke-width="1.0503"/>
    <path d="M132.9661,260.2966c0,3.6347-3.0817,6.5784-6.8754,6.5784h-10.2945c-.103-4.595,.2811-9.1631,.8337-13.1658h9.4608c1.8921,0,3.6157,.7359,4.8615,1.9296,1.2458,1.1936,2.0139,2.8449,2.0139,4.6578Z" fill="#e65a55"/>
    <path d="M132.9661,260.2966c0,3.6347-3.0817,6.5784-6.8754,6.5784h-10.2945c-.103-4.595,.2811-9.1631,.8337-13.1658h9.4608c1.8921,0,3.6157,.7359,4.8615,1.9296,1.2458,1.1936,2.0139,2.8449,2.0139,4.6578Z" fill="none" stroke="#191421" stroke-linecap="round" stroke-linejoin="round" stroke-width="1.0503"/>
    <path d="M171.7059,269.3874h118.8393c11.7066,0,22.0035-7.4147,25.2586-18.1885h0s-169.3565,0-169.3565,0h0c3.2551,10.7739,13.552,18.1886,25.2586,18.1886Z" fill="#413f4d"/>
    <path d="M171.7059,269.3874h118.8393c11.7066,0,22.0035-7.4147,25.2586-18.1885h0s-169.3565,0-169.3565,0h0c3.2551,10.7739,13.552,18.1886,25.2586,18.1886Z" fill="none" stroke="#191421" stroke-linecap="round" stroke-linejoin="round" stroke-width="1.0503"/>
    <rect x="151.9426" y="218.7706" width="158.3658" height="23.693" rx="8.4352" ry="8.4352" transform="translate(462.251 461.2341) rotate(-180)" fill="#413f4d"/>
    <rect x="151.9426" y="218.7706" width="158.3658" height="23.693" rx="8.4352" ry="8.4352" transform="translate(462.251 461.2341) rotate(-180)" fill="none" stroke="#191421" stroke-linecap="round" stroke-linejoin="round" stroke-width="1.0503"/>
    <path d="M381.0904,225.3485l-5.7854,10.6081c-2.1813,3.9997-6.5013,6.5069-11.2114,6.5069h-30.1448c-6.9862,0-12.6497-5.4262-12.6497-12.1197h0c0-6.4763,5.3142-11.8083,12.0665-12.1069l41.762-1.8467c4.9292-.218,8.248,4.7681,5.9629,8.9583Z" fill="#c2cce0"/>
    <path d="M381.0904,225.3485l-5.7854,10.6081c-2.1813,3.9997-6.5013,6.5069-11.2114,6.5069h-30.1448c-6.9862,0-12.6497-5.4262-12.6497-12.1197h0c0-6.4763,5.3142-11.8083,12.0665-12.1069l41.762-1.8467c4.9292-.218,8.248,4.7681,5.9629,8.9583Z" fill="none" stroke="#191421" stroke-linecap="round" stroke-linejoin="round" stroke-width="1.0503"/>
    <path d="M137.7563,230.3438h0c0,6.6936-5.6635,12.1198-12.6497,12.1198h-6.3272c.2676-1.0716,.4409-1.6753,.4409-1.6753-2.4978-10.0516,2.9975-19.6245,2.9975-19.6245,0-1.0415,.0302-2.0649,.0764-3.077l3.3957,.1501c6.7523,.2986,12.0665,5.6306,12.0665,12.1068Z" fill="#c2cce0"/>
    <path d="M137.7563,230.3438h0c0,6.6936-5.6635,12.1198-12.6497,12.1198h-6.3272c.2676-1.0716,.4409-1.6753,.4409-1.6753-2.4978-10.0516,2.9975-19.6245,2.9975-19.6245,0-1.0415,.0302-2.0649,.0764-3.077l3.3957,.1501c6.7523,.2986,12.0665,5.6306,12.0665,12.1068Z" fill="none" stroke="#191421" stroke-linecap="round" stroke-linejoin="round" stroke-width="1.0503"/>
    <path d="M223.2184,145.1751c-48.208,13.6039-74.5501,44.2158-82.8853,55.4641-1.3224,1.7846,.0082,4.2506,2.2925,4.2506h237.4726c1.0608,0,2.0228-.573,2.5025-1.4795,12.4864-23.5995,32.5461-47.1852,39.7112-55.2883,1.0309-1.1659,.1615-2.9483-1.4333-2.9492l-196.8181-.1097c-.2841-.0027-.5695,.0351-.842,.112Z" fill="#2c2535"/>
    <path d="M223.2184,145.1751c-48.208,13.6039-74.5501,44.2158-82.8853,55.4641-1.3224,1.7846,.0082,4.2506,2.2925,4.2506h237.4726c1.0608,0,2.0228-.573,2.5025-1.4795,12.4864-23.5995,32.5461-47.1852,39.7112-55.2883,1.0309-1.1659,.1615-2.9483-1.4333-2.9492l-196.8181-.1097c-.2841-.0027-.5695,.0351-.842,.112Z" fill="none" stroke="#191421" stroke-linecap="round" stroke-linejoin="round" stroke-width="1.0503"/>
    <path d="M417.4323,145.1751c-65.2977-5.2143-130.0456-5.3065-194.2139,0,0,0-4.4864-62.2194-45.8401-113.4727-4.7521-5.8897-.3486-14.442,7.4212-14.442h169.8361c2.0992,0,4.1358,.6743,5.7911,1.9113,35.2109,26.314,57.972,83.3935,57.0057,126.0034Z" fill="#697fbc"/>
    <path d="M417.4323,145.1751c-65.2977-5.2143-130.0456-5.3065-194.2139,0,0,0-4.4864-62.2194-45.8401-113.4727-4.7521-5.8897-.3486-14.442,7.4212-14.442h169.8361c2.0992,0,4.1358,.6743,5.7911,1.9113,35.2109,26.314,57.972,83.3935,57.0057,126.0034Z" fill="none" stroke="#191421" stroke-linecap="round" stroke-linejoin="round" stroke-width="1.0503"/>
    <line x1="381.8275" y1="63.4498" x2="375.8974" y2="204.8898" fill="none" stroke="#191421" stroke-linecap="round" stroke-linejoin="round" stroke-width="1.5755"/>
    <path d="M379.8533,65.096l3.9235,.2779,.4075-5.2806c.0801-1.038-.7333-1.9418-1.8167-2.0185h0c-1.0834-.0767-2.0267,.7025-2.1068,1.7406l-.4075,5.2806Z" fill="#697fbc"/>
    <path d="M379.8533,65.096l3.9235,.2779,.4075-5.2806c.0801-1.038-.7333-1.9418-1.8167-2.0185h0c-1.0834-.0767-2.0267,.7025-2.1068,1.7406l-.4075,5.2806Z" fill="none" stroke="#191421" stroke-linecap="round" stroke-linejoin="round" stroke-width="1.0503"/>
    <g>
      <line x1="199.856" y1="63.4498" x2="177.2788" y2="204.8898" fill="none" stroke="#191421" stroke-linecap="round" stroke-linejoin="round" stroke-width="1.5755"/>
      <path d="M197.6881,65.096l3.8907,.2779,1.029-5.2806c.2023-1.038-.5047-1.9418-1.5791-2.0185h0c-1.0744-.0767-2.1093,.7025-2.3116,1.7406l-1.029,5.2806Z" fill="#697fbc"/>
      <path d="M197.6881,65.096l3.8907,.2779,1.029-5.2806c.2023-1.038-.5047-1.9418-1.5791-2.0185h0c-1.0744-.0767-2.1093,.7025-2.3116,1.7406l-1.029,5.2806Z" fill="none" stroke="#191421" stroke-linecap="round" stroke-linejoin="round" stroke-width="1.0503"/>
    </g>
    <path d="M454.2675,128.1459c1.5116-15.3939,10.5549-84.0019,52.5529-97.6497,47.6827-15.4952,133.3356,18.1899,148.1817,100.7186h-197.8213c-1.7264,0-3.0749-1.4221-2.9132-3.0689Z" fill="#c2cce0"/>
    <path d="M454.2675,128.1459c1.5116-15.3939,10.5549-84.0019,52.5529-97.6497,47.6827-15.4952,133.3356,18.1899,148.1817,100.7186h-197.8213c-1.7264,0-3.0749-1.4221-2.9132-3.0689Z" fill="none" stroke="#191421" stroke-linecap="round" stroke-linejoin="round" stroke-width="1.0503"/>
    <path d="M586.3885,129.144h-7.4937V39.0466c2.5155,1.0961,5.0168,2.2753,7.4937,3.549v86.5484Z" fill="#413f4d"/>
    <path d="M586.3885,129.144h-7.4937V39.0466c2.5155,1.0961,5.0168,2.2753,7.4937,3.549v86.5484Z" fill="none" stroke="#191421" stroke-linecap="round" stroke-linejoin="round" stroke-width="1.0503"/>
    <path d="M451.6,131.2403c-.1473,1.5762,1.1477,2.9295,2.7994,2.9295h201.9015c1.7688,0,3.0909-1.5475,2.7611-3.2124-16.958-85.6115-104.158-120.4348-152.9673-104.124-43.8333,14.6479-53.0274,88.7024-54.4947,104.407Zm6.6494-5.0434c1.4516-14.7831,10.1361-80.669,50.4678-93.7754,45.7908-14.8804,128.0454,17.4682,142.3025,96.7225h-189.9726c-1.6579,0-2.9529-1.3656-2.7977-2.9471Z" fill="#413f4d"/>
    <path d="M451.6,131.2403c-.1473,1.5762,1.1477,2.9295,2.7994,2.9295h201.9015c1.7688,0,3.0909-1.5475,2.7611-3.2124-16.958-85.6115-104.158-120.4348-152.9673-104.124-43.8333,14.6479-53.0274,88.7024-54.4947,104.407Zm6.6494-5.0434c1.4516-14.7831,10.1361-80.669,50.4678-93.7754,45.7908-14.8804,128.0454,17.4682,142.3025,96.7225h-189.9726c-1.6579,0-2.9529-1.3656-2.7977-2.9471Z" fill="none" stroke="#191421" stroke-linecap="round" stroke-linejoin="round" stroke-width="1.0503"/>
    <path d="M451.9523,134.1698c7.7755,3.6694,15.9784,6.0663,24.521,7.4522,10.405,1.688,20.0555-5.0116,20.0555-13.8004h0c0-8.759-9.5904-15.4685-19.9667-13.8147-8.2033,1.3075-16.4066,4.4386-24.6098,9.3933v10.7695Z" fill="#697fbc"/>
    <path d="M451.9523,134.1698c7.7755,3.6694,15.9784,6.0663,24.521,7.4522,10.405,1.688,20.0555-5.0116,20.0555-13.8004h0c0-8.759-9.5904-15.4685-19.9667-13.8147-8.2033,1.3075-16.4066,4.4386-24.6098,9.3933v10.7695Z" fill="none" stroke="#191421" stroke-linecap="round" stroke-linejoin="round" stroke-width="1.0503"/>
    <path d="M451.5885,134.1698c6.7273,3.6694,13.8245,6.0663,21.2155,7.4522,9.0024,1.688,17.3519-5.0116,17.3519-13.8004h0c0-8.759-8.2976-15.4685-17.2751-13.8147-7.0975,1.3075-14.1949,4.4386-21.2924,9.3933v10.7695Z" fill="#697fbc"/>
    <path d="M451.5885,134.1698c6.7273,3.6694,13.8245,6.0663,21.2155,7.4522,9.0024,1.688,17.3519-5.0116,17.3519-13.8004h0c0-8.759-8.2976-15.4685-17.2751-13.8147-7.0975,1.3075-14.1949,4.4386-21.2924,9.3933v10.7695Z" fill="none" stroke="#191421" stroke-linecap="round" stroke-linejoin="round" stroke-width="1.0503"/>
  </g>
  <g>
    <polygon points="561.8274 276.4648 546.9829 276.4648 539.1405 306.1538 561.8274 306.1538 561.8274 276.4648" fill="#e65a55"/>
    <polygon points="561.8274 276.4648 546.9829 276.4648 539.1405 306.1538 561.8274 306.1538 561.8274 276.4648" fill="none" stroke="#191421" stroke-linecap="round" stroke-linejoin="round" stroke-width="1.0503"/>
    <polygon points="615.6958 594.9995 600.8537 545.3595 600.8537 65.8489 571.6338 65.8489 571.6338 545.3514 556.7824 595 600.8537 595 600.8537 594.9995 615.6958 594.9995" fill="#c2cce0"/>
    <polygon points="615.6958 594.9995 600.8537 545.3595 600.8537 65.8489 571.6338 65.8489 571.6338 545.3514 556.7824 595 600.8537 595 600.8537 594.9995 615.6958 594.9995" fill="none" stroke="#191421" stroke-linecap="round" stroke-linejoin="round" stroke-width="1.0503"/>
    <rect x="552.0244" y="65.8454" width="19.606" height="479.506" fill="#c2cce0"/>
    <rect x="552.0244" y="65.8454" width="19.606" height="479.506" fill="none" stroke="#191421" stroke-linecap="round" stroke-linejoin="round" stroke-width="1.0503"/>
    <polygon points="537.1799 594.9995 556.7858 594.9995 571.6304 545.3514 552.0244 545.3514 537.1799 594.9995" fill="#c2cce0"/>
    <polygon points="537.1799 594.9995 556.7858 594.9995 571.6304 545.3514 552.0244 545.3514 537.1799 594.9995" fill="none" stroke="#191421" stroke-linecap="round" stroke-linejoin="round" stroke-width="1.0503"/>
    <g>
      <rect x="544.042" y="53.8017" width="27.7284" height="12.0437" transform="translate(1115.8124 119.6471) rotate(180)" fill="#c2cce0"/>
      <rect x="571.7704" y="53.8017" width="36.131" height="12.0437" fill="#c2cce0"/>
    </g>
    <g>
      <rect x="544.042" y="53.8017" width="27.7284" height="12.0437" transform="translate(1115.8124 119.6471) rotate(180)" fill="none" stroke="#191421" stroke-linecap="round" stroke-linejoin="round" stroke-width="1.0503"/>
      <rect x="571.7704" y="53.8017" width="36.131" height="12.0437" fill="none" stroke="#191421" stroke-linecap="round" stroke-linejoin="round" stroke-width="1.0503"/>
    </g>
    <rect x="584.2342" y="361.8955" width="37.5314" height="55.737" fill="#c2cce0"/>
    <rect x="584.2342" y="361.8955" width="37.5314" height="55.737" fill="none" stroke="#191421" stroke-linecap="round" stroke-linejoin="round" stroke-width="1.0503"/>
    <line x1="600.8537" y1="364.4163" x2="600.8537" y2="416.2321" fill="none" stroke="#191421" stroke-linecap="round" stroke-linejoin="round" stroke-width="1.0503"/>
    <line x1="607.9014" y1="361.8955" x2="607.9014" y2="373.9392" fill="none" stroke="#191421" stroke-linecap="round" stroke-linejoin="round" stroke-width="2.1006"/>
    <line x1="616.2381" y1="361.8955" x2="616.2381" y2="373.9392" fill="none" stroke="#191421" stroke-linecap="round" stroke-linejoin="round" stroke-width="2.1006"/>
    <rect x="584.2342" y="330.4245" width="37.5314" height="31.4711" fill="#e65a55"/>
    <rect x="584.2342" y="330.4245" width="37.5314" height="31.4711" fill="none" stroke="#191421" stroke-linecap="round" stroke-linejoin="round" stroke-width="1.0503"/>
    <line x1="600.8537" y1="361.8955" x2="600.8537" y2="332.7667" fill="none" stroke="#191421" stroke-linecap="round" stroke-linejoin="round" stroke-width="1.0503"/>
  </g>
  <g>
    <path d="M301.6282,544.091s-1.3442-4.4113-6.974-4.2013c0,0-9.621-5.2516-15.0827-2.7308s-8.6126,15.3019-6.722,21.6202-2.783,17.0316-.5513,23.5435c2.2318,6.512,11.6846,12.6768,11.6846,12.6768h17.6454s2.5208-6.3749-3.9912-10.9963l1.0503-16.385,2.9409-23.5272Z" fill="#2c2535"/>
    <path d="M301.6282,544.091s-1.3442-4.4113-6.974-4.2013c0,0-9.621-5.2516-15.0827-2.7308s-8.6126,15.3019-6.722,21.6202-2.783,17.0316-.5513,23.5435c2.2318,6.512,11.6846,12.6768,11.6846,12.6768h17.6454s2.5208-6.3749-3.9912-10.9963l1.0503-16.385,2.9409-23.5272Z" fill="none" stroke="#191421" stroke-linecap="round" stroke-linejoin="round" stroke-width="1.0503"/>
    <path d="M284.9306,583.5755c.8961,.3112,1.894,.3565,2.8322,.4546,1.0269,.1074,2.0536,.2166,3.0807,.3219,.9882,.1014,1.9769,.1992,2.9653,.299,.9357,.0944,1.9909,.3481,2.9204,.1507,.3181-.0676,.3865-.5618,.0926-.7086-.7963-.398-1.8025-.3899-2.6746-.4777-1.0251-.1033-2.0503-.2053-3.0755-.3071-.9886-.0981-1.9777-.1908-2.9666-.2857-1.0076-.0967-2.0715-.2748-3.0807-.1401-.3835,.0512-.4925,.5546-.0938,.6931h0Z" fill="#191421"/>
    <path d="M390.8658,326.6933l1.8753-7.045c.5703-2.1426,.2393-4.4252-.9162-6.3174l-5.3153-8.7043s-1.7554-11.1486-12.2558-12.8338c-10.5004-1.6852-43.5572,7.3384-37.0755,27.7813,0,0-2.9816,7.9979,.6482,14.8685s12.8338,12.4769,12.8338,12.4769l14.1699-.7728,26.0356-19.4533Z" fill="#2c2535"/>
    <path d="M390.8658,326.6933l1.8753-7.045c.5703-2.1426,.2393-4.4252-.9162-6.3174l-5.3153-8.7043s-1.7554-11.1486-12.2558-12.8338c-10.5004-1.6852-43.5572,7.3384-37.0755,27.7813,0,0-2.9816,7.9979,.6482,14.8685s12.8338,12.4769,12.8338,12.4769l14.1699-.7728,26.0356-19.4533Z" fill="none" stroke="#191421" stroke-linecap="round" stroke-linejoin="round" stroke-width="1.0503"/>
    <path d="M480.6026,333.8909l11.4485-14.2533,2.3453-9.2248c.4766-1.8748-.35-3.838-2.0241-4.8072l-1.1615-.6724,.4555-3.2029c.2106-1.4805-.7592-2.8719-2.2211-3.1868l-1.5429-.3323v-.3447c0-1.4344-1.044-2.6554-2.4609-2.8783l-2.213-.3481-.7352,1.7909-4.8315-.4255-2.8427,7.9824-6.6074,7.5623v-3.7335c0-1.6506-1.1493-3.0786-2.7618-3.4313l-1.3372-.2925-2.9409,7.9824,1.3654,14.4594,18.0655,7.3562Z" fill="#384778"/>
    <path d="M480.6026,333.8909l11.4485-14.2533,2.3453-9.2248c.4766-1.8748-.35-3.838-2.0241-4.8072l-1.1615-.6724,.4555-3.2029c.2106-1.4805-.7592-2.8719-2.2211-3.1868l-1.5429-.3323v-.3447c0-1.4344-1.044-2.6554-2.4609-2.8783l-2.213-.3481-.7352,1.7909-4.8315-.4255-2.8427,7.9824-6.6074,7.5623v-3.7335c0-1.6506-1.1493-3.0786-2.7618-3.4313l-1.3372-.2925-2.9409,7.9824,1.3654,14.4594,18.0655,7.3562Z" fill="none" stroke="#191421" stroke-linecap="round" stroke-linejoin="round" stroke-width="1.0503"/>
    <path d="M468.2117,311.5502s1.4677,3.256,1.6777,6.0919" fill="none" stroke="#191421" stroke-linecap="round" stroke-linejoin="round" stroke-width="1.0503"/>
    <polyline points="482.4932 296.4309 480.0775 305.5984 476.9265 309.5546" fill="none" stroke="#191421" stroke-linecap="round" stroke-linejoin="round" stroke-width="1.0503"/>
    <polyline points="487.9024 298.2111 486.5895 306.2986 483.3335 310.815" fill="none" stroke="#191421" stroke-linecap="round" stroke-linejoin="round" stroke-width="1.0503"/>
    <polyline points="491.2109 304.9332 489.9505 309.5546 487.9024 312.8106" fill="none" stroke="#191421" stroke-linecap="round" stroke-linejoin="round" stroke-width="1.0503"/>
    <path d="M480.6026,333.8909s-12.3938,59.7943-20.7963,63.7855c-8.4026,3.9912-13.4441,1.9468-13.4441,1.9468l-5.9681,.5235-.9531-27.8881,5.7308-1.0985,17.3653-44.6254c6.5793,1.3892,12.74,3.5765,18.0655,7.3562Z" fill="#e6a298"/>
    <path d="M480.6026,333.8909s-12.3938,59.7943-20.7963,63.7855c-8.4026,3.9912-13.4441,1.9468-13.4441,1.9468l-5.9681,.5235-.9531-27.8881,5.7308-1.0985,17.3653-44.6254c6.5793,1.3892,12.74,3.5765,18.0655,7.3562Z" fill="none" stroke="#191421" stroke-linecap="round" stroke-linejoin="round" stroke-width="1.0503"/>
    <path d="M430.1873,460.7657c-.5602-25.2077-6.722-59.6582-6.722-59.6582l23.8072,.5602c-7.8424-16.8051-5.6017-30.2492-5.6017-30.2492l-48.0963-7.0021h-28.4941s-23.6451,3.7812-29.0542,25.3477,6.5049,45.934,6.5049,45.934c0,0-5.3111,21.4265,0,33.6102,33.4773,2.658,64.636,2.3184,87.6562-8.5426Z" fill="#c2cce0"/>
    <path d="M430.1873,460.7657c-.5602-25.2077-6.722-59.6582-6.722-59.6582l23.8072,.5602c-7.8424-16.8051-5.6017-30.2492-5.6017-30.2492l-48.0963-7.0021h-28.4941s-23.6451,3.7812-29.0542,25.3477,6.5049,45.934,6.5049,45.934c0,0-5.3111,21.4265,0,33.6102,33.4773,2.658,64.636,2.3184,87.6562-8.5426Z" fill="none" stroke="#191421" stroke-linecap="round" stroke-linejoin="round" stroke-width="1.0503"/>
    <path d="M375.6798,307.997l10.3708,4.6668s5.8336,2.9816,5.8336,14.5191c0,0,4.268,4.4076,5.8286,10.3708s0,17.371,0,17.371l-8.4213,2.7223,.5185,5.9632s-11.5082,11.1739-27.4532,3.9144l-3.6591-10.3961s-4.5372,1.0371-8.6855-4.7965c-4.1483-5.8336,2.5927-14.1302,8.8152-8.5559l2.7223-2.2038-7.1299-12.8338s4.0187-4.2779,3.5001-11.1486l17.7599-9.593Z" fill="#e6a298"/>
    <path d="M375.6798,307.997l10.3708,4.6668s5.8336,2.9816,5.8336,14.5191c0,0,4.268,4.4076,5.8286,10.3708s0,17.371,0,17.371l-8.4213,2.7223,.5185,5.9632s-11.5082,11.1739-27.4532,3.9144l-3.6591-10.3961s-4.5372,1.0371-8.6855-4.7965c-4.1483-5.8336,2.5927-14.1302,8.8152-8.5559l2.7223-2.2038-7.1299-12.8338s4.0187-4.2779,3.5001-11.1486l17.7599-9.593Z" fill="none" stroke="#191421" stroke-linecap="round" stroke-linejoin="round" stroke-width="1.0503"/>
    <path d="M352.0936,348.9995c.6232-.7376,1.3512-1.2839,2.3063-1.5067,1.0727-.2502,2.0764,.0296,3.0058,.5825,1.9428,1.1559,3.2187,2.8776,4.5811,4.6241,.3911,.5013,1.0502-.1375,.8216-.6339-.5219-1.1333-1.4028-2.1233-2.3041-2.9732-.9316-.8785-2.0285-1.7425-3.211-2.2498-1.9828-.8507-4.6386-.2313-5.7152,1.7592-.1695,.3134,.2651,.6941,.5155,.3978h0Z" fill="#191421"/>
    <path d="M355.7107,348.4471c-.4246,.4117-.5543,1.0634-.5485,1.635,.006,.5935,.1969,1.205,.5382,1.6919,.3276,.4673,.7666,.8555,1.289,1.0918,.2793,.1264,.5529,.219,.8567,.2604,.3337,.0454,.6089-.0359,.9119-.1669,.3079-.1331,.1889-.5926-.0882-.6749-.206-.0612-.4018-.1446-.6119-.1919-.1163-.0262-.232-.0587-.3457-.0948-.0475-.0151-.0945-.0319-.1412-.0493-.0404-.0151,.0007,.0039-.0642-.0267-.165-.0779-.4018-.2209-.4973-.2969-.1615-.1284-.335-.3085-.4242-.4372-.2362-.3407-.3743-.7504-.4101-1.1368-.0433-.468,.0704-.8993,.1275-1.3586,.0391-.3143-.3958-.4352-.5918-.2451h0Z" fill="#191421"/>
    <path d="M359.3448,357.1633c.3967,.0068,.7916,.056,1.1894,.0525,.4115-.0036,.8243-.0221,1.2351-.0492,.3967-.0262,.793-.0628,1.1894-.0945,.2139-.0171,.4301-.0277,.642-.0629,.2099-.0348,.4491-.0573,.6244-.1839,.2361-.1705,.3123-.5802,0-.7333-.3902-.1914-.8925-.1009-1.3122-.0627-.3963,.0361-.7938,.0662-1.1894,.1096-.4077,.0447-.8178,.0914-1.223,.1553-.418,.0659-.8225,.1902-1.237,.2688-.3467,.0657-.254,.5947,.0813,.6004h0Z" fill="#191421"/>
    <path d="M382.2119,358.048c.2237,.0599,.4364,.1428,.6642,.1872,.2356,.0459,.4738,.0773,.7125,.1025,.4481,.0473,.8984,.0587,1.3487,.0493,.4491-.0093,.8987-.0342,1.3455-.0822,.4597-.0494,1.0022-.0736,1.3862-.3561,.2658-.1955,.2554-.622-.0946-.7236-.4201-.122-.8659-.0182-1.2916,.0295-.4473,.0501-.8956,.0877-1.3455,.1054-.4327,.017-.8658,.0192-1.2987,.0232-.4496,.0042-.8965,.0454-1.3437,.0524-.3477,.0055-.4283,.5201-.0829,.6125h0Z" fill="#191421"/>
    <path d="M382.1534,349.0724c1.568,.0125,3.112-.2763,4.6138-.7188,1.4946-.4403,3.0154-.9699,4.316-1.8351,.3828-.2547,.1528-.9631-.332-.7874-1.4275,.5174-2.8082,1.1566-4.2654,1.6018-1.4533,.444-2.9407,.7672-4.4153,1.127-.3451,.0842-.266,.6097,.0829,.6125h0Z" fill="#191421"/>
    <path d="M383.9221,326.3515c-.2168,.4525-.1763,1.0613-.1928,1.5559-.0165,.4952-.0188,.9915-.0205,1.487s-.0062,.9914-.0036,1.487c.0014,.2653-.0097,.536,.0086,.8007,.018,.2606,.0114,.5576,.1084,.8003,.1616,.4045,.665,.4053,.8269,0,.0953-.2386,.0932-.5434,.1084-.8003,.0157-.2656,.0073-.5348,.0086-.8007,.0024-.4956-.0019-.9913-.0036-1.487s-.005-.9917-.0205-1.487c-.0154-.4933,.023-1.1053-.1928-1.5559-.1137-.2373-.5134-.2373-.6271,0h0Z" fill="#191421"/>
    <path d="M384.2311,333.9826c.218,.9207,.9373,1.7213,1.5748,2.3922,.6372,.6706,1.4225,1.1712,2.0823,1.8164,.6522,.6379,.9689,1.3784,.9521,2.2969-.009,.4902-.0738,.9837-.1621,1.4656-.0392,.214-.0934,.4243-.1488,.6346-.0582,.2209-.0664,.4595-.1487,.6681-.1788,.4531,.4313,.8795,.8167,.6278,.4907-.3205,.7831-.6399,.9233-1.2313,.1287-.543,.1929-1.1153,.2396-1.6705,.0967-1.1492-.1062-2.2074-.8603-3.1036-.6425-.7636-1.5208-1.2671-2.294-1.881-.4199-.3334-.8222-.6944-1.1939-1.0809-.4058-.4219-.7491-.8994-1.2051-1.2696-.2601-.2111-.6601-.0197-.576,.3353h0Z" fill="#191421"/>
    <ellipse cx="376.7093" cy="335.7656" rx="2.0742" ry="2.9816" transform="translate(-101.6316 175.0222) rotate(-23.1364)" fill="#191421"/>
    <ellipse cx="388.7859" cy="330.1344" rx="2.0742" ry="2.9816" transform="translate(-98.4477 179.3145) rotate(-23.1364)" fill="#191421"/>
    <path d="M384.7264,324.9578c.1712-.1217,.3157-.2504,.4526-.4085,.0777-.0898,.1552-.1779,.229-.271-.0121,.0153,.1995-.2547,.1057-.1374,.2225-.2784,.4686-.5396,.7185-.7935,.1262-.1282,.2528-.2562,.3833-.38,.0595-.0564,.1196-.1121,.1806-.1669,.0172-.0154,.2624-.2072,.0844-.0749l.2237-.1728c.0891-.0705,.1031-.082,.042-.0345-.0979,.0756,.1347-.098,.1617-.1172,.1461-.1043,.2952-.2042,.4473-.2996,.3053-.1916,.6237-.3617,.9447-.5253,.1463-.0746,.295-.1436,.4445-.2113,.2996-.1357-.2377,.0862,.0695-.0272,.092-.034,.1833-.0695,.2756-.1024,.3565-.1269,.7236-.2398,1.0719-.3868,.4067-.1716-.1356,.056,.1298-.0534,.2222-.0916,.4146-.1689,.5905-.335,.1457-.1375,.28-.3069,.3942-.4701,.1864-.2663,.1399-.7911-.1289-.9994-.0956-.0741-.1859-.1583-.292-.2172-.2601-.1097-.3064-.1292-.1389-.0587l-.0639-.0365c-.292-.1697-.6308-.1697-.9557-.1398-.4647,.0428-.9263,.1662-1.3567,.3446-.8607,.3566-1.6205,.7883-2.3543,1.3632-.6498,.5092-1.227,1.1069-1.7228,1.7671-.478,.6366-1.045,1.4888-1.035,2.3137,.0062,.5138,.631,.9631,1.0989,.6306h0Z" fill="#191421"/>
    <path d="M376.2104,326.2665c-.4444-.5605-1.1112-.5732-1.7691-.6589-.6987-.091-1.4133-.0867-2.1137-.0255-1.5014,.131-2.8802,.5656-4.2314,1.2299-1.2174,.5985-2.3421,1.3594-3.4039,2.2006-.5467,.4331-1.0339,.9084-1.4745,1.4475-.4834,.5916-.8068,1.1048-1.1196,1.7996-.394,.8754,.4225,1.8254,1.3416,1.3416,.5725-.3013,1.0506-.5954,1.5806-.9705,.495-.3503,.9707-.7212,1.4504-1.0937,.9428-.7321,1.9135-1.4114,2.9745-1.9641,1.0342-.5387,2.1361-.9654,3.2428-1.3271,.5969-.1951,1.2133-.3554,1.8296-.4637,.6376-.1121,1.1887-.1072,1.6927-.5642,.2911-.2639,.2167-.6782,0-.9516h0Z" fill="#191421"/>
    <path d="M432.4731,567.8282s-2.2858,3.9912-1.4455,7.5623c.8403,3.5711-1.5203,16.3209,1.4455,19.6089h57.5824l-1.2604-8.8957-22.897-6.9321-7.9824-11.3435h-25.4427Z" fill="#2c2535"/>
    <path d="M432.4731,567.8282s-2.2858,3.9912-1.4455,7.5623c.8403,3.5711-1.5203,16.3209,1.4455,19.6089h57.5824l-1.2604-8.8957-22.897-6.9321-7.9824-11.3435h-25.4427Z" fill="none" stroke="#191421" stroke-linecap="round" stroke-linejoin="round" stroke-width="1.0503"/>
    <path d="M430.7475,570.1754c13.4441,4.3778,28.8488,0,28.8488,0l12.6038-82.8017s-1.4004-22.1267-13.164-26.8882c-11.7636-4.7614-28.8488,.2801-28.8488,.2801,0,0-2.2758-35.5694-6.072-55.8449-2.9705-15.8653-14.8581-40.0689-16.6149-39.5398h-7.3003c11.1719,18.3952,12.3419,42.1685,12.3419,42.1685l-33.0501,6.442c-5.0415-41.4526-20.9203-47.7282-20.9203-47.7282l-7.6473,3.7132s35.5853,32.2515,8.4205,92.4698l-16.264,1.4004s1.5861-6.6978-2.1478-19.3138c0,0-2.8727,12.5918,1.5981,24.7755,0,0-8.9732,15.5447-5.6122,41.8727l-2.3013,34.1704s-3.3004,.8403-1.3398,4.7614l-31.6198-8.2371s-12.9138,13.9118-3.671,28.2997c0,0,35.8509,24.824,53.2162,24.824h4.1045c4.6557,0,9.0073-2.2895,11.6402-6.1292,6.2188-9.0695,16.6606-29.1909,21.6153-66.7659l37.1428-17.3653,5.0415,65.4364Z" fill="#384778"/>
    <path d="M345.1114,465.317c38.8618,5.0415,84.5557-11.8198,84.5557-11.8198l.5202,7.2684s-39.7021,16.9832-86.5463,9.927" fill="none" stroke="#697fbc" stroke-linecap="round" stroke-linejoin="round" stroke-width="1.0503"/>
    <path d="M430.7475,570.1754c13.4441,4.3778,28.8488,0,28.8488,0l12.6038-82.8017s-1.4004-22.1267-13.164-26.8882c-11.7636-4.7614-28.8488,.2801-28.8488,.2801,0,0-2.2758-35.5694-6.072-55.8449-2.9705-15.8653-14.8581-40.0689-16.6149-39.5398h-7.3003c11.1719,18.3952,12.3419,42.1685,12.3419,42.1685l-33.0501,6.442c-5.0415-41.4526-20.9203-47.7282-20.9203-47.7282l-7.6473,3.7132s35.5853,32.2515,8.4205,92.4698l-16.264,1.4004s1.5861-6.6978-2.1478-19.3138c0,0-2.8727,12.5918,1.5981,24.7755,0,0-8.9732,15.5447-5.6122,41.8727l-2.3013,34.1704s-3.3004,.8403-1.3398,4.7614l-31.6198-8.2371s-12.9138,13.9118-3.671,28.2997c0,0,35.8509,24.824,53.2162,24.824h4.1045c4.6557,0,9.0073-2.2895,11.6402-6.1292,6.2188-9.0695,16.6606-29.1909,21.6153-66.7659l37.1428-17.3653,5.0415,65.4364Z" fill="none" stroke="#191421" stroke-linecap="round" stroke-linejoin="round" stroke-width="1.0503"/>
    <path d="M404.2206,491.961c-1.2119,.7471-2.1808,1.955-3.1392,2.989-1.0391,1.121-2.0276,2.2904-2.9808,3.4851-1.8519,2.3211-3.7285,4.7457-5.0492,7.4154-.2555,.5164,.4229,.8892,.7581,.4431,1.7894-2.3811,3.3684-4.9056,5.2185-7.2456,.9033-1.1424,1.8417-2.2554,2.7965-3.3549,.9346-1.0763,2.0812-2.0763,2.8368-3.2914,.1696-.2728-.1682-.6086-.4407-.4407h0Z" fill="#191421"/>
    <path d="M334.5319,551.1899c1.2357,2.6368,2.7799,5.1341,4.1012,7.7303,.6433,1.264,1.2693,2.5375,1.877,3.819,.6362,1.3416,1.2129,2.7419,2.0267,3.9884,.2138,.3275,.7262,.1227,.6337-.2671-.3269-1.3771-.9485-2.6868-1.5437-3.9649-.6322-1.3575-1.2909-2.7016-1.9793-4.0316-1.3462-2.6008-2.7113-5.3026-4.485-7.6427-.2816-.3715-.8335-.0643-.6306,.3686h0Z" fill="#191421"/>
    <path d="M335.8559,547.39c.6189,1.4203,1.2027,2.8595,1.7899,4.2933,.5681,1.3873,1.0446,2.8885,1.8372,4.1654,.2144,.3454,.6967,.1107,.6299-.2656-.2674-1.5072-.9801-2.9634-1.5779-4.3639-.6135-1.4373-1.2785-2.8447-1.9529-4.2537-.2364-.4939-.9383-.0622-.7262,.4245h0Z" fill="#191421"/>
    <path d="M392.3689,507.4189c-.8888,2.2975-1.6184,4.6378-2.3129,7.0008-.675,2.2966-1.4596,4.6233-1.7613,7.0022-.0569,.4485,.5787,.4407,.7213,.0976,.9227-2.2202,1.4384-4.6252,2.1063-6.9332,.6716-2.3206,1.3609-4.6305,1.9508-6.9733,.117-.4648-.5376-.6247-.7042-.1941h0Z" fill="#191421"/>
    <path d="M437.5501,476.4216c-1.2765,.7494-2.3537,1.8526-3.3861,2.9019-1.0552,1.0724-2.0285,2.2311-2.9343,3.4315-1.8077,2.3957-3.4742,5.0262-4.4194,7.8884-.1579,.478,.5615,.7708,.8061,.3399,1.4394-2.5351,2.7845-5.1035,4.5171-7.4604,.8546-1.1626,1.7711-2.2747,2.7331-3.3497,.9924-1.1089,2.1269-2.1022,3.0688-3.2521,.2173-.2653-.0538-.694-.3853-.4994h0Z" fill="#191421"/>
    <path d="M426.6035,492.9465c-.6548,1.7547-.8761,3.6716-1.0381,5.5282-.0798,.9146-.1216,1.8305-.1283,2.7485-.0068,.9316-.0472,1.9602,.1945,2.866,.1027,.385,.7764,.4426,.8387,0,.1224-.8687,.0419-1.7777,.0479-2.6543,.0065-.9521,.0473-1.9051,.1163-2.8547,.135-1.8583,.4961-3.6869,.658-5.5404,.0367-.4201-.5602-.4384-.6891-.0933h0Z" fill="#191421"/>
    <path d="M380.6122,418.4727l31.5096-6.0918s3.9912,16.8051,3.361,31.9297l-34.8706,6.722c2.1346-9.2544,1.9753-20.227,0-32.5599Z" fill="none" stroke="#697fbc" stroke-linecap="round" stroke-linejoin="round" stroke-width="1.0503"/>
    <path d="M446.3622,372.2587s-14.9146,44.8382-31.9297,53.1987c-7.3207,3.5921-17.6664,3.5396-28.054,1.5019-2.7414-15.2612,5.8187-27.4554,5.8187-27.4554,1.565,.9558,2.4893,1.5335,2.4893,1.5335,13.2445-14.5784,26.2265-28.8733,37.7905-41.5927l13.8853,12.8139Z" fill="#e6a298"/>
    <path d="M446.3622,372.2587s-14.9146,44.8382-31.9297,53.1987c-7.3207,3.5921-17.6664,3.5396-28.054,1.5019-2.7414-15.2612,5.8187-27.4554,5.8187-27.4554,1.565,.9558,2.4893,1.5335,2.4893,1.5335,13.2445-14.5784,26.2265-28.8733,37.7905-41.5927l13.8853,12.8139Z" fill="none" stroke="#191421" stroke-linecap="round" stroke-linejoin="round" stroke-width="1.0503"/>
    <path d="M394.2713,401.9966c-.6474,.6888-.9433,1.7262-1.2625,2.6018-.3539,.9705-.6451,1.9597-.8906,2.963-.2418,.9884-.425,1.9916-.5525,3.0011-.1186,.9393-.3349,2.0617-.0927,2.9879,.1165,.4456,.6892,.3743,.8348,0,.3294-.847,.3131-1.9296,.4588-2.8254,.16-.9843,.3448-1.9632,.5676-2.9354,.2149-.9378,.4729-1.8668,.7538-2.787,.2715-.8897,.7395-1.8199,.7893-2.7551,.0163-.3062-.4003-.4696-.6058-.2509h0Z" fill="#191421"/>
    <path d="M386.3785,426.9593c-13.7487-2.6784-27.5604-8.8332-34.5136-14.5784-12.2152-10.0831-5.1781-29.409,3.8022-29.8291,7.4048-.3466,29.1464,12.4568,36.5302,16.9522,0,0-8.5601,12.1942-5.8187,27.4554Z" fill="#c2cce0"/>
    <path d="M355.6671,382.5518c7.4048-.3466,29.1464,12.4568,36.5302,16.9522,0,0-8.5601,12.1942-5.8187,27.4554-13.7487-2.6784-27.5604-8.8332-34.5136-14.5784" fill="none" stroke="#191421" stroke-linecap="round" stroke-linejoin="round" stroke-width="1.0503"/>
    <polygon points="433.7102 355.5042 434.9487 338.9867 440.8305 331.7754 445.1719 335.7656 433.7102 355.5042" fill="#384778"/>
    <polygon points="433.7102 355.5042 434.9487 338.9867 440.8305 331.7754 445.1719 335.7656 433.7102 355.5042" fill="none" stroke="#191421" stroke-linecap="round" stroke-linejoin="round" stroke-width="1.0503"/>
    <path d="M445.5141,312.6717c-.4699-2.2359-2.0498-3.9488-4.0398-4.6892l1.2083,5.7494c.2667,1.2692-6.4577,2.6824-6.7244,1.4132l-1.2083-5.7494c-1.5236,1.4787-2.2803,3.6828-1.8105,5.9186,.3859,1.8363,1.5217,3.3216,3.0197,4.2062,1.3571,.8014,2.2508,2.2044,2.5749,3.7468l5.1509,24.5097,5.0602-1.0634-5.1509-24.5097c-.3242-1.5424-.0709-3.1864,.8488-4.4664,1.0152-1.4128,1.457-3.2297,1.0711-5.066Z" fill="#c2cce0"/>
    <path d="M445.5141,312.6717c-.4699-2.2359-2.0498-3.9488-4.0398-4.6892l1.2083,5.7494c.2667,1.2692-6.4577,2.6824-6.7244,1.4132l-1.2083-5.7494c-1.5236,1.4787-2.2803,3.6828-1.8105,5.9186,.3859,1.8363,1.5217,3.3216,3.0197,4.2062,1.3571,.8014,2.2508,2.2044,2.5749,3.7468l5.1509,24.5097,5.0602-1.0634-5.1509-24.5097c-.3242-1.5424-.0709-3.1864,.8488-4.4664,1.0152-1.4128,1.457-3.2297,1.0711-5.066Z" fill="none" stroke="#191421" stroke-linecap="round" stroke-linejoin="round" stroke-width="1.0503"/>
    <path d="M446.3622,372.2587l16.1749-13.4441s0-2.9409-1.5405-5.4617c0,0,0-4.3413-1.9606-7.8424,0,0-.4901-5.7417-4.5864-8.8227,0,0-1.5755-5.1816-7.1772-4.9015l-9.3829,10.3632-5.4127,17.2952,13.8853,12.8139Z" fill="#384778"/>
    <path d="M446.3622,372.2587l16.1749-13.4441s0-2.9409-1.5405-5.4617c0,0,0-4.3413-1.9606-7.8424,0,0-.4901-5.7417-4.5864-8.8227,0,0-1.5755-5.1816-7.1772-4.9015l-9.3829,10.3632-5.4127,17.2952,13.8853,12.8139Z" fill="none" stroke="#191421" stroke-linecap="round" stroke-linejoin="round" stroke-width="1.0503"/>
  </g>
</svg>