<?xml version="1.0" encoding="UTF-8"?>
<svg id="Car_Maintenance" data-name="Car Maintenance" xmlns="http://www.w3.org/2000/svg" viewBox="0 0 800 600">
  <g>
    <polygon points="66.8434 141.1841 58.9679 124.3353 91.871 111.5209 95.6758 123.9348 83.5288 148.6293 66.8434 141.1841" fill="#413f4d"/>
    <polygon points="66.8434 141.1841 58.9679 124.3353 91.871 111.5209 95.6758 123.9348 83.5288 148.6293 66.8434 141.1841" fill="none" stroke="#231f20" stroke-linecap="round" stroke-linejoin="round" stroke-width="1.0448"/>
    <path d="M71.2425,163.3067s-6.1343-1.0621-9.1377,4.5442c0,0-15.3506,2.4027-23.2929,10.4117l-9.578,39.8448v89.5007h103.7506l-3.8043-67.8764,16.4185-18.2205s-12.0135-34.5722-26.8302-44.45c-14.8167-9.8778-30.0338-9.2104-30.0338-9.2104l-17.4922-4.5442Z" fill="#e65a55"/>
    <path d="M71.2425,163.3067s-6.1343-1.0621-9.1377,4.5442c0,0-15.3506,2.4027-23.2929,10.4117l-9.578,39.8448v89.5007h103.7506l-3.8043-67.8764,16.4185-18.2205s-12.0135-34.5722-26.8302-44.45c-14.8167-9.8778-30.0338-9.2104-30.0338-9.2104l-17.4922-4.5442Z" fill="none" stroke="#231f20" stroke-linecap="round" stroke-linejoin="round" stroke-width="1.0448"/>
    <path d="M122.85,192.1906c-1.4063,3.6638-2.0425,7.7098-2.4608,11.5957-.4193,3.8952-.6257,7.9437,.0017,11.8248,.0741,.4584,.7916,.3361,.7937-.1074,.018-3.8802-.1166-7.7287,.2778-11.5995,.1954-1.9178,.4817-3.8261,.8485-5.7186,.3764-1.9418,.8899-3.8512,1.3026-5.7845,.1079-.5053-.5826-.6818-.7635-.2105h0Z" fill="#231f20"/>
    <path d="M123.1643,199.7904c1.247,.217,.7602,2.8291,.7197,3.6216-.0902,1.7668-.2093,3.5328-.357,5.2958-.2946,3.5176-.8798,7.0179-1.0726,10.5365-.0227,.4142,.6147,.4921,.7175,.0971,.9989-3.8367,1.2629-7.9141,1.5442-11.864,.1371-1.9253,.3063-3.8866,.263-5.8178-.0249-1.1085-.4225-2.4779-1.7301-2.4945-.3488-.0044-.4459,.5624-.0846,.6253h0Z" fill="#231f20"/>
    <path d="M120.6096,216.6193c.7683,3.8196,1.9055,7.5582,3.1292,11.2561,.5994,1.8112,1.2256,3.6137,1.894,5.4007,.6694,1.7895,1.2502,3.7677,2.2999,5.3742,.2427,.3714,.7925,.1333,.7049-.2972-.3748-1.8423-1.2635-3.6172-1.9173-5.3768-.6786-1.8263-1.3384-3.6597-1.9634-5.505-1.2378-3.6546-2.3104-7.3621-3.498-11.0309-.1342-.4145-.7346-.245-.6494,.179h0Z" fill="#231f20"/>
    <path d="M71.7823,155.4369l-2.4027,10.2782s9.6108,13.4818,18.2872,14.5497,11.2126-4.138,11.2126-4.138v-8.9434h9.3438c9.7443-13.6153,6.1402-29.9003,6.1402-29.9003,3.2036-12.5475,0-18.4207,0-18.4207h-28.0315l-.5339,8.009-5.2059,4.5384,.4005,11.7465-4.8054,1.0679s-1.2014-7.0746-6.8077-7.3416c-5.6063-.267-7.3416,8.9434-4.5384,13.4818s6.9411,5.0724,6.9411,5.0724Z" fill="#e6a298"/>
    <path d="M71.7823,155.4369l-2.4027,10.2782s9.6108,13.4818,18.2872,14.5497,11.2126-4.138,11.2126-4.138v-8.9434h9.3438c9.7443-13.6153,6.1402-29.9003,6.1402-29.9003,3.2036-12.5475,0-18.4207,0-18.4207h-28.0315l-.5339,8.009-5.2059,4.5384,.4005,11.7465-4.8054,1.0679s-1.2014-7.0746-6.8077-7.3416c-5.6063-.267-7.3416,8.9434-4.5384,13.4818s6.9411,5.0724,6.9411,5.0724Z" fill="none" stroke="#231f20" stroke-linecap="round" stroke-linejoin="round" stroke-width="1.0448"/>
    <path d="M66.3694,144.4467c.2268-1.2411,1.6725-1.452,2.7134-1.2846,1.049,.1687,2.031,.6693,2.8251,1.3689,.8178,.7205,1.433,1.6298,1.8678,2.6262,.4598,1.0535,.6697,2.2115,.9619,3.3144,.1243,.4692,.7973,.3507,.8217-.1112,.1426-2.701-1.3203-5.5894-3.5542-7.1148-1.0584-.7227-2.3977-1.1922-3.6911-1.0813-1.2865,.1104-2.4008,.8577-2.578,2.1967-.0473,.3576,.5682,.4424,.6333,.0857h0Z" fill="#231f20"/>
    <path d="M69.8921,144.956c-.5965,1.1714-.7558,2.7914-.0697,3.9644,.284,.4855,.7233,.917,1.2364,1.1547,.6034,.2795,1.1585,.305,1.738-.0074,.1842-.0993,.2554-.3441,.1737-.53-.0901-.205-.2862-.2831-.5007-.2458-.2044,.0356-.3741,.0027-.5546-.0281-.1143-.0196-.3319-.0902-.4676-.1653-.3498-.1939-.6195-.4839-.8011-.8463-.4676-.9336-.1015-2.1038-.0508-3.1056,.0187-.3686-.5348-.5218-.7035-.1905h0Z" fill="#231f20"/>
    <path d="M104.2254,135.0608c-.3975,.7319-.7766,1.4599-1.0721,2.2413-.1426,.3772-.269,.7571-.3826,1.144-.0586,.1996-.1259,.3992-.1493,.6066-.0236,.2091-.0824,.4288-.0743,.6403,.0138,.3645,.4803,.4883,.6769,.1833,.1115-.1731,.169-.3834,.2598-.5667,.0953-.1925,.155-.4007,.2247-.605,.1255-.3676,.2541-.7344,.3827-1.101,.2643-.7539,.503-1.5212,.7907-2.2662,.1475-.3819-.4647-.6298-.6564-.2767h0Z" fill="#231f20"/>
    <path d="M102.2745,142.4198c.2028,1.1308,.6321,2.2187,.9958,3.3054,.3773,1.1274,.7509,2.2562,1.1121,3.3889,.1415,.4436,.337,.9258,.3199,1.3986-.0192,.5334-.424,.8151-.8419,1.0786-.8698,.5483-1.8497,.7441-2.7725,1.1646-.3122,.1423-.2308,.6723,.0965,.7385,1.1285,.2281,2.3407-.2652,3.2806-.8687,1.0414-.6686,1.5875-1.5093,1.3444-2.7742-.2489-1.2952-.8323-2.5855-1.2889-3.8193-.4805-1.2981-.9343-2.676-1.6718-3.8545-.1962-.3135-.6361-.1019-.5744,.2422h0Z" fill="#231f20"/>
    <path d="M106.1795,133.0464c.723,.0986,1.4296-.3216,2.1092-.5328,.4225-.1313,.6622-.1973,1.0539-.2776,.0842-.0173,.1685-.0342,.2531-.0493,.0254-.0045,.2265-.0353,.1662-.0294,.053-.0052,.35-.0145,.4847-.0217,.3415-.0184,.6864-.0099,1.0277,.0111,.1073,.0066,.2144,.016,.3214,.0264,.0225,.0022,.2719,.0283,.1484,.0136-.1231-.0147,.1227,.0195,.1453,.0234,.0841,.0142,.168,.0298,.2517,.0467,.3559,.0719,.7106,.1586,1.0643,.2403,.2236,.0517,.4375,.1096,.666,.1403,.1117,.015,.2319,.0392,.3457,.0444,.0208,.0009,.2613-.0161,.1385-.0336,.4584,.0655,.9069-.0439,1.1566-.4707,.2231-.3814,.1715-.9342-.1601-1.2411,.1086,.1005-.1513-.1643-.1433-.1546-.138-.1654-.2454-.252-.4338-.3857-.2152-.1528-.4516-.2448-.6957-.3451-.3869-.1591-.7615-.2615-1.1759-.3191-.9701-.1349-1.881-.1227-2.8495,.0282-.873,.136-1.6351,.425-2.3949,.768-.3723,.1681-.6971,.4125-1.0268,.65-.3744,.2696-.8,.6356-.8774,1.1203-.0463,.2897,.0719,.6999,.4247,.748h0Z" fill="#231f20"/>
    <path d="M98.3888,131.3729c-.6012-.9836-1.7071-1.4699-2.7623-1.8332-1.1274-.3881-2.3364-.5707-3.5261-.5965-2.4775-.0537-5.2659,.4702-7.2835,1.9642-.5929,.439-.4675,1.5353,.4079,1.5058,2.2478-.0756,4.4094-.884,6.6646-.9922,.9831-.0472,1.9819-.0064,2.9475,.1916,1.0103,.2072,1.9518,.6484,2.9775,.7611,.5108,.0561,.8173-.6036,.5744-1.001h0Z" fill="#231f20"/>
    <ellipse cx="94.2751" cy="141.1841" rx="2.4041" ry="2.5814" fill="#231f20"/>
    <ellipse cx="107.8972" cy="141.1841" rx="2.4041" ry="2.5814" fill="#231f20"/>
    <path d="M92.4465,154.7651c.9044,.4212,1.7552,.8457,2.7206,1.1309,.972,.2872,1.9766,.4789,2.98,.6157,1.9322,.2635,4.0167,.375,5.9169-.1246,.4483-.1179,.3579-.8142-.1096-.8097-1.9014,.0184-3.7712,.1584-5.6694-.0851-.9633-.1236-1.9092-.3302-2.8485-.5737-.8976-.2327-1.8585-.4568-2.7227-.7876-.3642-.1394-.6235,.4682-.2673,.6341h0Z" fill="#231f20"/>
    <path d="M89.2557,163.4725c.4428,.5979,1.1826,.9844,1.8183,1.3477,.7111,.4064,1.4579,.7522,2.2132,1.067,1.4698,.6127,3.0532,1.1675,4.659,1.2094,.5339,.0139,.5839-.7255,.1204-.8899-1.4298-.507-2.9155-.826-4.3358-1.3707-.6992-.2681-1.3793-.5757-2.0544-.8989-.6568-.3145-1.3328-.795-2.0497-.9473-.2502-.0532-.5555,.2335-.371,.4826h0Z" fill="#231f20"/>
    <path d="M100.4813,98.7064c-13.0814-5.6063-30.1354,1.8687-36.959,8.4094-6.8236,6.5407-7.7948,14.2913-4.5544,19.2216,20.1302-6.0149,39.865-11.0961,56.8195-9.6108,0,0-2.2247-12.414-15.3061-18.0203Z" fill="#e65a55"/>
    <path d="M100.4813,98.7064c-13.0814-5.6063-30.1354,1.8687-36.959,8.4094-6.8236,6.5407-7.7948,14.2913-4.5544,19.2216,20.1302-6.0149,39.865-11.0961,56.8195-9.6108,0,0-2.2247-12.414-15.3061-18.0203Z" fill="none" stroke="#231f20" stroke-linecap="round" stroke-linejoin="round" stroke-width="1.0448"/>
    <path d="M125.8188,122.3627c-.6852-3.3502-3.1422-6.0617-6.4167-7.0471-4.7205-1.4205-12.0949-2.991-20.2557-2.3264-13.9662,1.1374-17.2194,5.8732-17.2194,5.8732,0,0-15.2171,.8802-24.294,7.481l1.3349,2.2633s26.6967-14.4162,67.0087-5.4728l-.1577-.7712Z" fill="#e65a55"/>
    <path d="M125.8188,122.3627c-.6852-3.3502-3.1422-6.0617-6.4167-7.0471-4.7205-1.4205-12.0949-2.991-20.2557-2.3264-13.9662,1.1374-17.2194,5.8732-17.2194,5.8732,0,0-15.2171,.8802-24.294,7.481l1.3349,2.2633s26.6967-14.4162,67.0087-5.4728l-.1577-.7712Z" fill="none" stroke="#231f20" stroke-linecap="round" stroke-linejoin="round" stroke-width="1.0448"/>
    <path d="M10.713,233.3246s-6.2732,6.6742-5.6725,23.5598c.6007,16.8857,27.4309,50.7237,27.4309,50.7237h23.2261s-13.0146-39.1774-22.6255-50.7237l1.4016-10.5452-23.7606-13.0146Z" fill="#e6a298"/>
    <path d="M10.713,233.3246s-6.2732,6.6742-5.6725,23.5598c.6007,16.8857,27.4309,50.7237,27.4309,50.7237h23.2261s-13.0146-39.1774-22.6255-50.7237l1.4016-10.5452-23.7606-13.0146Z" fill="none" stroke="#231f20" stroke-linecap="round" stroke-linejoin="round" stroke-width="1.0448"/>
    <path d="M38.8119,178.2626s10.2782,10.2115,11.4796,35.4399l-15.441,36.9088s-20.3993-5.2732-29.009-13.8829c0,0,13.0814-56.2633,32.9704-58.4658Z" fill="#e65a55"/>
    <path d="M49.0186,202.288c.6176,3.4002,1.072,7.1976,1.2728,11.4145l-15.441,36.9088s-20.3993-5.2732-29.009-13.8829c0,0,13.0814-56.2633,32.9704-58.4658" fill="none" stroke="#231f20" stroke-linecap="round" stroke-linejoin="round" stroke-width="1.0448"/>
    <path d="M38.9248,192.5541c1.6504,3.139,2.7749,6.5639,4.0097,9.8817,.6298,1.6922,1.2429,3.3914,1.8184,5.1029,.5741,1.7074,1.0646,3.4579,1.7814,5.1119,.2071,.4779,.8275,.0995,.7683-.3239-.2547-1.823-.8904-3.5959-1.494-5.3284-.6213-1.7832-1.2884-3.5494-1.9777-5.3073-.672-1.714-1.372-3.4165-2.0721-5.1192-.6344-1.5431-1.2911-3.0869-2.3405-4.3985-.2314-.2893-.6521,.0792-.4936,.3808h0Z" fill="#231f20"/>
    <path d="M38.6361,195.7789c-.3014,1.7426,.0484,3.5447,.4477,5.2522,.3921,1.6765,.8724,3.3317,1.4635,4.9491,.5834,1.5964,1.2831,3.1534,2.0656,4.6618,.772,1.4881,1.6316,3.124,2.8632,4.2879,.2465,.233,.7688,.0041,.6207-.3613-.6-1.4814-1.5295-2.8397-2.2774-4.2503-.783-1.4769-1.4727-2.997-2.0872-4.5513-1.2388-3.1329-2.2922-6.5201-2.4588-9.9018-.017-.3448-.5718-.4653-.6373-.0863h0Z" fill="#231f20"/>
    <path d="M38.5923,215.8001c.9652,.1476,1.9192,.1993,2.8954,.196,.9388-.0032,2.001,.0236,2.8934-.3022,.2773-.1012,.3636-.598,0-.6533-.9291-.1412-1.9037-.0006-2.8384,.0362-.9542,.0376-1.9088,.0428-2.8631,.0778-.3506,.0129-.4699,.5868-.0873,.6453h0Z" fill="#231f20"/>
    <path d="M148.5517,248.0745c-3.4542-17.0859-6.1263-23.0417-6.1263-23.0417l-13.2452,14.6989,.8121,14.4898c-8.6535,30.9758-9.4218,53.3866-9.4218,53.3866h20.9049s10.5304-42.4478,7.0762-59.5337Z" fill="#e6a298"/>
    <path d="M148.5517,248.0745c-3.4542-17.0859-6.1263-23.0417-6.1263-23.0417l-13.2452,14.6989,.8121,14.4898c-8.6535,30.9758-9.4218,53.3866-9.4218,53.3866h20.9049s10.5304-42.4478,7.0762-59.5337Z" fill="none" stroke="#231f20" stroke-linecap="round" stroke-linejoin="round" stroke-width="1.0448"/>
  </g>
  <g>
    <path d="M164.1046,287.6897H77.5953c-2.8851,0-4.6587-2.3389-3.9614-5.224l11.2121-46.3891c.6973-2.8851,3.6015-5.224,6.4866-5.224h86.5093c2.8851,0,4.6587,2.3389,3.9614,5.224l-11.2121,46.3891c-.6973,2.8851-3.6015,5.224-6.4866,5.224Z" fill="#c2cce0"/>
    <path d="M164.1046,287.6897H77.5953c-2.8851,0-4.6587-2.3389-3.9614-5.224l11.2121-46.3891c.6973-2.8851,3.6015-5.224,6.4866-5.224h86.5093c2.8851,0,4.6587,2.3389,3.9614,5.224l-11.2121,46.3891c-.6973,2.8851-3.6015,5.224-6.4866,5.224Z" fill="none" stroke="#231f20" stroke-linecap="round" stroke-linejoin="round" stroke-width="1.0448"/>
    <polygon points="144.7527 310.0418 125.4234 310.0418 118.9123 269.5799 138.2417 269.5799 144.7527 310.0418" fill="#c2cce0"/>
    <polygon points="144.7527 310.0418 125.4234 310.0418 118.9123 269.5799 138.2417 269.5799 144.7527 310.0418" fill="none" stroke="#231f20" stroke-linecap="round" stroke-linejoin="round" stroke-width="1.0448"/>
    <rect x="55.5979" y="487.1766" width="17.1355" height="16.0882" fill="#384778"/>
    <rect x="55.5979" y="487.1766" width="17.1355" height="16.0882" fill="none" stroke="#231f20" stroke-linecap="round" stroke-linejoin="round" stroke-width="1.0448"/>
    <line x1="61.4496" y1="487.3159" x2="61.4496" y2="501.1073" fill="none" stroke="#231f20" stroke-linecap="round" stroke-linejoin="round" stroke-width="1.0448"/>
    <rect x="20.0569" y="487.1766" width="17.1355" height="16.0882" fill="#384778"/>
    <rect x="20.0569" y="487.1766" width="17.1355" height="16.0882" fill="none" stroke="#231f20" stroke-linecap="round" stroke-linejoin="round" stroke-width="1.0448"/>
    <line x1="25.9086" y1="487.3159" x2="25.9086" y2="501.1073" fill="none" stroke="#231f20" stroke-linecap="round" stroke-linejoin="round" stroke-width="1.0448"/>
    <rect x="150.3736" y="487.1766" width="17.1355" height="16.0882" fill="#384778"/>
    <rect x="150.3736" y="487.1766" width="17.1355" height="16.0882" fill="none" stroke="#231f20" stroke-linecap="round" stroke-linejoin="round" stroke-width="1.0448"/>
    <line x1="156.2254" y1="487.3159" x2="156.2254" y2="501.1073" fill="none" stroke="#231f20" stroke-linecap="round" stroke-linejoin="round" stroke-width="1.0448"/>
    <rect x="114.8327" y="487.1766" width="17.1355" height="16.0882" fill="#384778"/>
    <rect x="114.8327" y="487.1766" width="17.1355" height="16.0882" fill="none" stroke="#231f20" stroke-linecap="round" stroke-linejoin="round" stroke-width="1.0448"/>
    <line x1="120.6844" y1="487.3159" x2="120.6844" y2="501.1073" fill="none" stroke="#231f20" stroke-linecap="round" stroke-linejoin="round" stroke-width="1.0448"/>
    <path d="M19.0307,304.0582H56.6435v14.6836H13.8067v-9.4596c0-2.8832,2.3408-5.224,5.224-5.224Z" fill="#697fbc"/>
    <path d="M19.0307,304.0582H56.6435v14.6836H13.8067v-9.4596c0-2.8832,2.3408-5.224,5.224-5.224Z" fill="none" stroke="#231f20" stroke-linecap="round" stroke-linejoin="round" stroke-width="1.0448"/>
    <path d="M57.6883,301.3417h104.062c2.8832,0,5.224,2.3408,5.224,5.224v12.1761H52.4643v-12.1761c0-2.8832,2.3408-5.224,5.224-5.224Z" fill="#697fbc"/>
    <path d="M57.6883,301.3417h104.062c2.8832,0,5.224,2.3408,5.224,5.224v12.1761H52.4643v-12.1761c0-2.8832,2.3408-5.224,5.224-5.224Z" fill="none" stroke="#231f20" stroke-linecap="round" stroke-linejoin="round" stroke-width="1.0448"/>
    <path d="M52.4643,318.7418h116.112c1.7299,0,3.1344,1.4045,3.1344,3.1344v162.166c0,1.7299-1.4045,3.1344-3.1344,3.1344H55.5987c-1.7299,0-3.1344-1.4045-3.1344-3.1344v-165.3004h0Z" fill="#384778"/>
    <path d="M52.4643,318.7418h116.112c1.7299,0,3.1344,1.4045,3.1344,3.1344v162.166c0,1.7299-1.4045,3.1344-3.1344,3.1344H55.5987c-1.7299,0-3.1344-1.4045-3.1344-3.1344v-165.3004h0Z" fill="none" stroke="#231f20" stroke-linecap="round" stroke-linejoin="round" stroke-width="1.0448"/>
    <path d="M15.966,318.7418H58.3152v168.4348H21.19c-2.8832,0-5.224-2.3408-5.224-5.224v-163.2108h0Z" fill="#2c2535"/>
    <path d="M15.966,318.7418H58.3152v168.4348H21.19c-2.8832,0-5.224-2.3408-5.224-5.224v-163.2108h0Z" fill="none" stroke="#231f20" stroke-linecap="round" stroke-linejoin="round" stroke-width="1.0448"/>
    <path d="M15.966,318.7418v131.1006h8.7763c13.31,0,24.1,10.79,24.1,24.1001v13.2341h9.4728v-168.4348H15.966Z" fill="#384778"/>
    <path d="M15.966,318.7418v131.1006h8.7763c13.31,0,24.1,10.79,24.1,24.1001v13.2341h9.4728v-168.4348H15.966Z" fill="none" stroke="#231f20" stroke-linecap="round" stroke-linejoin="round" stroke-width="1.0448"/>
    <rect x="7.816" y="323.6314" width="38.6576" height="7.3136" rx="3.6568" ry="3.6568" fill="#c2cce0"/>
    <rect x="7.816" y="323.6314" width="38.6576" height="7.3136" rx="3.6568" ry="3.6568" fill="none" stroke="#231f20" stroke-linecap="round" stroke-linejoin="round" stroke-width="1.0448"/>
    <line x1="17.777" y1="361.1042" x2="168.019" y2="361.1042" fill="none" stroke="#231f20" stroke-linecap="round" stroke-linejoin="round" stroke-width="1.0448"/>
    <g>
      <rect x="16.1053" y="383.6719" width="11.0394" height="9.6121" fill="#2c2535"/>
      <rect x="16.1053" y="399.0729" width="11.0394" height="9.6121" fill="#2c2535"/>
      <rect x="16.1053" y="414.474" width="11.0394" height="9.6121" fill="#2c2535"/>
      <rect x="16.1053" y="429.8751" width="11.0394" height="9.6121" fill="#2c2535"/>
    </g>
    <g>
      <rect x="16.1053" y="383.6719" width="11.0394" height="9.6121" fill="none" stroke="#231f20" stroke-linecap="round" stroke-linejoin="round" stroke-width="1.0448"/>
      <rect x="16.1053" y="399.0729" width="11.0394" height="9.6121" fill="none" stroke="#231f20" stroke-linecap="round" stroke-linejoin="round" stroke-width="1.0448"/>
      <rect x="16.1053" y="414.474" width="11.0394" height="9.6121" fill="none" stroke="#231f20" stroke-linecap="round" stroke-linejoin="round" stroke-width="1.0448"/>
      <rect x="16.1053" y="429.8751" width="11.0394" height="9.6121" fill="none" stroke="#231f20" stroke-linecap="round" stroke-linejoin="round" stroke-width="1.0448"/>
    </g>
    <circle cx="113.4805" cy="338.7455" r="11.3187" fill="#2c2535"/>
    <circle cx="113.4805" cy="338.7455" r="11.3187" fill="none" stroke="#231f20" stroke-linecap="round" stroke-linejoin="round" stroke-width="1.0448"/>
    <circle cx="113.4805" cy="338.7455" r="8.9853" fill="#c2cce0"/>
    <circle cx="113.4805" cy="338.7455" r="8.9853" fill="none" stroke="#231f20" stroke-linecap="round" stroke-linejoin="round" stroke-width="1.0448"/>
    <path d="M115.227,339.7597c-.3977,.5668-1.1796,.7039-1.7464,.3062s-.7039-1.1796-.3062-1.7464,3.4599-3.954,4.0267-3.5563-1.5764,4.4297-1.9741,4.9965Z" fill="#e65a55"/>
    <path d="M115.227,339.7597c-.3977,.5668-1.1796,.7039-1.7464,.3062s-.7039-1.1796-.3062-1.7464,3.4599-3.954,4.0267-3.5563-1.5764,4.4297-1.9741,4.9965Z" fill="none" stroke="#231f20" stroke-linecap="round" stroke-linejoin="round" stroke-width="1.0448"/>
    <circle cx="144.2827" cy="338.7455" r="11.3187" fill="#2c2535"/>
    <circle cx="144.2827" cy="338.7455" r="11.3187" fill="none" stroke="#231f20" stroke-linecap="round" stroke-linejoin="round" stroke-width="1.0448"/>
    <circle cx="144.2827" cy="338.7455" r="8.9853" fill="#c2cce0"/>
    <circle cx="144.2827" cy="338.7455" r="8.9853" fill="none" stroke="#231f20" stroke-linecap="round" stroke-linejoin="round" stroke-width="1.0448"/>
    <path d="M144.6383,338.3289c.3815,.5779,.2223,1.3556-.3556,1.7371s-1.3556,.2223-1.7371-.3556-2.4096-4.669-1.8317-5.0504,3.5429,3.0911,3.9244,3.669Z" fill="#e65a55"/>
    <path d="M144.6383,338.3289c.3815,.5779,.2223,1.3556-.3556,1.7371s-1.3556,.2223-1.7371-.3556-2.4096-4.669-1.8317-5.0504,3.5429,3.0911,3.9244,3.669Z" fill="none" stroke="#231f20" stroke-linecap="round" stroke-linejoin="round" stroke-width="1.0448"/>
    <rect x="71.6886" y="381.8609" width="87.8237" height="64.6146" rx="5.224" ry="5.224" fill="#2c2535"/>
    <rect x="71.6886" y="381.8609" width="87.8237" height="64.6146" rx="5.224" ry="5.224" fill="none" stroke="#231f20" stroke-linecap="round" stroke-linejoin="round" stroke-width="1.0448"/>
    <rect x="71.6886" y="456.8078" width="87.8237" height="5.2936" rx="2.6468" ry="2.6468" fill="#2c2535"/>
    <rect x="71.6886" y="456.8078" width="87.8237" height="5.2936" rx="2.6468" ry="2.6468" fill="none" stroke="#231f20" stroke-linecap="round" stroke-linejoin="round" stroke-width="1.0448"/>
  </g>
  <g>
    <g>
      <path d="M521.6584,502.4526c-26.572,0-48.1128-30.9426-48.1128-69.1122,0-38.1696,21.5408-69.1122,48.1128-69.1122h23.847v138.2244h-23.847Z" fill="#2c2535"/>
      <path d="M521.6584,502.4526c-26.572,0-48.1128-30.9426-48.1128-69.1122,0-38.1696,21.5408-69.1122,48.1128-69.1122h23.847v138.2244h-23.847Z" fill="none" stroke="#191421" stroke-linecap="round" stroke-linejoin="round" stroke-width="1.0448"/>
      <ellipse cx="545.5054" cy="433.3404" rx="48.1128" ry="69.1122" fill="#413f4d"/>
      <ellipse cx="545.5054" cy="433.3404" rx="48.1128" ry="69.1122" fill="none" stroke="#191421" stroke-linecap="round" stroke-linejoin="round" stroke-width="1.0448"/>
      <ellipse cx="545.5054" cy="433.3404" rx="29.6925" ry="42.6522" fill="#c2cce0"/>
      <ellipse cx="545.5054" cy="433.3404" rx="29.6925" ry="42.6522" fill="none" stroke="#191421" stroke-linecap="round" stroke-linejoin="round" stroke-width="1.0448"/>
      <ellipse cx="545.5054" cy="433.3404" rx="25.6788" ry="36.8866" fill="#413f4d"/>
      <ellipse cx="545.5054" cy="433.3404" rx="25.6788" ry="36.8866" fill="none" stroke="#191421" stroke-linecap="round" stroke-linejoin="round" stroke-width="1.0448"/>
      <path d="M538.9304,433.3367l-16.4152,16.4152c1.118,3.2543,2.568,6.2318,4.2947,8.8551l14.0464-14.0464v25.06c1.5054,.3985,3.055,.6088,4.649,.6088s3.1436-.2103,4.649-.6088v-25.06s14.0464,14.0464,14.0464,14.0464c1.7267-2.6233,3.1768-5.6009,4.2947-8.8551l-16.4152-16.4152,16.4152-16.4151c-1.118-3.2543-2.568-6.2318-4.2947-8.8551l-14.0464,14.0464v-25.0489c-1.5054-.3985-3.055-.6088-4.649-.6088s-3.1436,.2103-4.649,.6088v25.0489s-14.0464-14.0464-14.0464-14.0464c-1.7267,2.6233-3.1768,5.6009-4.2947,8.8551l16.4152,16.4151Z" fill="#c2cce0"/>
      <path d="M538.9304,433.3367l-16.4152,16.4152c1.118,3.2543,2.568,6.2318,4.2947,8.8551l14.0464-14.0464v25.06c1.5054,.3985,3.055,.6088,4.649,.6088s3.1436-.2103,4.649-.6088v-25.06s14.0464,14.0464,14.0464,14.0464c1.7267-2.6233,3.1768-5.6009,4.2947-8.8551l-16.4152-16.4152,16.4152-16.4151c-1.118-3.2543-2.568-6.2318-4.2947-8.8551l-14.0464,14.0464v-25.0489c-1.5054-.3985-3.055-.6088-4.649-.6088s-3.1436,.2103-4.649,.6088v25.0489s-14.0464-14.0464-14.0464-14.0464c-1.7267,2.6233-3.1768,5.6009-4.2947,8.8551l16.4152,16.4151Z" fill="none" stroke="#191421" stroke-linecap="round" stroke-linejoin="round" stroke-width="1.0448"/>
      <ellipse cx="545.5054" cy="433.3404" rx="8.579" ry="12.3234" fill="#c2cce0"/>
      <ellipse cx="545.5054" cy="433.3404" rx="8.579" ry="12.3234" fill="none" stroke="#191421" stroke-linecap="round" stroke-linejoin="round" stroke-width="1.0448"/>
    </g>
    <g>
      <path d="M245.5358,502.4526c-26.572,0-48.1128-30.9426-48.1128-69.1122,0-38.1696,21.5408-69.1122,48.1128-69.1122h23.847v138.2244h-23.847Z" fill="#2c2535"/>
      <path d="M245.5358,502.4526c-26.572,0-48.1128-30.9426-48.1128-69.1122,0-38.1696,21.5408-69.1122,48.1128-69.1122h23.847v138.2244h-23.847Z" fill="none" stroke="#191421" stroke-linecap="round" stroke-linejoin="round" stroke-width="1.0448"/>
      <ellipse cx="269.3827" cy="433.3404" rx="48.1128" ry="69.1122" fill="#413f4d"/>
      <ellipse cx="269.3827" cy="433.3404" rx="48.1128" ry="69.1122" fill="none" stroke="#191421" stroke-linecap="round" stroke-linejoin="round" stroke-width="1.0448"/>
      <ellipse cx="269.3827" cy="433.3404" rx="29.6925" ry="42.6522" fill="#c2cce0"/>
      <ellipse cx="269.3827" cy="433.3404" rx="29.6925" ry="42.6522" fill="none" stroke="#191421" stroke-linecap="round" stroke-linejoin="round" stroke-width="1.0448"/>
      <ellipse cx="269.3827" cy="433.3404" rx="25.6788" ry="36.8866" fill="#413f4d"/>
      <ellipse cx="269.3827" cy="433.3404" rx="25.6788" ry="36.8866" fill="none" stroke="#191421" stroke-linecap="round" stroke-linejoin="round" stroke-width="1.0448"/>
      <path d="M262.8078,433.3367l-16.4152,16.4152c1.118,3.2543,2.568,6.2318,4.2947,8.8551l14.0464-14.0464v25.06c1.5054,.3985,3.055,.6088,4.649,.6088s3.1436-.2103,4.649-.6088v-25.06s14.0464,14.0464,14.0464,14.0464c1.7267-2.6233,3.1768-5.6009,4.2947-8.8551l-16.4152-16.4152,16.4152-16.4151c-1.118-3.2543-2.568-6.2318-4.2947-8.8551l-14.0464,14.0464v-25.0489c-1.5054-.3985-3.055-.6088-4.649-.6088s-3.1436,.2103-4.649,.6088v25.0489s-14.0464-14.0464-14.0464-14.0464c-1.7267,2.6233-3.1768,5.6009-4.2947,8.8551l16.4152,16.4151Z" fill="#c2cce0"/>
      <path d="M262.8078,433.3367l-16.4152,16.4152c1.118,3.2543,2.568,6.2318,4.2947,8.8551l14.0464-14.0464v25.06c1.5054,.3985,3.055,.6088,4.649,.6088s3.1436-.2103,4.649-.6088v-25.06s14.0464,14.0464,14.0464,14.0464c1.7267-2.6233,3.1768-5.6009,4.2947-8.8551l-16.4152-16.4152,16.4152-16.4151c-1.118-3.2543-2.568-6.2318-4.2947-8.8551l-14.0464,14.0464v-25.0489c-1.5054-.3985-3.055-.6088-4.649-.6088s-3.1436,.2103-4.649,.6088v25.0489s-14.0464-14.0464-14.0464-14.0464c-1.7267,2.6233-3.1768,5.6009-4.2947,8.8551l16.4152,16.4151Z" fill="none" stroke="#191421" stroke-linecap="round" stroke-linejoin="round" stroke-width="1.0448"/>
      <ellipse cx="269.3827" cy="433.3404" rx="8.579" ry="12.3234" fill="#c2cce0"/>
      <ellipse cx="269.3827" cy="433.3404" rx="8.579" ry="12.3234" fill="none" stroke="#191421" stroke-linecap="round" stroke-linejoin="round" stroke-width="1.0448"/>
    </g>
    <g>
      <path d="M712.4341,502.4526c-26.572,0-48.1128-30.9426-48.1128-69.1122,0-38.1696,21.5408-69.1122,48.1128-69.1122h23.847v138.2244h-23.847Z" fill="#2c2535"/>
      <path d="M712.4341,502.4526c-26.572,0-48.1128-30.9426-48.1128-69.1122,0-38.1696,21.5408-69.1122,48.1128-69.1122h23.847v138.2244h-23.847Z" fill="none" stroke="#191421" stroke-linecap="round" stroke-linejoin="round" stroke-width="1.0448"/>
      <ellipse cx="736.281" cy="433.3404" rx="48.1128" ry="69.1122" fill="#413f4d"/>
      <ellipse cx="736.281" cy="433.3404" rx="48.1128" ry="69.1122" fill="none" stroke="#191421" stroke-linecap="round" stroke-linejoin="round" stroke-width="1.0448"/>
      <ellipse cx="736.281" cy="433.3404" rx="29.6925" ry="42.6522" fill="#c2cce0"/>
      <ellipse cx="736.281" cy="433.3404" rx="29.6925" ry="42.6522" fill="none" stroke="#191421" stroke-linecap="round" stroke-linejoin="round" stroke-width="1.0448"/>
      <ellipse cx="736.281" cy="433.3404" rx="25.6788" ry="36.8866" fill="#413f4d"/>
      <ellipse cx="736.281" cy="433.3404" rx="25.6788" ry="36.8866" fill="none" stroke="#191421" stroke-linecap="round" stroke-linejoin="round" stroke-width="1.0448"/>
      <path d="M729.7061,433.3367l-16.4152,16.4152c1.118,3.2543,2.568,6.2318,4.2947,8.8551l14.0464-14.0464v25.06c1.5054,.3985,3.055,.6088,4.649,.6088s3.1436-.2103,4.649-.6088v-25.06s14.0464,14.0464,14.0464,14.0464c1.7267-2.6233,3.1768-5.6009,4.2947-8.8551l-16.4152-16.4152,16.4152-16.4151c-1.118-3.2543-2.568-6.2318-4.2947-8.8551l-14.0464,14.0464v-25.0489c-1.5054-.3985-3.055-.6088-4.649-.6088s-3.1436,.2103-4.649,.6088v25.0489s-14.0464-14.0464-14.0464-14.0464c-1.7267,2.6233-3.1768,5.6009-4.2947,8.8551l16.4152,16.4151Z" fill="#c2cce0"/>
      <path d="M729.7061,433.3367l-16.4152,16.4152c1.118,3.2543,2.568,6.2318,4.2947,8.8551l14.0464-14.0464v25.06c1.5054,.3985,3.055,.6088,4.649,.6088s3.1436-.2103,4.649-.6088v-25.06s14.0464,14.0464,14.0464,14.0464c1.7267-2.6233,3.1768-5.6009,4.2947-8.8551l-16.4152-16.4152,16.4152-16.4151c-1.118-3.2543-2.568-6.2318-4.2947-8.8551l-14.0464,14.0464v-25.0489c-1.5054-.3985-3.055-.6088-4.649-.6088s-3.1436,.2103-4.649,.6088v25.0489s-14.0464-14.0464-14.0464-14.0464c-1.7267,2.6233-3.1768,5.6009-4.2947,8.8551l16.4152,16.4151Z" fill="none" stroke="#191421" stroke-linecap="round" stroke-linejoin="round" stroke-width="1.0448"/>
      <ellipse cx="736.281" cy="433.3404" rx="8.579" ry="12.3234" fill="#c2cce0"/>
      <ellipse cx="736.281" cy="433.3404" rx="8.579" ry="12.3234" fill="none" stroke="#191421" stroke-linecap="round" stroke-linejoin="round" stroke-width="1.0448"/>
    </g>
    <path d="M485.4796,459.4574c-5.8131-113.2004,121.0575-114.9821,101.7647,8.2704h110.5168c-24.3516-124.4145,88.994-126.1855,80.1389-15.0537l15.0537-2.6565s9.7406-122.6434-13.2827-188.6141c0,0-24.7943-100.9484-111.1318-134.1551-63.8811-24.5696-200.2361-19.7296-266.8463-15.5496-23.8473,1.4965-53.2664,11.7124-75.9945,48.3135l-56.3158,100.9484s-77.6918,23.0233-127.2804,69.9555c0,0-11.2165,18.5958-11.2165,43.9804,0,0-6.4938,11.8068-3.542,24.204,0,0-8.6227,31.2881-.7693,50.7694,0,0-3.3631,7.6744,.179,15.3489l350.9384,2.4501c4.4826,.0313,8.0178-3.7348,7.7879-8.2116Z" fill="#c2cce0"/>
    <g>
      <path d="M529.9071,133.1863h-146.1357c-1.2125,0-12.1702,.3981-13.1208,1.1392-10.0026,7.799-57.7257,55.0599-75.4185,123.8342-.868,3.374,1.6819,6.6595,5.2165,6.6595h188.2986c2.6806,0,4.9489-1.942,5.3362-4.5539,6.3905-43.0864,14.712-81.2317,40.2856-118.801,2.4051-3.5333-.1424-8.2781-4.462-8.2781Z" fill="#413f4d"/>
      <path d="M529.9071,133.1863h-146.1357c-1.2125,0-12.1702,.3981-13.1208,1.1392-10.0026,7.799-57.7257,55.0599-75.4185,123.8342-.868,3.374,1.6819,6.6595,5.2165,6.6595h188.2986c2.6806,0,4.9489-1.942,5.3362-4.5539,6.3905-43.0864,14.712-81.2317,40.2856-118.801,2.4051-3.5333-.1424-8.2781-4.462-8.2781Z" fill="none" stroke="#191421" stroke-linecap="round" stroke-linejoin="round" stroke-width="1.0448"/>
      <path d="M295.5978,267.602h196.2599c2.7939,0,5.1581-2.0241,5.5619-4.7464,6.6607-44.9081,15.3341-84.6662,41.9889-123.824,2.5069-3.6827-.1484-8.6281-4.6506-8.6281h-152.3144c-1.2637,0-12.6847,.4149-13.6755,1.1874-10.4256,8.1287-60.1664,57.3879-78.6073,129.07-.9047,3.5167,1.753,6.9411,5.4371,6.9411Zm3.337-11.2684c17.1466-66.6513,63.3966-112.4533,73.0904-120.0116,.9212-.7183,11.5407-1.1041,12.7157-1.1041h141.6247c4.1863,0,6.6551,4.5984,4.3243,8.0225-24.7842,36.4096-32.8488,73.3774-39.042,115.1338-.3754,2.5312-2.5737,4.4132-5.1715,4.4132h-182.486c-3.4255,0-5.8967-3.1841-5.0555-6.4539Z" fill="#2c2535"/>
      <path d="M295.5978,267.602h196.2599c2.7939,0,5.1581-2.0241,5.5619-4.7464,6.6607-44.9081,15.3341-84.6662,41.9889-123.824,2.5069-3.6827-.1484-8.6281-4.6506-8.6281h-152.3144c-1.2637,0-12.6847,.4149-13.6755,1.1874-10.4256,8.1287-60.1664,57.3879-78.6073,129.07-.9047,3.5167,1.753,6.9411,5.4371,6.9411Zm3.337-11.2684c17.1466-66.6513,63.3966-112.4533,73.0904-120.0116,.9212-.7183,11.5407-1.1041,12.7157-1.1041h141.6247c4.1863,0,6.6551,4.5984,4.3243,8.0225-24.7842,36.4096-32.8488,73.3774-39.042,115.1338-.3754,2.5312-2.5737,4.4132-5.1715,4.4132h-182.486c-3.4255,0-5.8967-3.1841-5.0555-6.4539Z" fill="none" stroke="#191421" stroke-linecap="round" stroke-linejoin="round" stroke-width="1.0448"/>
    </g>
    <path d="M485.4796,459.4574c-5.8131-113.2004,121.0575-114.9821,101.7647,8.2704h110.5168c-24.3516-124.4145,88.994-126.1855,80.1389-15.0537l15.0537-2.6565s9.7406-122.6434-13.2827-188.6141c0,0-24.7943-100.9484-111.1318-134.1551-63.8811-24.5696-200.2361-19.7296-266.8463-15.5496-23.8473,1.4965-53.2664,11.7124-75.9945,48.3135l-56.3158,100.9484s-77.6918,23.0233-127.2804,69.9555c0,0-11.2165,18.5958-11.2165,43.9804,0,0-6.4938,11.8068-3.542,24.204,0,0-8.6227,31.2881-.7693,50.7694,0,0-3.3631,7.6744,.179,15.3489l350.9384,2.4501c4.4826,.0313,8.0178-3.7348,7.7879-8.2116Z" fill="none" stroke="#191421" stroke-linecap="round" stroke-linejoin="round" stroke-width="1.0448"/>
    <path d="M744.86,278.6709h-213.2709s-13.9027,20.0716-3.6352,76.1541c0,0,78.7472-9.4455,75.7954,83.2382h66.7842s12.4728-61.54,4.4276-154.1514" fill="none" stroke="#413f4d" stroke-linecap="round" stroke-linejoin="round" stroke-width="1.0448"/>
    <path d="M785.8972,283.9124c2.0732,9.4821,3.7056,19.5508,4.9788,29.863-17.495,3.2959-28.9162-1.455-28.9162-1.455-2.9521-28.9196,23.924-28.4083,23.9374-28.408Z" fill="#e65a55"/>
    <path d="M785.8972,283.9124c2.0732,9.4821,3.7056,19.5508,4.9788,29.863-17.495,3.2959-28.9162-1.455-28.9162-1.455-2.9521-28.9196,23.924-28.4083,23.9374-28.408Z" fill="none" stroke="#191421" stroke-linecap="round" stroke-linejoin="round" stroke-width="1.0448"/>
    <rect x="690.8247" y="290.1826" width="13.2827" height="6.7889" rx="2.2138" ry="2.2138" transform="translate(1394.9321 587.1541) rotate(-180)" fill="#413f4d"/>
    <rect x="690.8247" y="290.1826" width="13.2827" height="6.7889" rx="2.2138" ry="2.2138" transform="translate(1394.9321 587.1541) rotate(-180)" fill="none" stroke="#191421" stroke-linecap="round" stroke-linejoin="round" stroke-width="1.0448"/>
    <rect x="577.8654" y="290.1826" width="13.2827" height="6.7889" rx="2.2138" ry="2.2138" transform="translate(1169.0136 587.1541) rotate(-180)" fill="#413f4d"/>
    <rect x="577.8654" y="290.1826" width="13.2827" height="6.7889" rx="2.2138" ry="2.2138" transform="translate(1169.0136 587.1541) rotate(-180)" fill="none" stroke="#191421" stroke-linecap="round" stroke-linejoin="round" stroke-width="1.0448"/>
    <rect x="391.2264" y="415.0398" width="36.0108" height="16.2344" rx="8.1172" ry="8.1172" transform="translate(818.4636 846.314) rotate(-180)" fill="#e65a55"/>
    <rect x="391.2264" y="415.0398" width="36.0108" height="16.2344" rx="8.1172" ry="8.1172" transform="translate(818.4636 846.314) rotate(-180)" fill="none" stroke="#191421" stroke-linecap="round" stroke-linejoin="round" stroke-width="1.0448"/>
    <path d="M123.287,431.2779h12.1758c4.4829,0,8.1246-3.6416,8.1246-8.1246,0-2.247-.9077-4.2726-2.3798-5.7337-1.4722-1.4721-3.5088-2.3798-5.7448-2.3798h-11.1906c-.642,4.9367-1.1069,10.5708-.9851,16.2381Z" fill="#e65a55"/>
    <path d="M123.287,431.2779h12.1758c4.4829,0,8.1246-3.6416,8.1246-8.1246,0-2.247-.9077-4.2726-2.3798-5.7337-1.4722-1.4721-3.5088-2.3798-5.7448-2.3798h-11.1906c-.642,4.9367-1.1069,10.5708-.9851,16.2381Z" fill="none" stroke="#191421" stroke-linecap="round" stroke-linejoin="round" stroke-width="1.0448"/>
    <path d="M189.3651,434.3735h140.4304c13.8335,0,26.0012-9.145,29.8477-22.433h0s-200.1258,0-200.1258,0h0c3.8465,13.288,16.0142,22.433,29.8477,22.433Z" fill="#413f4d"/>
    <path d="M189.3651,434.3735h140.4304c13.8335,0,26.0012-9.145,29.8477-22.433h0s-200.1258,0-200.1258,0h0c3.8465,13.288,16.0142,22.433,29.8477,22.433Z" fill="none" stroke="#191421" stroke-linecap="round" stroke-linejoin="round" stroke-width="1.0448"/>
    <rect x="166.0111" y="371.9449" width="187.1383" height="29.2219" rx="10.1834" ry="10.1834" transform="translate(519.1605 773.1117) rotate(-180)" fill="#413f4d"/>
    <rect x="166.0111" y="371.9449" width="187.1383" height="29.2219" rx="10.1834" ry="10.1834" transform="translate(519.1605 773.1117) rotate(-180)" fill="none" stroke="#191421" stroke-linecap="round" stroke-linejoin="round" stroke-width="1.0448"/>
    <path d="M436.7913,380.0579l-6.8365,13.0836c-2.5776,4.933-7.6825,8.0254-13.2484,8.0254h-35.6216c-8.2555,0-14.9479-6.6924-14.9479-14.9479h0c0-7.9876,6.2797-14.5638,14.2588-14.9321l49.3494-2.2777c5.8247-.2688,9.7466,5.8808,7.0462,11.0487Z" fill="#c2cce0"/>
    <path d="M436.7913,380.0579l-6.8365,13.0836c-2.5776,4.933-7.6825,8.0254-13.2484,8.0254h-35.6216c-8.2555,0-14.9479-6.6924-14.9479-14.9479h0c0-7.9876,6.2797-14.5638,14.2588-14.9321l49.3494-2.2777c5.8247-.2688,9.7466,5.8808,7.0462,11.0487Z" fill="none" stroke="#191421" stroke-linecap="round" stroke-linejoin="round" stroke-width="1.0448"/>
    <path d="M149.2474,386.2188h0c0,8.2556-6.6924,14.948-14.948,14.948h-7.4768c.3162-1.3217,.521-2.0662,.521-2.0662-2.9517-12.3972,3.5421-24.204,3.5421-24.204,0-1.2846,.0357-2.5467,.0903-3.795l4.0126,.1852c7.9791,.3683,14.2588,6.9445,14.2588,14.932Z" fill="#c2cce0"/>
    <path d="M149.2474,386.2188h0c0,8.2556-6.6924,14.948-14.948,14.948h-7.4768c.3162-1.3217,.521-2.0662,.521-2.0662-2.9517-12.3972,3.5421-24.204,3.5421-24.204,0-1.2846,.0357-2.5467,.0903-3.795l4.0126,.1852c7.9791,.3683,14.2588,6.9445,14.2588,14.932Z" fill="none" stroke="#191421" stroke-linecap="round" stroke-linejoin="round" stroke-width="1.0448"/>
    <path d="M250.2365,281.1755c-56.9666,16.7784-88.0947,54.5338-97.9441,68.407-1.5626,2.201,.0097,5.2424,2.709,5.2424H435.6189c1.2535,0,2.3904-.7067,2.9571-1.8247,14.755-29.1066,38.4592-58.1961,46.926-68.1902,1.2182-1.438,.1909-3.6363-1.6937-3.6374l-232.5767-.1353c-.3357-.0034-.673,.0433-.995,.1381Z" fill="#2c2535"/>
    <rect x="265.5656" y="315.3311" width="7.9696" height="20.3822" transform="translate(539.1008 651.0444) rotate(-180)" fill="#413f4d"/>
    <path d="M219.3139,354.825v-9.7443c0-1.834,1.4867-3.3207,3.3207-3.3207h123.9717c1.834,0,3.3207,1.4867,3.3207,3.3207v9.7443H219.3139Z" fill="#413f4d"/>
    <path d="M356.1111,354.825v-23.2447c0-3.0566,2.4778-5.5345,5.5345-5.5345h68.1844c3.0566,0,5.5345,2.4779,5.5345,5.5345v23.2447h-79.2533Z" fill="#413f4d"/>
    <path d="M250.2365,281.1755c-56.9666,16.7784-88.0947,54.5338-97.9441,68.407-1.5626,2.201,.0097,5.2424,2.709,5.2424H435.6189c1.2535,0,2.3904-.7067,2.9571-1.8247,14.755-29.1066,38.4592-58.1961,46.926-68.1902,1.2182-1.438,.1909-3.6363-1.6937-3.6374l-232.5767-.1353c-.3357-.0034-.673,.0433-.995,.1381Z" fill="none" stroke="#191421" stroke-linecap="round" stroke-linejoin="round" stroke-width="1.0448"/>
    <path d="M479.7359,281.1755c-77.1612-6.4311-153.6727-6.5448-229.4994,0,0,0-5.3016-76.7387-54.1685-139.9523-5.6155-7.2641-.412-17.8121,8.7696-17.8121h200.6925c2.4806,0,4.8872,.8317,6.8432,2.3573,41.6082,32.4545,68.5045,102.8539,67.3626,155.407Z" fill="#c2cce0"/>
    <path d="M479.7359,281.1755c-77.1612-6.4311-153.6727-6.5448-229.4994,0,0,0-5.3016-76.7387-54.1685-139.9523-5.6155-7.2641-.412-17.8121,8.7696-17.8121h200.6925c2.4806,0,4.8872,.8317,6.8432,2.3573,41.6082,32.4545,68.5045,102.8539,67.3626,155.407Z" fill="none" stroke="#191421" stroke-linecap="round" stroke-linejoin="round" stroke-width="1.0448"/>
    <line x1="437.6623" y1="180.3791" x2="430.6548" y2="354.825" fill="none" stroke="#191421" stroke-linecap="round" stroke-linejoin="round" stroke-width="1.5672"/>
    <path d="M435.6496,173.7377h4.6489v6.5307c0,1.2829-1.0416,2.3245-2.3245,2.3245h0c-1.2829,0-2.3245-1.0416-2.3245-2.3245v-6.5307h0Z" transform="translate(861.6191 388.1391) rotate(-175.7715)" fill="#c2cce0"/>
    <path d="M435.6496,173.7377h4.6489v6.5307c0,1.2829-1.0416,2.3245-2.3245,2.3245h0c-1.2829,0-2.3245-1.0416-2.3245-2.3245v-6.5307h0Z" transform="translate(861.6191 388.1391) rotate(-175.7715)" fill="none" stroke="#191421" stroke-linecap="round" stroke-linejoin="round" stroke-width="1.0448"/>
    <g>
      <line x1="222.6296" y1="180.3791" x2="195.9505" y2="354.825" fill="none" stroke="#191421" stroke-linecap="round" stroke-linejoin="round" stroke-width="1.5672"/>
      <path d="M220.0678,182.4094l4.5976,.3428,1.216-6.5129c.239-1.2803-.5964-2.3949-1.866-2.4895h0c-1.2696-.0947-2.4926,.8665-2.7316,2.1467l-1.216,6.5129Z" fill="#c2cce0"/>
      <path d="M220.0678,182.4094l4.5976,.3428,1.216-6.5129c.239-1.2803-.5964-2.3949-1.866-2.4895h0c-1.2696-.0947-2.4926,.8665-2.7316,2.1467l-1.216,6.5129Z" fill="none" stroke="#191421" stroke-linecap="round" stroke-linejoin="round" stroke-width="1.0448"/>
    </g>
    <path d="M526.706,263.9574h233.7622c-17.5434-101.7872-118.758-143.3329-175.1038-124.2218-49.6283,16.8326-60.3147,101.4507-62.1009,120.4368-.1911,2.0311,1.4024,3.785,3.4425,3.785Z" fill="#413f4d"/>
    <path d="M526.706,263.9574h233.7622c-17.5434-101.7872-118.758-143.3329-175.1038-124.2218-49.6283,16.8326-60.3147,101.4507-62.1009,120.4368-.1911,2.0311,1.4024,3.785,3.4425,3.785Z" fill="none" stroke="#191421" stroke-linecap="round" stroke-linejoin="round" stroke-width="1.0448"/>
    <path d="M679.3887,261.4035h-8.8551v-111.1222c2.9725,1.3519,5.9283,2.8062,8.8551,4.3772v106.745Z" fill="#2c2535"/>
    <path d="M679.3887,261.4035h-8.8551v-111.1222c2.9725,1.3519,5.9283,2.8062,8.8551,4.3772v106.745Z" fill="none" stroke="#191421" stroke-linecap="round" stroke-linejoin="round" stroke-width="1.0448"/>
    <path d="M520.1113,263.9889c-.174,1.944,1.3563,3.6131,3.308,3.6131h238.5837c2.0901,0,3.6525-1.9086,3.2628-3.9621-20.0389-105.5895-123.0818-148.539-180.759-128.422-51.797,18.0661-62.6617,109.4016-64.3955,128.771Zm7.8575-6.2203c1.7153-18.2329,11.9777-99.4937,59.637-115.6584,54.1103-18.3528,151.3091,21.5446,168.1565,119.2932h-224.4875c-1.9591,0-3.4894-1.6843-3.3059-3.6348Z" fill="#2c2535"/>
    <path d="M520.1113,263.9889c-.174,1.944,1.3563,3.6131,3.308,3.6131h238.5837c2.0901,0,3.6525-1.9086,3.2628-3.9621-20.0389-105.5895-123.0818-148.539-180.759-128.422-51.797,18.0661-62.6617,109.4016-64.3955,128.771Zm7.8575-6.2203c1.7153-18.2329,11.9777-99.4937,59.637-115.6584,54.1103-18.3528,151.3091,21.5446,168.1565,119.2932h-224.4875c-1.9591,0-3.4894-1.6843-3.3059-3.6348Z" fill="none" stroke="#191421" stroke-linecap="round" stroke-linejoin="round" stroke-width="1.0448"/>
    <path d="M520.5276,267.602c9.1882,4.5257,18.8815,7.4819,28.9761,9.1912,12.2954,2.0819,23.6992-6.181,23.6992-17.0208h0c0-10.803-11.3328-19.0782-23.5943-17.0384-9.6937,1.6126-19.3874,5.4744-29.081,11.5853v13.2827Z" fill="#c2cce0"/>
    <path d="M520.5276,267.602c9.1882,4.5257,18.8815,7.4819,28.9761,9.1912,12.2954,2.0819,23.6992-6.181,23.6992-17.0208h0c0-10.803-11.3328-19.0782-23.5943-17.0384-9.6937,1.6126-19.3874,5.4744-29.081,11.5853v13.2827Z" fill="none" stroke="#191421" stroke-linecap="round" stroke-linejoin="round" stroke-width="1.0448"/>
    <path d="M520.0978,267.602c7.9496,4.5257,16.3362,7.4819,25.07,9.1912,10.638,2.0819,20.5045-6.181,20.5045-17.0208h0c0-10.803-9.8051-19.0782-20.4137-17.0384-8.3869,1.6126-16.7739,5.4744-25.1608,11.5853v13.2827Z" fill="#c2cce0"/>
    <path d="M520.0978,267.602c7.9496,4.5257,16.3362,7.4819,25.07,9.1912,10.638,2.0819,20.5045-6.181,20.5045-17.0208h0c0-10.803-9.8051-19.0782-20.4137-17.0384-8.3869,1.6126-16.7739,5.4744-25.1608,11.5853v13.2827Z" fill="none" stroke="#191421" stroke-linecap="round" stroke-linejoin="round" stroke-width="1.0448"/>
  </g>
  <g>
    <circle cx="69.4597" cy="339.9237" r="2.2289" fill="#384778"/>
    <circle cx="69.4597" cy="339.9237" r="2.2289" fill="none" stroke="#231f20" stroke-linecap="round" stroke-linejoin="round" stroke-width="1.0448"/>
    <path d="M69.4597,339.5117h0c14.5097,0,26.9325,10.4009,29.4834,24.6846l13.5029,75.6118c3.8231,21.408,22.4419,36.9964,44.1886,36.9964h0c24.7908,0,44.8877-20.0969,44.8877-44.8877v-86.1309c0-6.7366,5.4611-12.1977,12.1977-12.1977h0c6.7366,0,12.1977,5.4611,12.1977,12.1977v8.6653" fill="none" stroke="#384778" stroke-linecap="round" stroke-linejoin="round" stroke-width="2.0896"/>
    <circle cx="69.4597" cy="351.7707" r="2.2289" fill="#e65a55"/>
    <circle cx="69.4597" cy="351.7707" r="2.2289" fill="none" stroke="#231f20" stroke-linecap="round" stroke-linejoin="round" stroke-width="1.0448"/>
    <path d="M69.4597,351.7707h0c17.7182,0,33.5312,11.1177,39.5272,27.7905l23.0706,64.1509c9.3779,26.0764,34.1096,43.4646,61.8211,43.4646h.0001c36.2836,0,65.6973-29.4137,65.6973-65.6973v-75.6832c0-6.7422,5.4656-12.2078,12.2078-12.2078h0c6.7422,0,12.2078,5.4656,12.2078,12.2078v8.6552" fill="none" stroke="#e65a55" stroke-linecap="round" stroke-linejoin="round" stroke-width="2.0896"/>
  </g>
</svg>