<?xml version="1.0" encoding="UTF-8"?>
<svg id="Car_Wash" data-name="Car Wash" xmlns="http://www.w3.org/2000/svg" viewBox="0 0 800 600">
  <g>
    <path d="M251.6314,83.345l-17.1915,4.9257-16.0835,32.2644-37.7698,51.772-10.8673,36.615c7.7279,9.6598,29.4624,24.391,40.8432,7.7279,11.3809-16.6631,28.0507-85.9721,28.0507-85.9721l9.4308-5.0714,2.093-10.3842,10.8673-17.8706-9.3729-14.0067Z" fill="#e6a298"/>
    <path d="M251.6314,83.345l-17.1915,4.9257-16.0835,32.2644-37.7698,51.772-10.8673,36.615c7.7279,9.6598,29.4624,24.391,40.8432,7.7279,11.3809-16.6631,28.0507-85.9721,28.0507-85.9721l9.4308-5.0714,2.093-10.3842,10.8673-17.8706-9.3729-14.0067Z" fill="none" stroke="#191421" stroke-linecap="round" stroke-linejoin="round" stroke-width="1.2075"/>
    <path d="M218.3564,120.5352l5.9407-19.3195,14.3161-6.7618,.5062,1.2552c.9933,2.4628,.1528,5.2852-2.026,6.8034l-3.1367,2.1856-3.5136,10.068c-1.4258,4.0855-5.5179,6.6144-9.8097,6.0622l-2.2772-.293Z" fill="#e6a298"/>
    <path d="M218.3564,120.5352l5.9407-19.3195,14.3161-6.7618,.5062,1.2552c.9933,2.4628,.1528,5.2852-2.026,6.8034l-3.1367,2.1856-3.5136,10.068" fill="none" stroke="#191421" stroke-linecap="round" stroke-linejoin="round" stroke-width="1.2075"/>
    <path d="M102.1461,514.8957l3.6224,42.503s-4.8299,21.1802-1.8112,34.981h75.7085v-4.8872c0-3.7221-2.3053-7.0551-5.7881-8.3682l-23.6743-8.9264-7.0033-13.2822,5.0714-38.3976-46.1255-3.6224Z" fill="#e65a55"/>
    <path d="M102.1461,514.8957l3.6224,42.503s-4.8299,21.1802-1.8112,34.981h75.7085v-4.8872c0-3.7221-2.3053-7.0551-5.7881-8.3682l-23.6743-8.9264-7.0033-13.2822,5.0714-38.3976-46.1255-3.6224Z" fill="none" stroke="#191421" stroke-linecap="round" stroke-linejoin="round" stroke-width="1.2075"/>
    <path d="M179.2792,584.8938c-34.4391,5.992-66.5264-1.2114-76.3123-3.734" fill="none" stroke="#191421" stroke-linecap="round" stroke-linejoin="round" stroke-width="1.2075"/>
    <path d="M11.782,514.8957l3.6224,42.503s-4.8299,21.1802-1.8112,34.981H89.3017v-4.8872c0-3.7221-2.3053-7.0551-5.7881-8.3682l-23.6743-8.9264-7.0033-13.2822,5.0714-38.3976-46.1255-3.6224Z" fill="#e65a55"/>
    <path d="M11.782,514.8957l3.6224,42.503s-4.8299,21.1802-1.8112,34.981H89.3017v-4.8872c0-3.7221-2.3053-7.0551-5.7881-8.3682l-23.6743-8.9264-7.0033-13.2822,5.0714-38.3976-46.1255-3.6224Z" fill="none" stroke="#191421" stroke-linecap="round" stroke-linejoin="round" stroke-width="1.2075"/>
    <path d="M88.9151,584.8938c-34.4391,5.992-66.5264-1.2114-76.3123-3.734" fill="none" stroke="#191421" stroke-linecap="round" stroke-linejoin="round" stroke-width="1.2075"/>
    <path d="M191.8564,181.0698s-27.6432-41.1628-37.4146-43.5175l-10.4825-7.3574-14.228-7.7278-39.9465-12.2358-3.2108-.1569-9.6688,1.7669s-34.1313,9.3377-39.9271,41.215c-5.7959,31.8773-1.288,65.3645-9.6598,74.7023-8.3718,9.3377-16.4216,21.2515-10.6257,28.4963,5.7959,7.2448,115.1318,0,115.1318,0l21.3931-52.6458,20.6076,14.8117s25.4374-12.2358,18.0315-37.3512Z" fill="#c2cce0"/>
    <path d="M152.4774,193.622c1.0807-1.5142,2.0297-3.1223,3.098-4.6465,1.078-1.5379,2.2245-3.0184,3.4332-4.4556,2.3945-2.8472,5.0427-5.4764,7.8931-7.8666,.8263-.6929,1.673-1.3588,2.5316-2.011,.8281-.6291,1.7072-1.2446,2.4379-1.9881,.4184-.4258-.1086-.9769-.5944-.7704-1.7039,.7241-3.2077,2.0453-4.6292,3.2063-1.494,1.2202-2.9279,2.5109-4.2985,3.8683-2.6827,2.657-5.1133,5.5557-7.278,8.6489-1.2317,1.7601-2.4743,3.6063-3.3308,5.5839-.217,.5011,.4131,.885,.7372,.4309h0Z" fill="#191421"/>
    <path d="M191.8564,181.0698s-27.6432-41.1628-37.4146-43.5175l-10.4825-7.3574-14.228-7.7278-39.9465-12.2358-3.2108-.1569-9.6688,1.7669s-34.1313,9.3377-39.9271,41.215c-5.7959,31.8773-1.288,65.3645-9.6598,74.7023-8.3718,9.3377-16.4216,21.2515-10.6257,28.4963,5.7959,7.2448,115.1318,0,115.1318,0l21.3931-52.6458,20.6076,14.8117s25.4374-12.2358,18.0315-37.3512Z" fill="none" stroke="#191421" stroke-linecap="round" stroke-linejoin="round" stroke-width="1.2075"/>
    <path d="M51.6208,192.9788c-.6437,13.2712-3.1393,26.4504-7.433,39.0239-1.2106,3.5449-2.5947,7.0236-4.0112,10.4903-.1986,.486,.6315,.8392,.8535,.3598,2.8051-6.0572,4.9675-12.4423,6.7114-18.8801,1.7488-6.4561,3.0204-13.0354,3.8067-19.6777,.4453-3.7615,.6947-7.5311,.8085-11.3162,.0143-.4749-.7129-.4713-.7358,0h0Z" fill="#191421"/>
    <path d="M152.2513,521.096l4.6771-93.3798-12.4049-164.5383c19.3196-50.8748,10.3038-124.2892,10.3038-124.2892-1.288-6.7618-10.8679-8.6938-10.8679-8.6938,5.3927,35.7412,2.4965,58.1823,2.4965,58.1823-19.9632,3.4435-47.8459-2.4776-47.8459-2.4776,5.2833-46.045-12.036-75.8252-12.036-75.8252,0,0-4.195-2.741-9.6689,1.7669,0,0,17.0656,26.1052,7.4058,77.6121s-28.9793,62.1327-67.2965,57.9468c0,0,3.8639-9.9818,10.3038-19.6416,0,0-9.3378-1.932-14.1677,18.6756,0,0-14.4897,30.2673-4.8299,81.7861,0,0-6.4399,56.0267,.644,76.3123,0,0-3.5419,9.0158-.966,16.4216,0,0-3.2199,61.7869,2.5759,84.0223,0,0-6.4399,9.6814,1.61,16.1194,8.0498,6.438,35.4192,5.7376,44.435,3.3509,9.0158-2.3868,2.8979-12.6905,2.8979-12.6905l16.0996-155.9284,20.9295,80.5821s-3.2199,8.0498,1.288,12.8797l2.0929,65.1592s-8.6938,8.8991,1.932,15.1779c10.6258,6.2789,47.0109,2.9718,51.3578-2.5211,3.0029-3.7945-.966-6.0098-.966-6.0098Z" fill="#384778"/>
    <path d="M152.2513,521.096l4.6771-93.3798-12.4049-164.5383c19.3196-50.8748,10.3038-124.2892,10.3038-124.2892-1.288-6.7618-10.8679-8.6938-10.8679-8.6938,5.3927,35.7412,2.4965,58.1823,2.4965,58.1823-19.9632,3.4435-47.8459-2.4776-47.8459-2.4776,5.2833-46.045-12.036-75.8252-12.036-75.8252,0,0-4.195-2.741-9.6689,1.7669,0,0,17.0656,26.1052,7.4058,77.6121s-28.9793,62.1327-67.2965,57.9468c0,0,3.8639-9.9818,10.3038-19.6416,0,0-9.3378-1.932-14.1677,18.6756,0,0-14.4897,30.2673-4.8299,81.7861,0,0-6.4399,56.0267,.644,76.3123,0,0-3.5419,9.0158-.966,16.4216,0,0-3.2199,61.7869,2.5759,84.0223,0,0-6.4399,9.6814,1.61,16.1194,8.0498,6.438,35.4192,5.7376,44.435,3.3509,9.0158-2.3868,2.8979-12.6905,2.8979-12.6905l16.0996-155.9284,20.9295,80.5821s-3.2199,8.0498,1.288,12.8797l2.0929,65.1592s-8.6938,8.8991,1.932,15.1779c10.6258,6.2789,47.0109,2.9718,51.3578-2.5211,3.0029-3.7945-.966-6.0098-.966-6.0098Z" fill="none" stroke="#191421" stroke-linecap="round" stroke-linejoin="round" stroke-width="1.2075"/>
    <path d="M76.049,355.676c.2525-1.515,.0798-3.1428,.1329-4.6768,.055-1.5877,.2036-3.173,.4501-4.7425,.2432-1.5483,.5775-3.082,1.0007-4.591,.4314-1.5385,1.1112-3.0251,1.4838-4.5739,.1418-.5893-.6612-.9433-.9828-.4143-.823,1.3538-1.26,3.0288-1.6835,4.5433-.4427,1.5833-.7868,3.1939-1.0314,4.8197-.2357,1.5666-.3834,3.1459-.4334,4.7295-.0494,1.5657-.1375,3.4049,.3813,4.9061,.1028,.2975,.62,.3733,.6822,0h0Z" fill="#191421"/>
    <path d="M77.8342,332.5721c1.6699-2.2329,3.1698-4.5873,4.7374-6.893,1.5651-2.3021,3.1603-4.5892,4.7978-6.8405,3.2579-4.479,6.6154-8.8827,10.1177-13.1738,.9773-1.1975,1.9743-2.3782,2.9614-3.5675,.9989-1.2037,2.06-2.3879,2.8456-3.743,.3611-.6229-.4302-1.1178-.9334-.7202-1.0943,.8646-1.986,1.9369-2.8918,2.9935s-1.7791,2.1416-2.6529,3.2244c-1.7429,2.1596-3.4537,4.3454-5.1221,6.563-3.3402,4.4397-6.6059,8.9614-9.5924,13.6486-1.7023,2.6718-3.47,5.3083-4.8944,8.142-.2141,.426,.351,.7359,.6272,.3666h0Z" fill="#191421"/>
    <path d="M80.7451,333.2357c1.5113-1.1588,2.8391-2.582,4.3078-3.8007,1.4898-1.2361,3.0369-2.403,4.6283-3.505,3.203-2.218,6.5792-4.1708,9.9967-6.0364,1.9412-1.0597,3.9599-2.0164,5.824-3.2083,.4886-.3124,.1756-1.2397-.418-.9914-1.8256,.7635-3.5611,1.737-5.3004,2.6774-1.7329,.937-3.4524,1.8979-5.1451,2.906-3.4024,2.0263-6.7316,4.2257-9.7602,6.785-1.6269,1.3748-3.4498,2.8814-4.6367,4.67-.1943,.2928,.2078,.73,.5034,.5034h0Z" fill="#191421"/>
    <path d="M83.1557,53.5607s-3.0308,12.5577,5.019,24.4714c8.0498,11.9137,28.9793,5.3129,28.9793,5.3129l4.3469-34.6142s-22.7568-6.2789-38.3453,4.8299Z" fill="#2c2535"/>
    <path d="M83.1557,53.5607s-3.0308,12.5577,5.019,24.4714c8.0498,11.9137,28.9793,5.3129,28.9793,5.3129l4.3469-34.6142s-22.7568-6.2789-38.3453,4.8299Z" fill="none" stroke="#191421" stroke-linecap="round" stroke-linejoin="round" stroke-width="1.2075"/>
    <path d="M89.7847,110.2314c20.6075,26.5644,39.7661,15.1337,39.7661,15.1337l1.771-11.4307,5.4967,1.5856c1.9567,.5644,4.0781,.1638,5.6703-1.106,15.262-12.1715,12.741-39.0382,12.741-39.0382,3.8639-7.7278,2.6564-21.976,2.6564-21.976l-45.562-4.6689-1.932,20.4465-4.9909,5.7959-3.8639-.805s-3.2199-7.0838-9.4988-7.2448-11.214,9.408-7.7278,18.0316c3.0589,7.5668,12.2357,9.4988,12.2357,9.4988l-6.7618,15.7776Z" fill="#e6a298"/>
    <path d="M89.7847,110.2314c20.6075,26.5644,39.7661,15.1337,39.7661,15.1337l1.771-11.4307,5.4967,1.5856c1.9567,.5644,4.0781,.1638,5.6703-1.106,15.262-12.1715,12.741-39.0382,12.741-39.0382,3.8639-7.7278,2.6564-21.976,2.6564-21.976l-45.562-4.6689-1.932,20.4465-4.9909,5.7959-3.8639-.805s-3.2199-7.0838-9.4988-7.2448-11.214,9.408-7.7278,18.0316c3.0589,7.5668,12.2357,9.4988,12.2357,9.4988l-6.7618,15.7776Z" fill="none" stroke="#191421" stroke-linecap="round" stroke-linejoin="round" stroke-width="1.2075"/>
    <path d="M86.8793,75.66c1.8268-2.4079,5.3679-1.9523,7.3894-.1036,2.4982,2.2846,3.0218,5.6418,3.8522,8.7554,.1423,.5335,1.0699,.4464,.996-.1348-.4633-3.6418-1.5136-7.6668-4.6162-9.9678-2.4921-1.8482-6.5616-1.8876-8.2323,1.0936-.229,.4086,.3429,.7103,.6109,.3571h0Z" fill="#191421"/>
    <path d="M94.3316,76.9598c-.7974,.4366-1.3226,1.205-1.7107,2.0112-.4223,.8772-.9615,1.955-.9163,2.9483,.0935,2.0534,2.319,3.3722,4.1842,3.4454,.4463,.0175,.5815-.5997,.2214-.8174-1.1478-.694-3.3227-1.0708-3.2486-2.8279,.0318-.7539,.4338-1.563,.7337-2.2471,.3054-.6967,.6899-1.3369,1.2164-1.8902,.3108-.3266-.0819-.8403-.4801-.6223h0Z" fill="#191421"/>
    <path d="M143.485,68.4779c-.6251,.4145-1.1123,1.017-1.5817,1.5938-.4978,.6116-.9631,1.2522-1.4123,1.9002-.4327,.6242-.8459,1.2619-1.2388,1.9119-.3805,.6295-.9234,1.3664-.8163,2.1346,.0394,.2824,.3947,.3477,.6028,.2452,.6277-.3089,.9514-1.1763,1.2893-1.751,.3741-.6362,.7674-1.2611,1.1794-1.8735,.4004-.5951,.8229-1.173,1.2515-1.7479,.4436-.595,.9622-1.1814,1.2875-1.8519,.1652-.3405-.192-.8064-.5614-.5614h0Z" fill="#191421"/>
    <path d="M138.8207,76.583c.0256,1.5371,.4439,3.0612,.7947,4.5507,.3528,1.4981,.7309,2.9866,1.1742,4.4609,.2155,.7167,.4415,1.4314,.6862,2.1387,.1289,.3726,.2632,.7433,.3968,1.1142,.1104,.3065,.3156,.6176,.1085,.8863-.1741,.226-.6134,.4181-.8595,.563-.3151,.1855-.6394,.3588-.9659,.5235-.6596,.3328-1.3563,.6433-2.0428,.9142-.5181,.2045-.5162,1.1093,.1436,1.0608,1.6523-.1214,3.2207-.6951,4.5632-1.6843,.6198-.4566,.9769-1.0586,.852-1.8482-.1342-.8487-.5666-1.7038-.8564-2.5111-.6002-1.6721-1.1446-3.3616-1.6756-5.0567-.5399-1.7234-.8441-3.5469-1.5269-5.2192-.1601-.3921-.8003-.3849-.7921,.1072h0Z" fill="#191421"/>
    <path d="M122.3865,92.2552c3.3004,16.5272,13.6042,14.5953,18.8754,5.7405l-18.8754-5.7405Z" fill="#e65a55"/>
    <path d="M122.3865,92.2552c3.3004,16.5272,13.6042,14.5953,18.8754,5.7405l-18.8754-5.7405Z" fill="none" stroke="#191421" stroke-linecap="round" stroke-linejoin="round" stroke-width="1.2075"/>
    <path d="M117.6043,106.8542c.8178,.8049,1.7977,1.4547,2.7308,2.1165,.9665,.6855,1.9719,1.3168,2.9895,1.9236,1.9864,1.1844,4.0619,2.4362,6.2919,3.0919,.4832,.1421,.7329-.5274,.3326-.7888-1.9169-1.2516-4.0417-2.182-6.0204-3.3366-.9917-.5787-1.9688-1.1826-2.9433-1.7896-.9691-.6036-1.9018-1.2909-2.9095-1.8281-.3818-.2036-.7955,.2923-.4716,.6112h0Z" fill="#191421"/>
    <ellipse cx="127.2876" cy="76.4888" rx="2.4965" ry="4.118" fill="#191421"/>
    <ellipse cx="146.4558" cy="79.2271" rx="2.4965" ry="4.118" fill="#191421"/>
    <path d="M145.5,68.6939c1.8863-.4808,3.7141-.7587,5.661-.5651,.9029,.0898,1.8013,.3023,2.662,.5864,.8537,.2817,2.0097,1.0589,2.9232,.699,.477-.1879,.7062-.5706,.616-1.085-.2029-1.1573-1.8452-1.6519-2.8016-1.9428-1.0678-.3248-2.1924-.5014-3.3075-.5397-2.1452-.0737-4.4795,.3852-6.2946,1.5628-.6599,.4281-.2495,1.4861,.5415,1.2845h0Z" fill="#191421"/>
    <path d="M133.6931,65.4809c-.5779-1.4537-2.3377-2.1741-3.7057-2.7282-1.6282-.6594-3.2376-1.1136-4.9934-1.2716-3.3573-.302-7.8451,.0497-10.3918,2.5301-.5998,.5842-.0978,1.4463,.6304,1.5218,1.6158,.1675,3.2944-.247,4.887-.5038,1.5175-.2447,3.0349-.4478,4.5772-.4213,1.391,.0239,2.8316,.1387,4.1821,.4942,.6565,.1728,1.311,.4108,1.9302,.688,.7033,.3149,1.3272,.6877,2.1154,.6998,.4734,.0073,.962-.5227,.7686-1.009h0Z" fill="#191421"/>
    <ellipse cx="111.3509" cy="27.4994" rx="12.0404" ry="9.5994" fill="#e65a55"/>
    <ellipse cx="111.3509" cy="27.4994" rx="12.0404" ry="9.5994" fill="none" stroke="#191421" stroke-linecap="round" stroke-linejoin="round" stroke-width="1.2075"/>
    <path d="M80.2859,56.5874s47.0109-11.4449,93.0559,9.1054c2.535-1.3358,3.6434-3.297,2.7369-6.1415,0,0-8.2227-7.6628-19.567-13.7495,0,0-9.2124-21.2204-26.7805-23.1523-17.568-1.932-45.4767,1.932-46.5755,27.2084l-2.8698,1.8031v4.9265Z" fill="#e65a55"/>
    <path d="M80.2859,56.5874s47.0109-11.4449,93.0559,9.1054c2.535-1.3358,3.6434-3.297,2.7369-6.1415,0,0-8.2227-7.6628-19.567-13.7495,0,0-9.2124-21.2204-26.7805-23.1523-17.568-1.932-45.4767,1.932-46.5755,27.2084l-2.8698,1.8031v4.9265Z" fill="none" stroke="#191421" stroke-linecap="round" stroke-linejoin="round" stroke-width="1.2075"/>
    <path d="M80.2859,56.5874s47.011-11.4448,93.0559,9.1053c2.5349-1.3358,3.6434-3.297,2.7369-6.1415,0,0-8.2227-7.6628-19.567-13.7495,0,0-11.6663-7.2893-25.673-5.722-14.0067,1.5673-18.5146,8.6511-18.5146,8.6511,0,0-15.5119-2.4149-29.1685,1.127l-2.8697,1.8031v4.9265Z" fill="#c2cce0"/>
    <path d="M80.2859,56.5874s47.011-11.4448,93.0559,9.1053c2.5349-1.3358,3.6434-3.297,2.7369-6.1415,0,0-8.2227-7.6628-19.567-13.7495,0,0-11.6663-7.2893-25.673-5.722-14.0067,1.5673-18.5146,8.6511-18.5146,8.6511,0,0-15.5119-2.4149-29.1685,1.127l-2.8697,1.8031v4.9265Z" fill="none" stroke="#191421" stroke-linecap="round" stroke-linejoin="round" stroke-width="1.2075"/>
  </g>
  <g>
    <path d="M672.2694,417.5735h99.4903v147.2938c0,15.1846-12.328,27.5125-27.5125,27.5125h-44.4652c-15.1846,0-27.5125-12.328-27.5125-27.5125v-147.2938h0Z" fill="#2c2535"/>
    <path d="M672.2694,417.5735h99.4903v147.2938c0,15.1846-12.328,27.5125-27.5125,27.5125h-44.4652c-15.1846,0-27.5125-12.328-27.5125-27.5125v-147.2938h0Z" fill="none" stroke="#191421" stroke-linecap="round" stroke-linejoin="round" stroke-width="1.2075"/>
    <path d="M140.6596,417.5735h99.4903v147.2938c0,15.1846-12.328,27.5125-27.5125,27.5125h-44.4652c-15.1846,0-27.5125-12.328-27.5125-27.5125v-147.2938h0Z" fill="#2c2535"/>
    <path d="M140.6596,417.5735h99.4903v147.2938c0,15.1846-12.328,27.5125-27.5125,27.5125h-44.4652c-15.1846,0-27.5125-12.328-27.5125-27.5125v-147.2938h0Z" fill="none" stroke="#191421" stroke-linecap="round" stroke-linejoin="round" stroke-width="1.2075"/>
    <path d="M607.0659,474.0832H305.3533l-35.6101,76.7952h20.7038c6.28,0,12.4445-1.6885,17.8479-4.8887l2.4309-1.4397c7.5491-4.471,16.1615-6.83,24.9353-6.83h241.0973c8.7738,0,17.3862,2.359,24.9353,6.83l2.4309,1.4397c5.4034,3.2002,11.5678,4.8887,17.8479,4.8887h20.7038l-35.6101-76.7952Z" fill="#2c2535"/>
    <path d="M607.0659,474.0832H305.3533l-35.6101,76.7952h20.7038c6.28,0,12.4445-1.6885,17.8479-4.8887l2.4309-1.4397c7.5491-4.471,16.1615-6.83,24.9353-6.83h241.0973c8.7738,0,17.3862,2.359,24.9353,6.83l2.4309,1.4397c5.4034,3.2002,11.5678,4.8887,17.8479,4.8887h20.7038l-35.6101-76.7952Z" fill="none" stroke="#191421" stroke-linecap="round" stroke-linejoin="round" stroke-width="1.2075"/>
    <path d="M642.6743,534.4447h-20.6961c-6.2909,0-12.449-1.6905-17.8585-4.8902l-2.427-1.4369c-7.5467-4.4677-16.156-6.8222-24.9343-6.8222h-241.096c-8.7783,0-17.3876,2.3546-24.9343,6.8222l-2.4391,1.4369c-5.3974,3.1998-11.5676,4.8902-17.8465,4.8902h-20.696l3.1756-6.8464h17.5204c6.2789,0,12.449-1.6783,17.8465-4.8902l2.4391-1.4369c7.5467-4.4677,16.1559-6.8222,24.9343-6.8222h241.096c8.7783,0,17.3876,2.3545,24.9343,6.8222l2.427,1.4369c5.4095,3.2119,11.5676,4.8902,17.8585,4.8902h17.5204l3.1757,6.8464Z" fill="#413f4d"/>
    <path d="M642.6743,534.4447h-20.6961c-6.2909,0-12.449-1.6905-17.8585-4.8902l-2.427-1.4369c-7.5467-4.4677-16.156-6.8222-24.9343-6.8222h-241.096c-8.7783,0-17.3876,2.3546-24.9343,6.8222l-2.4391,1.4369c-5.3974,3.1998-11.5676,4.8902-17.8465,4.8902h-20.696l3.1756-6.8464h17.5204c6.2789,0,12.449-1.6783,17.8465-4.8902l2.4391-1.4369c7.5467-4.4677,16.1559-6.8222,24.9343-6.8222h241.096c8.7783,0,17.3876,2.3545,24.9343,6.8222l2.427,1.4369c5.4095,3.2119,11.5676,4.8902,17.8585,4.8902h17.5204l3.1757,6.8464Z" fill="none" stroke="#191421" stroke-linecap="round" stroke-linejoin="round" stroke-width="1.2075"/>
    <path d="M606.501,425.7843H305.9182l-150.2915,62.3056,1.7037,24.6087c1.4885,21.4998,19.3633,38.1799,40.9146,38.1799h71.4982c5.4173,0,9.9-4.0093,10.7525-9.359,1.9608-12.3043,7.755-23.7692,16.677-32.6912l11.5314-11.5314c11.1524-11.1525,26.2784-17.4178,42.0502-17.4178h210.9106c15.7719,0,30.8979,6.2653,42.0502,17.4178l11.5314,11.5314c8.9219,8.9219,14.7161,20.3869,16.677,32.6912,.8525,5.3497,5.3352,9.359,10.7525,9.359h71.4982c21.5513,0,39.4261-16.6801,40.9146-38.1799l1.7037-24.6087-150.2915-62.3056Z" fill="#697fbc"/>
    <path d="M606.501,425.7843H305.9182l-150.2915,62.3056,1.7037,24.6087c1.4885,21.4998,19.3633,38.1799,40.9146,38.1799h71.4982c5.4173,0,9.9-4.0093,10.7525-9.359,1.9608-12.3043,7.755-23.7692,16.677-32.6912l11.5314-11.5314c11.1524-11.1525,26.2784-17.4178,42.0502-17.4178h210.9106c15.7719,0,30.8979,6.2653,42.0502,17.4178l11.5314,11.5314c8.9219,8.9219,14.7161,20.3869,16.677,32.6912,.8525,5.3497,5.3352,9.359,10.7525,9.359h71.4982c21.5513,0,39.4261-16.6801,40.9146-38.1799l1.7037-24.6087-150.2915-62.3056Z" fill="none" stroke="#191421" stroke-linecap="round" stroke-linejoin="round" stroke-width="1.2075"/>
    <g>
      <path d="M711.7108,203.2873h16.7436s-1.6156-6.9543-1.4347-15.0228c.3085-13.7571,12.7353-23.9061,26.2787-21.4709,8.0668,1.4505,16.1028,3.5534,24.1078,6.3157,5.9681,2.0594,10.949,6.4025,13.578,12.1425,2.0351,4.4432,3.3815,9.0715,3.9464,13.9097,.5946,5.0924-2.6906,9.846-7.6578,11.1159-14.5943,3.7312-34.7805,4.8176-56.8865,4.9959l-13.8457,3.7916-4.8299-15.7776Z" fill="#697fbc"/>
      <path d="M200.7084,203.2873h-16.7436s1.6156-6.9543,1.4347-15.0228c-.3085-13.7571-12.7353-23.9061-26.2787-21.4709-8.0668,1.4505-16.1028,3.5534-24.1078,6.3157-5.9681,2.0594-10.949,6.4025-13.578,12.1425-2.0351,4.4432-3.3815,9.0715-3.9464,13.9097-.5946,5.0924,2.6906,9.846,7.6578,11.1159,14.5943,3.7312,34.7805,4.8176,56.8865,4.9959l13.8457,3.7916,4.8299-15.7776Z" fill="#697fbc"/>
      <g>
        <path d="M711.7108,203.2873h16.7436s-1.6156-6.9543-1.4347-15.0228c.3085-13.7571,12.7353-23.9061,26.2787-21.4709,8.0668,1.4505,16.1028,3.5534,24.1078,6.3157,5.9681,2.0594,10.949,6.4025,13.578,12.1425,2.0351,4.4432,3.3815,9.0715,3.9464,13.9097,.5946,5.0924-2.6906,9.846-7.6578,11.1159-14.5943,3.7312-34.7805,4.8176-56.8865,4.9959l-13.8457,3.7916-4.8299-15.7776Z" fill="none" stroke="#191421" stroke-linecap="round" stroke-linejoin="round" stroke-width="1.2075"/>
        <path d="M200.7084,203.2873h-16.7436s1.6156-6.9543,1.4347-15.0228c-.3085-13.7571-12.7353-23.9061-26.2787-21.4709-8.0668,1.4505-16.1028,3.5534-24.1078,6.3157-5.9681,2.0594-10.949,6.4025-13.578,12.1425-2.0351,4.4432-3.3815,9.0715-3.9464,13.9097-.5946,5.0924,2.6906,9.846,7.6578,11.1159,14.5943,3.7312,34.7805,4.8176,56.8865,4.9959l13.8457,3.7916,4.8299-15.7776Z" fill="none" stroke="#191421" stroke-linecap="round" stroke-linejoin="round" stroke-width="1.2075"/>
      </g>
    </g>
    <path d="M722.8168,218.743s-27.796-95.9735-67.6185-142.3208c-35.0795-40.8272-362.898-40.8272-397.9775,0-39.8225,46.3473-67.6185,142.3208-67.6185,142.3208l-48.9429,105.6136v95.3098l14.1677,77.2782,10.9477,3.8639s13.5237,28.3354,85.0061,18.0316c0,0,34.7752-80.4982,145.5407-79.8542h119.7758c110.7655-.644,145.5407,79.8542,145.5407,79.8542,71.4824,10.3038,85.0061-18.0316,85.0061-18.0316l10.9477-3.8639,14.1677-77.2782v-95.3098l-48.9429-105.6136Z" fill="#697fbc"/>
    <path d="M722.8168,218.743s-27.796-95.9735-67.6185-142.3208c-35.0795-40.8272-362.898-40.8272-397.9775,0-39.8225,46.3473-67.6185,142.3208-67.6185,142.3208l-48.9429,105.6136v95.3098l14.1677,77.2782,10.9477,3.8639s13.5237,28.3354,85.0061,18.0316c0,0,34.7752-80.4982,145.5407-79.8542h119.7758c110.7655-.644,145.5407,79.8542,145.5407,79.8542,71.4824,10.3038,85.0061-18.0316,85.0061-18.0316l10.9477-3.8639,14.1677-77.2782v-95.3098l-48.9429-105.6136Z" fill="none" stroke="#191421" stroke-linecap="round" stroke-linejoin="round" stroke-width="1.2075"/>
    <rect x="398.8117" y="451.7143" width="114.7959" height="55.7852" rx="6.0374" ry="6.0374" fill="#c2cce0"/>
    <rect x="398.8117" y="451.7143" width="114.7959" height="55.7852" rx="6.0374" ry="6.0374" fill="none" stroke="#191421" stroke-linecap="round" stroke-linejoin="round" stroke-width="1.2075"/>
    <rect x="403.4001" y="455.5782" width="105.6191" height="48.0574" rx="5.375" ry="5.375" fill="none" stroke="#413f4d" stroke-linecap="round" stroke-linejoin="round" stroke-width="1.2075"/>
    <path d="M306.2415,407.9137h299.9362c0,10.9293-8.8732,19.8025-19.8025,19.8025H326.0441c-10.9293,0-19.8025-8.8732-19.8025-19.8025h0Z" fill="#2c2535"/>
    <path d="M306.2415,407.9137h299.9362c0,10.9293-8.8732,19.8025-19.8025,19.8025H326.0441c-10.9293,0-19.8025-8.8732-19.8025-19.8025h0Z" fill="none" stroke="#191421" stroke-linecap="round" stroke-linejoin="round" stroke-width="1.2075"/>
    <circle cx="211.9439" cy="417.5735" r="18.8366" fill="#c2cce0"/>
    <circle cx="211.9439" cy="417.5735" r="18.8366" fill="none" stroke="#191421" stroke-linecap="round" stroke-linejoin="round" stroke-width="1.2075"/>
    <path d="M188.2617,465.3789l57.751,7.0271c8.0068,.9743,12.8754,9.3987,9.6327,16.784-2.5905,5.9-6.2892,10.9495-11.3781,14.9319-2.3987,1.8772-5.4774,2.6605-8.5064,2.3398l-45.3014-4.7971c-3.385-.3584-6.4957-2.1097-8.4794-4.8759-4.6471-6.4804-7.0895-12.9107-7.2588-19.2894-.1937-7.2984,6.2927-13.0023,13.5403-12.1204Z" fill="#413f4d"/>
    <path d="M188.2617,465.3789l57.751,7.0271c8.0068,.9743,12.8754,9.3987,9.6327,16.784-2.5905,5.9-6.2892,10.9495-11.3781,14.9319-2.3987,1.8772-5.4774,2.6605-8.5064,2.3398l-45.3014-4.7971c-3.385-.3584-6.4957-2.1097-8.4794-4.8759-4.6471-6.4804-7.0895-12.9107-7.2588-19.2894-.1937-7.2984,6.2927-13.0023,13.5403-12.1204Z" fill="none" stroke="#191421" stroke-linecap="round" stroke-linejoin="round" stroke-width="1.2075"/>
    <path d="M247.8796,472.7994c-.603-.1713-1.2204-.3148-1.8669-.3935l-57.751-7.0271c-7.2476-.8819-13.734,4.8221-13.5403,12.1205,.0468,1.7622,.2846,3.5287,.6769,5.2988l50.4548,4.4954c3.5999,.3207,7.259-.4626,10.1099-2.3398,5.0732-3.3404,8.9706-7.4401,11.9166-12.1543Z" fill="#2c2535"/>
    <path d="M247.8796,472.7994c-.603-.1713-1.2204-.3148-1.8669-.3935l-57.751-7.0271c-7.2476-.8819-13.734,4.8221-13.5403,12.1205,.0468,1.7622,.2846,3.5287,.6769,5.2988l50.4548,4.4954c3.5999,.3207,7.259-.4626,10.1099-2.3398,5.0732-3.3404,8.9706-7.4401,11.9166-12.1543Z" fill="none" stroke="#191421" stroke-linecap="round" stroke-linejoin="round" stroke-width="1.2075"/>
    <path d="M256.5367,486.1096c-.157,1.0384-.4468,2.0648-.8936,3.079-2.5839,5.9046-6.2909,10.9518-11.3744,14.9364-2.4029,1.8716-5.4819,2.6565-8.5127,2.3425l-45.2923-4.8057c-3.393-.3501-6.4962-2.101-8.4885-4.8782-2.8859-4.0209-4.9265-8.0297-6.0978-12.0265,2.3667,2.5961,5.9529,4.2382,9.8288,4.5884l53.8412,4.7937c3.5982,.326,7.2569-.4588,10.1065-2.3425,2.584-1.7026,4.8782-3.6103,6.8826-5.6872Z" fill="#2c2535"/>
    <path d="M256.5367,486.1096c-.157,1.0384-.4468,2.0648-.8936,3.079-2.5839,5.9046-6.2909,10.9518-11.3744,14.9364-2.4029,1.8716-5.4819,2.6565-8.5127,2.3425l-45.2923-4.8057c-3.393-.3501-6.4962-2.101-8.4885-4.8782-2.8859-4.0209-4.9265-8.0297-6.0978-12.0265,2.3667,2.5961,5.9529,4.2382,9.8288,4.5884l53.8412,4.7937c3.5982,.326,7.2569-.4588,10.1065-2.3425,2.584-1.7026,4.8782-3.6103,6.8826-5.6872Z" fill="none" stroke="#191421" stroke-linecap="round" stroke-linejoin="round" stroke-width="1.2075"/>
    <path d="M321.2974,345.6913h0c0,8.85-5.9713,16.5918-14.5412,18.8006-13.7118,3.5341-34.9091,7.435-53.7212,4.2996-30.9113-5.1519-39.6051-1.2443-47.9769,1.1488-8.3718,2.3931-38.4433,5.9881-40.8931-16.6045-2.8979-26.7254,7.9759-42.825,28.9424-45.401,16.0445-1.9712,82.6014,12.0851,112.9661,18.7933,8.8963,1.9654,15.224,9.8522,15.224,18.9631Z" fill="#c2cce0"/>
    <path d="M321.2974,345.6913h0c0,8.85-5.9713,16.5918-14.5412,18.8006-13.7118,3.5341-34.9091,7.435-53.7212,4.2996-30.9113-5.1519-39.6051-1.2443-47.9769,1.1488-8.3718,2.3931-38.4433,5.9881-40.8931-16.6045-2.8979-26.7254,7.9759-42.825,28.9424-45.401,16.0445-1.9712,82.6014,12.0851,112.9661,18.7933,8.8963,1.9654,15.224,9.8522,15.224,18.9631Z" fill="none" stroke="#191421" stroke-linecap="round" stroke-linejoin="round" stroke-width="1.2075"/>
    <path d="M306.2415,343.7424h0c0,6.3507-4.3866,11.8489-10.5767,13.2678-11.595,2.6579-30.8084,5.9358-47.7564,3.536-26.415-3.7404-33.8442-.9034-40.9982,.8341-7.1541,1.7374-32.8514,4.3475-34.9448-12.0551-2.4764-19.4031,6.8157-31.0917,24.7324-32.9619,14.0617-1.4678,73.5269,9.3042,98.4651,14.0075,6.43,1.2127,11.0786,6.8282,11.0786,13.3716Z" fill="#2c2535"/>
    <path d="M306.2415,343.7424h0c0,6.3507-4.3866,11.8489-10.5767,13.2678-11.595,2.6579-30.8084,5.9358-47.7564,3.536-26.415-3.7404-33.8442-.9034-40.9982,.8341-7.1541,1.7374-32.8514,4.3475-34.9448-12.0551-2.4764-19.4031,6.8157-31.0917,24.7324-32.9619,14.0617-1.4678,73.5269,9.3042,98.4651,14.0075,6.43,1.2127,11.0786,6.8282,11.0786,13.3716Z" fill="none" stroke="#191421" stroke-linecap="round" stroke-linejoin="round" stroke-width="1.2075"/>
    <path d="M296.9867,330.8605c-.5911-.1991-1.196-.3712-1.8237-.4896-7.5965-1.4327-18.4027-3.4289-30.1475-5.4703-3.1793,3.4317-5.1382,8.0104-5.1382,13.0574,0,10.6254,8.6136,19.2391,19.239,19.2391s19.2391-8.6136,19.2391-19.2391c0-2.5094-.4948-4.8995-1.3687-7.0975Z" fill="#413f4d"/>
    <path d="M296.9867,330.8605c-.5911-.1991-1.196-.3712-1.8237-.4896-7.5965-1.4327-18.4027-3.4289-30.1475-5.4703-3.1793,3.4317-5.1382,8.0104-5.1382,13.0574,0,10.6254,8.6136,19.2391,19.239,19.2391s19.2391-8.6136,19.2391-19.2391c0-2.5094-.4948-4.8995-1.3687-7.0975Z" fill="none" stroke="#191421" stroke-linecap="round" stroke-linejoin="round" stroke-width="1.2075"/>
    <path d="M210.5626,334.5225c0,11.7667,9.5388,21.3054,21.3054,21.3054s21.3054-9.5387,21.3054-21.3054c0-4.5789-1.458-8.8099-3.9161-12.2832-10.733-1.7528-21.4172-3.3596-30.5202-4.4721-4.9699,3.9003-8.1745,9.9476-8.1745,16.7553Z" fill="#413f4d"/>
    <path d="M210.5626,334.5225c0,11.7667,9.5388,21.3054,21.3054,21.3054s21.3054-9.5387,21.3054-21.3054c0-4.5789-1.458-8.8099-3.9161-12.2832-10.733-1.7528-21.4172-3.3596-30.5202-4.4721-4.9699,3.9003-8.1745,9.9476-8.1745,16.7553Z" fill="none" stroke="#191421" stroke-linecap="round" stroke-linejoin="round" stroke-width="1.2075"/>
    <path d="M351.4836,324.9006h75.3463c13.3284,0,24.1495,10.821,24.1495,24.1495v20.5465c0,14.6613-11.9031,26.5644-26.5644,26.5644h-49.9699c-26.0012,0-47.1109-21.1097-47.1109-47.1109h0c0-13.3285,10.821-24.1495,24.1495-24.1495Z" fill="#2c2535"/>
    <path d="M351.4836,324.9006h75.3463c13.3284,0,24.1495,10.821,24.1495,24.1495v20.5465c0,14.6613-11.9031,26.5644-26.5644,26.5644h-49.9699c-26.0012,0-47.1109-21.1097-47.1109-47.1109h0c0-13.3285,10.821-24.1495,24.1495-24.1495Z" fill="none" stroke="#191421" stroke-linecap="round" stroke-linejoin="round" stroke-width="1.2075"/>
    <g>
      <path d="M436.2689,326.8077v66.5559c-3.5741,1.7991-7.595,2.8013-11.8574,2.8013h-.2173v-71.2651h2.6323c3.3568,0,6.5445,.6762,9.4424,1.9078Z" fill="#413f4d"/>
      <rect x="396.8087" y="324.8999" width="12.0747" height="71.2651" fill="#413f4d"/>
      <path d="M381.498,324.8999v71.2651h-7.0517c-1.6904,0-3.3688-.0845-5.0231-.2656v-70.9994h12.0747Z" fill="#413f4d"/>
      <path d="M354.1245,324.8999v66.6646c-4.4555-2.1372-8.5248-4.9506-12.0747-8.3195v-56.4373c2.898-1.2316,6.0857-1.9078,9.4304-1.9078h2.6443Z" fill="#413f4d"/>
    </g>
    <g>
      <path d="M436.2689,326.8077v66.5559c-3.5741,1.7991-7.595,2.8013-11.8574,2.8013h-.2173v-71.2651h2.6323c3.3568,0,6.5445,.6762,9.4424,1.9078Z" fill="none" stroke="#191421" stroke-linecap="round" stroke-linejoin="round" stroke-width="1.2075"/>
      <rect x="396.8087" y="324.8999" width="12.0747" height="71.2651" fill="none" stroke="#191421" stroke-linecap="round" stroke-linejoin="round" stroke-width="1.2075"/>
      <path d="M381.498,324.8999v71.2651h-7.0517c-1.6904,0-3.3688-.0845-5.0231-.2656v-70.9994h12.0747Z" fill="none" stroke="#191421" stroke-linecap="round" stroke-linejoin="round" stroke-width="1.2075"/>
      <path d="M354.1245,324.8999v66.6646c-4.4555-2.1372-8.5248-4.9506-12.0747-8.3195v-56.4373c2.898-1.2316,6.0857-1.9078,9.4304-1.9078h2.6443Z" fill="none" stroke="#191421" stroke-linecap="round" stroke-linejoin="round" stroke-width="1.2075"/>
    </g>
    <circle cx="700.4761" cy="417.5735" r="18.8366" fill="#c2cce0"/>
    <circle cx="700.4761" cy="417.5735" r="18.8366" fill="none" stroke="#191421" stroke-linecap="round" stroke-linejoin="round" stroke-width="1.2075"/>
    <path d="M724.1583,465.3789l-57.751,7.0271c-8.0068,.9743-12.8754,9.3987-9.6327,16.784,2.5905,5.9,6.2892,10.9495,11.3781,14.9319,2.3987,1.8772,5.4774,2.6605,8.5064,2.3398l45.3014-4.7971c3.385-.3584,6.4957-2.1097,8.4794-4.8759,4.6471-6.4804,7.0895-12.9107,7.2588-19.2894,.1937-7.2984-6.2927-13.0023-13.5403-12.1204Z" fill="#413f4d"/>
    <path d="M724.1583,465.3789l-57.751,7.0271c-8.0068,.9743-12.8754,9.3987-9.6327,16.784,2.5905,5.9,6.2892,10.9495,11.3781,14.9319,2.3987,1.8772,5.4774,2.6605,8.5064,2.3398l45.3014-4.7971c3.385-.3584,6.4957-2.1097,8.4794-4.8759,4.6471-6.4804,7.0895-12.9107,7.2588-19.2894,.1937-7.2984-6.2927-13.0023-13.5403-12.1204Z" fill="none" stroke="#191421" stroke-linecap="round" stroke-linejoin="round" stroke-width="1.2075"/>
    <path d="M664.5404,472.7994c.603-.1713,1.2204-.3148,1.8669-.3935l57.751-7.0271c7.2476-.8819,13.734,4.8221,13.5403,12.1205-.0468,1.7622-.2846,3.5287-.6769,5.2988l-50.4548,4.4954c-3.5999,.3207-7.259-.4626-10.1099-2.3398-5.0732-3.3404-8.9706-7.4401-11.9166-12.1543Z" fill="#2c2535"/>
    <path d="M664.5404,472.7994c.603-.1713,1.2204-.3148,1.8669-.3935l57.751-7.0271c7.2476-.8819,13.734,4.8221,13.5403,12.1205-.0468,1.7622-.2846,3.5287-.6769,5.2988l-50.4548,4.4954c-3.5999,.3207-7.259-.4626-10.1099-2.3398-5.0732-3.3404-8.9706-7.4401-11.9166-12.1543Z" fill="none" stroke="#191421" stroke-linecap="round" stroke-linejoin="round" stroke-width="1.2075"/>
    <path d="M655.8833,486.1096c.157,1.0384,.4468,2.0648,.8936,3.079,2.5839,5.9046,6.2909,10.9518,11.3744,14.9364,2.4029,1.8716,5.4819,2.6565,8.5127,2.3425l45.2923-4.8057c3.393-.3501,6.4962-2.101,8.4885-4.8782,2.8859-4.0209,4.9265-8.0297,6.0978-12.0265-2.3667,2.5961-5.9529,4.2382-9.8288,4.5884l-53.8412,4.7937c-3.5982,.326-7.2569-.4588-10.1065-2.3425-2.584-1.7026-4.8782-3.6103-6.8826-5.6872Z" fill="#2c2535"/>
    <path d="M655.8833,486.1096c.157,1.0384,.4468,2.0648,.8936,3.079,2.5839,5.9046,6.2909,10.9518,11.3744,14.9364,2.4029,1.8716,5.4819,2.6565,8.5127,2.3425l45.2923-4.8057c3.393-.3501,6.4962-2.101,8.4885-4.8782,2.8859-4.0209,4.9265-8.0297,6.0978-12.0265-2.3667,2.5961-5.9529,4.2382-9.8288,4.5884l-53.8412,4.7937c-3.5982,.326-7.2569-.4588-10.1065-2.3425-2.584-1.7026-4.8782-3.6103-6.8826-5.6872Z" fill="none" stroke="#191421" stroke-linecap="round" stroke-linejoin="round" stroke-width="1.2075"/>
    <path d="M591.1226,345.6913h0c0,8.85,5.9713,16.5918,14.5412,18.8006,13.7118,3.5341,34.9091,7.435,53.7212,4.2996,30.9113-5.1519,39.6051-1.2443,47.9769,1.1488,8.3718,2.3931,38.4433,5.9881,40.8931-16.6045,2.8979-26.7254-7.9759-42.825-28.9424-45.401-16.0445-1.9712-82.6014,12.0851-112.9661,18.7933-8.8963,1.9654-15.224,9.8522-15.224,18.9631Z" fill="#c2cce0"/>
    <path d="M591.1226,345.6913h0c0,8.85,5.9713,16.5918,14.5412,18.8006,13.7118,3.5341,34.9091,7.435,53.7212,4.2996,30.9113-5.1519,39.6051-1.2443,47.9769,1.1488,8.3718,2.3931,38.4433,5.9881,40.8931-16.6045,2.8979-26.7254-7.9759-42.825-28.9424-45.401-16.0445-1.9712-82.6014,12.0851-112.9661,18.7933-8.8963,1.9654-15.224,9.8522-15.224,18.9631Z" fill="none" stroke="#191421" stroke-linecap="round" stroke-linejoin="round" stroke-width="1.2075"/>
    <path d="M606.1785,343.7424h0c0,6.3507,4.3866,11.8489,10.5767,13.2678,11.595,2.6579,30.8084,5.9358,47.7564,3.536,26.415-3.7404,33.8442-.9034,40.9982,.8341,7.1541,1.7374,32.8514,4.3475,34.9448-12.0551,2.4764-19.4031-6.8157-31.0917-24.7324-32.9619-14.0617-1.4678-73.5269,9.3042-98.4651,14.0075-6.43,1.2127-11.0786,6.8282-11.0786,13.3716Z" fill="#2c2535"/>
    <path d="M606.1785,343.7424h0c0,6.3507,4.3866,11.8489,10.5767,13.2678,11.595,2.6579,30.8084,5.9358,47.7564,3.536,26.415-3.7404,33.8442-.9034,40.9982,.8341,7.1541,1.7374,32.8514,4.3475,34.9448-12.0551,2.4764-19.4031-6.8157-31.0917-24.7324-32.9619-14.0617-1.4678-73.5269,9.3042-98.4651,14.0075-6.43,1.2127-11.0786,6.8282-11.0786,13.3716Z" fill="none" stroke="#191421" stroke-linecap="round" stroke-linejoin="round" stroke-width="1.2075"/>
    <path d="M615.4333,330.8605c.5911-.1991,1.196-.3712,1.8237-.4896,7.5965-1.4327,18.4027-3.4289,30.1475-5.4703,3.1793,3.4317,5.1382,8.0104,5.1382,13.0574,0,10.6254-8.6136,19.2391-19.239,19.2391-10.6254,0-19.2391-8.6136-19.2391-19.2391,0-2.5094,.4948-4.8995,1.3687-7.0975Z" fill="#413f4d"/>
    <path d="M615.4333,330.8605c.5911-.1991,1.196-.3712,1.8237-.4896,7.5965-1.4327,18.4027-3.4289,30.1475-5.4703,3.1793,3.4317,5.1382,8.0104,5.1382,13.0574,0,10.6254-8.6136,19.2391-19.239,19.2391-10.6254,0-19.2391-8.6136-19.2391-19.2391,0-2.5094,.4948-4.8995,1.3687-7.0975Z" fill="none" stroke="#191421" stroke-linecap="round" stroke-linejoin="round" stroke-width="1.2075"/>
    <path d="M701.8574,334.5225c0,11.7667-9.5388,21.3054-21.3054,21.3054-11.7666,0-21.3054-9.5387-21.3054-21.3054,0-4.5789,1.458-8.8099,3.9161-12.2832,10.733-1.7528,21.4172-3.3596,30.5202-4.4721,4.9699,3.9003,8.1745,9.9476,8.1745,16.7553Z" fill="#413f4d"/>
    <path d="M701.8574,334.5225c0,11.7667-9.5388,21.3054-21.3054,21.3054-11.7666,0-21.3054-9.5387-21.3054-21.3054,0-4.5789,1.458-8.8099,3.9161-12.2832,10.733-1.7528,21.4172-3.3596,30.5202-4.4721,4.9699,3.9003,8.1745,9.9476,8.1745,16.7553Z" fill="none" stroke="#191421" stroke-linecap="round" stroke-linejoin="round" stroke-width="1.2075"/>
    <path d="M666.8879,110.5347c-7.9501-16.0572-23.0069-27.4812-40.666-30.5131-51.1529-8.7823-288.8708-8.7823-340.0236,0-17.6591,3.0319-32.7159,14.4559-40.666,30.5131-23.2452,46.9493-34.9695,103.0564-34.9695,103.0564h491.2948s-11.7244-56.1072-34.9695-103.0564Z" fill="#413f4d"/>
    <path d="M666.8879,110.5347c-7.9501-16.0572-23.0069-27.4812-40.666-30.5131-51.1529-8.7823-288.8708-8.7823-340.0236,0-17.6591,3.0319-32.7159,14.4559-40.666,30.5131-23.2452,46.9493-34.9695,103.0564-34.9695,103.0564h491.2948s-11.7244-56.1072-34.9695-103.0564Z" fill="none" stroke="#191421" stroke-linecap="round" stroke-linejoin="round" stroke-width="1.2075"/>
    <path d="M660.8803,113.1527c-7.7234-14.7824-22.3509-25.2996-39.5064-28.0908-49.6942-8.0851-280.6335-8.0851-330.3277,0-17.1556,2.7912-31.783,13.3083-39.5064,28.0908-22.5823,43.2221-33.9724,94.8752-33.9724,94.8752h477.2853s-11.39-51.653-33.9724-94.8752Z" fill="none" stroke="#2c2535" stroke-linecap="round" stroke-linejoin="round" stroke-width="1.2075"/>
    <path d="M508.5516,324.9006h49.9699c14.6613,0,26.5644,11.9031,26.5644,26.5644v20.5465c0,13.3284-10.821,24.1495-24.1495,24.1495h-75.3463c-13.3284,0-24.1495-10.821-24.1495-24.1495h0c0-26.0013,21.1097-47.1109,47.1109-47.1109Z" transform="translate(1046.5266 721.0615) rotate(-180)" fill="#2c2535"/>
    <path d="M508.5516,324.9006h49.9699c14.6613,0,26.5644,11.9031,26.5644,26.5644v20.5465c0,13.3284-10.821,24.1495-24.1495,24.1495h-75.3463c-13.3284,0-24.1495-10.821-24.1495-24.1495h0c0-26.0013,21.1097-47.1109,47.1109-47.1109Z" transform="translate(1046.5266 721.0615) rotate(-180)" fill="none" stroke="#191421" stroke-linecap="round" stroke-linejoin="round" stroke-width="1.2075"/>
    <g>
      <path d="M476.1511,326.8077v66.5559c3.5741,1.7991,7.595,2.8013,11.8574,2.8013h.2173s0-71.2651,0-71.2651h-2.6323c-3.3568,0-6.5445,.6762-9.4424,1.9078Z" fill="#413f4d"/>
      <rect x="503.5365" y="324.8999" width="12.0747" height="71.2651" fill="#413f4d"/>
      <path d="M530.922,324.8999v71.2651s7.0517,0,7.0517,0c1.6904,0,3.3688-.0845,5.0231-.2656v-70.9994s-12.0747,0-12.0747,0Z" fill="#413f4d"/>
      <path d="M558.2954,324.8999v66.6646c4.4555-2.1372,8.5248-4.9506,12.0747-8.3195v-56.4373c-2.898-1.2316-6.0857-1.9078-9.4304-1.9078h-2.6443Z" fill="#413f4d"/>
    </g>
    <g>
      <path d="M476.1511,326.8077v66.5559c3.5741,1.7991,7.595,2.8013,11.8574,2.8013h.2173s0-71.2651,0-71.2651h-2.6323c-3.3568,0-6.5445,.6762-9.4424,1.9078Z" fill="none" stroke="#191421" stroke-linecap="round" stroke-linejoin="round" stroke-width="1.2075"/>
      <rect x="503.5365" y="324.8999" width="12.0747" height="71.2651" fill="none" stroke="#191421" stroke-linecap="round" stroke-linejoin="round" stroke-width="1.2075"/>
      <path d="M530.922,324.8999v71.2651s7.0517,0,7.0517,0c1.6904,0,3.3688-.0845,5.0231-.2656v-70.9994s-12.0747,0-12.0747,0Z" fill="none" stroke="#191421" stroke-linecap="round" stroke-linejoin="round" stroke-width="1.2075"/>
      <path d="M558.2954,324.8999v66.6646c4.4555-2.1372,8.5248-4.9506,12.0747-8.3195v-56.4373c-2.898-1.2316-6.0857-1.9078-9.4304-1.9078h-2.6443Z" fill="none" stroke="#191421" stroke-linecap="round" stroke-linejoin="round" stroke-width="1.2075"/>
    </g>
  </g>
  <g>
    <circle cx="296.305" cy="540.7973" r="28.1195" fill="#c2cce0"/>
    <circle cx="273.3205" cy="512.6778" r="12.7701" fill="#c2cce0"/>
    <circle cx="333.2112" cy="520.2264" r="5.9459" fill="#c2cce0"/>
    <circle cx="273.3205" cy="478.9803" r="5.7959" fill="#c2cce0"/>
    <circle cx="506.6042" cy="262.534" r="12.5577" fill="#c2cce0"/>
    <circle cx="533.6516" cy="252.3912" r="6.7618" fill="#c2cce0"/>
    <circle cx="523.2633" cy="233.5546" r="7.7278" fill="#c2cce0"/>
    <circle cx="708.4936" cy="219.065" r="30.9113" fill="#c2cce0"/>
    <circle cx="727.8132" cy="177.5279" r="10.6258" fill="#c2cce0"/>
    <circle cx="440.4347" cy="208.0279" r="17.8706" fill="#c2cce0"/>
    <circle cx="669.9196" cy="92.5218" r="17.8706" fill="#c2cce0"/>
    <circle cx="640.8752" cy="78.9982" r="6.0374" fill="#c2cce0"/>
    <circle cx="677.5823" cy="60.6446" r="4.0572" fill="#c2cce0"/>
    <circle cx="659.2466" cy="45.8018" r="5.722" fill="#c2cce0"/>
    <circle cx="631.2154" cy="56.5874" r="13.2339" fill="#c2cce0"/>
    <circle cx="287.8102" cy="51.5238" r="8.0307" fill="#c2cce0"/>
    <circle cx="253.1734" cy="40.0797" r="14.5601" fill="#c2cce0"/>
    <circle cx="267.7335" cy="15.7266" r="8.1064" fill="#c2cce0"/>
    <circle cx="213.4299" cy="56.5874" r="4.9265" fill="#c2cce0"/>
    <circle cx="419.8367" cy="190.2514" r="8.6318" fill="#c2cce0"/>
    <circle cx="564.3328" cy="153.1012" r="6.0374" fill="#c2cce0"/>
    <circle cx="327.2543" cy="126.8604" r="5.9569" fill="#c2cce0"/>
    <circle cx="599.963" cy="537.6536" r="23.2046" fill="#c2cce0"/>
    <circle cx="625.6425" cy="503.3071" r="7.6611" fill="#c2cce0"/>
    <circle cx="618.6161" cy="478.6347" r="4.5515" fill="#c2cce0"/>
    <circle cx="764.4447" cy="444.0621" r="7.6521" fill="#c2cce0"/>
  </g>
  <g>
    <path d="M300.4781,230.4682c0-8.8179-7.1483-15.9662-15.9661-15.9662-3.554,0-6.8254,1.1755-9.4783,3.1392-.8234-6.6958-6.5199-11.8838-13.4383-11.8838-6.6976,0-12.2461,4.8636-13.3414,11.2487l-.4261-.0621c-.924-4.3077-4.7496-7.5387-9.3333-7.5387-3.3329,0-6.2634,1.7099-7.9718,4.2977-.9687-4.1023-4.6448-7.1587-9.0431-7.1587-2.4638,0-4.6975,.9649-6.3616,2.5287-1.4522-.402-2.9753-.6337-4.5554-.6337-9.4251,0-17.0656,7.6405-17.0656,17.0656,0,3.0036,.7819,5.8219,2.1443,8.2736-.1475-.004-.2913-.0222-.4398-.0222-8.9581,0-16.22,7.2619-16.22,16.22,0,5.7757,3.0279,10.8328,7.5737,13.7066-7.5426,1.557-13.2133,8.235-13.2133,16.2388,0,9.1583,7.4243,16.5826,16.5826,16.5826,1.9857,0,3.8811-.367,5.6457-1.007,1.0454,3.8107,4.265,6.7115,8.2463,7.2929,.6782,13.3084,11.6515,23.8989,25.1285,23.8989,12.4922,0,22.8325-9.1014,24.8213-21.0291,1.3003,.7575,2.8074,1.1987,4.4206,1.1987,4.8625,0,8.8043-3.9418,8.8043-8.8043,0-.1953-.0167-.3864-.0293-.5786,2.4609,1.2487,5.2363,1.9677,8.1847,1.9677,10.0143,0,18.1326-8.1182,18.1326-18.1326,0-6.4373-3.3642-12.077-8.4205-15.2947,4.7256-.8824,8.3049-5.0214,8.3049-10.003,0-4.5079-2.932-8.3251-6.9908-9.6654,8.0371-.8309,14.3052-7.6225,14.3052-15.8794Z" fill="#c2cce0"/>
    <path d="M300.4781,230.4682c0-8.8179-7.1483-15.9662-15.9661-15.9662-3.554,0-6.8254,1.1755-9.4783,3.1392-.8234-6.6958-6.5199-11.8838-13.4383-11.8838-6.6976,0-12.2461,4.8636-13.3414,11.2487l-.4261-.0621c-.924-4.3077-4.7496-7.5387-9.3333-7.5387-3.3329,0-6.2634,1.7099-7.9718,4.2977-.9687-4.1023-4.6448-7.1587-9.0431-7.1587-2.4638,0-4.6975,.9649-6.3616,2.5287-1.4522-.402-2.9753-.6337-4.5554-.6337-9.4251,0-17.0656,7.6405-17.0656,17.0656,0,3.0036,.7819,5.8219,2.1443,8.2736-.1475-.004-.2913-.0222-.4398-.0222-8.9581,0-16.22,7.2619-16.22,16.22,0,5.7757,3.0279,10.8328,7.5737,13.7066-7.5426,1.557-13.2133,8.235-13.2133,16.2388,0,9.1583,7.4243,16.5826,16.5826,16.5826,1.9857,0,3.8811-.367,5.6457-1.007,1.0454,3.8107,4.265,6.7115,8.2463,7.2929,.6782,13.3084,11.6515,23.8989,25.1285,23.8989,12.4922,0,22.8325-9.1014,24.8213-21.0291,1.3003,.7575,2.8074,1.1987,4.4206,1.1987,4.8625,0,8.8043-3.9418,8.8043-8.8043,0-.1953-.0167-.3864-.0293-.5786,2.4609,1.2487,5.2363,1.9677,8.1847,1.9677,10.0143,0,18.1326-8.1182,18.1326-18.1326,0-6.4373-3.3642-12.077-8.4205-15.2947,4.7256-.8824,8.3049-5.0214,8.3049-10.003,0-4.5079-2.932-8.3251-6.9908-9.6654,8.0371-.8309,14.3052-7.6225,14.3052-15.8794Z" fill="none" stroke="#191421" stroke-linecap="round" stroke-linejoin="round" stroke-width="1.2075"/>
    <path d="M228.9449,285.7175c12.2951,9.9818,33.1058,9.6598,35.0378-2.2686,1.932-11.9284,2.8979-17.051,9.3378-27.1938,6.4399-10.1428,10.9478-16.2606,0-26.1672-10.9478-9.9066-21.2515-.7192-26.5644-4.2611s-14.0067-9.9818-23.9885-4.5079c-9.9818,5.4739-13.8457,21.5735-13.8457,21.5735l1.6406,12.4772s-11.3004,7.8083-11.3004,17.7901c0,16.7436,29.6827,12.5577,29.6827,12.5577Z" fill="#e65a55"/>
    <path d="M228.9449,285.7175c12.2951,9.9818,33.1058,9.6598,35.0378-2.2686,1.932-11.9284,2.8979-17.051,9.3378-27.1938,6.4399-10.1428,10.9478-16.2606,0-26.1672-10.9478-9.9066-21.2515-.7192-26.5644-4.2611s-14.0067-9.9818-23.9885-4.5079c-9.9818,5.4739-13.8457,21.5735-13.8457,21.5735l1.6406,12.4772s-11.3004,7.8083-11.3004,17.7901c0,16.7436,29.6827,12.5577,29.6827,12.5577Z" fill="none" stroke="#191421" stroke-linecap="round" stroke-linejoin="round" stroke-width="1.2075"/>
    <path d="M215.6033,262.534s-46.6084-5.0714-78.2442-14.0067c-31.6358-8.9353-40.0881-21.493-40.0881-21.493,2.1735-22.942,20.1482-36.2242,20.1482-36.2242l14.627,16.6631s23.425,2.1735,81.1422,30.1868l9.9013-8.2913,15.8165-4.6689,.9814,2.1797c1.1993,2.6637,.0834,5.7993-2.5292,7.1064l-3.965,1.9837,18.6756-1.449,15.2773,5.8135c1.643,.6252,2.5241,2.4132,2.019,4.097h0c-.4893,1.6309-2.1232,2.6361-3.7995,2.3374l-15.4288-2.7491,14.2961,5.9683c1.3561,.5661,2.1781,1.957,2.0202,3.418h0c-.205,1.896-1.9625,3.2293-3.8437,2.9158l-.3979-.0663-.1682,2.4114c-.1773,2.5408-2.2901,4.5114-4.8371,4.5114h-.6295l-2.8979,5.4831-16.0649,.7047-22.0108-6.8318Z" fill="#e6a298"/>
    <path d="M215.6033,262.534s-46.6084-5.0714-78.2442-14.0067c-31.6358-8.9353-40.0881-21.493-40.0881-21.493,2.1735-22.942,20.1482-36.2242,20.1482-36.2242l14.627,16.6631s23.425,2.1735,81.1422,30.1868l9.9013-8.2913,15.8165-4.6689,.9814,2.1797c1.1993,2.6637,.0834,5.7993-2.5292,7.1064l-3.965,1.9837,18.6756-1.449,15.2773,5.8135c1.643,.6252,2.5241,2.4132,2.019,4.097h0c-.4893,1.6309-2.1232,2.6361-3.7995,2.3374l-15.4288-2.7491,14.2961,5.9683c1.3561,.5661,2.1781,1.957,2.0202,3.418h0c-.205,1.896-1.9625,3.2293-3.8437,2.9158l-.3979-.0663-.1682,2.4114c-.1773,2.5408-2.2901,4.5114-4.8371,4.5114h-.6295l-2.8979,5.4831-16.0649,.7047-22.0108-6.8318Z" fill="none" stroke="#191421" stroke-linecap="round" stroke-linejoin="round" stroke-width="1.2075"/>
    <line x1="256.5769" y1="263.178" x2="246.7561" y2="263.178" fill="none" stroke="#191421" stroke-linecap="round" stroke-linejoin="round" stroke-width="1.2075"/>
    <line x1="262.2118" y1="256.2551" x2="246.7561" y2="254.5647" fill="none" stroke="#191421" stroke-linecap="round" stroke-linejoin="round" stroke-width="1.2075"/>
    <path d="M122.3865,194.9155s-18.3536,16.4216-24.3909,34.7752c0,0-32.1188-14.0067-45.1595-46.1255-13.0407-32.1188,18.1121-41.2956,29.4623-34.2922,11.1247,6.8642,40.0881,45.6425,40.0881,45.6425Z" fill="#c2cce0"/>
    <path d="M82.2984,149.2731c11.1247,6.8642,40.0881,45.6425,40.0881,45.6425,0,0-18.3536,16.4216-24.3909,34.7752,0,0-32.1188-14.0067-45.1595-46.1255" fill="none" stroke="#191421" stroke-linecap="round" stroke-linejoin="round" stroke-width="1.2075"/>
  </g>
</svg>