<?xml version="1.0" encoding="UTF-8"?>
<svg id="Car_Engine_Repair" data-name="Car Engine Repair" xmlns="http://www.w3.org/2000/svg" viewBox="0 0 800 600">
  <g>
    <g>
      <path d="M269.7952,512.1163c25.7412,0,46.6085-29.9751,46.6085-66.9513s-20.8673-66.9513-46.6085-66.9513h-23.1013v133.9027h23.1013Z" fill="#2c2535"/>
      <path d="M269.7952,512.1163c25.7412,0,46.6085-29.9751,46.6085-66.9513s-20.8673-66.9513-46.6085-66.9513h-23.1013v133.9027h23.1013Z" fill="none" stroke="#191421" stroke-linecap="round" stroke-linejoin="round" stroke-width="1.0723"/>
      <ellipse cx="246.6938" cy="445.165" rx="46.6085" ry="66.9513" fill="#413f4d"/>
      <ellipse cx="246.6938" cy="445.165" rx="46.6085" ry="66.9513" fill="none" stroke="#191421" stroke-linecap="round" stroke-linejoin="round" stroke-width="1.0723"/>
      <ellipse cx="246.6938" cy="445.165" rx="28.7642" ry="41.3186" fill="#c2cce0"/>
      <ellipse cx="246.6938" cy="445.165" rx="28.7642" ry="41.3186" fill="none" stroke="#191421" stroke-linecap="round" stroke-linejoin="round" stroke-width="1.0723"/>
      <ellipse cx="246.6938" cy="445.165" rx="24.8759" ry="35.7332" fill="#413f4d"/>
      <ellipse cx="246.6938" cy="445.165" rx="24.8759" ry="35.7332" fill="none" stroke="#191421" stroke-linecap="round" stroke-linejoin="round" stroke-width="1.0723"/>
      <path d="M253.0632,445.1614l15.902,15.902c-1.083,3.1525-2.4877,6.037-4.1605,8.5783l-13.6073-13.6073v24.2765c-1.4583,.386-2.9595,.5897-4.5036,.5897s-3.0453-.2037-4.5036-.5897v-24.2765l-13.6073,13.6073c-1.6728-2.5413-3.0774-5.4257-4.1605-8.5783l15.902-15.902-15.902-15.9019c1.083-3.1525,2.4877-6.037,4.1605-8.5783l13.6073,13.6073v-24.2657c1.4583-.3861,2.9595-.5898,4.5036-.5898s3.0453,.2037,4.5036,.5898v24.2657l13.6073-13.6073c1.6728,2.5413,3.0774,5.4257,4.1605,8.5783l-15.902,15.9019Z" fill="#c2cce0"/>
      <path d="M253.0632,445.1614l15.902,15.902c-1.083,3.1525-2.4877,6.037-4.1605,8.5783l-13.6073-13.6073v24.2765c-1.4583,.386-2.9595,.5897-4.5036,.5897s-3.0453-.2037-4.5036-.5897v-24.2765l-13.6073,13.6073c-1.6728-2.5413-3.0774-5.4257-4.1605-8.5783l15.902-15.902-15.902-15.9019c1.083-3.1525,2.4877-6.037,4.1605-8.5783l13.6073,13.6073v-24.2657c1.4583-.3861,2.9595-.5898,4.5036-.5898s3.0453,.2037,4.5036,.5898v24.2657l13.6073-13.6073c1.6728,2.5413,3.0774,5.4257,4.1605,8.5783l-15.902,15.9019Z" fill="none" stroke="#191421" stroke-linecap="round" stroke-linejoin="round" stroke-width="1.0723"/>
      <ellipse cx="246.6938" cy="445.165" rx="8.3107" ry="11.9381" fill="#c2cce0"/>
      <ellipse cx="246.6938" cy="445.165" rx="8.3107" ry="11.9381" fill="none" stroke="#191421" stroke-linecap="round" stroke-linejoin="round" stroke-width="1.0723"/>
    </g>
    <g>
      <path d="M537.2844,512.1163c25.7412,0,46.6085-29.9751,46.6085-66.9513s-20.8673-66.9513-46.6085-66.9513h-23.1013v133.9027h23.1013Z" fill="#2c2535"/>
      <path d="M537.2844,512.1163c25.7412,0,46.6085-29.9751,46.6085-66.9513s-20.8673-66.9513-46.6085-66.9513h-23.1013v133.9027h23.1013Z" fill="none" stroke="#191421" stroke-linecap="round" stroke-linejoin="round" stroke-width="1.0723"/>
      <ellipse cx="514.1831" cy="445.165" rx="46.6085" ry="66.9513" fill="#413f4d"/>
      <ellipse cx="514.1831" cy="445.165" rx="46.6085" ry="66.9513" fill="none" stroke="#191421" stroke-linecap="round" stroke-linejoin="round" stroke-width="1.0723"/>
      <ellipse cx="514.1831" cy="445.165" rx="28.7642" ry="41.3186" fill="#c2cce0"/>
      <ellipse cx="514.1831" cy="445.165" rx="28.7642" ry="41.3186" fill="none" stroke="#191421" stroke-linecap="round" stroke-linejoin="round" stroke-width="1.0723"/>
      <ellipse cx="514.1831" cy="445.165" rx="24.8759" ry="35.7332" fill="#413f4d"/>
      <ellipse cx="514.1831" cy="445.165" rx="24.8759" ry="35.7332" fill="none" stroke="#191421" stroke-linecap="round" stroke-linejoin="round" stroke-width="1.0723"/>
      <path d="M520.5524,445.1614l15.902,15.902c-1.083,3.1525-2.4877,6.037-4.1605,8.5783l-13.6073-13.6073v24.2765c-1.4583,.386-2.9595,.5897-4.5036,.5897s-3.0453-.2037-4.5036-.5897v-24.2765l-13.6073,13.6073c-1.6728-2.5413-3.0774-5.4257-4.1605-8.5783l15.902-15.902-15.902-15.9019c1.083-3.1525,2.4877-6.037,4.1605-8.5783l13.6073,13.6073v-24.2657c1.4583-.3861,2.9595-.5898,4.5036-.5898s3.0453,.2037,4.5036,.5898v24.2657l13.6073-13.6073c1.6728,2.5413,3.0774,5.4257,4.1605,8.5783l-15.902,15.9019Z" fill="#c2cce0"/>
      <path d="M520.5524,445.1614l15.902,15.902c-1.083,3.1525-2.4877,6.037-4.1605,8.5783l-13.6073-13.6073v24.2765c-1.4583,.386-2.9595,.5897-4.5036,.5897s-3.0453-.2037-4.5036-.5897v-24.2765l-13.6073,13.6073c-1.6728-2.5413-3.0774-5.4257-4.1605-8.5783l15.902-15.902-15.902-15.9019c1.083-3.1525,2.4877-6.037,4.1605-8.5783l13.6073,13.6073v-24.2657c1.4583-.3861,2.9595-.5898,4.5036-.5898s3.0453,.2037,4.5036,.5898v24.2657l13.6073-13.6073c1.6728,2.5413,3.0774,5.4257,4.1605,8.5783l-15.902,15.9019Z" fill="none" stroke="#191421" stroke-linecap="round" stroke-linejoin="round" stroke-width="1.0723"/>
      <ellipse cx="514.1831" cy="445.165" rx="8.3107" ry="11.9381" fill="#c2cce0"/>
      <ellipse cx="514.1831" cy="445.165" rx="8.3107" ry="11.9381" fill="none" stroke="#191421" stroke-linecap="round" stroke-linejoin="round" stroke-width="1.0723"/>
    </g>
    <g>
      <path d="M84.9844,512.1163c25.7412,0,46.6085-29.9751,46.6085-66.9513s-20.8673-66.9513-46.6085-66.9513h-23.1013v133.9027h23.1013Z" fill="#2c2535"/>
      <path d="M84.9844,512.1163c25.7412,0,46.6085-29.9751,46.6085-66.9513s-20.8673-66.9513-46.6085-66.9513h-23.1013v133.9027h23.1013Z" fill="none" stroke="#191421" stroke-linecap="round" stroke-linejoin="round" stroke-width="1.0723"/>
      <ellipse cx="61.8831" cy="445.165" rx="46.6085" ry="66.9513" fill="#413f4d"/>
      <ellipse cx="61.8831" cy="445.165" rx="46.6085" ry="66.9513" fill="none" stroke="#191421" stroke-linecap="round" stroke-linejoin="round" stroke-width="1.0723"/>
      <ellipse cx="61.8831" cy="445.165" rx="28.7642" ry="41.3186" fill="#c2cce0"/>
      <ellipse cx="61.8831" cy="445.165" rx="28.7642" ry="41.3186" fill="none" stroke="#191421" stroke-linecap="round" stroke-linejoin="round" stroke-width="1.0723"/>
      <ellipse cx="61.8831" cy="445.165" rx="24.8759" ry="35.7332" fill="#413f4d"/>
      <ellipse cx="61.8831" cy="445.165" rx="24.8759" ry="35.7332" fill="none" stroke="#191421" stroke-linecap="round" stroke-linejoin="round" stroke-width="1.0723"/>
      <path d="M68.2524,445.1614l15.902,15.902c-1.083,3.1525-2.4877,6.037-4.1605,8.5783l-13.6073-13.6073v24.2765c-1.4583,.386-2.9595,.5897-4.5036,.5897s-3.0453-.2037-4.5036-.5897v-24.2765l-13.6073,13.6073c-1.6728-2.5413-3.0774-5.4257-4.1605-8.5783l15.902-15.902-15.902-15.9019c1.083-3.1525,2.4877-6.037,4.1605-8.5783l13.6073,13.6073v-24.2657c1.4583-.3861,2.9595-.5898,4.5036-.5898s3.0453,.2037,4.5036,.5898v24.2657l13.6073-13.6073c1.6728,2.5413,3.0774,5.4257,4.1605,8.5783l-15.902,15.9019Z" fill="#c2cce0"/>
      <path d="M68.2524,445.1614l15.902,15.902c-1.083,3.1525-2.4877,6.037-4.1605,8.5783l-13.6073-13.6073v24.2765c-1.4583,.386-2.9595,.5897-4.5036,.5897s-3.0453-.2037-4.5036-.5897v-24.2765l-13.6073,13.6073c-1.6728-2.5413-3.0774-5.4257-4.1605-8.5783l15.902-15.902-15.902-15.9019c1.083-3.1525,2.4877-6.037,4.1605-8.5783l13.6073,13.6073v-24.2657c1.4583-.3861,2.9595-.5898,4.5036-.5898s3.0453,.2037,4.5036,.5898v24.2657l13.6073-13.6073c1.6728,2.5413,3.0774,5.4257,4.1605,8.5783l-15.902,15.9019Z" fill="none" stroke="#191421" stroke-linecap="round" stroke-linejoin="round" stroke-width="1.0723"/>
      <ellipse cx="61.8831" cy="445.165" rx="8.3107" ry="11.9381" fill="#c2cce0"/>
      <ellipse cx="61.8831" cy="445.165" rx="8.3107" ry="11.9381" fill="none" stroke="#191421" stroke-linecap="round" stroke-linejoin="round" stroke-width="1.0723"/>
    </g>
    <path d="M304.8428,470.4654c5.6314-109.661-117.2724-111.387-98.5829,8.0118H99.1985c23.5902-120.5245-86.2115-122.2401-77.6332-14.583l-14.583-2.5735s-9.4361-118.8088,12.8674-182.7168c0,0,24.0191-97.7921,107.6571-129.9605,61.8838-23.8014,193.9755-19.1127,258.503-15.0634,23.1016,1.4497,51.6009,11.3462,73.6184,46.8029l54.555,97.7921s75.2626,22.3035,123.3008,67.7682c0,0,10.8658,18.0143,10.8658,42.6053,0,0,6.2907,11.4377,3.4313,23.4472,0,0,8.3531,30.3098,.7453,49.182,0,0,3.2579,7.4345-.1734,14.869l-339.9658,2.3735c-4.3424,.0303-7.7671-3.618-7.5444-7.9548Z" fill="#697fbc"/>
    <g>
      <path d="M261.8044,154.3956h141.5665c1.1746,0,11.7897,.3856,12.7105,1.1036,9.6899,7.5552,55.9208,53.3384,73.0604,119.9624,.8409,3.2685-1.6293,6.4513-5.0534,6.4513h-182.4111c-2.5968,0-4.7941-1.8812-5.1694-4.4115-6.1907-41.7392-14.252-78.6919-39.026-115.0865-2.3299-3.4228,.1379-8.0193,4.3225-8.0193Z" fill="#c2cce0"/>
      <path d="M261.8044,154.3956h141.5665c1.1746,0,11.7897,.3856,12.7105,1.1036,9.6899,7.5552,55.9208,53.3384,73.0604,119.9624,.8409,3.2685-1.6293,6.4513-5.0534,6.4513h-182.4111c-2.5968,0-4.7941-1.8812-5.1694-4.4115-6.1907-41.7392-14.252-78.6919-39.026-115.0865-2.3299-3.4228,.1379-8.0193,4.3225-8.0193Z" fill="none" stroke="#191421" stroke-linecap="round" stroke-linejoin="round" stroke-width="1.0723"/>
      <path d="M494.0548,277.8846c-17.8643-69.4408-66.0498-117.1599-76.1495-125.0344-.9598-.7483-12.0237-1.1503-13.2479-1.1503h-147.5521c-4.3615,0-6.9337,4.7908-4.5052,8.3584,25.8214,37.9335,34.2236,76.4485,40.676,119.9525,.3912,2.6372,2.6814,4.598,5.388,4.598h190.1236c3.5689,0,6.1435-3.3174,5.2671-6.7241Zm-13.3972,2.0602h-176.7803c-2.5166,0-4.6461-1.8232-5.0098-4.2753-5.9996-40.4508-13.812-76.2628-37.8213-111.534-2.258-3.3171,.1336-7.7717,4.1891-7.7717h137.1966c1.1383,0,11.4257,.3737,12.3182,1.0695,9.3908,7.3219,54.1947,51.6919,70.8052,116.2593,.8149,3.1676-1.579,6.2522-4.8975,6.2522Z" fill="#413f4d"/>
      <path d="M494.0548,277.8846c-17.8643-69.4408-66.0498-117.1599-76.1495-125.0344-.9598-.7483-12.0237-1.1503-13.2479-1.1503h-147.5521c-4.3615,0-6.9337,4.7908-4.5052,8.3584,25.8214,37.9335,34.2236,76.4485,40.676,119.9525,.3912,2.6372,2.6814,4.598,5.388,4.598h190.1236c3.5689,0,6.1435-3.3174,5.2671-6.7241Zm-13.3972,2.0602h-176.7803c-2.5166,0-4.6461-1.8232-5.0098-4.2753-5.9996-40.4508-13.812-76.2628-37.8213-111.534-2.258-3.3171,.1336-7.7717,4.1891-7.7717h137.1966c1.1383,0,11.4257,.3737,12.3182,1.0695,9.3908,7.3219,54.1947,51.6919,70.8052,116.2593,.8149,3.1676-1.579,6.2522-4.8975,6.2522Z" fill="none" stroke="#191421" stroke-linecap="round" stroke-linejoin="round" stroke-width="1.0723"/>
    </g>
    <path d="M304.8428,470.4654c5.6314-109.661-117.2724-111.387-98.5829,8.0118H99.1985c23.5902-120.5245-86.2115-122.2401-77.6332-14.583l-14.583-2.5735s-9.4361-118.8088,12.8674-182.7168c0,0,24.0191-97.7921,107.6571-129.9605,61.8838-23.8014,193.9755-19.1127,258.503-15.0634,23.1016,1.4497,51.6009,11.3462,73.6184,46.8029l54.555,97.7921s75.2626,22.3035,123.3008,67.7682c0,0,10.8658,18.0143,10.8658,42.6053,0,0,6.2907,11.4377,3.4313,23.4472,0,0,8.3531,30.3098,.7453,49.182,0,0,3.2579,7.4345-.1734,14.869l-339.9658,2.3735c-4.3424,.0303-7.7671-3.618-7.5444-7.9548Z" fill="none" stroke="#191421" stroke-linecap="round" stroke-linejoin="round" stroke-width="1.0723"/>
    <path d="M53.5723,295.3315h206.6027s13.468,19.444,3.5215,73.773c0,0-76.285-9.1501-73.4256,80.6356H125.5748s-12.0828-59.6159-4.2891-149.3316" fill="none" stroke="#384778" stroke-linecap="round" stroke-linejoin="round" stroke-width="1.0723"/>
    <path d="M13.8182,300.4091c-2.0084,9.1856-3.5898,18.9395-4.8232,28.9293,16.948,3.1928,28.0121-1.4095,28.0121-1.4095,2.8598-28.0154-23.176-27.5201-23.1889-27.5198Z" fill="#e65a55"/>
    <path d="M13.8182,300.4091c-2.0084,9.1856-3.5898,18.9395-4.8232,28.9293,16.948,3.1928,28.0121-1.4095,28.0121-1.4095,2.8598-28.0154-23.176-27.5201-23.1889-27.5198Z" fill="none" stroke="#191421" stroke-linecap="round" stroke-linejoin="round" stroke-width="1.0723"/>
    <rect x="93.0507" y="306.4832" width="12.8674" height="6.5767" rx="2.1446" ry="2.1446" fill="#413f4d"/>
    <rect x="93.0507" y="306.4832" width="12.8674" height="6.5767" rx="2.1446" ry="2.1446" fill="none" stroke="#191421" stroke-linecap="round" stroke-linejoin="round" stroke-width="1.0723"/>
    <rect x="202.4781" y="306.4832" width="12.8674" height="6.5767" rx="2.1446" ry="2.1446" fill="#413f4d"/>
    <rect x="202.4781" y="306.4832" width="12.8674" height="6.5767" rx="2.1446" ry="2.1446" fill="none" stroke="#191421" stroke-linecap="round" stroke-linejoin="round" stroke-width="1.0723"/>
    <rect x="361.2641" y="427.4366" width="34.8849" height="15.7268" rx="7.8634" ry="7.8634" fill="#e65a55"/>
    <rect x="361.2641" y="427.4366" width="34.8849" height="15.7268" rx="7.8634" ry="7.8634" fill="none" stroke="#191421" stroke-linecap="round" stroke-linejoin="round" stroke-width="1.0723"/>
    <path d="M655.7109,443.167h-11.7951c-4.3427,0-7.8706-3.5278-7.8706-7.8706,0-2.1767,.8793-4.139,2.3054-5.5544,1.4262-1.4261,3.3991-2.3054,5.5651-2.3054h10.8408c.6219,4.7823,1.0723,10.2403,.9543,15.7304Z" fill="#e65a55"/>
    <path d="M655.7109,443.167h-11.7951c-4.3427,0-7.8706-3.5278-7.8706-7.8706,0-2.1767,.8793-4.139,2.3054-5.5544,1.4262-1.4261,3.3991-2.3054,5.5651-2.3054h10.8408c.6219,4.7823,1.0723,10.2403,.9543,15.7304Z" fill="none" stroke="#191421" stroke-linecap="round" stroke-linejoin="round" stroke-width="1.0723"/>
    <path d="M591.6989,446.1658h-136.0396c-13.401,0-25.1882-8.859-28.9145-21.7316h0s193.8685,0,193.8685,0h0c-3.7263,12.8725-15.5134,21.7316-28.9145,21.7316Z" fill="#413f4d"/>
    <path d="M591.6989,446.1658h-136.0396c-13.401,0-25.1882-8.859-28.9145-21.7316h0s193.8685,0,193.8685,0h0c-3.7263,12.8725-15.5134,21.7316-28.9145,21.7316Z" fill="none" stroke="#191421" stroke-linecap="round" stroke-linejoin="round" stroke-width="1.0723"/>
    <rect x="433.0355" y="385.6891" width="181.2871" height="28.3082" rx="9.865" ry="9.865" fill="#413f4d"/>
    <rect x="433.0355" y="385.6891" width="181.2871" height="28.3082" rx="9.865" ry="9.865" fill="none" stroke="#191421" stroke-linecap="round" stroke-linejoin="round" stroke-width="1.0723"/>
    <path d="M352.0088,393.5484l6.6227,12.6745c2.497,4.7788,7.4423,7.7744,12.8341,7.7744h34.5079c7.9974,0,14.4806-6.4832,14.4806-14.4806h0c0-7.7378-6.0834-14.1084-13.8129-14.4652l-47.8064-2.2065c-5.6426-.2604-9.4418,5.6969-6.8259,10.7033Z" fill="#c2cce0"/>
    <path d="M352.0088,393.5484l6.6227,12.6745c2.497,4.7788,7.4423,7.7744,12.8341,7.7744h34.5079c7.9974,0,14.4806-6.4832,14.4806-14.4806h0c0-7.7378-6.0834-14.1084-13.8129-14.4652l-47.8064-2.2065c-5.6426-.2604-9.4418,5.6969-6.8259,10.7033Z" fill="none" stroke="#191421" stroke-linecap="round" stroke-linejoin="round" stroke-width="1.0723"/>
    <path d="M630.5622,399.5167h0c0,7.9975,6.4832,14.4806,14.4806,14.4806h7.243c-.3064-1.2803-.5047-2.0016-.5047-2.0016,2.8594-12.0096-3.4313-23.4472-3.4313-23.4472,0-1.2444-.0346-2.4671-.0874-3.6763l-3.8872,.1794c-7.7296,.3568-13.813,6.7274-13.813,14.4651Z" fill="#c2cce0"/>
    <path d="M630.5622,399.5167h0c0,7.9975,6.4832,14.4806,14.4806,14.4806h7.243c-.3064-1.2803-.5047-2.0016-.5047-2.0016,2.8594-12.0096-3.4313-23.4472-3.4313-23.4472,0-1.2444-.0346-2.4671-.0874-3.6763l-3.8872,.1794c-7.7296,.3568-13.813,6.7274-13.813,14.4651Z" fill="none" stroke="#191421" stroke-linecap="round" stroke-linejoin="round" stroke-width="1.0723"/>
    <path d="M532.7306,297.7578c55.1854,16.2538,85.3402,52.8287,94.8818,66.2682,1.5138,2.1322-.0094,5.0785-2.6243,5.0785H353.1446c-1.2143,0-2.3156-.6846-2.8647-1.7677-14.2937-28.1966-37.2568-56.3765-45.4588-66.0581-1.1801-1.393-.1849-3.5226,1.6407-3.5237l225.3049-.1311c.3252-.0033,.652,.0419,.9639,.1338Z" fill="#2c2535"/>
    <rect x="510.1604" y="330.8454" width="7.7204" height="19.7449" fill="#413f4d"/>
    <path d="M562.6864,369.1045v-9.4397c0-1.7766-1.4402-3.2168-3.2168-3.2168h-120.0956c-1.7766,0-3.2168,1.4402-3.2168,3.2168v9.4397h126.5292Z" fill="#413f4d"/>
    <path d="M430.1664,369.1045v-22.5179c0-2.961-2.4003-5.3614-5.3614-5.3614h-66.0525c-2.961,0-5.3614,2.4004-5.3614,5.3614v22.5179h76.7753Z" fill="#413f4d"/>
    <path d="M532.7306,297.7578c55.1854,16.2538,85.3402,52.8287,94.8818,66.2682,1.5138,2.1322-.0094,5.0785-2.6243,5.0785H353.1446c-1.2143,0-2.3156-.6846-2.8647-1.7677-14.2937-28.1966-37.2568-56.3765-45.4588-66.0581-1.1801-1.393-.1849-3.5226,1.6407-3.5237l225.3049-.1311c.3252-.0033,.652,.0419,.9639,.1338Z" fill="none" stroke="#191421" stroke-linecap="round" stroke-linejoin="round" stroke-width="1.0723"/>
    <path d="M310.4069,297.7578c74.7486-6.23,148.8679-6.3401,222.3237,0,0,0,5.1358-74.3394,52.4748-135.5764,5.4399-7.0369,.3991-17.2552-8.4954-17.2552h-194.4175c-2.4031,0-4.7344,.8057-6.6292,2.2836-40.3072,31.4398-66.3626,99.638-65.2565,150.548Z" fill="#697fbc"/>
    <path d="M310.4069,297.7578c74.7486-6.23,148.8679-6.3401,222.3237,0,0,0,5.1358-74.3394,52.4748-135.5764,5.4399-7.0369,.3991-17.2552-8.4954-17.2552h-194.4175c-2.4031,0-4.7344,.8057-6.6292,2.2836-40.3072,31.4398-66.3626,99.638-65.2565,150.548Z" fill="none" stroke="#191421" stroke-linecap="round" stroke-linejoin="round" stroke-width="1.0723"/>
    <line x1="351.1651" y1="200.1129" x2="357.9534" y2="369.1045" fill="none" stroke="#191421" stroke-linecap="round" stroke-linejoin="round" stroke-width="1.6084"/>
    <path d="M350.863,193.6792h0c1.2428,0,2.2518,1.009,2.2518,2.2518v6.3265h-4.5036v-6.3265c0-1.2428,1.009-2.2518,2.2518-2.2518Z" transform="translate(-13.6419 26.4094) rotate(-4.2285)" fill="#697fbc"/>
    <path d="M350.863,193.6792h0c1.2428,0,2.2518,1.009,2.2518,2.2518v6.3265h-4.5036v-6.3265c0-1.2428,1.009-2.2518,2.2518-2.2518Z" transform="translate(-13.6419 26.4094) rotate(-4.2285)" fill="none" stroke="#191421" stroke-linecap="round" stroke-linejoin="round" stroke-width="1.0723"/>
    <g>
      <line x1="559.4744" y1="200.1129" x2="585.3193" y2="369.1045" fill="none" stroke="#191421" stroke-linecap="round" stroke-linejoin="round" stroke-width="1.6084"/>
      <path d="M561.9561,202.0797l-4.4539,.3321-1.1779-6.3092c-.2316-1.2402,.5778-2.32,1.8077-2.4117h0c1.2299-.0917,2.4146,.8394,2.6462,2.0796l1.1779,6.3092Z" fill="#697fbc"/>
      <path d="M561.9561,202.0797l-4.4539,.3321-1.1779-6.3092c-.2316-1.2402,.5778-2.32,1.8077-2.4117h0c1.2299-.0917,2.4146,.8394,2.6462,2.0796l1.1779,6.3092Z" fill="none" stroke="#191421" stroke-linecap="round" stroke-linejoin="round" stroke-width="1.0723"/>
    </g>
    <path d="M264.9054,281.078H38.4521c16.9948-98.6046,115.0449-138.8514,169.629-120.3379,48.0766,16.3063,58.4288,98.2787,60.1592,116.6712,.1851,1.9676-1.3586,3.6667-3.3349,3.6667Z" fill="#c2cce0"/>
    <path d="M264.9054,281.078H38.4521c16.9948-98.6046,115.0449-138.8514,169.629-120.3379,48.0766,16.3063,58.4288,98.2787,60.1592,116.6712,.1851,1.9676-1.3586,3.6667-3.3349,3.6667Z" fill="none" stroke="#191421" stroke-linecap="round" stroke-linejoin="round" stroke-width="1.0723"/>
    <path d="M116.9965,278.6039h8.5783v-107.6478c-2.8795,1.3097-5.743,2.7185-8.5783,4.2404v103.4075Z" fill="#413f4d"/>
    <path d="M116.9965,278.6039h8.5783v-107.6478c-2.8795,1.3097-5.743,2.7185-8.5783,4.2404v103.4075Z" fill="none" stroke="#191421" stroke-linecap="round" stroke-linejoin="round" stroke-width="1.0723"/>
    <path d="M208.9118,156.3638c-55.8738-19.4881-155.6949,22.1186-175.1073,124.4067-.3776,1.9893,1.136,3.8382,3.1608,3.8382h231.124c1.8907,0,3.3731-1.6169,3.2045-3.5001-1.6796-18.7638-12.2045-107.2436-62.3821-124.7448Zm51.5676,122.2401H43.0109c16.3206-94.6924,110.4804-133.3423,162.8988-115.5634,46.1691,15.6593,56.1106,94.3794,57.7723,112.0422,.1778,1.8895-1.3047,3.5212-3.2026,3.5212Z" fill="#413f4d"/>
    <path d="M208.9118,156.3638c-55.8738-19.4881-155.6949,22.1186-175.1073,124.4067-.3776,1.9893,1.136,3.8382,3.1608,3.8382h231.124c1.8907,0,3.3731-1.6169,3.2045-3.5001-1.6796-18.7638-12.2045-107.2436-62.3821-124.7448Zm51.5676,122.2401H43.0109c16.3206-94.6924,110.4804-133.3423,162.8988-115.5634,46.1691,15.6593,56.1106,94.3794,57.7723,112.0422,.1778,1.8895-1.3047,3.5212-3.2026,3.5212Z" fill="none" stroke="#191421" stroke-linecap="round" stroke-linejoin="round" stroke-width="1.0723"/>
    <path d="M270.8906,284.6087c-8.9009,4.3842-18.2911,7.248-28.0701,8.9038-11.911,2.0168-22.9582-5.9878-22.9582-16.4886h0c0-10.4652,10.9785-18.4817,22.8566-16.5057,9.3906,1.5622,18.7812,5.3032,28.1718,11.2231v12.8674Z" fill="#697fbc"/>
    <path d="M270.8906,284.6087c-8.9009,4.3842-18.2911,7.248-28.0701,8.9038-11.911,2.0168-22.9582-5.9878-22.9582-16.4886h0c0-10.4652,10.9785-18.4817,22.8566-16.5057,9.3906,1.5622,18.7812,5.3032,28.1718,11.2231v12.8674Z" fill="none" stroke="#191421" stroke-linecap="round" stroke-linejoin="round" stroke-width="1.0723"/>
    <path d="M271.307,284.6087c-7.701,4.3842-15.8254,7.248-24.2862,8.9038-10.3054,2.0168-19.8634-5.9878-19.8634-16.4886h0c0-10.4652,9.4985-18.4817,19.7755-16.5057,8.1247,1.5622,16.2494,5.3032,24.3741,11.2231v12.8674Z" fill="#697fbc"/>
    <path d="M271.307,284.6087c-7.701,4.3842-15.8254,7.248-24.2862,8.9038-10.3054,2.0168-19.8634-5.9878-19.8634-16.4886h0c0-10.4652,9.4985-18.4817,19.7755-16.5057,8.1247,1.5622,16.2494,5.3032,24.3741,11.2231v12.8674Z" fill="none" stroke="#191421" stroke-linecap="round" stroke-linejoin="round" stroke-width="1.0723"/>
  </g>
  <g>
    <path d="M793.3982,480.8449c-1.7467-2.5102-3.2387-4.1342-3.2387-4.1342-2.5332-7.0826-7.9225-9.5303-7.9225-9.5303-.7935,9.0459-18.3388,20.4939-18.3388,20.4939-5.0367-7.1906-10.2706-5.1703-10.2706-5.1703l-9.5826,14.8438-2.4524,2.0022c-2.5498,2.0817-4.0292,5.1991-4.0292,8.4908v4.2756h35.1708l14.0111-15.8423,4.4083-3.0213c4.069-2.7888,5.0619-8.3586,2.2444-12.4078Z" fill="#2c2535"/>
    <path d="M793.3982,480.8449c-1.7467-2.5102-3.2387-4.1342-3.2387-4.1342-2.5332-7.0826-7.9225-9.5303-7.9225-9.5303-.7935,9.0459-18.3388,20.4939-18.3388,20.4939-5.0367-7.1906-10.2706-5.1703-10.2706-5.1703l-9.5826,14.8438-2.4524,2.0022c-2.5498,2.0817-4.0292,5.1991-4.0292,8.4908v4.2756h35.1708l14.0111-15.8423,4.4083-3.0213c4.069-2.7888,5.0619-8.3586,2.2444-12.4078Z" fill="none" stroke="#191421" stroke-linecap="round" stroke-linejoin="round" stroke-width="1.0723"/>
    <path d="M763.8983,487.6742s17.5453-11.448,18.3388-20.4939l-8.2465-11.6308-20.9362,17.1852,.5733,9.7691s5.234-2.0203,10.2706,5.1703Z" fill="#e6a298"/>
    <path d="M763.8983,487.6742s17.5453-11.448,18.3388-20.4939l-8.2465-11.6308-20.9362,17.1852,.5733,9.7691s5.234-2.0203,10.2706,5.1703Z" fill="none" stroke="#191421" stroke-linecap="round" stroke-linejoin="round" stroke-width="1.0723"/>
    <path d="M577.2932,138.6354s-5.5759,1.5727-10.8658-5.4329c-5.2899-7.0056-9.5791-31.4536,6.2907-35.5998,0,0,4.7421-7.7204,14.738-9.2931s14.2851,1.7157,14.2851,1.7157c0,0,9.722-3.7172,16.1557,2.0016s14.583,17.5854,9.0072,24.3051l-1.4297,13.9455-15.4409,8.5089-32.7403-.151Z" fill="#2c2535"/>
    <path d="M577.2932,138.6354s-5.5759,1.5727-10.8658-5.4329c-5.2899-7.0056-9.5791-31.4536,6.2907-35.5998,0,0,4.7421-7.7204,14.738-9.2931s14.2851,1.7157,14.2851,1.7157c0,0,9.722-3.7172,16.1557,2.0016s14.583,17.5854,9.0072,24.3051l-1.4297,13.9455-15.4409,8.5089-32.7403-.151Z" fill="none" stroke="#191421" stroke-linecap="round" stroke-linejoin="round" stroke-width="1.0723"/>
    <path d="M579.7237,113.6155s-18.3003,15.2979,0,30.1669c0,0,1.7157,14.726,10.2939,21.0167,8.5783,6.2907,14.0111,2.0016,14.0111,2.0016l7.4345,12.5814,13.2963,4.718,8.7212-27.0215-9.4361-13.7252s8.0064-4.718,3.5743-14.4401c-4.4321-9.722-14.4401-4.1462-13.2963,4.0032l-3.2883,.7149s-4.1462-19.444-13.8682-22.7324-17.4424,2.7164-17.4424,2.7164Z" fill="#e6a298"/>
    <path d="M579.7237,113.6155s-18.3003,15.2979,0,30.1669c0,0,1.7157,14.726,10.2939,21.0167,8.5783,6.2907,14.0111,2.0016,14.0111,2.0016l7.4345,12.5814,13.2963,4.718,8.7212-27.0215-9.4361-13.7252s8.0064-4.718,3.5743-14.4401c-4.4321-9.722-14.4401-4.1462-13.2963,4.0032l-3.2883,.7149s-4.1462-19.444-13.8682-22.7324-17.4424,2.7164-17.4424,2.7164Z" fill="none" stroke="#191421" stroke-linecap="round" stroke-linejoin="round" stroke-width="1.0723"/>
    <path d="M681.8049,497.9213c1.1437-7.4345-2.4306-12.1526-2.4306-12.1526-5.0039,7.5775-25.8833,9.2931-25.8833,9.2931-1.0064-8.7213-6.5711-9.4361-6.5711-9.4361l-26.7627,14.6699c-2.1924,1.2017-3.7117,3.3435-4.1213,5.8098l-.9985,6.0109h67.6253c1.0007-6.8217-.8578-14.195-.8578-14.195Z" fill="#2c2535"/>
    <path d="M681.8049,497.9213c1.1437-7.4345-2.4306-12.1526-2.4306-12.1526-5.0039,7.5775-25.8833,9.2931-25.8833,9.2931-1.0064-8.7213-6.5711-9.4361-6.5711-9.4361l-26.7627,14.6699c-2.1924,1.2017-3.7117,3.3435-4.1213,5.8098l-.9985,6.0109h67.6253c1.0007-6.8217-.8578-14.195-.8578-14.195Z" fill="none" stroke="#191421" stroke-linecap="round" stroke-linejoin="round" stroke-width="1.0723"/>
    <path d="M653.491,495.0618s20.8794-1.7156,25.8833-9.2931l-1.7156-14.1541-26.5926,5.1469-4.1462,8.8642s5.5646,.7148,6.5711,9.4361Z" fill="#e6a298"/>
    <path d="M653.491,495.0618s20.8794-1.7156,25.8833-9.2931l-1.7156-14.1541-26.5926,5.1469-4.1462,8.8642s5.5646,.7148,6.5711,9.4361Z" fill="none" stroke="#191421" stroke-linecap="round" stroke-linejoin="round" stroke-width="1.0723"/>
    <polygon points="492.7259 156.981 487.2572 153.3614 478.4645 152.2891 468.5995 144.9261 468.5995 137.3844 473.6393 136.0921 477.7139 132.023 494.656 132.023 507.2017 144.9261 492.7259 156.981" fill="#e6a298"/>
    <polygon points="492.7259 156.981 487.2572 153.3614 478.4645 152.2891 468.5995 144.9261 468.5995 137.3844 473.6393 136.0921 477.7139 132.023 494.656 132.023 507.2017 144.9261 492.7259 156.981" fill="none" stroke="#191421" stroke-linecap="round" stroke-linejoin="round" stroke-width="1.0723"/>
    <polyline points="468.5995 140.9229 475.1404 141.4591 481.038 145.7482" fill="none" stroke="#191421" stroke-linecap="round" stroke-linejoin="round" stroke-width="1.0723"/>
    <path d="M697.3172,237.8572c-.2144-5.7903-2.359-7.2915-2.359-7.2915,0,0-3.6458-31.7395-22.5179-52.7563-18.8722-21.0167-35.3853-21.7949-35.3853-21.7949l-7.6624-4.8823s-3.9182,11.2363-12.3535,19.2427l1.1438,7.4345-5.8618-5.5759s-1.1718,.1214-8.7212-2.1446l-1.2425,8.7212-12.0189,3.7172s-27.1994-1.1438-36.9214-2.4305l-46.3226-36.7181s-11.7951,3.9777-16.5132,15.3439c0,0,31.0962,39.3688,47.3949,48.0382s55.1153,11.3932,55.1153,11.3932l3.2564,7.2645s.0281,4.2891,4.2834,6.0048l17.1227,53.1852,31.1677,193.8685s12.0096,6.1477,31.4536-3.0024c0,0,1.2867-49.9989-1.2867-76.0401,0,0,.4289-7.3731-2.1446-14.5626l-1.7157-54.46,31.3106,69.0226,45.4647,74.3244s18.0143-5.4329,24.8769-16.6561l-4.2891-10.9373s-10.7228-50.8976-27.4504-72.7722c0,0-1.2867-8.1493-4.718-14.583,0,0-12.0096-65.1316-28.7372-96.6882-2.4774-8.7522-6.7206-16.9975-14.3686-24.2651Z" fill="#384778"/>
    <path d="M697.3172,237.8572c-.2144-5.7903-2.359-7.2915-2.359-7.2915,0,0-3.6458-31.7395-22.5179-52.7563-18.8722-21.0167-35.3853-21.7949-35.3853-21.7949l-7.6624-4.8823s-3.9182,11.2363-12.3535,19.2427l1.1438,7.4345-5.8618-5.5759s-1.1718,.1214-8.7212-2.1446l-1.2425,8.7212-12.0189,3.7172s-27.1994-1.1438-36.9214-2.4305l-46.3226-36.7181s-11.7951,3.9777-16.5132,15.3439c0,0,31.0962,39.3688,47.3949,48.0382s55.1153,11.3932,55.1153,11.3932l3.2564,7.2645s.0281,4.2891,4.2834,6.0048l17.1227,53.1852,31.1677,193.8685s12.0096,6.1477,31.4536-3.0024c0,0,1.2867-49.9989-1.2867-76.0401,0,0,.4289-7.3731-2.1446-14.5626l-1.7157-54.46,31.3106,69.0226,45.4647,74.3244s18.0143-5.4329,24.8769-16.6561l-4.2891-10.9373s-10.7228-50.8976-27.4504-72.7722c0,0-1.2867-8.1493-4.718-14.583,0,0-12.0096-65.1316-28.7372-96.6882-2.4774-8.7522-6.7206-16.9975-14.3686-24.2651Z" fill="none" stroke="#191421" stroke-linecap="round" stroke-linejoin="round" stroke-width="1.0723"/>
    <path d="M578.1938,196c2.5338,3.3496,5.1172,6.6385,7.4595,10.1294,2.3446,3.4942,4.3672,7.177,6.6157,10.729,.36,.5687,1.1534,.0751,.8861-.5179-1.7376-3.8553-4.1237-7.4453-6.5275-10.9118-2.3857-3.4405-4.9271-6.8668-7.8089-9.9109-.3027-.3198-.9022,.1157-.625,.4822h0Z" fill="#191421"/>
    <path d="M577.9086,204.5505c1.7469,1.3996,3.5221,2.7631,5.2578,4.1775,.846,.6894,1.6794,1.3944,2.4993,2.1146,.8465,.7436,1.6699,1.5269,2.5972,2.1681,.3945,.2728,.7231-.2939,.4721-.6118-.6955-.8807-1.56-1.6216-2.4067-2.3547-.8497-.7357-1.7126-1.4567-2.5909-2.158-1.7365-1.3867-3.537-2.6942-5.4507-3.8257-.2955-.1747-.6614,.2632-.3782,.4901h0Z" fill="#191421"/>
    <path d="M499.6966,163.6199c.3953-.5992,.6663-1.3174,.9986-1.9564,.3393-.6525,.711-1.289,1.1072-1.9085,.8051-1.2588,1.718-2.4414,2.7278-3.5425,1.0067-1.0976,2.1059-2.1146,3.2967-3.0101,.5624-.423,1.1446-.8205,1.7408-1.1942,.6073-.3807,1.3628-.6897,1.8677-1.2033,.323-.3286-.0162-.7756-.4157-.7141-.7037,.1083-1.4051,.6105-2.0002,.9795-.6529,.4048-1.2828,.845-1.893,1.3115-1.2316,.9415-2.384,1.9885-3.4188,3.1438-1.011,1.1288-1.9189,2.3552-2.6983,3.6546-.3955,.6593-.7549,1.3386-1.0838,2.0334-.3166,.6689-.6922,1.4282-.8108,2.1609-.0565,.3486,.3737,.5608,.5818,.2453h0Z" fill="#191421"/>
    <path d="M653.3536,191.3202s-3.9317-18.0143-19.8729-28.3083c-2.7092-1.7495-5.747-2.3203-8.9179-2.0963-1.913,3.1083-4.4095,6.5035-7.5237,9.4594l1.1437,7.4345-5.8618-5.5759s-1.1351,.1095-8.2229-1.997c-.1965,.146-.3879,.2931-.582,.4397l-1.1589,8.1339-12.0189,3.7173s3.3029,6.2192,4.5292,17.5854l58.4861-8.7927Z" fill="#e65a55"/>
    <path d="M653.3536,191.3202s-3.9317-18.0143-19.8729-28.3083c-2.7092-1.7495-5.747-2.3203-8.9179-2.0963-1.913,3.1083-4.4095,6.5035-7.5237,9.4594l1.1437,7.4345-5.8618-5.5759s-1.1351,.1095-8.2229-1.997c-.1965,.146-.3879,.2931-.582,.4397l-1.1589,8.1339-12.0189,3.7173s3.3029,6.2192,4.5292,17.5854l58.4861-8.7927Z" fill="none" stroke="#191421" stroke-linecap="round" stroke-linejoin="round" stroke-width="1.0723"/>
    <path d="M622.1562,140.2094c-.946-1.8162-1.3741-3.9844-1.1458-6.0292,.1055-.9445,.4016-1.8612,.9168-2.6624,.2424-.377,.5303-.7213,.8645-1.0206,.3253-.2914,.6973-.4939,.9713-.8389,.1896-.2388,.0904-.6579-.268-.6471-.974,.0293-1.7787,.9518-2.3073,1.6928-.6518,.9136-1.0215,2.0044-1.1691,3.1099-.1647,1.2336-.0536,2.4751,.2014,3.6887,.2328,1.108,.6144,2.2812,1.41,3.1128,.2708,.283,.6981-.0762,.5263-.4061h0Z" fill="#191421"/>
    <path d="M622.6716,133.2533c.4619,.0863,.8482,.2183,1.1835,.5634,.2984,.3072,.4984,.735,.5499,1.159,.0652,.5366-.1001,1.1206-.3177,1.6061-.1303,.2908-.2873,.5653-.4369,.8459-.1491,.2797-.3466,.5682-.3967,.8854-.0556,.3519,.2774,.6787,.6245,.4801,.3387-.1938,.5822-.5585,.7933-.8794,.2199-.3343,.4021-.6868,.5552-1.0562,.295-.712,.4341-1.4992,.2618-2.2609-.1464-.647-.5467-1.2451-1.0701-1.6469-.5049-.3876-1.2374-.5817-1.8188-.2479-.2117,.1215-.1896,.5023,.072,.5512h0Z" fill="#191421"/>
    <path d="M600.6313,156.3371c.5002,.0144,1.051-.287,1.4921-.4979,.4758-.2275,.9364-.4812,1.3773-.7713,.8981-.5909,1.7459-1.2668,2.5193-2.0136,1.5268-1.4743,2.8855-3.2799,3.6164-5.2846,.1866-.5118-.6147-.8363-.8728-.3679-.9833,1.7851-2.0436,3.4534-3.5078,4.8884-.7207,.7063-1.5039,1.3419-2.3436,1.9012-.4014,.2673-.8083,.5286-1.2231,.7747-.4136,.2454-.9628,.4599-1.2859,.8206-.1865,.2082-.0592,.5423,.2281,.5506h0Z" fill="#191421"/>
    <path d="M584.598,135.0247c2.7466,3.031,3.9502,7.1196,4.6882,11.0595,.1815,.9688,.3255,1.9428,.477,2.9165,.1333,.8573,.3238,1.7412,.9,2.4211,.997,1.1765,2.9326,1.3736,4.333,.9307,.5421-.1714,.4038-.8972-.1286-.9503-.7773-.0776-1.5819,.0774-2.3459-.1262-.8619-.2296-1.2987-.87-1.51-1.7041-.4631-1.8282-.611-3.739-1.0475-5.5796-.7921-3.3397-2.0444-7.3883-4.9652-9.4874-.3179-.2284-.6416,.2542-.401,.5197h0Z" fill="#191421"/>
    <path d="M590.158,132.1025c.6351,.1136,1.0517-.2454,1.523-.6245,.4845-.3898,.9343-.8185,1.4003-1.2297,.8746-.7718,1.8024-1.495,2.8119-2.0831,.963-.5609,1.978-.9772,3.0755-1.1871,1.1118-.2126,2.2742-.0767,3.3887,.0215,1.0548,.093,1.2823-1.3764,.5074-1.8733-2.3264-1.4919-5.6458-.5981-7.8506,.7198-1.1449,.6844-2.1792,1.545-3.1277,2.4783-.4916,.4838-.9702,.9796-1.4071,1.5135-.4233,.5173-.9542,1.0807-.7952,1.7905,.0474,.2117,.2555,.4349,.4739,.4739h0Z" fill="#191421"/>
    <path d="M584.8809,134.09c-.1421-.1357-.3263-.3255-.578-.4241-.2142-.0839-.4347-.1494-.6612-.1905-.4675-.0848-.9451-.1288-1.4205-.107-.8949,.0411-1.78,.221-2.6149,.546-.8998,.3502-1.7119,.8021-2.4689,1.4018-.3404,.2696-.6435,.5598-.9205,.8941-.1573,.1899-.3207,.3807-.4334,.5991-.13,.2519-.1594,.5586-.1981,.7909-.1062,.6373,.5146,1.2542,1.1445,.8798,.3828-.2275,.7033-.4106,1.0236-.7333,.2589-.2609,.5391-.5114,.823-.7449,.0189-.0155,.2089-.16,.0971-.0775,.0628-.0463,.1263-.0916,.19-.1366,.1596-.1125,.322-.2207,.4889-.3222,.1667-.1014,.3372-.1969,.5108-.286,.0868-.0446,.1744-.0874,.2627-.1289,.0207-.0097,.2375-.1072,.1145-.055,.3411-.1446,.6977-.2585,1.056-.3513,.1884-.0488,.3786-.0929,.5692-.1326,.0951-.0198,.1907-.0364,.2862-.0545,.0272-.0051,.1771-.0291,.0693-.0138,.3862-.0548,.7779-.0803,1.1673-.0972,.1748-.0076,.3485-.017,.5232-.0246,.2618-.0114,.4627-.0849,.6882-.1675,.4309-.1578,.6513-.7104,.2809-1.0641h0Z" fill="#191421"/>
    <ellipse cx="598.4896" cy="140.9378" rx="2.1417" ry="3.1305" transform="translate(1.9598 289.9526) rotate(-27.2767)" fill="#191421"/>
    <ellipse cx="586.331" cy="145.8012" rx="2.1417" ry="3.1305" transform="translate(-1.6211 284.9212) rotate(-27.2767)" fill="#191421"/>
    <path d="M617.0391,170.3749l.0162,.1054c.5777,.4415,1.1794,.6637,1.7709,.4665,0,0,5.931,2.359,9.9353,9.4361,0,0,6.7923-13.9948,8.2935-24.3684l-7.6625-4.8823s-3.9182,11.2363-12.3535,19.2427Z" fill="#e65a55"/>
    <path d="M617.0391,170.3749l.0162,.1054c.5777,.4415,1.1794,.6637,1.7709,.4665,0,0,5.931,2.359,9.9353,9.4361,0,0,6.7923-13.9948,8.2935-24.3684l-7.6625-4.8823s-3.9182,11.2363-12.3535,19.2427Z" fill="none" stroke="#191421" stroke-linecap="round" stroke-linejoin="round" stroke-width="1.0723"/>
    <path d="M603.5998,170.089l-1.0644,7.4707,9.7856,7.9701c-4.1461-6.4337,0-13.2963,0-13.2963,0,0-1.1718,.1214-8.7212-2.1446Z" fill="#e65a55"/>
    <path d="M603.5998,170.089l-1.0644,7.4707,9.7856,7.9701c-4.1461-6.4337,0-13.2963,0-13.2963,0,0-1.1718,.1214-8.7212-2.1446Z" fill="none" stroke="#191421" stroke-linecap="round" stroke-linejoin="round" stroke-width="1.0723"/>
    <path d="M651.8116,304.0473c.7725,2.0746,1.9276,4.0325,3.0828,5.914,1.1746,1.913,2.532,3.7368,3.9738,5.456,2.9147,3.4757,6.172,6.6413,9.5283,9.6862,.9382,.8511,1.8696,1.7203,2.8432,2.5309,.9961,.8294,2.0416,1.537,3.1016,2.2693,.4537,.3134,.9167-.3601,.5685-.7368-.7651-.8279-1.5043-1.6496-2.3243-2.4314-.7897-.7528-1.6298-1.4551-2.4423-2.1833-1.6539-1.4821-3.2853-2.99-4.8704-4.5457-3.1373-3.0793-6.1681-6.3518-8.7674-9.9037-1.4911-2.0376-2.7593-4.1677-4.0813-6.3139-.1907-.3096-.75-.1113-.6125,.2582h0Z" fill="#191421"/>
    <path d="M675.5917,327.9799c2.3573-3.5695,4.3269-7.388,6.2768-11.1963,.9571-1.8693,1.8875-3.7522,2.802-5.6428,.9357-1.9344,1.8809-3.8719,2.6036-5.8977,.1942-.5444-.6446-.8794-.9225-.3889-1.0342,1.8252-1.8926,3.7428-2.7956,5.6351-.9223,1.9327-1.8655,3.8554-2.8187,5.7731-1.8907,3.8036-3.9211,7.5417-5.6845,11.4024-.1652,.3617,.3141,.6554,.5389,.315h0Z" fill="#191421"/>
    <path d="M677.8977,327.5819c1.4877-2.0623,2.9744-4.1366,4.5439-6.1388,.7648-.9757,1.5498-1.9355,2.3543-2.8787,.7889-.9249,1.7616-1.8272,2.3522-2.8966,.1948-.3528-.2132-.8292-.5817-.5817-1.0129,.6803-1.8,1.7441-2.5795,2.6693-.8382,.9949-1.6539,2.0084-2.4491,3.038-1.5786,2.044-3.0519,4.1419-4.3526,6.3721-.2728,.4678,.4075,.8392,.7125,.4165h0Z" fill="#191421"/>
    <path d="M693.0798,242.727c-2.0828,1.4394-4.0357,3.038-6.1949,4.373-1.0651,.6586-2.1601,1.2702-3.2764,1.8373-1.1261,.5721-2.3944,1.0182-3.4551,1.6984-.4442,.2848-.1492,.9119,.347,.823,1.1977-.2145,2.4334-.8602,3.5202-1.3919,1.1898-.5821,2.345-1.2324,3.4659-1.9379,2.1601-1.3596,4.3435-2.926,5.9792-4.902,.2125-.2568-.0653-.7214-.3858-.5h0Z" fill="#191421"/>
    <path d="M666.2781,257.277c-2.1054,.3283-4.1797,1.233-6.1739,1.9591-.9988,.3637-1.9984,.7249-2.9919,1.103-.9762,.3716-2.0431,.7171-2.9358,1.2648-.4242,.2603-.1274,.8265,.3195,.7579,1.0664-.1636,2.1365-.6076,3.1523-.964,1.0026-.3518,1.998-.7239,2.9954-1.0903,1.9569-.7189,4.0907-1.362,5.8781-2.4525,.3238-.1975,.097-.6311-.2437-.578h0Z" fill="#191421"/>
    <polygon points="564.5687 306.6226 554.5608 303.9061 543.1231 310.1968 543.1231 315.6297 551.7014 316.2016 564.5687 306.6226" fill="#e6a298"/>
    <polygon points="564.5687 306.6226 554.5608 303.9061 543.1231 310.1968 543.1231 315.6297 551.7014 316.2016 564.5687 306.6226" fill="none" stroke="#191421" stroke-linecap="round" stroke-linejoin="round" stroke-width="1.0723"/>
    <path d="M547.6024,295.6806c-1.2966-1.9389-3.4455-2.9597-5.6124-2.9031l3.3341,4.9858c.736,1.1006-5.0953,5.0002-5.8313,3.8996l-3.3341-4.9858c-.88,1.9809-.7574,4.3568,.5392,6.2957,1.0649,1.5924,2.7064,2.5668,4.4622,2.8342,1.5907,.2423,2.9715,1.2309,3.8659,2.5684l14.2133,21.2543,4.3881-2.9344-14.2133-21.2543c-.8945-1.3375-1.2807-2.9912-.897-4.5539,.4235-1.7248,.1501-3.6141-.9148-5.2065Z" fill="#c2cce0"/>
    <path d="M547.6024,295.6806c-1.2966-1.9389-3.4455-2.9597-5.6124-2.9031l3.3341,4.9858c.736,1.1006-5.0953,5.0002-5.8313,3.8996l-3.3341-4.9858c-.88,1.9809-.7574,4.3568,.5392,6.2957,1.0649,1.5924,2.7064,2.5668,4.4622,2.8342,1.5907,.2423,2.9715,1.2309,3.8659,2.5684l14.2133,21.2543,4.3881-2.9344-14.2133-21.2543c-.8945-1.3375-1.2807-2.9912-.897-4.5539,.4235-1.7248,.1501-3.6141-.9148-5.2065Z" fill="none" stroke="#191421" stroke-linecap="round" stroke-linejoin="round" stroke-width="1.0723"/>
    <path d="M550.8435,332.2143c0,.4289,.1206,.8679,.3167,1.298,1.0544,2.3138,3.8584,3.2625,6.216,2.31l9.2841-3.751,11.0617-11.1517-9.1501-14.2971h-11.7236l-11.2947,7.0056-2.3916,.465c-1.622,.3154-2.6055,1.982-2.0873,3.551,.4544,1.3759,1.1874,2.8033,2.3344,3.2755,0,0,.143,3.8602,2.2875,5.8618,.6733,3.1456,2.3066,5.062,5.1469,5.4329Z" fill="#e6a298"/>
    <path d="M553.2271,308.8686l-7.6734,4.7595-2.3916,.465c-1.622,.3154-2.6055,1.982-2.0873,3.551,.4544,1.3759,1.1874,2.8033,2.3344,3.2755,0,0,.143,3.8602,2.2875,5.8618,.6733,3.1456,2.3066,5.062,5.1469,5.4329,0,.4289,.1206,.8679,.3167,1.298,1.0544,2.3138,3.8584,3.2625,6.216,2.31l9.2841-3.751,11.0617-11.1517-9.1501-14.2971h-6.2211" fill="none" stroke="#191421" stroke-linecap="round" stroke-linejoin="round" stroke-width="1.0723"/>
    <path d="M631.1463,192.9759c7.3737-12.5149,25.9417-11.487,32.015,1.7081,.0657,.1428,.1308,.287,.1952,.4327,6.4389,14.5716-7.6319,44.6014-7.6319,44.6014,0,0-8.8046,30.8759-20.2422,44.887-11.4377,14.0111-57.4743,39.46-57.4743,39.46,0,0-8.4883-4.4914-11.3477-18.0364,0,0,27.361-34.291,42.5156-44.5849,0,0-.0003-4.8714,5.1467-11.1569,0,0,4.9125-37.0949,16.8237-57.3109Z" fill="#384778"/>
    <path d="M664.8804,208.233c-1.241,14.5933-9.1558,31.485-9.1558,31.485,0,0-8.8046,30.8759-20.2422,44.887-11.4377,14.0111-57.4743,39.46-57.4743,39.46,0,0-8.4883-4.4914-11.3477-18.0364,0,0,27.361-34.291,42.5156-44.5849,0,0-.0003-4.8714,5.1467-11.1569,0,0,4.9125-37.0949,16.8237-57.3109,4.6054-7.8164,13.5773-10.35,21.1447-7.9359" fill="none" stroke="#191421" stroke-linecap="round" stroke-linejoin="round" stroke-width="1.0723"/>
    <path d="M618.2343,252.9138c2.5341,.8333,5.0687,1.6821,7.4852,2.8222,1.1599,.5472,2.2976,1.1448,3.4037,1.7941,.5693,.3342,1.1271,.6861,1.6843,1.04,.5303,.3368,1.1014,.8142,1.7145,.9719,.3334,.0857,.6683-.295,.4659-.6061-.3363-.5169-.9312-.8643-1.4315-1.2119-.5416-.3762-1.1066-.7211-1.6741-1.0567-1.1999-.7095-2.4354-1.3557-3.7051-1.9312-2.4826-1.1252-5.0673-2.0397-7.768-2.4564-.4108-.0634-.5859,.499-.1748,.6341h0Z" fill="#191421"/>
    <path d="M621.5749,258.0577c2.2608,1.0553,4.4958,2.2923,6.6507,3.5498,1.0716,.6253,2.1242,1.2845,3.1579,1.9705,.5014,.3327,.9963,.6747,1.4882,1.0211,.5099,.359,1.0263,.8027,1.6321,.9819,.3478,.1029,.6804-.311,.4801-.6245-.6122-.9585-1.9086-1.6192-2.8367-2.2388-1.0948-.7309-2.2169-1.4184-3.3622-2.0673-1.1114-.6296-2.2423-1.2372-3.4046-1.7681-1.1675-.5333-2.368-.9411-3.57-1.3835-.3222-.1186-.5499,.4121-.2356,.5589h0Z" fill="#191421"/>
    <path d="M576.6914,298.0935c.6755,1.8272,1.7245,3.5492,2.7441,5.2044,1.0336,1.6779,2.0972,3.3336,3.2372,4.9418,1.1266,1.5892,2.3077,3.1429,3.5424,4.6497,1.2272,1.4977,2.4689,3.1443,4.0547,4.2793,.3468,.2482,.7784-.2311,.5702-.5702-.9872-1.6078-2.3979-2.972-3.5966-4.4233-1.2458-1.5083-2.4474-3.051-3.6003-4.6313-1.1397-1.5622-2.2512-3.1509-3.286-4.7846-1.0315-1.6285-1.9671-3.349-3.1106-4.8998-.186-.2523-.6848-.1169-.555,.234h0Z" fill="#191421"/>
    <path d="M547.3336,180.2123c-.9117,1.2646-1.837,2.5216-2.8273,3.7264-.48,.5839-.9711,1.1593-1.4789,1.7192-.2614,.2882-.5222,.5771-.7853,.8638-.2656,.2894-.6152,.574-.8015,.9215-.2198,.4103,.2191,.8421,.6275,.6275,.333-.1749,.5989-.5044,.863-.7683,.2908-.2906,.5743-.5858,.8489-.8918,.5343-.5956,1.0507-1.2066,1.5428-1.8375,.9845-1.2621,1.8825-2.5824,2.6364-3.995,.2234-.4186-.3566-.739-.6257-.3657h0Z" fill="#191421"/>
  </g>
</svg>