<?xml version="1.0" encoding="UTF-8"?>
<svg id="Mechanic_rolling_Car_Wheel" data-name="Mechanic rolling Car Wheel" xmlns="http://www.w3.org/2000/svg" viewBox="0 0 800 600">
  <path d="M448.792,85.0844l6.3554-17.897c-.6064-10.6997-1.9891-20.7531-5.1196-29.3511l-52.6087,8.827,4.9937,23.4797,22.2003,17.8305,24.1789-2.8891Z" fill="#2c2535"/>
  <path d="M448.792,85.0844l6.3554-17.897c-.6064-10.6997-1.9891-20.7531-5.1196-29.3511l-52.6087,8.827,4.9937,23.4797,22.2003,17.8305,24.1789-2.8891Z" fill="none" stroke="#191421" stroke-linecap="round" stroke-linejoin="round" stroke-width="1.324"/>
  <path d="M335.6303,307.9416c10.2393-31.424,49.7841-78.3835,49.7841-78.3835l6.7085-19.4193,33.8956,16.9478s-4.5354,24.7155-17.9797,40.6041c-13.4443,15.8885-46.2806,48.7202-46.2806,48.7202h-31.424c-1.7351-3.0583-.6874-5.9297,5.2962-8.4693Z" fill="#e6a298"/>
  <path d="M335.6303,307.9416c10.2393-31.424,49.7841-78.3835,49.7841-78.3835l6.7085-19.4193,33.8956,16.9478s-4.5354,24.7155-17.9797,40.6041c-13.4443,15.8885-46.2806,48.7202-46.2806,48.7202h-31.424c-1.7351-3.0583-.6874-5.9297,5.2962-8.4693Z" fill="none" stroke="#191421" stroke-linecap="round" stroke-linejoin="round" stroke-width="1.324"/>
  <path d="M423.3538,113.7483s-4.397,3.1777-6.3389,10.2393c0,0-12.6426,9.8862-17.1785,36.014-4.5359,26.1278-17.2467,54.0211-17.2467,54.0211,0,0,16.4131,20.1255,44.7502,23.3032l15.2732-35.3079,26.4809,44.841,95.6843,5.2962,3.1777-46.2533s-2.4716-19.0663-15.1824-36.3671c-12.7108-17.3009-24.0094-52.2557-51.5495-67.438-27.5401-15.1824-38.8387-11.6918-38.8387-11.6918,0,0-4.2369-2.4313-10.2393,2.1587s-28.7924,21.1847-28.7924,21.1847Z" fill="#c2cce0"/>
  <path d="M423.3538,113.7483s-4.397,3.1777-6.3389,10.2393c0,0-12.6426,9.8862-17.1785,36.014-4.5359,26.1278-17.2467,54.0211-17.2467,54.0211,0,0,16.4131,20.1255,44.7502,23.3032l15.2732-35.3079,26.4809,44.841,95.6843,5.2962,3.1777-46.2533s-2.4716-19.0663-15.1824-36.3671c-12.7108-17.3009-24.0094-52.2557-51.5495-67.438-27.5401-15.1824-38.8387-11.6918-38.8387-11.6918,0,0-4.2369-2.4313-10.2393,2.1587s-28.7924,21.1847-28.7924,21.1847Z" fill="none" stroke="#191421" stroke-linecap="round" stroke-linejoin="round" stroke-width="1.324"/>
  <path d="M380.1182,51.0768s-1.2358,9.3566,3.0012,18.7132l-5.8258,14.2997,8.827,6.3554,3.8839,16.4182,8.2091,3.1777,14.5645-7.7677,7.2381,10.9454v6.7085s36.3671,10.0627,36.7202-29.4821l-7.7677-8.1208-10.0627,2.8246-9.0035-4.2369s9.151-15.6348-4.0604-20.6551c-8.827-3.3542-11.4751,10.9454-11.4751,10.9454l-3.5308,1.2358-7.5912-9.18-3.1777-15.0058-19.949,2.8246Z" fill="#e6a298"/>
  <path d="M380.1182,51.0768s-1.2358,9.3566,3.0012,18.7132l-5.8258,14.2997,8.827,6.3554,3.8839,16.4182,8.2091,3.1777,14.5645-7.7677,7.2381,10.9454v6.7085s36.3671,10.0627,36.7202-29.4821l-7.7677-8.1208-10.0627,2.8246-9.0035-4.2369s9.151-15.6348-4.0604-20.6551c-8.827-3.3542-11.4751,10.9454-11.4751,10.9454l-3.5308,1.2358-7.5912-9.18-3.1777-15.0058-19.949,2.8246Z" fill="none" stroke="#191421" stroke-linecap="round" stroke-linejoin="round" stroke-width="1.324"/>
  <path d="M394.9475,92.2105c8.4739,9.0035,15.8886,.8827,14.8293-7.5484l-14.8293,7.5484Z" fill="#e65a55"/>
  <path d="M394.9475,92.2105c8.4739,9.0035,15.8886,.8827,14.8293-7.5484l-14.8293,7.5484Z" fill="none" stroke="#191421" stroke-linecap="round" stroke-linejoin="round" stroke-width="1.324"/>
  <ellipse cx="392.2994" cy="69.4369" rx="2.6481" ry="4.0604" fill="#191421"/>
  <path d="M387.057,60.8904c1.0935-.1688,2.0931-.6453,3.1621-.9215,1.0052-.2597,2.025-.4245,3.0633-.4547,2.162-.0629,4.2344,.4997,6.2653,1.191,1.219,.4149,1.8132-1.3302,.8369-1.9852-2.0896-1.4019-4.7176-1.8475-7.2065-1.7312-1.2183,.0569-2.4483,.2422-3.6113,.6141-1.2214,.3906-2.4911,.891-3.3048,1.9216-.5204,.6591-.038,1.4945,.7951,1.3658h0Z" fill="#191421"/>
  <path d="M421.6371,78.7994c-.1541-2.1582,.3687-4.3814,1.3036-6.3248,.4549-.9456,1.0178-1.8565,1.6891-2.6643,.6988-.841,1.6328-1.4808,2.2549-2.371,.2512-.3594-.1649-.8569-.5636-.7332-1.0819,.3357-1.9281,1.3088-2.6324,2.1631-.7638,.9265-1.4085,1.9366-1.9012,3.0325-.9841,2.1888-1.2962,4.5179-1.0452,6.8977,.0593,.5621,.9363,.5813,.8948,0h0Z" fill="#191421"/>
  <path d="M423.158,71.9778c1.1687,.5709,2.0463,1.5557,2.0213,2.9254-.0134,.7323-.3104,1.4484-.6865,2.066-.2117,.3476-.4559,.6694-.72,.9786-.2764,.3236-.6292,.6483-.8399,1.0185-.3227,.5669,.3062,1.103,.8456,.8456,.4441-.2119,.8511-.6657,1.1666-1.0367,.3398-.3995,.6532-.8309,.9077-1.2901,.4714-.8507,.7833-1.8539,.6997-2.8353-.1385-1.6271-1.3907-3.7675-3.3019-3.381-.3181,.0643-.3871,.5651-.0927,.709h0Z" fill="#191421"/>
  <path d="M428.9225,80.7993c-.0366,.039-.0931,.0802-.1251,.122-.047,.038-.0553,.052-.0248,.0421,.0579-.0156,.0249,.0122-.0989,.0833-.0844,.0801-.179,.2484-.2194,.305-.04,.0561-.1627,.2124-.2333,.3114-.0663,.0931-.1344,.1849-.201,.2777-.0665,.0926-.132,.1858-.1999,.2775-.121,.1635,.0785-.095-.0485,.063-.0388,.0483-.0777,.0966-.117,.1446-.1441,.1763-.2937,.3477-.4508,.5126-.3127,.3279-.6446,.6446-.996,.9308-.1759,.1433-.3231,.3089-.4996,.4509-.0843,.0678-.1588,.1366-.2275,.1924-.111,.0902-.2403,.1525-.3378,.2592-.1204,.1319-.1651,.3156-.0914,.4831,.0633,.1441,.2314,.2946,.4041,.2718,.2893-.0382,.5649-.1633,.814-.2795,.2607-.1215,.4102-.1616,.6642-.3357,.4384-.3006,.8503-.6413,1.2141-1.0289,.3623-.386,.7012-.8076,.9799-1.2583,.1329-.2149,.2586-.4954,.3336-.685-.0164,.0321-.0106,.0174,.0174-.0441,.0237-.0554,.0471-.1109,.0701-.1666,.0304-.0735,.0483-.1383,.0581-.2177,.0147-.0809,.0156-.0974,.0028-.0495,.0097-.0414,.0167-.0833,.0209-.1256,.0098-.0781,.0126-.1563,.0201-.2347,.0359-.3726-.4885-.5572-.7284-.3017h0Z" fill="#191421"/>
  <circle cx="414.1462" cy="10.6051" r="5.6051" fill="#e65a55"/>
  <circle cx="414.1462" cy="10.6051" r="5.6051" fill="none" stroke="#191421" stroke-linecap="round" stroke-linejoin="round" stroke-width="1.324"/>
  <path d="M348.1646,58.2409l109.4544-19.5218s2.4716-7.2381-6.0023-7.5912c0,0-10.2393-22.0674-33.8956-22.244-23.6563-.1765-40.0744,14.4762-40.4275,35.3079-7.8973-1.1324-17.5164,2.6125-28.0698,9.0035l-1.0592,5.0456Z" fill="#e65a55"/>
  <path d="M348.1646,58.2409l109.4544-19.5218s2.4716-7.2381-6.0023-7.5912c0,0-10.2393-22.0674-33.8956-22.244-23.6563-.1765-40.0744,14.4762-40.4275,35.3079-7.8973-1.1324-17.5164,2.6125-28.0698,9.0035l-1.0592,5.0456Z" fill="none" stroke="#191421" stroke-linecap="round" stroke-linejoin="round" stroke-width="1.324"/>
  <path d="M481.4488,582.9899s1.3433-16.6235-2.8937-26.8484h-47.3126l-3.1777,7.9587-14.4763,12.5343s-18.7132,3.5415-18.3601,18.3655h57.9049l7.0616-7.067,5.2962,7.067h17.3008s1.5504-6.3608-1.3433-12.0101Z" fill="#2c2535"/>
  <path d="M481.4488,582.9899s1.3433-16.6235-2.8937-26.8484h-47.3126l-3.1777,7.9587-14.4763,12.5343s-18.7132,3.5415-18.3601,18.3655h57.9049l7.0616-7.067,5.2962,7.067h17.3008s1.5504-6.3608-1.3433-12.0101Z" fill="none" stroke="#191421" stroke-linecap="round" stroke-linejoin="round" stroke-width="1.324"/>
  <path d="M625.577,582.9899s1.3433-16.6235-2.8937-26.8484h-47.3126l-3.1777,7.9587-14.4763,12.5343s-18.7132,3.5415-18.3601,18.3655h57.9049l7.0616-7.067,5.2962,7.067h17.3008s1.5504-6.3608-1.3433-12.0101Z" fill="#2c2535"/>
  <path d="M625.577,582.9899s1.3433-16.6235-2.8937-26.8484h-47.3126l-3.1777,7.9587-14.4763,12.5343s-18.7132,3.5415-18.3601,18.3655h57.9049l7.0616-7.067,5.2962,7.067h17.3008s1.5504-6.3608-1.3433-12.0101Z" fill="none" stroke="#191421" stroke-linecap="round" stroke-linejoin="round" stroke-width="1.324"/>
  <path d="M616.1513,416.8664c1.0593-116.516-15.3589-175.8332-15.3589-175.8332,1.5889-13.2405-3.7073-11.6516-3.7073-11.6516-9.0035-24.3624-29.129-33.0129-29.129-33.0129-3.8839-22.244-15.1824-26.834-15.1824-26.834,10.9454,28.2463,8.4739,71.3219,8.4739,71.3219l-9.18,4.2369c-28.9525-11.6516-57.1988-47.3126-66.0257-88.6228-8.827-41.3102,10.0165-57.1033,10.0165-57.1033,0,0-2.7192-7.2651-12.3702-5.4456,0,0-21.6556,20.8857-8.4152,68.1982,0,0-3.6413,13.0639-33.3329,18.007,0,0-19.8054-18.7132-24.9251-56.1395,0,0-6.8969-1.4779-8.8329,11.4422s16.071,52.1119,34.4311,66.5882c0,0,8.1208,61.2592,30.0117,91.1826l-21.1847,167.0945-22.7736,96.9201s7.4147,17.4774,23.3032,12.1812c15.8885-5.2962,23.3032,1.0592,29.129-3.7073s-2.6481-12.7108-2.6481-12.7108c0,0,26.4809-63.0246,25.4217-93.7424,0,0,6.3554-2.6481,4.7666-14.2997l30.1882-77.1739,14.2997,50.693s-2.1185,10.0627,4.2369,16.9478l17.4774,101.6867s-3.1777,8.4739,1.5889,13.2405c0,0-7.9443,5.8258-4.2369,13.7701,0,0,8.4739-2.1185,22.7736,1.5889,14.2997,3.7073,30.6104-6.1925,30.6104-6.1925-.0755-5.5866-1.3899-12.5455-5.1641-16.4198,.6188-49.6226,1.5684-98.4955-4.2616-126.2104Z" fill="#384778"/>
  <g>
    <path d="M497.0677,267.7715c5.3213-.8967,10.6056-2.1762,15.8533-3.4254,5.2574-1.2515,10.498-2.5751,15.7142-3.9884,10.4324-2.8265,20.776-5.9723,31.0184-9.4242,5.7323-1.9319,11.4387-3.944,17.0071-6.3109,.4389-.1865,.1259-.9172-.3248-.7704-5.1334,1.672-10.2158,3.4937-15.324,5.242-5.113,1.75-10.252,3.4241-15.4147,5.0217-10.2479,3.1712-20.5844,6.0622-30.9948,8.6513-5.9018,1.4678-11.862,2.7093-17.7561,4.2013-.5286,.1338-.2971,.8903,.2214,.803h0Z" fill="#191421"/>
    <path d="M554.7596,261.0848c4.5873,11.6684,15.2827,20.1559,27.6224,22.2308,3.6852,.6197,7.4448,.7671,11.1067-.0491,.4668-.104,.3685-.8596-.1134-.8381-3.1665,.1408-6.3795,.1906-9.5275-.2283-3.1673-.4215-6.2863-1.2738-9.2324-2.5095-5.4595-2.2898-10.2647-5.9932-13.9922-10.5799-2.0558-2.5296-3.787-5.3655-5.1262-8.3366-.1857-.4119-.905-.1157-.7374,.3109h0Z" fill="#191421"/>
    <path d="M484.7915,286.0389c.1341,11.5652-3.5164,23.2072-10.1524,32.6657-1.889,2.6925-4.0402,5.1633-6.2446,7.5981-.4192,.4629,.2121,1.0818,.6802,.6802,4.4621-3.8272,7.9495-8.8936,10.6116-14.0991,2.6998-5.2792,4.5505-10.9588,5.436-16.8227,.502-3.3245,.6201-6.6672,.4657-10.0223-.0234-.5093-.8025-.5156-.7965,0h0Z" fill="#191421"/>
    <path d="M589.1228,288.8337c1.71,8.6576,3.2796,17.3458,4.7179,26.0526,1.4445,8.7443,2.739,17.5126,3.8803,26.3016s2.1249,17.605,2.9488,26.4326c.8199,8.7839,1.4867,17.5829,1.9989,26.3901s.8442,17.6262,1.1605,26.4448c.0395,1.1025,.0752,2.205,.1047,3.3078,.0141,.5245,.8213,.5276,.8172,0-.069-8.8677-.3164-17.7251-.7842-26.5814s-1.0959-17.6994-1.891-26.5302c-.7951-8.8311-1.7495-17.6479-2.8626-26.4446-1.1079-8.7563-2.3732-17.494-3.808-26.2028-1.4403-8.7416-2.9913-17.4791-4.8436-26.1437-.2304-1.0779-.4529-2.1574-.6809-3.2358-.1049-.4962-.8556-.2847-.7581,.209h0Z" fill="#191421"/>
    <path d="M607.3784,441.4122c.593,10.2652,1.0919,20.538,1.4474,30.8143,.3556,10.2798,.5532,20.5636,.6187,30.8493,.037,5.8066,.0174,11.6132,.0852,17.4193,.0068,.5803,.8802,.5784,.8999,0,.3503-10.2777,.2055-20.5765-.0075-30.8561-.2131-10.2825-.5572-20.569-1.1412-30.8376-.3299-5.8009-.7041-11.5962-1.1526-17.3892-.0369-.4764-.778-.4851-.7499,0h0Z" fill="#191421"/>
  </g>
  <path d="M616.1513,416.8664c1.0593-116.516-15.3589-175.8332-15.3589-175.8332,1.5889-13.2405-3.7073-11.6516-3.7073-11.6516-9.0035-24.3624-29.129-33.0129-29.129-33.0129-3.8839-22.244-15.1824-26.834-15.1824-26.834,10.9454,28.2463,8.4739,71.3219,8.4739,71.3219l-9.18,4.2369c-28.9525-11.6516-57.1988-47.3126-66.0257-88.6228-8.827-41.3102,10.0165-57.1033,10.0165-57.1033,0,0-2.7192-7.2651-12.3702-5.4456,0,0-21.6556,20.8857-8.4152,68.1982,0,0-3.6413,13.0639-33.3329,18.007,0,0-19.8054-18.7132-24.9251-56.1395,0,0-6.8969-1.4779-8.8329,11.4422s16.071,52.1119,34.4311,66.5882c0,0,8.1208,61.2592,30.0117,91.1826l-21.1847,167.0945-22.7736,96.9201s7.4147,17.4774,23.3032,12.1812c15.8885-5.2962,23.3032,1.0592,29.129-3.7073s-2.6481-12.7108-2.6481-12.7108c0,0,26.4809-63.0246,25.4217-93.7424,0,0,6.3554-2.6481,4.7666-14.2997l30.1882-77.1739,14.2997,50.693s-2.1185,10.0627,4.2369,16.9478l17.4774,101.6867s-3.1777,8.4739,1.5889,13.2405c0,0-7.9443,5.8258-4.2369,13.7701,0,0,8.4739-2.1185,22.7736,1.5889,14.2997,3.7073,30.6104-6.1925,30.6104-6.1925-.0755-5.5866-1.3899-12.5455-5.1641-16.4198,.6188-49.6226,1.5684-98.4955-4.2616-126.2104Z" fill="none" stroke="#191421" stroke-linecap="round" stroke-linejoin="round" stroke-width="1.324"/>
  <path d="M585.8107,554.3963c7.2217,2.9824,15.3512,2.6608,22.9744,1.8734,2.2215-.2295,4.4546-.452,6.6294-.9696,.5378-.128,.4241-.9785-.1306-.9651-1.9104,.0461-3.7987,.3169-5.6968,.5271-1.9075,.2112-3.8192,.3889-5.7353,.501-3.8368,.2245-7.7173,.1941-11.5256-.3697-2.1273-.3149-4.2351-.7807-6.2969-1.39-.5219-.1542-.6929,.5971-.2186,.793h0Z" fill="#191421"/>
  <path d="M529.5314,321.948c-.5557,3.1463-.6921,6.3779-.6721,9.5687,.0196,3.1364,.252,6.3191,.7265,9.4201,.4877,3.1877,1.1858,6.3429,2.0901,9.4382,.8695,2.9762,1.9228,5.8936,2.8963,8.8364,.5582,1.6872,1.0933,3.3849,1.5674,5.0979,.4705,1.6998,1.0852,3.3821,1.4777,5.0995,.1373,.6005,1.1273,.4808,1.0871-.1471-.0988-1.5406-.1705-3.0461-.4885-4.565-.3156-1.5076-.7809-2.9949-1.2465-4.4614-.9497-2.9918-2.0248-5.9421-2.9638-8.9375-1.8919-6.0354-3.0178-12.2918-3.4136-18.6017-.2222-3.5424-.1131-7.0643-.0243-10.6079,.0145-.5807-.931-.736-1.0363-.1402h0Z" fill="#191421"/>
  <path d="M510.2864,301.5745c.4155,1.0891,.7675,2.1893,1.2224,3.2659,.4504,1.0657,.9351,2.1102,1.4337,3.1538,.9987,2.09,2.1795,4.0956,3.5913,5.9345,2.8392,3.6978,6.6261,6.4346,11.1012,7.8019,1.2525,.3827,2.5338,.6394,3.8326,.8015,1.2039,.1502,2.693,.333,3.8457-.1344,.6438-.261,.7466-1.1918,0-1.4164-1.0174-.306-2.1855-.2352-3.2399-.3375-1.0591-.1027-2.108-.3053-3.136-.5781-2.0506-.544-4.0049-1.4001-5.7961-2.5369-3.7268-2.3653-6.3559-5.8889-8.5241-9.6672-.6244-1.0881-1.2037-2.2004-1.7753-3.3172-.5688-1.1113-1.192-2.1958-1.7568-3.3068-.2208-.4343-.9769-.1301-.7988,.3368h0Z" fill="#191421"/>
  <path d="M535.968,319.3849c2.9265-2.2629,5.4523-4.9925,8.455-7.1721,3.1025-2.2521,6.5264-3.9436,10.3021-4.7,1.9134-.3833,3.8779-.5227,5.8266-.4143,.3118,.0173,.7679,.0175,1.031,.2184,.3304,.2522-.0262,.5058-.2666,.7305-.6157,.5757-1.2849,1.0984-1.9689,1.59-2.7254,1.9587-5.781,3.3832-8.7797,4.8628-1.6912,.8344-3.376,1.6884-4.988,2.6696-1.5781,.9606-3.2671,2.0613-4.4273,3.5202-.3378,.4248,.1053,1.2064,.6393,.8286,1.4984-1.0602,2.905-2.2092,4.481-3.1632,1.5585-.9434,3.1848-1.7681,4.8188-2.5712,3.2887-1.6162,6.6607-3.1552,9.5902-5.3882,1.0696-.8153,3.5611-2.513,1.9943-4.0131-.5913-.5661-1.4607-.6595-2.2381-.6966-1.0634-.0507-2.1299-.0297-3.1905,.0616-4.177,.3592-8.1378,1.7897-11.6618,4.0444-1.9041,1.2182-3.6814,2.6321-5.3664,4.1362-1.7,1.5175-3.3795,3.1201-4.8069,4.9006-.3205,.3997,.1561,.8651,.5559,.5559h0Z" fill="#191421"/>
  <path d="M526.086,323.4606c-2.8304,.5657-5.813,.7017-8.6247-.0568-2.8941-.7807-5.3968-2.0658-7.7404-3.9274-1.2905-1.0251-2.4107-2.2389-3.4787-3.4861-.4734-.5529-1.1882,.152-.9342,.7208,2.5752,5.7652,9.7454,9.0447,15.8259,8.8074,.8848-.0345,1.762-.1112,2.6365-.2526,.9293-.1502,1.7409-.4191,2.5987-.7779,.6209-.2597,.4063-1.1652-.2832-1.0274h0Z" fill="#191421"/>
  <g>
    <path d="M313.3695,595c-77.709,0-140.7046-62.9956-140.7046-140.7046s62.9956-140.7046,140.7046-140.7046h39.0347v281.4091h-39.0347Z" fill="#2c2535"/>
    <path d="M313.3695,595c-77.709,0-140.7046-62.9956-140.7046-140.7046s62.9956-140.7046,140.7046-140.7046h39.0347v281.4091h-39.0347Z" fill="none" stroke="#191421" stroke-linecap="round" stroke-linejoin="round" stroke-width="1.324"/>
    <g>
      <path d="M323.8788,595c-77.709,0-140.7046-62.9956-140.7046-140.7046s62.9956-140.7046,140.7046-140.7046" fill="none" stroke="#413f4d" stroke-linecap="round" stroke-linejoin="round" stroke-width="1.324"/>
      <path d="M338.8922,595c-77.709,0-140.7046-62.9956-140.7046-140.7046s62.9956-140.7046,140.7046-140.7046" fill="none" stroke="#413f4d" stroke-linecap="round" stroke-linejoin="round" stroke-width="1.324"/>
    </g>
    <circle cx="352.4042" cy="454.2954" r="140.7046" fill="#413f4d"/>
    <circle cx="352.4042" cy="454.2954" r="140.7046" fill="none" stroke="#191421" stroke-linecap="round" stroke-linejoin="round" stroke-width="1.324"/>
    <circle cx="355.4068" cy="454.2954" r="86.5331" fill="#c2cce0"/>
    <circle cx="355.4068" cy="454.2954" r="86.5331" fill="none" stroke="#191421" stroke-linecap="round" stroke-linejoin="round" stroke-width="1.324"/>
    <circle cx="358.4095" cy="454.2954" r="77.6773" fill="#c2cce0"/>
    <circle cx="358.4095" cy="454.2954" r="77.6773" fill="none" stroke="#191421" stroke-linecap="round" stroke-linejoin="round" stroke-width="1.324"/>
    <circle cx="358.4095" cy="454.2954" r="64.0865" fill="#413f4d"/>
    <circle cx="358.4095" cy="454.2954" r="64.0865" fill="none" stroke="#191421" stroke-linecap="round" stroke-linejoin="round" stroke-width="1.324"/>
    <path d="M422.496,454.2954c0-9.6636-2.1518-18.8205-5.982-27.0373l-44.2686,13.11,13.0969-44.2244c-8.1902-3.7998-17.31-5.9348-26.9329-5.9348-9.6636,0-18.8205,2.1518-27.0373,5.982l13.11,44.2686-44.2244-13.0969c-3.7998,8.1902-5.9348,17.31-5.9348,26.9329,0,9.6636,2.1518,18.8205,5.982,27.0373l44.2686-13.11-13.0969,44.2244c8.1902,3.7998,17.31,5.9348,26.9329,5.9348,9.6636,0,18.8205-2.1518,27.0373-5.982l-13.1099-44.2685,44.2244,13.0969c3.7998-8.1902,5.9348-17.31,5.9348-26.9329Z" fill="#c2cce0"/>
    <path d="M422.496,454.2954c0-9.6636-2.1518-18.8205-5.982-27.0373l-44.2686,13.11,13.0969-44.2244c-8.1902-3.7998-17.31-5.9348-26.9329-5.9348-9.6636,0-18.8205,2.1518-27.0373,5.982l13.11,44.2686-44.2244-13.0969c-3.7998,8.1902-5.9348,17.31-5.9348,26.9329,0,9.6636,2.1518,18.8205,5.982,27.0373l44.2686-13.11-13.0969,44.2244c8.1902,3.7998,17.31,5.9348,26.9329,5.9348,9.6636,0,18.8205-2.1518,27.0373-5.982l-13.1099-44.2685,44.2244,13.0969c3.7998-8.1902,5.9348-17.31,5.9348-26.9329Z" fill="none" stroke="#191421" stroke-linecap="round" stroke-linejoin="round" stroke-width="1.324"/>
    <circle cx="358.4095" cy="454.2954" r="22.0659" fill="#c2cce0"/>
    <circle cx="358.4095" cy="454.2954" r="22.0659" fill="none" stroke="#191421" stroke-linecap="round" stroke-linejoin="round" stroke-width="1.324"/>
    <circle cx="358.4095" cy="454.2954" r="15.8196" fill="none" stroke="#191421" stroke-linecap="round" stroke-linejoin="round" stroke-width="1.324"/>
  </g>
  <path d="M408.0387,311.588c15.5628-36.9577,46.5791-64.729,46.5791-64.729l3.9722-17.7868,39.4564,12.8437s-2.8005,17.6539-12.5222,32.8363c-9.7217,15.1824-59.5058,54.0211-59.5058,54.0211,0,0,.7944,15.2707-4.7666,28.5111l-9.0035,10.4779-5.3007-1.1897s-3.5263,1.1897-6.5182-.9167c0,0-2.6574,1.4264-7.9536-2.1044,0,0-4.59,1.0592-5.8258-7.0616l4.0604-12.7108,1.2358-19.0586-4.4582-6.7186s2.3398-4.1677,10.7254-4.2894l9.8252-2.1245Z" fill="#e6a298"/>
  <path d="M408.0387,311.588c15.5628-36.9577,46.5791-64.729,46.5791-64.729l3.9722-17.7868,39.4564,12.8437s-2.8005,17.6539-12.5222,32.8363c-9.7217,15.1824-59.5058,54.0211-59.5058,54.0211,0,0,.7944,15.2707-4.7666,28.5111l-9.0035,10.4779-5.3007-1.1897s-3.5263,1.1897-6.5182-.9167c0,0-2.6574,1.4264-7.9536-2.1044,0,0-4.59,1.0592-5.8258-7.0616l4.0604-12.7108,1.2358-19.0586-4.4582-6.7186s2.3398-4.1677,10.7254-4.2894l9.8252-2.1245Z" fill="none" stroke="#191421" stroke-linecap="round" stroke-linejoin="round" stroke-width="1.324"/>
  <path d="M507.9584,137.9768c-5.0484-4.9557-12.7979-5.9004-18.8634-2.2598-3.2089,1.926-6.7786,4.8699-10.3135,9.3656-1.1783,1.4986-2.3527,3.1696-3.5086,5.0327-11.8281,19.0663-24.8921,81.2081-24.8921,81.2081,0,0,17.4026,15.4629,52.3091,17.395,0,0,25.3683-59.7645,15.8351-94.3662-2.2614-6.427-5.9009-11.7954-10.5667-16.3755Z" fill="#c2cce0"/>
  <path d="M520.4711,178.703c-1.9518,32.7234-17.7812,70.0155-17.7812,70.0155-34.9065-1.9321-52.3091-17.395-52.3091-17.395,0,0,13.0639-62.1419,24.8921-81.2081,1.2453-2.0074,2.5122-3.7917,3.7822-5.3776,0,0,5.5901-5.5004,10.0398-9.0208" fill="none" stroke="#191421" stroke-linecap="round" stroke-linejoin="round" stroke-width="1.324"/>
  <polyline points="406.9477 366.5726 412.9545 356.3134 414.8964 346.9568" fill="none" stroke="#191421" stroke-linecap="round" stroke-linejoin="round" stroke-width="1.324"/>
  <polyline points="400.4295 365.6559 405.8929 354.7245 408.0387 344.3087" fill="none" stroke="#191421" stroke-linecap="round" stroke-linejoin="round" stroke-width="1.324"/>
  <polyline points="392.4759 363.5515 398.2135 353.4888 399.5375 342.5433" fill="none" stroke="#191421" stroke-linecap="round" stroke-linejoin="round" stroke-width="1.324"/>
</svg>