<?xml version="1.0" encoding="UTF-8"?>
<svg id="Tire_Mechanic" data-name="Tire Mechanic" xmlns="http://www.w3.org/2000/svg" viewBox="0 0 800 600">
  <g>
    <polygon points="311.6776 414.7215 295.2578 420.4906 295.2578 572.1168 301.9145 577.8859 311.6776 577.8859 311.6776 414.7215" fill="#697fbc"/>
    <polygon points="311.6776 414.7215 295.2578 420.4906 295.2578 572.1168 301.9145 577.8859 311.6776 577.8859 311.6776 414.7215" fill="none" stroke="#191421" stroke-linecap="round" stroke-linejoin="round" stroke-width="1.1095"/>
    <rect x="428.3931" y="22.4199" width="19.3784" height="145.1161" fill="#c2cce0"/>
    <rect x="428.3931" y="22.4199" width="19.3784" height="145.1161" fill="none" stroke="#191421" stroke-linecap="round" stroke-linejoin="round" stroke-width="1.1095"/>
    <polygon points="454.2063 217.2393 421.9583 217.2393 428.3931 201.2633 447.7715 201.2633 454.2063 217.2393" fill="#e65a55"/>
    <polygon points="454.2063 217.2393 421.9583 217.2393 428.3931 201.2633 447.7715 201.2633 454.2063 217.2393" fill="none" stroke="#191421" stroke-linecap="round" stroke-linejoin="round" stroke-width="1.1095"/>
    <polygon points="456.7223 6 419.4423 6 419.4423 17.3164 421.9583 22.4199 454.2063 22.4199 456.7223 17.3164 456.7223 6" fill="#e65a55"/>
    <polygon points="456.7223 6 419.4423 6 419.4423 17.3164 421.9583 22.4199 454.2063 22.4199 456.7223 17.3164 456.7223 6" fill="none" stroke="#191421" stroke-linecap="round" stroke-linejoin="round" stroke-width="1.1095"/>
    <rect x="421.9583" y="167.536" width="32.248" height="33.7273" fill="#e65a55"/>
    <rect x="421.9583" y="167.536" width="32.248" height="33.7273" fill="none" stroke="#191421" stroke-linecap="round" stroke-linejoin="round" stroke-width="1.1095"/>
    <rect x="304.4305" y="404.9583" width="307.5396" height="182.6907" fill="#697fbc"/>
    <rect x="304.4305" y="404.9583" width="307.5396" height="182.6907" fill="none" stroke="#191421" stroke-linecap="round" stroke-linejoin="round" stroke-width="1.1095"/>
    <rect x="408.7188" y="387.2071" width="52.8098" height="17.7512" fill="#413f4d"/>
    <rect x="408.7188" y="387.2071" width="52.8098" height="17.7512" fill="none" stroke="#191421" stroke-linecap="round" stroke-linejoin="round" stroke-width="1.1095"/>
    <polygon points="493.3329 391.2012 376.9146 391.2012 364.3408 362.3554 505.9067 362.3554 493.3329 391.2012" fill="#c2cce0"/>
    <polygon points="493.3329 391.2012 376.9146 391.2012 364.3408 362.3554 505.9067 362.3554 493.3329 391.2012" fill="none" stroke="#191421" stroke-linecap="round" stroke-linejoin="round" stroke-width="1.1095"/>
    <polygon points="651.9103 161.4584 632.384 186.6185 632.384 120.4913 651.9103 120.4913 651.9103 161.4584" fill="#697fbc"/>
    <polygon points="651.9103 161.4584 632.384 186.6185 632.384 120.4913 651.9103 120.4913 651.9103 161.4584" fill="none" stroke="#191421" stroke-linecap="round" stroke-linejoin="round" stroke-width="1.1095"/>
    <rect x="590.3728" y="120.4913" width="42.0112" height="220.2668" fill="#697fbc"/>
    <rect x="590.3728" y="120.4913" width="42.0112" height="220.2668" fill="none" stroke="#191421" stroke-linecap="round" stroke-linejoin="round" stroke-width="1.1095"/>
    <polygon points="560.4916 404.9583 577.7991 422.2658 577.7991 587.6491 632.384 587.6491 632.384 340.7581 590.3728 340.7581 560.4916 404.9583" fill="#697fbc"/>
    <polygon points="560.4916 404.9583 577.7991 422.2658 577.7991 587.6491 632.384 587.6491 632.384 340.7581 590.3728 340.7581 560.4916 404.9583" fill="none" stroke="#191421" stroke-linecap="round" stroke-linejoin="round" stroke-width="1.1095"/>
    <polygon points="423.6966 502.1466 418.1494 502.1466 418.1494 482.7291 478.8647 450.438 481.4693 455.3352 423.6966 486.0618 423.6966 502.1466" fill="#c2cce0"/>
    <polygon points="423.6966 502.1466 418.1494 502.1466 418.1494 482.7291 478.8647 450.438 481.4693 455.3352 423.6966 486.0618 423.6966 502.1466" fill="none" stroke="#191421" stroke-linecap="round" stroke-linejoin="round" stroke-width="1.1095"/>
    <circle cx="481.9425" cy="452.8866" r="7.5443" fill="#ed5a47"/>
    <circle cx="481.9425" cy="452.8866" r="7.5443" fill="none" stroke="#191421" stroke-linecap="round" stroke-linejoin="round" stroke-width="1.1095"/>
    <rect x="369.4443" y="502.1462" width="102.957" height="34.5455" rx="5.5473" ry="5.5473" fill="#c2cce0"/>
    <rect x="369.4443" y="502.1462" width="102.957" height="34.5455" rx="5.5473" ry="5.5473" fill="none" stroke="#191421" stroke-linecap="round" stroke-linejoin="round" stroke-width="1.1095"/>
    <rect x="361.6781" y="519.8974" width="118.4893" height="42.1591" rx="5.5473" ry="5.5473" fill="#c2cce0"/>
    <rect x="361.6781" y="519.8974" width="118.4893" height="42.1591" rx="5.5473" ry="5.5473" fill="none" stroke="#191421" stroke-linecap="round" stroke-linejoin="round" stroke-width="1.1095"/>
    <polygon points="460.863 151.1161 420.0352 151.1161 420.0352 107.1819 468.4073 107.1819 479.2799 131.9553 460.863 151.1161" fill="#e65a55"/>
    <polygon points="460.863 151.1161 420.0352 151.1161 420.0352 107.1819 468.4073 107.1819 479.2799 131.9553 460.863 151.1161" fill="none" stroke="#191421" stroke-linecap="round" stroke-linejoin="round" stroke-width="1.1095"/>
    <path d="M440.1163,113.5384h116.8251v18.4169h-116.8251c-5.0823,0-9.2084-4.1262-9.2084-9.2084h0c0-5.0823,4.1262-9.2084,9.2084-9.2084Z" fill="#c2cce0"/>
    <path d="M440.1163,113.5384h116.8251v18.4169h-116.8251c-5.0823,0-9.2084-4.1262-9.2084-9.2084h0c0-5.0823,4.1262-9.2084,9.2084-9.2084Z" fill="none" stroke="#191421" stroke-linecap="round" stroke-linejoin="round" stroke-width="1.1095"/>
    <rect x="553.8349" y="104.0994" width="78.5491" height="37.295" rx="5.5473" ry="5.5473" fill="#697fbc"/>
    <rect x="553.8349" y="104.0994" width="78.5491" height="37.295" rx="5.5473" ry="5.5473" fill="none" stroke="#191421" stroke-linecap="round" stroke-linejoin="round" stroke-width="1.1095"/>
  </g>
  <g>
    <path d="M304.4944,253.1855s13.6933,18.4169,24.344,22.8547c10.6507,4.4378,79.0071-7.4919,79.0071-7.4919l11.4501-7.6706-8.5058-8.7277-8.5058-2.9585s-43.2686-5.5473-62.573-2.8846l-9.7632-12.4258-25.4535,19.3044Z" fill="#e6a298"/>
    <path d="M304.4944,253.1855s13.6933,18.4169,24.344,22.8547c10.6507,4.4378,79.0071-7.4919,79.0071-7.4919l11.4501-7.6706-8.5058-8.7277-8.5058-2.9585s-43.2686-5.5473-62.573-2.8846l-9.7632-12.4258-25.4535,19.3044Z" fill="none" stroke="#191421" stroke-linecap="round" stroke-linejoin="round" stroke-width="1.1095"/>
    <path d="M337.5833,247.1494c-.4523,.1532-.9053,.2524-1.3499,.4391-.4613,.1937-.9203,.3917-1.3746,.6014-.8484,.3917-1.6821,.8192-2.5042,1.2629-1.6854,.9098-3.4253,1.845-4.9534,3.005-.4696,.3565-.0764,1.0937,.4725,.8083,1.684-.8756,3.2909-1.9025,4.9669-2.7968,.8243-.4398,1.6555-.8661,2.4839-1.2979,.4135-.2155,.8266-.4317,1.2396-.6481,.4441-.2327,.8419-.5219,1.2746-.7679,.3197-.1818,.1071-.7288-.2555-.606h0Z" fill="#191421"/>
  </g>
  <g>
    <path d="M327.5071,345.443c0,18.3411,48.1816,33.2095,107.6167,33.2095s107.6167-14.8684,107.6167-33.2095v-50.3202h-215.2334v50.3202Z" fill="#2c2535"/>
    <g>
      <path d="M327.5071,334.1209c0,18.3411,48.1816,33.2095,107.6167,33.2095s107.6167-14.8684,107.6167-33.2095" fill="none" stroke="#413f4d" stroke-linecap="round" stroke-linejoin="round" stroke-width="1.1095"/>
      <path d="M327.5071,320.2829c0,18.3411,48.1816,33.2095,107.6167,33.2095s107.6167-14.8684,107.6167-33.2095" fill="none" stroke="#413f4d" stroke-linecap="round" stroke-linejoin="round" stroke-width="1.1095"/>
      <path d="M327.5071,307.7028c0,18.3411,48.1816,33.2095,107.6167,33.2095s107.6167-14.8684,107.6167-33.2095" fill="none" stroke="#413f4d" stroke-linecap="round" stroke-linejoin="round" stroke-width="1.1095"/>
    </g>
    <path d="M327.5071,345.443c0,18.3411,48.1816,33.2095,107.6167,33.2095s107.6167-14.8684,107.6167-33.2095v-50.3202h-215.2334v50.3202Z" fill="none" stroke="#191421" stroke-linecap="round" stroke-linejoin="round" stroke-width="1.1095"/>
    <ellipse cx="435.1237" cy="295.1228" rx="107.6167" ry="33.2095" fill="#413f4d"/>
    <ellipse cx="435.1237" cy="295.1228" rx="107.6167" ry="33.2095" fill="none" stroke="#191421" stroke-linecap="round" stroke-linejoin="round" stroke-width="1.1095"/>
    <ellipse cx="435.1237" cy="292.534" rx="71.5226" ry="20.118" fill="#c2cce0"/>
    <ellipse cx="435.1237" cy="292.534" rx="71.5226" ry="20.118" fill="none" stroke="#191421" stroke-linecap="round" stroke-linejoin="round" stroke-width="1.1095"/>
    <ellipse cx="435.1237" cy="291.3185" rx="64.1599" ry="16.7465" fill="#2c2535"/>
    <path d="M499.2833,291.3173c0,4.8926-8.0103,9.2861-20.8022,12.3482l-32.1741-4.8705,5.17,8.7203c-5.2144,.3661-10.6951,.5547-16.3533,.5547s-11.1389-.1886-16.3533-.5547l4.926-8.3209-30.9869,4.693c-13.3356-3.0732-21.7453-7.5665-21.7453-12.5701,0-5.0369,8.5095-9.5524,21.9893-12.6144l32.3294,4.8926-5.0702-8.5649c4.7817-.2996,9.7743-.4549,14.911-.4549s10.1293,.1553,14.911,.4549l-5.3142,8.9643,33.5276-5.0701h.0111c12.914,3.062,21.0241,7.4777,21.0241,12.3925Z" fill="#c2cce0"/>
    <ellipse cx="435.1237" cy="290.0605" rx="18.5648" ry="4.8456" fill="#c2cce0"/>
    <ellipse cx="435.1237" cy="290.0605" rx="18.5648" ry="4.8456" fill="none" stroke="#413f4d" stroke-linecap="round" stroke-linejoin="round" stroke-width="1.1095"/>
    <ellipse cx="435.1237" cy="291.3185" rx="64.1599" ry="16.7465" fill="none" stroke="#191421" stroke-linecap="round" stroke-linejoin="round" stroke-width="1.1095"/>
  </g>
  <g>
    <path d="M399.8432,250.5229s5.5473-8.2099,15.9761-7.3224c0,0,10.2069-.9615,14.9406,2.8846l7.988,10.7986,.7396,9.0235-2.9585,1.3313s.1479,3.2544-4.8816,3.1065c0,0-.8706,1.5215-6.0481,.1852,0,0-2.0139,1.4419-6.3038-.1852l-2.1449-7.6922-5.3254-7.1683-1.3313,4.9494,2.3594,4.0109c1.2169,2.0688,.8465,4.7035-.8937,6.3565l-.2822,.2681-3.6223-4.8664-6.4354-5.7691-1.7764-9.9111Z" fill="#e6a298"/>
    <path d="M399.8432,250.5229s5.5473-8.2099,15.9761-7.3224c0,0,10.2069-.9615,14.9406,2.8846l7.988,10.7986,.7396,9.0235-2.9585,1.3313s.1479,3.2544-4.8816,3.1065c0,0-.8706,1.5215-6.0481,.1852,0,0-2.0139,1.4419-6.3038-.1852l-2.1449-7.6922-5.3254-7.1683-1.3313,4.9494,2.3594,4.0109c1.2169,2.0688,.8465,4.7035-.8937,6.3565l-.2822,.2681-3.6223-4.8664-6.4354-5.7691" fill="none" stroke="#191421" stroke-linecap="round" stroke-linejoin="round" stroke-width="1.1095"/>
    <polyline points="425.5994 270.5303 424.8428 261.6174 420.9967 254.5169" fill="none" stroke="#231f20" stroke-linecap="round" stroke-linejoin="round" stroke-width="1.1095"/>
    <polyline points="431.6475 270.345 431.6475 261.3215 428.3931 253.4814" fill="none" stroke="#231f20" stroke-linecap="round" stroke-linejoin="round" stroke-width="1.1095"/>
    <polyline points="436.529 267.2386 436.529 258.6588 432.9788 252.15" fill="none" stroke="#231f20" stroke-linecap="round" stroke-linejoin="round" stroke-width="1.1095"/>
  </g>
  <g>
    <path d="M224.772,543.6396s-4.2159,2.8846-4.2159,10.2069-1.5532,33.8025-1.5532,33.8025h14.6447l.8876-5.8444,11.5383,5.8444h47.0407v-10.2822l-31.9522-15.5323-2.8846-7.1005-33.5054-11.0945Z" fill="#2c2535"/>
    <path d="M224.772,543.6396s-4.2159,2.8846-4.2159,10.2069-1.5532,33.8025-1.5532,33.8025h14.6447l.8876-5.8444,11.5383,5.8444h47.0407v-10.2822l-31.9522-15.5323-2.8846-7.1005-33.5054-11.0945Z" fill="none" stroke="#191421" stroke-linecap="round" stroke-linejoin="round" stroke-width="1.1095"/>
    <path d="M258.7211,149.3551s-6.2129-3.2402-21.0056,0c-14.7927,3.2402-34.6149,22.7666-38.1651,45.8431-3.5502,23.0766-24.26,45.2656-23.0766,67.1587l13.9051,23.3724,59.4665,13.6093,39.1302-58.9227s7.0865,9.1296,17.082,18.3908c0,0,17.4554-2.9585,30.4729-23.0766,0,0-18.4908-42.8987-36.39-59.1707,0,0-7.6922-12.7217-21.3014-18.9346-13.6093-6.2129-20.118-8.2697-20.118-8.2697Z" fill="#c2cce0"/>
    <path d="M258.7211,149.3551s-6.2129-3.2402-21.0056,0c-14.7927,3.2402-34.6149,22.7666-38.1651,45.8431-3.5502,23.0766-24.26,45.2656-23.0766,67.1587l13.9051,23.3724,59.4665,13.6093,39.1302-58.9227s7.0865,9.1296,17.082,18.3908c0,0,17.4554-2.9585,30.4729-23.0766,0,0-18.4908-42.8987-36.39-59.1707,0,0-7.6922-12.7217-21.3014-18.9346-13.6093-6.2129-20.118-8.2697-20.118-8.2697Z" fill="none" stroke="#191421" stroke-linecap="round" stroke-linejoin="round" stroke-width="1.1095"/>
    <path d="M296.3708,216.3362c.6692-.6131,1.1589-1.4312,1.718-2.1436,.571-.7276,1.155-1.4452,1.7688-2.1372,1.2066-1.3603,2.5211-2.6302,3.9104-3.803,2.8223-2.3826,6.0207-4.244,9.3435-5.8351,.5348-.2561,.1572-1.1721-.4074-.9664-3.5877,1.3071-6.8414,3.3868-9.7362,5.8615-1.4602,1.2483-2.8099,2.6169-4.0478,4.0855-.5844,.6932-1.1479,1.4063-1.6685,2.1488-.5364,.765-1.1416,1.5775-1.4169,2.4776-.0977,.3193,.3095,.5196,.536,.312h0Z" fill="#191421"/>
    <path d="M311.9587,204.7806c-1.3945,1.9475-2.9476,3.8368-4.6422,5.5323-.8278,.8282-1.6914,1.6181-2.5926,2.366-.9292,.7712-1.9862,1.449-2.8402,2.3027-.2959,.2958,.002,.9128,.4343,.7461,1.1367-.4383,2.1575-1.237,3.1046-1.9886,.9835-.7805,1.9198-1.6247,2.7955-2.5245,.8702-.8942,1.7065-1.8381,2.4522-2.8396,.7589-1.0192,1.4003-2.0629,1.9994-3.1788,.2548-.4746-.4064-.8411-.711-.4156h0Z" fill="#191421"/>
    <path d="M219.3557,224.5995c-2.7763,3.8706-5.292,7.8683-7.4276,12.1317-2.0967,4.1858-3.8901,8.5232-5.3513,12.9711-.8388,2.5533-1.5931,5.134-2.0993,7.7748-.108,.5633,.7074,.8045,.8692,.2396,1.2894-4.5,2.5878-8.9678,4.3166-13.3243,1.7328-4.3665,3.8025-8.6023,6.1336-12.6802,1.3105-2.2925,2.6733-4.5782,4.1611-6.7606,.2553-.3744-.3442-.7122-.6025-.3522h0Z" fill="#191421"/>
    <path d="M203.7173,262.3889c-.3575,1.0421-.7161,2.074-1.0255,3.133-.151,.517-.3015,1.0338-.4459,1.5527-.1469,.5277-.3408,1.0737-.3432,1.6271-.0018,.4026,.543,.539,.747,.2023,.2753-.4543,.3927-.9998,.5369-1.5056,.1533-.5378,.3007-1.077,.4472-1.6168,.2889-1.0642,.5215-2.131,.7605-3.206,.0985-.443-.5306-.6135-.677-.1866h0Z" fill="#191421"/>
    <path d="M164.3882,536.6917s-4.7908,1.7727-6.5716,8.8753-9.727,32.41-9.727,32.41l14.2051,3.5614,2.2822-5.4531,9.7706,8.4749,45.6285,11.4398,2.5005-9.9735-27.2156-22.8364-2.1656-15.3421-28.707-11.1563Z" fill="#2c2535"/>
    <path d="M164.3882,536.6917s-4.7908,1.7727-6.5716,8.8753-9.727,32.41-9.727,32.41l14.2051,3.5614,2.2822-5.4531,9.7706,8.4749,45.6285,11.4398,2.5005-9.9735-27.2156-22.8364-2.1656-15.3421-28.707-11.1563Z" fill="none" stroke="#191421" stroke-linecap="round" stroke-linejoin="round" stroke-width="1.1095"/>
    <path d="M283.5728,303.1848c8.2839-20.4139,4.1419-34.6149,12.4258-60.9458,8.2839-26.331,5.9171-52.6619,5.9171-57.9873s-1.7751-7.6922-1.7751-7.6922c-1.7751-7.3963-8.2574-9.9029-8.2574-9.9029,5.3519,21.1617,0,50.4348,0,50.4348-9.145,.2959-21.1336-2.9585-21.1336-2.9585,2.5611-26.9227-2.5563-46.2399-19.9818-53.0668-17.4256-6.8269-31.8116-.8551-31.8116-.8551,0,0-18.0766,11.8141-18.1494,29.1698,0,0,10.5779-22.5845,34.2462-21.697,23.6683,.8876,30.4203,26.331,27.3401,46.449,0,0-14.3226,53.5495-45.3872,68.0463,0,0-21.0056,.8876-32.8397-17.7512,0,0-4.1419-14.4968,2.071-35.2066,0,0-12.7217,19.5263-15.3844,46.1531,0,0-5.0295,4.4378-2.6627,12.7217,0,0-6.2129,64.7919,.8876,128.1045l.5917,5.9171s-4.7337,7.1005-1.4793,13.3134c0,0-12.7217,67.7504-9.1715,106.2114,0,0,14.201,12.7217,38.1651,9.4673l28.9936-101.4777-4.7337,94.6731s41.4195,28.9714,41.4195,5.3254c0-1.4793,21.8932-117.7497,21.8932-117.7497l-4.1419-107.3948s1.7751-6.8046,.8876-13.3134l2.071-7.988Z" fill="#384778"/>
    <path d="M283.5728,303.1848c8.2839-20.4139,4.1419-34.6149,12.4258-60.9458,8.2839-26.331,5.9171-52.6619,5.9171-57.9873s-1.7751-7.6922-1.7751-7.6922c-1.7751-7.3963-8.2574-9.9029-8.2574-9.9029,5.3519,21.1617,0,50.4348,0,50.4348-9.145,.2959-21.1336-2.9585-21.1336-2.9585,2.5611-26.9227-2.5563-46.2399-19.9818-53.0668-17.4256-6.8269-31.8116-.8551-31.8116-.8551,0,0-18.0766,11.8141-18.1494,29.1698,0,0,10.5779-22.5845,34.2462-21.697,23.6683,.8876,30.4203,26.331,27.3401,46.449,0,0-14.3226,53.5495-45.3872,68.0463,0,0-21.0056,.8876-32.8397-17.7512,0,0-4.1419-14.4968,2.071-35.2066,0,0-12.7217,19.5263-15.3844,46.1531,0,0-5.0295,4.4378-2.6627,12.7217,0,0-6.2129,64.7919,.8876,128.1045l.5917,5.9171s-4.7337,7.1005-1.4793,13.3134c0,0-12.7217,67.7504-9.1715,106.2114,0,0,14.201,12.7217,38.1651,9.4673l28.9936-101.4777-4.7337,94.6731s41.4195,28.9714,41.4195,5.3254c0-1.4793,21.8932-117.7497,21.8932-117.7497l-4.1419-107.3948s1.7751-6.8046,.8876-13.3134l2.071-7.988Z" fill="none" stroke="#191421" stroke-linecap="round" stroke-linejoin="round" stroke-width="1.1095"/>
    <polyline points="226.1773 449.6322 241.8575 353.4798 256.4779 340.7581" fill="none" stroke="#191421" stroke-linecap="round" stroke-linejoin="round" stroke-width="1.1095"/>
    <path d="M172.0361,277.1497s37.5734,34.0231,105.9155,32.8397" fill="none" stroke="#191421" stroke-linecap="round" stroke-linejoin="round" stroke-width="1.1095"/>
    <path d="M172.0361,287.5045s31.0646,27.5144,105.9155,30.177" fill="none" stroke="#191421" stroke-linecap="round" stroke-linejoin="round" stroke-width="1.1095"/>
    <path d="M327.9508,327.1489s-62.1292-17.1293-78.1053-42.6029c-8.8991-14.1894-13.0176-36.9817-13.0176-36.9817l38.1651-6.5088,4.4378,22.4849s24.8517,17.1595,53.5495,43.1946l12.13-6.5088,16.4199,.2959v1.9061c0,2.51-1.9398,4.5933-4.4434,4.7721l-4.4607,.3186-2.2812,2.9094,12.6646,4.7385,8.389,.8032c3.128,.2995,5.5161,2.9271,5.5161,6.0694v.9675l-2.6627,.4438s0,5.4733-3.994,6.9526c0,0-.4438,4.5857-8.5797,4.7337,0,0-1.6272,3.4023-12.2779,2.3668s-21.4494-10.3549-21.4494-10.3549Z" fill="#e6a298"/>
    <path d="M277.0419,263.4126c-3.6386,.2649-7.281,1.4519-10.5399,3.057-.4932,.2429-.1485,1.0516,.374,.8872,1.7074-.5374,3.4107-1.1089,5.1226-1.6431,1.7193-.5364,3.4405-1.047,5.1285-1.6711,.3149-.1164,.3014-.6581-.0853-.6299h0Z" fill="#191421"/>
    <path d="M327.9508,327.1489s-62.1292-17.1293-78.1053-42.6029c-8.8991-14.1894-13.0176-36.9817-13.0176-36.9817l38.1651-6.5088,4.4378,22.4849s24.8517,17.1595,53.5495,43.1946l12.13-6.5088,16.4199,.2959v1.9061c0,2.51-1.9398,4.5933-4.4434,4.7721l-4.4607,.3186-2.2812,2.9094,12.6646,4.7385,8.389,.8032c3.128,.2995,5.5161,2.9271,5.5161,6.0694v.9675l-2.6627,.4438s0,5.4733-3.994,6.9526c0,0-.4438,4.5857-8.5797,4.7337,0,0-1.6272,3.4023-12.2779,2.3668s-21.4494-10.3549-21.4494-10.3549Z" fill="none" stroke="#191421" stroke-linecap="round" stroke-linejoin="round" stroke-width="1.1095"/>
    <path d="M227.246,168.2726s-11.4236,8.5827-6.6899,37.8722,14.201,51.4785,14.201,51.4785c0,0,28.1061-1.1834,44.6739-14.4968,0,0-5.5459-54.4506-21.5973-69.5256-16.0514-15.0749-30.5876-5.3283-30.5876-5.3283Z" fill="#c2cce0"/>
    <path d="M220.5561,206.1448c4.7337,29.2895,14.201,51.4785,14.201,51.4785,0,0,28.1061-1.1834,44.6739-14.4968,0,0-5.5459-54.4506-21.5973-69.5256-16.0514-15.0749-30.5876-5.3283-30.5876-5.3283" fill="none" stroke="#191421" stroke-linecap="round" stroke-linejoin="round" stroke-width="1.1095"/>
    <polyline points="374.2519 323.4507 361.974 322.5632 357.3883 321.2318" fill="none" stroke="#191421" stroke-linecap="round" stroke-linejoin="round" stroke-width="1.1095"/>
    <polyline points="370.2579 330.4033 359.3113 329.8116 354.4297 328.3323" fill="none" stroke="#191421" stroke-linecap="round" stroke-linejoin="round" stroke-width="1.1095"/>
    <polyline points="361.6781 335.1369 354.4297 334.5452 350.5836 333.2139" fill="none" stroke="#191421" stroke-linecap="round" stroke-linejoin="round" stroke-width="1.1095"/>
    <path d="M317.0043,120.4913s11.2424,4.5897,15.2365-10.9426c3.994-15.5323-8.7277-23.9641-16.4199-24.1121,0,0-6.2129-13.9051-23.3724-11.2424,0,0-15.7028-8.7277-23.2358,3.1065,0,0-10.7874,3.8461-15.9648,17.6033-5.1774,13.7572-2.6488,33.7964,11.3904,40.8278,14.0391,7.0313,52.3661-15.2404,52.3661-15.2404Z" fill="#2c2535"/>
    <path d="M317.0043,120.4913s11.2424,4.5897,15.2365-10.9426c3.994-15.5323-8.7277-23.9641-16.4199-24.1121,0,0-6.2129-13.9051-23.3724-11.2424,0,0-15.7028-8.7277-23.2358,3.1065,0,0-10.7874,3.8461-15.9648,17.6033-5.1774,13.7572-2.6488,33.7964,11.3904,40.8278,14.0391,7.0313,52.3661-15.2404,52.3661-15.2404Z" fill="none" stroke="#191421" stroke-linecap="round" stroke-linejoin="round" stroke-width="1.1095"/>
    <path d="M289.6378,155.1101l-5.3254,7.8401s.2959,8.8756-9.9111,8.2839c-10.2069-.5917-5.1774-12.8696-24.5558-20.5618l15.2365-23.2245,24.5558,27.6623Z" fill="#e6a298"/>
    <path d="M289.6378,155.1101l-5.3254,7.8401s.2959,8.8756-9.9111,8.2839c-10.2069-.5917-5.1774-12.8696-24.5558-20.5618l15.2365-23.2245,24.5558,27.6623Z" fill="none" stroke="#191421" stroke-linecap="round" stroke-linejoin="round" stroke-width="1.1095"/>
    <path d="M270.8511,135.7317c-14.3489-6.8046-7.988-24.9996,1.0355-23.9641,9.0235,1.0355,6.8046,10.9466,6.8046,10.9466l4.7337,1.4793c6.6567-5.9171,6.2129-18.4908,6.2129-18.4908,0,0,7.5443,7.2484,16.8636,5.9171s13.1655,7.8401,13.1655,7.8401c0,0-2.2189,4.5857-6.3608,11.0945l-.1479,17.3074h-5.3254s-7.5443,11.2424-12.13,13.0176c-4.5857,1.7751-18.6414-9.4638-23.2245-18.195l-1.6272-6.9526Z" fill="#e6a298"/>
    <path d="M272.4783,142.6843l-1.6272-6.9526c-14.3489-6.8046-7.988-24.9996,1.0355-23.9641,9.0235,1.0355,6.8046,10.9466,6.8046,10.9466l4.7337,1.4793c6.6567-5.9171,6.2129-18.4908,6.2129-18.4908,0,0,7.5443,7.2484,16.8636,5.9171s13.1655,7.8401,13.1655,7.8401c0,0-2.2189,4.5857-6.3608,11.0945l-.1479,17.3074h-5.3254s-7.5443,11.2424-12.13,13.0176c-1.7196,.6657-4.771-.4988-8.1551-2.6747-.847-.5446-1.7148-1.1526-2.5879-1.8111" fill="none" stroke="#191421" stroke-linecap="round" stroke-linejoin="round" stroke-width="1.1095"/>
    <path d="M266.9365,117.9153c1.0413-1.1701,2.8517-1.1688,4.1573-.4484,1.4257,.7866,2.196,2.4025,2.5705,3.9198,.4264,1.7274,.4857,3.5746,.2375,5.3352-.2605,1.8475-.9752,3.5414-1.4501,5.3248-.1193,.4479,.4687,.8262,.8004,.4659,1.5097-1.6396,2.0684-4.0541,2.244-6.2211,.1696-2.0924-.1037-4.2956-.9078-6.2412-.6926-1.6758-1.8861-3.2791-3.6948-3.8247-1.621-.489-3.4183-.0695-4.4573,1.3038-.2177,.2878,.2613,.6545,.5003,.386h0Z" fill="#191421"/>
    <path d="M271.7683,121.1304c-.7727,.5642-1.3878,1.3586-1.9402,2.1314-.546,.7638-1.0711,1.5989-1.1686,2.5537-.0851,.8326,.2747,1.6313,.9112,2.1638,.2903,.2428,.6111,.4437,.9526,.6061,.1956,.093,.3977,.1782,.6057,.2399,.1112,.033,.2181,.0546,.3357,.0522,.0394-.0008,.3254-.0087,.17-.0317,.4289,.0634,.7286-.4819,.3106-.7367,.0956,.0583-.0409-.0477-.0806-.0901-.0607-.0649-.138-.1344-.2122-.1799-.1251-.0768-.272-.1322-.4044-.196-.2819-.1358-.5695-.2699-.8207-.4594-.4935-.3723-.7407-.8932-.6067-1.513,.1599-.7395,.6275-1.4053,1.0354-2.0288,.4481-.6849,.9774-1.3268,1.3926-2.0312,.1677-.2844-.1859-.6952-.4803-.4803h0Z" fill="#191421"/>
    <path d="M290.0386,141.5584c.8836,1.6254,2.2089,2.9046,3.7296,3.9433,1.4641,1,3.2518,1.939,5.0426,2.0673,.4301,.0308,.6432-.6673,.2286-.8439-.7839-.334-1.6006-.585-2.3849-.9219-.7907-.3397-1.5492-.7557-2.2676-1.229-1.4295-.9419-2.6786-2.1577-3.8378-3.4096-.2567-.2772-.6832,.0762-.5105,.3939h0Z" fill="#191421"/>
    <ellipse cx="304.8179" cy="131.3638" rx="4.2159" ry="2.8256" transform="translate(38.6446 329.662) rotate(-60)" fill="#2c2535"/>
    <path d="M298.0349,121.6766c.6084,.2114,1.1752,.1996,1.8105,.1906,.6415-.0091,1.2675-.0275,1.9103-.0094,1.2134,.0342,2.4225,.2099,3.6015,.4996,1.0157,.2495,1.8366,.59,2.7296,1.1336,.9143,.5565,1.8671,1.3845,2.9818,1.4066,.3789,.0075,.8435-.2961,.911-.6936,.2524-1.4862-.9278-2.6704-2.0688-3.4406-1.0644-.7184-2.3533-1.2022-3.6015-1.4843-1.4419-.326-2.987-.3676-4.4441-.1164-.7407,.1277-1.4857,.2642-2.2009,.489-.7257,.2281-1.3546,.4677-1.8954,1.0181-.333,.3389-.1571,.8599,.2658,1.0068h0Z" fill="#191421"/>
  </g>
</svg>