<svg width="28" height="26" viewBox="0 0 28 26" fill="none" xmlns="http://www.w3.org/2000/svg">
<path fill-rule="evenodd" clip-rule="evenodd" d="M17.6274 22.9054H10.5803C10.412 22.9054 10.2757 22.7691 10.2757 22.6008C10.2757 22.4325 10.412 22.2962 10.5803 22.2962L17.6274 22.2961C17.7957 22.2961 17.9321 22.4326 17.9321 22.6008C17.9321 22.769 17.7957 22.9055 17.6274 22.9054ZM3.59971 22.9705C2.83564 22.9705 2.17443 22.8652 1.67004 22.3851C1.07605 21.8197 0.799356 20.7956 0.799408 19.1621V16.1568C0.799408 15.8391 0.888535 15.5588 1.07204 15.2995L3.21234 12.2743C3.39671 12.0136 3.63277 11.8358 3.93395 11.7304C6.04087 10.9937 9.50847 10.3349 12.9223 10.6948C16.6929 11.0924 19.3367 12.6361 20.5806 15.1635L24.6823 15.8971C24.6966 15.8996 24.7087 15.9014 24.723 15.9032C27.2508 16.2328 27.3741 19.1589 27.3799 19.4914C27.3799 19.5144 27.3815 19.5341 27.3836 19.557C27.5253 21.0847 27.026 21.9106 26.5822 22.3344C26.0861 22.8082 25.5445 22.8982 25.5217 22.9018C25.5058 22.9041 25.49 22.9055 25.4741 22.9055L23.0278 22.9054C22.8596 22.9054 22.7231 22.7691 22.7231 22.6008C22.7231 22.4325 22.8596 22.2962 23.0278 22.2962L25.4456 22.2961C25.6307 22.2562 26.9874 21.8842 26.7769 19.6135C26.7732 19.5745 26.7711 19.5402 26.7705 19.502C26.7626 19.0472 26.6235 16.7655 24.6447 16.5075C24.6204 16.5043 24.5992 16.5013 24.5749 16.4969L20.3196 15.7357C20.2218 15.7182 20.1387 15.6543 20.0969 15.5642C18.6839 12.5222 15.3807 11.5668 12.8584 11.3008C9.54471 10.9515 6.17958 11.5908 4.13507 12.3056C3.95269 12.3694 3.82146 12.4683 3.70969 12.6263L1.56942 15.6513C1.45829 15.8084 1.40871 15.9644 1.40871 16.1569V19.162C1.40871 20.5973 1.63161 21.5073 2.09015 21.9438C2.59502 22.4243 3.4237 22.3835 4.47275 22.3316C4.67889 22.3214 4.89141 22.311 5.11086 22.304C5.13145 22.2992 5.1528 22.2966 5.17476 22.2962C5.34212 22.2957 5.48175 22.4273 5.48467 22.5956L5.48479 22.6015C5.48768 22.7684 5.35561 22.9067 5.18866 22.9114C4.95415 22.9179 4.72469 22.9292 4.50279 22.9402C4.18915 22.9556 3.88714 22.9706 3.59971 22.9705Z" fill="black"/>
<path fill-rule="evenodd" clip-rule="evenodd" d="M2.59796 19.592H1.1049C0.936628 19.592 0.800211 19.4558 0.800211 19.2875C0.800229 19.1191 0.936628 18.9828 1.10488 18.9828L2.29329 18.9828V17.0093H1.10408C0.935825 17.0093 0.799408 16.8729 0.799408 16.7047C0.799408 16.5364 0.935825 16.4 1.10408 16.4L2.59796 16.3999C2.76623 16.3999 2.90261 16.5364 2.90261 16.7047L2.90263 19.2875C2.90263 19.4556 2.76623 19.5921 2.59796 19.592Z" fill="black"/>
<path fill-rule="evenodd" clip-rule="evenodd" d="M27.0774 19.8593C27.0435 19.8593 27.0086 19.8537 26.9747 19.8415C25.8798 19.4491 25.1954 18.8996 24.9404 18.2082C24.7283 17.6336 24.823 16.969 25.2144 16.286C25.298 16.1399 25.4842 16.0894 25.6302 16.173C25.7762 16.2566 25.8269 16.4428 25.7434 16.5888C25.4403 17.1178 25.3625 17.5916 25.5122 17.9973C25.7016 18.5116 26.2628 18.9392 27.1805 19.2678C27.3386 19.3246 27.4211 19.499 27.3646 19.6575C27.3196 19.7818 27.2027 19.8594 27.0774 19.8593Z" fill="black"/>
<path fill-rule="evenodd" clip-rule="evenodd" d="M13.8458 16.5519H18.8012L18.6537 16.2345C17.8898 14.5897 16.2731 13.5199 13.8458 13.0511L13.8458 16.5519ZM19.2786 17.1611H13.5411C13.3728 17.1611 13.2364 17.0248 13.2364 16.8566L13.2365 12.6872C13.2365 12.5979 13.2757 12.513 13.3439 12.4551C13.4121 12.3972 13.5021 12.3722 13.5904 12.3867C16.3863 12.8455 18.3282 14.0874 19.2063 15.9779L19.5549 16.7281C19.5987 16.8225 19.5914 16.9328 19.5354 17.0205C19.4795 17.1082 19.3826 17.1612 19.2786 17.1611Z" fill="black"/>
<path fill-rule="evenodd" clip-rule="evenodd" d="M7.88023 20.2053C6.55935 20.2053 5.48475 21.28 5.48475 22.6008C5.48477 23.9217 6.55935 24.9963 7.88021 24.9963C9.20107 24.9962 10.2757 23.9217 10.2757 22.6008C10.2757 21.2798 9.20107 20.2054 7.88023 20.2053ZM7.88023 25.6055C6.22339 25.6055 4.87541 24.2577 4.87541 22.6008C4.87543 20.9439 6.22336 19.596 7.88021 19.596C9.53706 19.596 10.8849 20.944 10.8849 22.6008C10.885 24.2576 9.53704 25.6056 7.88023 25.6055Z" fill="black"/>
<path fill-rule="evenodd" clip-rule="evenodd" d="M20.3276 20.2053C19.0068 20.2053 17.9321 21.28 17.9321 22.6008C17.9321 23.9217 19.0067 24.9963 20.3276 24.9963C21.6485 24.9962 22.7231 23.9217 22.7231 22.6008C22.7232 21.2798 21.6484 20.2054 20.3276 20.2053ZM20.3276 25.6055C18.6708 25.6055 17.3228 24.2577 17.3228 22.6008C17.3229 20.9439 18.6708 19.596 20.3276 19.596C21.9842 19.596 23.3325 20.944 23.3325 22.6008C23.3325 24.2576 21.9842 25.6056 20.3276 25.6055Z" fill="black"/>
<path fill-rule="evenodd" clip-rule="evenodd" d="M20.3276 21.8775C19.9288 21.8775 19.6043 22.202 19.6043 22.6008C19.6043 22.9996 19.9288 23.324 20.3276 23.324C20.7263 23.324 21.0508 22.9996 21.0508 22.6008C21.0508 22.2019 20.7263 21.8776 20.3276 21.8775ZM20.3276 23.9333C19.5928 23.9333 18.9951 23.3356 18.9951 22.6008C18.9951 21.866 19.5928 21.2683 20.3276 21.2683C21.0623 21.2683 21.6601 21.8661 21.6601 22.6008C21.6601 23.3355 21.0623 23.9333 20.3276 23.9333Z" fill="black"/>
<path fill-rule="evenodd" clip-rule="evenodd" d="M7.88021 21.8775C7.48144 21.8775 7.15698 22.202 7.15698 22.6008C7.15698 22.9996 7.48143 23.324 7.88019 23.324C8.279 23.324 8.60336 22.9996 8.60336 22.6008C8.6034 22.2019 8.27897 21.8776 7.88021 21.8775ZM7.88021 23.9333C7.1454 23.9333 6.54764 23.3356 6.54764 22.6008C6.54764 21.866 7.14538 21.2683 7.88019 21.2683C8.61497 21.2683 9.2127 21.8661 9.2127 22.6008C9.21274 23.3355 8.61496 23.9333 7.88021 23.9333Z" fill="black"/>
<path fill-rule="evenodd" clip-rule="evenodd" d="M4.15711 16.5519H11.847V12.9453C9.26115 12.5361 7.8274 13.0342 5.90776 13.7296L4.15711 16.3792V16.5519ZM12.1516 17.1611H3.85248C3.68419 17.1611 3.54778 17.0248 3.54778 16.8566L3.54781 16.2876C3.54781 16.2279 3.56533 16.1695 3.59823 16.1197L5.45498 13.3094C5.49105 13.2548 5.54378 13.2134 5.60537 13.1911C7.72377 12.4233 9.2544 11.8687 12.2044 12.3872C12.3501 12.4128 12.4563 12.5394 12.4563 12.6873V16.8566C12.4563 17.0248 12.3199 17.1612 12.1516 17.1611Z" fill="black"/>
<path fill-rule="evenodd" clip-rule="evenodd" d="M8.00201 17.1611C7.83377 17.1611 7.69739 17.0249 7.69739 16.8566L7.6974 12.7401C7.6974 12.5718 7.83375 12.4355 8.00201 12.4355C8.17027 12.4354 8.30667 12.5719 8.30667 12.7401V16.8566C8.30667 17.0248 8.17026 17.1612 8.00201 17.1611Z" fill="black"/>
<path fill-rule="evenodd" clip-rule="evenodd" d="M20.9225 11.0222C20.7542 11.0222 20.6179 10.8859 20.6179 10.7176V0.344861C20.6179 0.176575 20.7542 0.0402947 20.9225 0.0402947C21.0908 0.0401921 21.2272 0.17666 21.2272 0.344946V10.7175C21.2272 10.8859 21.0907 11.0223 20.9225 11.0222Z" fill="black"/>
<path fill-rule="evenodd" clip-rule="evenodd" d="M19.2659 10.0841C19.1805 10.0841 19.0955 10.0484 19.0353 9.97874C18.9253 9.85135 18.9393 9.659 19.0666 9.54896L20.7233 8.11724C20.8378 8.01845 21.0073 8.01849 21.1217 8.11734L22.7787 9.54894C22.9056 9.65891 22.9199 9.85142 22.8099 9.97874C22.6999 10.106 22.5073 10.1201 22.3798 10.01L20.9225 8.75049L19.465 10.01C19.4074 10.0597 19.3365 10.0842 19.2659 10.0841Z" fill="black"/>
<path fill-rule="evenodd" clip-rule="evenodd" d="M20.9225 3.01926C20.8515 3.01926 20.7805 2.99463 20.7233 2.9452L19.0666 1.51353C18.9393 1.40346 18.9252 1.21117 19.0353 1.08383C19.1453 0.956461 19.3377 0.942544 19.465 1.05251L20.9225 2.312L22.3799 1.0525C22.5073 0.942531 22.6998 0.956585 22.8099 1.08384C22.9199 1.21114 22.9056 1.40357 22.7787 1.51357L21.1217 2.94512C21.0646 2.99451 20.9936 3.01932 20.9225 3.01926Z" fill="black"/>
<path fill-rule="evenodd" clip-rule="evenodd" d="M16.5025 8.54875C16.4001 8.54875 16.3001 8.49708 16.2426 8.4034C16.1546 8.26001 16.1995 8.07239 16.3429 7.98439L25.1838 2.55879C25.3271 2.47074 25.5143 2.5157 25.6027 2.65914C25.6905 2.80252 25.6455 2.99014 25.5022 3.07816L16.6616 8.50363C16.6119 8.53422 16.5569 8.54876 16.5025 8.54875Z" fill="black"/>
<path fill-rule="evenodd" clip-rule="evenodd" d="M18.1688 9.47012C18.1524 9.47012 18.1358 9.46879 18.1192 9.46605C17.9531 9.43882 17.8405 9.28224 17.8677 9.11622L18.1788 7.21509L16.3429 6.63158C16.1825 6.58064 16.0939 6.40937 16.1449 6.24903C16.1958 6.08866 16.3672 5.99996 16.5274 6.05096L18.6143 6.71417C18.7584 6.75987 18.8471 6.90451 18.8227 7.05372L18.4691 9.21449C18.4446 9.36395 18.3154 9.47012 18.1688 9.47012Z" fill="black"/>
<path fill-rule="evenodd" clip-rule="evenodd" d="M25.4101 5.02591C25.3795 5.02591 25.3482 5.0214 25.3176 5.0116L23.2309 4.34837C23.0865 4.30255 22.9982 4.15807 23.0225 4.00886L23.3758 1.84796C23.4033 1.68181 23.5599 1.56948 23.726 1.59648C23.8921 1.62361 24.0047 1.78029 23.9772 1.94637L23.6662 3.84735L25.5022 4.43085C25.6625 4.48178 25.7513 4.65318 25.7 4.81353C25.6593 4.9432 25.5392 5.026 25.4101 5.02591Z" fill="black"/>
<path fill-rule="evenodd" clip-rule="evenodd" d="M25.5466 8.18435C25.5 8.18435 25.453 8.17382 25.4085 8.15139L16.1604 3.45439C16.0104 3.37823 15.9505 3.19488 16.0267 3.04485C16.1029 2.89479 16.2863 2.835 16.4363 2.91117L25.6846 7.60799C25.8348 7.68428 25.8946 7.86768 25.8184 8.01774C25.7645 8.12344 25.6577 8.18446 25.5466 8.18435Z" fill="black"/>
<path fill-rule="evenodd" clip-rule="evenodd" d="M16.3847 5.38948C16.2647 5.38948 16.1508 5.31811 16.1026 5.20009C16.0389 5.04434 16.1135 4.8665 16.2693 4.80279L18.0522 4.07343L17.5892 2.20353C17.5488 2.04026 17.6484 1.87508 17.8118 1.83466C17.9752 1.79438 18.1403 1.89387 18.1807 2.05718L18.707 4.18258C18.7433 4.3293 18.6665 4.48061 18.5265 4.53787L16.4999 5.36673C16.4622 5.38221 16.4231 5.38953 16.3847 5.38948Z" fill="black"/>
<path fill-rule="evenodd" clip-rule="evenodd" d="M23.9598 9.23688C23.8233 9.23688 23.6985 9.14411 23.6641 9.00537L23.1383 6.87987C23.1018 6.73301 23.1785 6.58194 23.3187 6.52466L25.3451 5.69571C25.5011 5.63215 25.6788 5.70671 25.7423 5.86241C25.8063 6.01811 25.7317 6.19607 25.5757 6.25981L23.7926 6.989L24.256 8.85891C24.2962 9.02219 24.1967 9.18743 24.0333 9.2279C24.0084 9.23392 23.9841 9.23688 23.9598 9.23688Z" fill="black"/>
<path fill-rule="evenodd" clip-rule="evenodd" d="M7.19148 7.16987L7.2097 7.18868L8.76312 8.74213C8.92515 8.9041 9.1887 8.90421 9.35066 8.74218C9.51265 8.58015 9.51264 8.3166 9.35066 8.15464L9.02303 7.82692C8.93589 7.7398 8.9098 7.60883 8.95697 7.495C9.00412 7.38112 9.11523 7.30692 9.23842 7.30692L11.9085 7.30685C11.9219 7.30507 11.9356 7.30412 11.9496 7.30412C12.3309 7.30412 12.6882 7.15676 12.9558 6.88927C13.2251 6.61993 13.3734 6.26263 13.3734 5.88317L13.3734 2.07334C13.3734 1.69382 13.225 1.33653 12.9558 1.06723C12.6864 0.797767 12.3291 0.64957 11.9496 0.64957L4.38951 0.649485C4.01006 0.649485 3.65274 0.797904 3.38335 1.06723C3.11408 1.33643 2.96571 1.69385 2.96571 2.07336V3.87779C2.96571 4.10688 3.15215 4.29334 3.3813 4.29334C3.61045 4.29325 3.79683 4.10693 3.79683 3.87779V2.07334C3.79683 1.91565 3.85867 1.76701 3.97094 1.65474C4.08315 1.54243 4.23183 1.48066 4.38951 1.48066L11.9496 1.48055C12.1072 1.48055 12.2559 1.54244 12.3681 1.65469C12.4805 1.767 12.5423 1.91567 12.5423 2.07336V5.88311C12.5423 6.0407 12.4805 6.18939 12.3683 6.30167C12.2541 6.41582 12.1054 6.47872 11.9496 6.47872C11.9355 6.47865 11.9216 6.4777 11.908 6.47585L9.23847 6.4758C9.11525 6.4758 9.00416 6.40163 8.95704 6.28782C8.90987 6.17399 8.93592 6.04292 9.02303 5.95579L9.35061 5.62808C9.51259 5.4661 9.51264 5.20259 9.35061 5.04058C9.1887 4.87867 8.92508 4.8786 8.76313 5.04058L7.16707 6.64253C7.16266 6.64836 7.15895 6.65358 7.15548 6.65881L7.15088 6.66573C7.15028 6.66657 7.15143 6.66495 7.15088 6.66573L7.13469 6.69286C7.13428 6.6937 7.13517 6.69201 7.13469 6.69286L7.10694 6.75571C7.09438 6.79165 7.08677 6.83104 7.08485 6.87108L7.08436 6.88519L7.08477 6.90889C7.08484 6.90971 7.08497 6.91454 7.08502 6.91538C7.08677 6.95171 7.09438 6.99098 7.10744 7.02848L7.14443 7.1068C7.14432 7.10658 7.14457 7.10704 7.14443 7.1068L7.14883 7.11381C7.14825 7.1128 7.14944 7.11477 7.14883 7.11381L7.15495 7.12321C7.15876 7.1288 7.16256 7.13415 7.16642 7.1394L7.19148 7.16987ZM9.05688 9.47262C8.79444 9.47274 8.53209 9.37284 8.33226 9.17308L6.78066 7.6214C6.77406 7.61497 6.76575 7.6066 6.75754 7.598L6.74222 7.58141C6.74101 7.58022 6.73983 7.5789 6.73867 7.57758L6.72557 7.56261C6.72427 7.56117 6.72301 7.55985 6.72179 7.55838L6.71018 7.54452C6.70876 7.54286 6.70724 7.54113 6.70582 7.53939L6.69794 7.5294C6.69758 7.52893 6.69428 7.52494 6.69391 7.52446L6.68278 7.51C6.68238 7.5094 6.67963 7.5059 6.67927 7.50538C6.66829 7.49059 6.65928 7.47798 6.6506 7.46512C6.64564 7.45777 6.64113 7.45105 6.63679 7.44428C6.63607 7.44312 6.63745 7.44544 6.63679 7.44428C6.63313 7.4385 6.62737 7.4293 6.62383 7.42356C6.62328 7.42253 6.62441 7.42458 6.62383 7.42356C6.61993 7.41694 6.61425 7.40747 6.61051 7.40085C6.60712 7.39504 6.60336 7.38822 6.59967 7.38145L6.58792 7.35932C6.58738 7.35826 6.58522 7.35404 6.58469 7.35295L6.57867 7.34077C6.57792 7.33922 6.57512 7.33347 6.57436 7.33193L6.56879 7.31995C6.56794 7.31803 6.56708 7.31632 6.56629 7.31453L6.55882 7.29757C6.55805 7.29579 6.55723 7.29401 6.5565 7.2922L6.55239 7.28222C6.55159 7.28032 6.54894 7.27391 6.54814 7.27196L6.54318 7.25925C6.54291 7.25854 6.54121 7.25418 6.54094 7.25344C6.54026 7.25163 6.53957 7.24995 6.53899 7.24821L6.53398 7.23426C6.49975 7.13655 6.48091 7.03937 6.47621 6.94072C6.47618 6.93947 6.47599 6.9347 6.47594 6.93354L6.4753 6.91542C6.4751 6.90733 6.47503 6.89941 6.47503 6.89138C6.47503 6.88329 6.47513 6.87529 6.4753 6.86732L6.47597 6.84877C6.47599 6.84771 6.47614 6.8431 6.47621 6.84193C6.48093 6.74322 6.49975 6.64616 6.53222 6.5533L6.53901 6.53446C6.53957 6.5328 6.54026 6.53108 6.54094 6.52932C6.54121 6.52853 6.54291 6.52419 6.54316 6.5235L6.54814 6.51078C6.54896 6.50876 6.54968 6.5069 6.55051 6.5049L6.55651 6.49054C6.55718 6.48876 6.55792 6.48715 6.55865 6.48543L6.56643 6.46782C6.56725 6.46616 6.56799 6.46447 6.56876 6.46284L6.57377 6.45224C6.57406 6.45152 6.57638 6.44667 6.57669 6.44602L6.5845 6.43022C6.58514 6.4289 6.58738 6.42455 6.58802 6.42326L6.59786 6.40451C6.59907 6.40225 6.60035 6.39999 6.60167 6.39772C6.60316 6.39488 6.607 6.38799 6.61097 6.381C6.61517 6.3738 6.61923 6.36695 6.6234 6.35995C6.62728 6.35356 6.63087 6.34783 6.63451 6.34212C6.63391 6.34306 6.63516 6.34108 6.63451 6.34212C6.63884 6.33521 6.64515 6.32567 6.64969 6.31897C6.65901 6.30502 6.66816 6.29232 6.67756 6.2796C6.6779 6.27919 6.68054 6.27565 6.68084 6.27529L6.69307 6.25932C6.69334 6.25896 6.69657 6.25501 6.69681 6.25463L6.70584 6.24337C6.70726 6.24157 6.70873 6.23988 6.71015 6.23815L6.72181 6.22432C6.72302 6.2229 6.72427 6.22148 6.72555 6.22006L6.73868 6.20516C6.73983 6.20386 6.74099 6.20261 6.74221 6.20128L6.78305 6.15887L8.33228 4.6097C8.73182 4.21018 9.38192 4.21018 9.78149 4.60972C10.1219 4.95007 10.1723 5.47229 9.93282 5.86657L11.933 5.86646V2.08989H4.40617V3.87779C4.40617 4.44285 3.94642 4.90262 3.38131 4.90262C2.81619 4.90259 2.35641 4.44292 2.35641 3.87779L2.35643 2.07334C2.35643 1.531 2.56811 1.02078 2.95254 0.636352C3.33696 0.251875 3.84729 0.0402465 4.38952 0.0402465L11.9496 0.040144C12.4919 0.040144 13.0022 0.251942 13.3866 0.636349C13.771 1.02067 13.9828 1.53105 13.9828 2.07335V5.88311C13.9828 6.42534 13.771 6.93576 13.3866 7.32013C13.0144 7.69219 12.5215 7.9018 11.994 7.91297C11.9796 7.91511 11.9648 7.91625 11.9496 7.91625L9.93315 7.91618C10.0299 8.07493 10.0817 8.25773 10.0817 8.44841C10.0817 8.72214 9.97509 8.97951 9.7815 9.17307C9.58179 9.37276 9.31928 9.4727 9.05688 9.47262Z" fill="black"/>
</svg>
