<svg width="24" height="24" viewBox="0 0 24 24" fill="none" xmlns="http://www.w3.org/2000/svg">
<g clip-path="url(#clip0_1_54)">
<path d="M12.7655 13.9423C13.5302 13.9423 14.1501 13.3224 14.1501 12.5577C14.1501 11.7931 13.5302 11.1732 12.7655 11.1732C12.0008 11.1732 11.3809 11.7931 11.3809 12.5577C11.3809 13.3224 12.0008 13.9423 12.7655 13.9423Z" stroke="black" stroke-width="0.627423" stroke-miterlimit="10"/>
<path d="M12.7347 18.9366C16.2747 18.9366 19.1445 16.0669 19.1445 12.5268C19.1445 8.98681 16.2747 6.11705 12.7347 6.11705C9.19465 6.11705 6.32489 8.98681 6.32489 12.5268C6.32489 16.0669 9.19465 18.9366 12.7347 18.9366Z" stroke="black" stroke-width="0.627423" stroke-miterlimit="10"/>
<path d="M12.7655 9.42471V8.03909" stroke="black" stroke-width="0.627423" stroke-miterlimit="10"/>
<path d="M12.7655 17.0763V15.6907" stroke="black" stroke-width="0.627423" stroke-miterlimit="10"/>
<path d="M15.8985 12.5577L17.2841 12.5577" stroke="black" stroke-width="0.627423" stroke-miterlimit="10"/>
<path d="M8.24685 12.558H9.63248" stroke="black" stroke-width="0.627423" stroke-miterlimit="10"/>
<path d="M10.5831 2.35956C11.2773 2.21341 11.997 2.13652 12.7347 2.13652C18.4731 2.13652 23.125 6.78845 23.125 12.5268C23.125 18.2652 18.4731 22.9172 12.7347 22.9172C6.99627 22.9172 2.34434 18.2653 2.34434 12.5268C2.34434 11.7504 2.4295 10.9938 2.59101 10.2659" stroke="black" stroke-width="0.627423" stroke-miterlimit="10"/>
<path d="M10.8544 3.60405L10.236 0.767891C10.1771 0.767937 10.1178 0.767937 10.0582 0.767983C5.04582 0.770005 0.982602 4.8324 0.978741 9.8448C0.978741 9.86888 0.978695 9.89287 0.978695 9.91687L3.83654 10.5356C4.61232 7.0666 7.36983 4.33749 10.8544 3.60405Z" stroke="black" stroke-width="0.627423" stroke-miterlimit="10"/>
</g>
<defs>
<clipPath id="clip0_1_54">
<rect width="23.5283" height="23.5283" fill="white" transform="translate(0.287445 0.0782471)"/>
</clipPath>
</defs>
</svg>
