<svg width="26" height="25" viewBox="0 0 26 25" fill="none" xmlns="http://www.w3.org/2000/svg">
<path fill-rule="evenodd" clip-rule="evenodd" d="M4.24253 4.37585C4.12475 4.37585 4.02924 4.28096 4.02924 4.16323L4.02929 2.76199C4.02929 2.64433 4.12475 2.54881 4.24253 2.54881C4.36025 2.54881 4.45577 2.64433 4.45577 2.76205V4.16318C4.45577 4.2809 4.36025 4.37591 4.24253 4.37585ZM5.47344 4.37642C5.3556 4.37642 5.26014 4.28096 5.26014 4.16323V2.76199C5.26014 2.64433 5.3556 2.54881 5.47344 2.54881C5.59116 2.54881 5.68667 2.64433 5.68667 2.76205V4.16318C5.68667 4.2809 5.59116 4.37647 5.47344 4.37642Z" fill="black"/>
<path fill-rule="evenodd" clip-rule="evenodd" d="M3.96816 5.39162H5.7477C5.71298 4.98348 5.57928 4.61691 5.37305 4.37036L4.34281 4.3703C4.13676 4.61691 4.00294 4.98348 3.96816 5.39162ZM5.96997 5.81815H3.74595C3.62823 5.81815 3.53271 5.72264 3.53271 5.60491C3.53277 4.96565 3.74326 4.36867 4.09587 4.00771C4.13603 3.9666 4.19099 3.94383 4.24837 3.94383H5.46755C5.52498 3.94383 5.57995 3.9666 5.62011 4.00771C5.97277 4.36867 6.18326 4.9657 6.1832 5.60491C6.1832 5.72264 6.08775 5.81815 5.96997 5.81815Z" fill="black"/>
<path fill-rule="evenodd" clip-rule="evenodd" d="M12.3248 4.37585C12.2069 4.37585 12.1115 4.28096 12.1115 4.16323V2.76199C12.1115 2.64433 12.2069 2.54881 12.3248 2.54881C12.4425 2.54881 12.538 2.64433 12.538 2.76205V4.16318C12.538 4.2809 12.4425 4.37591 12.3248 4.37585ZM13.5556 4.37642C13.4379 4.37642 13.3424 4.28096 13.3424 4.16323V2.76199C13.3424 2.64433 13.4378 2.54881 13.5556 2.54881C13.6735 2.54881 13.7689 2.64433 13.7689 2.76205L13.7689 4.16318C13.7689 4.2809 13.6734 4.37647 13.5556 4.37642Z" fill="black"/>
<path fill-rule="evenodd" clip-rule="evenodd" d="M12.0505 5.39162H13.8299C13.7952 4.98348 13.6615 4.61691 13.4553 4.37036L12.4251 4.3703C12.2189 4.61691 12.0852 4.98348 12.0505 5.39162ZM14.0522 5.81815H11.8282C11.7104 5.81815 11.6149 5.72264 11.6149 5.60491C11.6149 4.96565 11.8254 4.36867 12.1781 4.00771C12.2183 3.9666 12.2732 3.94383 12.3306 3.94383H13.5498C13.6072 3.94383 13.6621 3.9666 13.7023 4.00771C14.055 4.36867 14.2654 4.9657 14.2654 5.60491C14.2654 5.72264 14.17 5.81815 14.0522 5.81815Z" fill="black"/>
<path fill-rule="evenodd" clip-rule="evenodd" d="M20.4069 4.37585C20.2892 4.37585 20.1937 4.28096 20.1937 4.16323L20.1938 2.76199C20.1938 2.64433 20.2892 2.54881 20.4069 2.54881C20.5248 2.54881 20.6202 2.64433 20.6202 2.76205V4.16318C20.6202 4.2809 20.5248 4.37591 20.4069 4.37585ZM21.6379 4.37642C21.5201 4.37642 21.4247 4.28096 21.4247 4.16323V2.76199C21.4247 2.64433 21.5201 2.54881 21.6379 2.54881C21.7557 2.54881 21.8511 2.64433 21.8511 2.76205V4.16318C21.8511 4.2809 21.7556 4.37647 21.6379 4.37642Z" fill="black"/>
<path fill-rule="evenodd" clip-rule="evenodd" d="M20.1327 5.39162H21.9122C21.8775 4.98348 21.7437 4.61691 21.5376 4.37036L20.5073 4.3703C20.3012 4.61691 20.1674 4.98348 20.1327 5.39162ZM22.1345 5.81815H19.9104C19.7926 5.81815 19.6972 5.72264 19.6972 5.60491C19.6972 4.96565 19.9077 4.36867 20.2603 4.00771C20.3004 3.9666 20.3554 3.94383 20.4128 3.94383H21.6321C21.6895 3.94383 21.7444 3.9666 21.7845 4.00771C22.1372 4.36867 22.3477 4.9657 22.3477 5.60491C22.3477 5.72264 22.2522 5.81815 22.1345 5.81815Z" fill="black"/>
<path fill-rule="evenodd" clip-rule="evenodd" d="M4.85794 7.437C4.74022 7.437 4.64476 7.34149 4.64476 7.22377V6.59785C4.64476 6.48013 4.74022 6.38461 4.85794 6.38461C4.97572 6.38456 5.07118 6.48013 5.07118 6.59785L5.07123 7.22371C5.07123 7.34149 4.97572 7.437 4.85794 7.437Z" fill="black"/>
<path fill-rule="evenodd" clip-rule="evenodd" d="M4.85794 8.76926C4.74022 8.76926 4.64476 8.67381 4.64476 8.55608V7.93017C4.64476 7.81244 4.74022 7.71693 4.85794 7.71693C4.97572 7.71693 5.07118 7.81244 5.07118 7.93017L5.07123 8.55608C5.07123 8.67375 4.97572 8.76932 4.85794 8.76926Z" fill="black"/>
<path fill-rule="evenodd" clip-rule="evenodd" d="M4.85794 10.1011C4.74022 10.1011 4.64476 10.0056 4.64476 9.88783V9.26192C4.64476 9.14414 4.74022 9.04868 4.85794 9.04868C4.97572 9.04863 5.07118 9.14419 5.07118 9.26192L5.07123 9.88778C5.07123 10.0056 4.97572 10.1011 4.85794 10.1011Z" fill="black"/>
<path fill-rule="evenodd" clip-rule="evenodd" d="M5.86262 7.05434C5.80804 7.05434 5.75347 7.03381 5.7118 6.9922L5.26929 6.54951C5.18594 6.46623 5.18594 6.33134 5.26929 6.248C5.35257 6.16465 5.48752 6.16471 5.5708 6.248L6.01343 6.69062C6.09672 6.77391 6.09666 6.90891 6.01343 6.9922C5.97181 7.03381 5.91719 7.05439 5.86262 7.05434Z" fill="black"/>
<path fill-rule="evenodd" clip-rule="evenodd" d="M6.80457 7.99624C6.74994 7.99624 6.69537 7.97571 6.6537 7.93409L6.21113 7.49147C6.1279 7.40807 6.1279 7.27318 6.21113 7.1899C6.29447 7.10661 6.42947 7.10661 6.51276 7.1899L6.95533 7.63252C7.03856 7.71581 7.03856 7.85075 6.95533 7.93409C6.91365 7.97571 6.85914 7.99629 6.80457 7.99624Z" fill="black"/>
<path fill-rule="evenodd" clip-rule="evenodd" d="M7.74647 8.93869C7.69184 8.93869 7.63727 8.9176 7.59566 8.87593L7.15309 8.43325C7.0698 8.35002 7.0698 8.21508 7.15309 8.13179C7.23643 8.04845 7.37132 8.04845 7.45466 8.13179L7.89717 8.57436C7.98052 8.65765 7.98052 8.79264 7.89717 8.87593C7.85556 8.91755 7.80099 8.93869 7.74647 8.93869Z" fill="black"/>
<path fill-rule="evenodd" clip-rule="evenodd" d="M3.85336 7.05434C3.79873 7.05434 3.74416 7.03381 3.70249 6.9922C3.61926 6.90885 3.61926 6.77397 3.70249 6.69062L4.14506 6.248C4.22841 6.16465 4.36335 6.16471 4.44669 6.248C4.52998 6.33128 4.52998 6.46628 4.44669 6.54957L4.00412 6.9922C3.96245 7.03381 3.90788 7.05439 3.85336 7.05434Z" fill="black"/>
<path fill-rule="evenodd" clip-rule="evenodd" d="M2.91138 7.99623C2.85681 7.99623 2.80224 7.97571 2.76062 7.93409C2.67728 7.85075 2.67728 7.71581 2.76062 7.63252L3.20313 7.18984C3.28648 7.10661 3.42148 7.10661 3.50476 7.18989C3.58799 7.27312 3.58799 7.40818 3.50476 7.49146L3.06214 7.93404C3.02052 7.97571 2.96589 7.99629 2.91138 7.99623Z" fill="black"/>
<path fill-rule="evenodd" clip-rule="evenodd" d="M1.96955 8.93869C1.91492 8.93869 1.86035 8.9176 1.81868 8.87593C1.73545 8.79259 1.73545 8.6577 1.81868 8.57442L2.26131 8.13179C2.34459 8.04845 2.47959 8.04845 2.56282 8.13179C2.64617 8.21508 2.64617 8.35002 2.56282 8.43336L2.12031 8.87593C2.07864 8.91755 2.02406 8.93869 1.96955 8.93869Z" fill="black"/>
<path fill-rule="evenodd" clip-rule="evenodd" d="M12.9402 7.437C12.8224 7.437 12.727 7.34149 12.727 7.22377V6.59785C12.727 6.48013 12.8224 6.38461 12.9402 6.38461C13.0581 6.38456 13.1535 6.48013 13.1535 6.59785L13.1535 7.22371C13.1535 7.34149 13.058 7.437 12.9402 7.437Z" fill="black"/>
<path fill-rule="evenodd" clip-rule="evenodd" d="M12.9402 8.76926C12.8224 8.76926 12.727 8.67381 12.727 8.55608V7.93017C12.727 7.81244 12.8224 7.71693 12.9402 7.71693C13.0581 7.71693 13.1535 7.81244 13.1535 7.93017L13.1535 8.55608C13.1535 8.67375 13.058 8.76932 12.9402 8.76926Z" fill="black"/>
<path fill-rule="evenodd" clip-rule="evenodd" d="M12.9402 10.1011C12.8224 10.1011 12.727 10.0056 12.727 9.88783V9.26192C12.727 9.14414 12.8224 9.04868 12.9402 9.04868C13.0581 9.04863 13.1535 9.14419 13.1535 9.26192L13.1535 9.88778C13.1535 10.0056 13.058 10.1011 12.9402 10.1011Z" fill="black"/>
<path fill-rule="evenodd" clip-rule="evenodd" d="M13.9449 7.05434C13.8902 7.05434 13.8357 7.03381 13.794 6.9922L13.3515 6.54951C13.2682 6.46623 13.2682 6.33134 13.3515 6.248C13.4348 6.16465 13.5698 6.16471 13.653 6.248L14.0956 6.69062C14.1789 6.77391 14.1789 6.90891 14.0956 6.9922C14.0539 7.03381 13.9994 7.05439 13.9449 7.05434Z" fill="black"/>
<path fill-rule="evenodd" clip-rule="evenodd" d="M14.8867 7.99624C14.8321 7.99624 14.7776 7.97571 14.736 7.93409L14.2934 7.49147C14.2102 7.40807 14.2102 7.27318 14.2934 7.1899C14.3767 7.10661 14.5117 7.10661 14.595 7.1899L15.0376 7.63252C15.1208 7.71581 15.1208 7.85075 15.0376 7.93409C14.9959 7.97571 14.9413 7.99629 14.8867 7.99624Z" fill="black"/>
<path fill-rule="evenodd" clip-rule="evenodd" d="M15.8287 8.93869C15.7741 8.93869 15.7195 8.9176 15.6779 8.87593L15.2354 8.43325C15.1521 8.35002 15.152 8.21508 15.2354 8.13179C15.3186 8.04845 15.4536 8.04845 15.5369 8.13179L15.9795 8.57436C16.0628 8.65765 16.0628 8.79264 15.9794 8.87593C15.9378 8.91755 15.8833 8.93869 15.8287 8.93869Z" fill="black"/>
<path fill-rule="evenodd" clip-rule="evenodd" d="M11.9356 7.05434C11.881 7.05434 11.8264 7.03381 11.7847 6.9922C11.7015 6.90885 11.7015 6.77397 11.7847 6.69062L12.2273 6.248C12.3106 6.16465 12.4456 6.16471 12.5289 6.248C12.6122 6.33128 12.6122 6.46628 12.5289 6.54957L12.0864 6.9922C12.0447 7.03381 11.9902 7.05439 11.9356 7.05434Z" fill="black"/>
<path fill-rule="evenodd" clip-rule="evenodd" d="M10.9937 7.99623C10.9391 7.99623 10.8845 7.97571 10.8429 7.93409C10.7596 7.85075 10.7596 7.71581 10.8429 7.63252L11.2854 7.18984C11.3688 7.10661 11.5037 7.10661 11.587 7.18989C11.6703 7.27312 11.6703 7.40818 11.587 7.49146L11.1445 7.93404C11.1029 7.97571 11.0482 7.99629 10.9937 7.99623Z" fill="black"/>
<path fill-rule="evenodd" clip-rule="evenodd" d="M10.0518 8.93869C9.9972 8.93869 9.94257 8.9176 9.90095 8.87593C9.81772 8.79259 9.81767 8.6577 9.90095 8.57442L10.3435 8.13179C10.4268 8.04845 10.5618 8.04845 10.6451 8.13179C10.7284 8.21508 10.7284 8.35002 10.6451 8.43336L10.2026 8.87593C10.1609 8.91755 10.1063 8.93869 10.0518 8.93869Z" fill="black"/>
<path fill-rule="evenodd" clip-rule="evenodd" d="M21.0225 7.437C20.9047 7.437 20.8092 7.34149 20.8092 7.22377L20.8092 6.59785C20.8092 6.48013 20.9047 6.38461 21.0225 6.38461C21.1402 6.38456 21.2357 6.48013 21.2357 6.59785V7.22371C21.2357 7.34149 21.1402 7.437 21.0225 7.437Z" fill="black"/>
<path fill-rule="evenodd" clip-rule="evenodd" d="M21.0225 8.76926C20.9047 8.76926 20.8092 8.67381 20.8092 8.55608L20.8092 7.93017C20.8092 7.81244 20.9047 7.71693 21.0225 7.71693C21.1402 7.71693 21.2357 7.81244 21.2357 7.93017V8.55608C21.2357 8.67375 21.1402 8.76932 21.0225 8.76926Z" fill="black"/>
<path fill-rule="evenodd" clip-rule="evenodd" d="M21.0225 10.1011C20.9047 10.1011 20.8092 10.0056 20.8092 9.88783L20.8092 9.26192C20.8092 9.14414 20.9047 9.04868 21.0225 9.04868C21.1402 9.04863 21.2357 9.14419 21.2357 9.26192V9.88778C21.2357 10.0056 21.1402 10.1011 21.0225 10.1011Z" fill="black"/>
<path fill-rule="evenodd" clip-rule="evenodd" d="M22.0271 7.05434C21.9725 7.05434 21.9179 7.03381 21.8763 6.9922L21.4337 6.54951C21.3505 6.46623 21.3505 6.33134 21.4337 6.248C21.517 6.16465 21.652 6.16471 21.7353 6.248L22.1779 6.69062C22.2612 6.77391 22.2612 6.90891 22.1779 6.9922C22.1362 7.03381 22.0817 7.05439 22.0271 7.05434Z" fill="black"/>
<path fill-rule="evenodd" clip-rule="evenodd" d="M22.969 7.99624C22.9145 7.99624 22.8598 7.97571 22.8182 7.93409L22.3756 7.49147C22.2924 7.40807 22.2923 7.27318 22.3756 7.1899C22.4589 7.10661 22.5939 7.10661 22.6772 7.1899L23.1196 7.63252C23.2029 7.71581 23.2029 7.85075 23.1196 7.93409C23.0779 7.97571 23.0235 7.99629 22.969 7.99624Z" fill="black"/>
<path fill-rule="evenodd" clip-rule="evenodd" d="M23.911 8.93869C23.8566 8.93869 23.8016 8.9176 23.7599 8.87593L23.3173 8.43325C23.234 8.35002 23.234 8.21508 23.3173 8.13179C23.4006 8.04845 23.5361 8.04845 23.6194 8.13179L24.0615 8.57436C24.1448 8.65765 24.1447 8.79264 24.0615 8.87593C24.0198 8.91755 23.9654 8.93869 23.911 8.93869Z" fill="black"/>
<path fill-rule="evenodd" clip-rule="evenodd" d="M20.0178 7.05434C19.9632 7.05434 19.9086 7.03381 19.867 6.9922C19.7838 6.90885 19.7837 6.77397 19.867 6.69062L20.3096 6.248C20.3929 6.16465 20.5279 6.16471 20.6111 6.248C20.6945 6.33128 20.6945 6.46628 20.6111 6.54957L20.1686 6.9922C20.127 7.03381 20.0724 7.05439 20.0178 7.05434Z" fill="black"/>
<path fill-rule="evenodd" clip-rule="evenodd" d="M19.0759 7.99623C19.0213 7.99623 18.9668 7.97571 18.9251 7.93409C18.8418 7.85075 18.8418 7.71581 18.9251 7.63252L19.3677 7.18984C19.451 7.10661 19.586 7.10661 19.6693 7.18989C19.7525 7.27312 19.7525 7.40818 19.6693 7.49146L19.2267 7.93404C19.185 7.97571 19.1304 7.99629 19.0759 7.99623Z" fill="black"/>
<path fill-rule="evenodd" clip-rule="evenodd" d="M18.134 8.93869C18.0795 8.93869 18.0248 8.9176 17.9832 8.87593C17.8999 8.79259 17.8999 8.6577 17.9832 8.57442L18.4257 8.13179C18.5091 8.04845 18.6441 8.04845 18.7274 8.13179C18.8106 8.21508 18.8106 8.35002 18.7274 8.43336L18.2848 8.87593C18.2432 8.91755 18.1885 8.93869 18.134 8.93869Z" fill="black"/>
<path fill-rule="evenodd" clip-rule="evenodd" d="M16.4565 21.0487H9.42395C9.30617 21.0487 9.21066 20.9533 9.21066 20.8355C9.21071 20.7178 9.30617 20.6223 9.42395 20.6223H16.4565C16.5744 20.6223 16.6698 20.7178 16.6698 20.8355C16.6698 20.9532 16.5743 21.0488 16.4565 21.0487ZM22.7757 21.0487H20.6772C20.5595 21.0487 20.4639 20.9533 20.4639 20.8355C20.4639 20.7178 20.5594 20.6223 20.6772 20.6223H22.7757C23.5439 20.6223 24.1687 19.9975 24.1687 19.2294V16.9558C24.1687 16.1878 23.5439 15.5625 22.7757 15.5625L18.679 15.5624C18.2235 15.5624 17.8238 15.3608 17.5532 14.9949L15.4176 12.1025C15.2268 11.8443 14.9561 11.7077 14.6349 11.7077H8.82372C8.50252 11.7077 8.23185 11.8443 8.04105 12.1026L5.90543 14.9949C5.63487 15.3608 5.23504 15.5625 4.77968 15.5625L3.1048 15.5624C2.33671 15.5624 1.7118 16.1878 1.7118 16.9558V19.2294C1.7118 19.9975 2.33665 20.6223 3.1048 20.6223H5.20324C5.32107 20.6223 5.41653 20.7178 5.41653 20.8355C5.41653 20.9532 5.32102 21.0488 5.20324 21.0488L3.1048 21.0487C2.10148 21.0487 1.28527 20.2324 1.28527 19.2294V16.9558C1.28527 15.9522 2.10148 15.1359 3.1048 15.1359L4.77968 15.1359C5.10094 15.1359 5.37149 14.9999 5.56235 14.741L7.69803 11.8493C7.96853 11.4827 8.36825 11.2812 8.82372 11.2812H14.6349C15.0903 11.2812 15.4902 11.4828 15.7607 11.8493L17.8963 14.741C18.0871 14.9993 18.3578 15.1359 18.6789 15.1359L22.7757 15.1359C23.7788 15.1359 24.5952 15.9523 24.5952 16.9558V19.2294C24.5952 20.2324 23.7788 21.0488 22.7757 21.0487Z" fill="black"/>
<path fill-rule="evenodd" clip-rule="evenodd" d="M2.53486 18.2464H1.49856C1.38078 18.2464 1.28527 18.1515 1.28527 18.0332C1.28527 17.9154 1.38073 17.82 1.49851 17.82L2.53486 17.8199C2.84725 17.8199 3.10149 17.5662 3.10149 17.2535L3.10154 16.687H1.57293C1.4551 16.687 1.35964 16.5915 1.35964 16.4738C1.35964 16.356 1.4551 16.2605 1.57288 16.2605L3.31478 16.2604C3.4325 16.2604 3.52802 16.356 3.52802 16.4738V17.2535C3.52802 17.8011 3.08248 18.2465 2.53486 18.2464Z" fill="black"/>
<path fill-rule="evenodd" clip-rule="evenodd" d="M22.739 16.687V17.2535C22.739 17.5661 22.9932 17.82 23.3056 17.82L24.1686 17.8199V16.9558C24.1686 16.8653 24.1598 16.7753 24.1426 16.687L22.739 16.687ZM24.3819 18.2464H23.3056C22.758 18.2464 22.3125 17.8011 22.3125 17.2535V16.4738C22.3125 16.356 22.4079 16.2605 22.5257 16.2605L24.3075 16.2604C24.4002 16.2604 24.483 16.3205 24.5108 16.4093C24.5668 16.5859 24.5952 16.7698 24.5952 16.9558V18.0332C24.5952 18.1515 24.4997 18.2465 24.3819 18.2464Z" fill="black"/>
<path fill-rule="evenodd" clip-rule="evenodd" d="M24.3819 18.2464H23.3056C22.758 18.2464 22.3125 17.8011 22.3125 17.2535V16.4738C22.3125 16.356 22.4079 16.2605 22.5257 16.2605L24.3075 16.2604C24.4252 16.2604 24.5207 16.356 24.5207 16.4738C24.5207 16.5915 24.4252 16.687 24.3075 16.687L22.739 16.687V17.2535C22.739 17.5661 22.9932 17.82 23.3056 17.82L24.3819 17.8199C24.4997 17.8199 24.5952 17.9155 24.5952 18.0332C24.5952 18.1515 24.4997 18.2465 24.3819 18.2464Z" fill="black"/>
<path fill-rule="evenodd" clip-rule="evenodd" d="M7.11069 15.3591H16.3479L14.5273 12.8939H8.93133L7.11069 15.3591ZM16.7706 15.7856H6.68803C6.6076 15.7856 6.5339 15.7407 6.49762 15.6685C6.46138 15.5968 6.46873 15.5108 6.51652 15.4458L8.65214 12.5535C8.69235 12.4991 8.75601 12.4674 8.82371 12.4674L14.6349 12.4674C14.7026 12.4674 14.7662 12.4991 14.8064 12.5535L16.9421 15.4457C16.9899 15.5107 16.9972 15.5969 16.9609 15.6685C16.9247 15.7406 16.851 15.7857 16.7706 15.7856Z" fill="black"/>
<path fill-rule="evenodd" clip-rule="evenodd" d="M11.7162 15.7856C11.5984 15.7856 11.5029 15.6902 11.5029 15.5724V12.6807C11.5029 12.5629 11.5984 12.4674 11.7162 12.4674C11.834 12.4674 11.9294 12.5629 11.9294 12.6807L11.9294 15.5724C11.9294 15.6901 11.8339 15.7857 11.7162 15.7856Z" fill="black"/>
<path fill-rule="evenodd" clip-rule="evenodd" d="M7.5629 16.9497H6.68802C6.5703 16.9497 6.47484 16.8541 6.47484 16.7364C6.47484 16.6187 6.5703 16.5232 6.68802 16.5232H7.5629C7.68068 16.5232 7.77613 16.6187 7.77613 16.7364C7.77613 16.8541 7.68068 16.9497 7.5629 16.9497Z" fill="black"/>
<path fill-rule="evenodd" clip-rule="evenodd" d="M12.591 16.9497H11.7162C11.5984 16.9497 11.5029 16.8541 11.5029 16.7364C11.5029 16.6187 11.5984 16.5232 11.7162 16.5232H12.591C12.7088 16.5232 12.8042 16.6187 12.8042 16.7364C12.8042 16.8541 12.7088 16.9497 12.591 16.9497Z" fill="black"/>
<path fill-rule="evenodd" clip-rule="evenodd" d="M7.3136 18.9384C6.26755 18.9384 5.41651 19.7892 5.41651 20.8355C5.41651 21.8818 6.26749 22.7326 7.3136 22.7326C8.35965 22.7325 9.21063 21.8818 9.21063 20.8355C9.21069 19.7892 8.35965 18.9384 7.3136 18.9384ZM7.3136 23.1591C6.03232 23.1591 4.98997 22.1167 4.98997 20.8355C4.98997 19.5543 6.03232 18.5119 7.3136 18.5119C8.59476 18.5119 9.63711 19.5543 9.63711 20.8355C9.63711 22.1167 8.59476 23.1591 7.3136 23.1591Z" fill="black"/>
<path fill-rule="evenodd" clip-rule="evenodd" d="M18.5668 18.9384C17.5208 18.9384 16.6697 19.7892 16.6697 20.8355C16.6697 21.8818 17.5208 22.7326 18.5668 22.7326C19.6129 22.7325 20.4639 21.8818 20.4639 20.8355C20.4639 19.7892 19.6129 18.9384 18.5668 18.9384ZM18.5668 23.1591C17.2856 23.1591 16.2433 22.1167 16.2433 20.8355C16.2433 19.5543 17.2856 18.5119 18.5668 18.5119C19.8481 18.5119 20.8904 19.5543 20.8904 20.8355C20.8904 22.1167 19.848 23.1591 18.5668 23.1591Z" fill="black"/>
<path fill-rule="evenodd" clip-rule="evenodd" d="M7.31361 20.4062C7.07699 20.4062 6.88439 20.5989 6.88439 20.8355C6.88445 21.0721 7.07693 21.2648 7.31361 21.2648C7.55018 21.2648 7.74272 21.0721 7.74272 20.8355C7.74272 20.5989 7.55018 20.4062 7.31361 20.4062ZM7.31361 21.6913C6.84177 21.6913 6.45792 21.3076 6.45792 20.8355C6.45792 20.3634 6.84177 19.9797 7.31361 19.9797C7.78535 19.9797 8.1692 20.3635 8.1692 20.8355C8.16925 21.3076 7.78535 21.6913 7.31361 21.6913Z" fill="black"/>
<path fill-rule="evenodd" clip-rule="evenodd" d="M18.5668 20.4062C18.3302 20.4062 18.1377 20.5989 18.1377 20.8355C18.1377 21.0721 18.3302 21.2648 18.5668 21.2648C18.8035 21.2648 18.9961 21.0721 18.9961 20.8355C18.9961 20.5989 18.8035 20.4062 18.5668 20.4062ZM18.5668 21.6913C18.095 21.6913 17.7112 21.3076 17.7112 20.8355C17.7112 20.3634 18.095 19.9797 18.5668 19.9797C19.0387 19.9797 19.4225 20.3635 19.4225 20.8355C19.4225 21.3076 19.0387 21.6913 18.5668 21.6913Z" fill="black"/>
</svg>
