<svg width="25" height="25" viewBox="0 0 25 25" fill="none" xmlns="http://www.w3.org/2000/svg">
<g clip-path="url(#clip0_1_477)">
<path d="M4.79642 2.57358V20.4289C4.79642 21.4677 5.6415 22.3129 6.68032 22.3129H6.86212V23.0578C6.86212 23.4775 7.20347 23.8189 7.62324 23.8189H8.61135C9.03116 23.8189 9.37247 23.4775 9.37247 23.0578V22.3129H15.7711V23.0578C15.7711 23.4775 16.1125 23.8189 16.5322 23.8189H17.5204C17.9402 23.8189 18.2815 23.4775 18.2815 23.0578V22.3129H18.4633C19.5021 22.3129 20.3472 21.4677 20.3472 20.4289V2.57358C20.3472 1.53481 19.5021 0.689678 18.4633 0.689678H6.68027C5.6415 0.689678 4.79642 1.53476 4.79642 2.57358ZM8.80833 23.0578C8.80833 23.1664 8.71997 23.2548 8.61131 23.2548H7.62319C7.51457 23.2548 7.42617 23.1664 7.42617 23.0578V22.3128H8.80828L8.80833 23.0578ZM17.7173 23.0578C17.7173 23.1664 17.629 23.2548 17.5203 23.2548H16.5322C16.4236 23.2548 16.3352 23.1664 16.3352 23.0578V22.3128H17.7173L17.7173 23.0578ZM19.783 2.57358V20.4289C19.783 21.1567 19.1909 21.7487 18.4633 21.7487C14.1813 21.7487 10.9303 21.7487 6.68032 21.7487C5.95269 21.7487 5.36056 21.1566 5.36056 20.4289V2.57358C5.36056 1.84581 5.95269 1.25382 6.68032 1.25382H18.4633C19.1909 1.25382 19.783 1.84581 19.783 2.57358Z" fill="black"/>
<path d="M12.5719 9.14002C14.2929 9.14002 15.6931 7.73982 15.6931 6.01871C15.6931 4.2976 14.2929 2.8974 12.5719 2.8974C10.8506 2.8974 9.45042 4.2976 9.45042 6.01871C9.45042 7.73982 10.8506 9.14002 12.5719 9.14002ZM12.5719 3.46154C13.9817 3.46154 15.129 4.60875 15.129 6.01876C15.129 7.42876 13.9817 8.57597 12.5719 8.57597C11.1618 8.57597 10.0146 7.42876 10.0146 6.01876C10.0146 4.60875 11.1618 3.46154 12.5719 3.46154Z" fill="black"/>
<path d="M12.5719 8.01807C13.6744 8.01807 14.5713 7.12118 14.5713 6.01871C14.5713 4.91624 13.6744 4.01934 12.5719 4.01934C11.4694 4.01934 10.5726 4.91624 10.5726 6.01871C10.5726 7.12118 11.4694 8.01807 12.5719 8.01807ZM12.5719 4.58349C13.3632 4.58349 14.0071 5.22729 14.0071 6.01871C14.0071 6.81013 13.3632 7.45393 12.5719 7.45393C11.7806 7.45393 11.1367 6.81013 11.1367 6.01871C11.1367 5.22729 11.7806 4.58349 12.5719 4.58349Z" fill="black"/>
<path d="M12.5719 20.1052C15.2398 20.1052 17.4104 17.9345 17.4104 15.2664C17.4104 12.5984 15.2398 10.4279 12.5719 10.4279C9.90374 10.4279 7.73317 12.5984 7.73317 15.2664C7.73317 17.9344 9.90374 20.1052 12.5719 20.1052ZM12.5719 10.992C14.9289 10.992 16.8462 12.9094 16.8462 15.2664C16.8462 17.6234 14.9288 19.541 12.5719 19.541C10.2149 19.541 8.29731 17.6234 8.29731 15.2664C8.29731 12.9094 10.2149 10.992 12.5719 10.992Z" fill="black"/>
<path d="M12.5719 18.6932C14.4613 18.6932 15.9985 17.1559 15.9985 15.2664C15.9985 13.3769 14.4613 11.8398 12.5719 11.8398C10.6823 11.8398 9.14505 13.3769 9.14505 15.2664C9.14505 17.1559 10.6823 18.6932 12.5719 18.6932ZM12.5719 12.4039C14.1504 12.4039 15.4344 13.6881 15.4344 15.2664C15.4344 16.8448 14.1504 18.129 12.5719 18.129C10.9935 18.129 9.70919 16.8448 9.70919 15.2664C9.70919 13.6881 10.9935 12.4039 12.5719 12.4039Z" fill="black"/>
<path d="M12.5719 16.6573C13.3387 16.6573 13.9626 16.0333 13.9626 15.2664C13.9626 14.4996 13.3387 13.8756 12.5719 13.8756C11.805 13.8756 11.181 14.4996 11.181 15.2664C11.181 16.0333 11.805 16.6573 12.5719 16.6573ZM12.5719 14.4397C13.0276 14.4397 13.3984 14.8106 13.3984 15.2664C13.3984 15.7222 13.0276 16.0931 12.5719 16.0931C12.1159 16.0931 11.7451 15.7222 11.7451 15.2664C11.7451 14.8106 12.116 14.4397 12.5719 14.4397Z" fill="black"/>
<path d="M6.19481 3.08526C6.19481 3.51784 6.54671 3.86974 6.97929 3.86974H7.51345C7.9458 3.86974 8.2977 3.51784 8.2977 3.08526C8.2977 2.65282 7.9458 2.30087 7.51345 2.30087H6.97929C6.54676 2.30087 6.19481 2.65277 6.19481 3.08526ZM6.97929 2.86502H7.51345C7.63489 2.86502 7.73361 2.96383 7.73361 3.08526C7.73361 3.20679 7.63489 3.30564 7.51345 3.30564H6.97929C6.85786 3.30564 6.7589 3.20683 6.7589 3.08526C6.75895 2.96383 6.8579 2.86502 6.97929 2.86502Z" fill="black"/>
<path d="M17.6303 3.86974H18.1645C18.597 3.86974 18.949 3.51784 18.949 3.08526C18.949 2.65282 18.597 2.30087 18.1645 2.30087H17.6303C17.1977 2.30087 16.8458 2.65277 16.8458 3.08526C16.8458 3.51784 17.1978 3.86974 17.6303 3.86974ZM17.6303 2.86502H18.1645C18.2859 2.86502 18.3849 2.96383 18.3849 3.08526C18.3849 3.20679 18.2859 3.30564 18.1645 3.30564H17.6303C17.5089 3.30564 17.4099 3.20683 17.4099 3.08526C17.41 2.96383 17.5089 2.86502 17.6303 2.86502Z" fill="black"/>
<path d="M7.51345 19.1327H6.97929C6.54671 19.1327 6.19481 19.4846 6.19481 19.9172C6.19481 20.3497 6.54671 20.7016 6.97929 20.7016H7.51345C7.9458 20.7016 8.2977 20.3497 8.2977 19.9172C8.2977 19.4846 7.9458 19.1327 7.51345 19.1327ZM7.51345 20.1375H6.97929C6.85786 20.1375 6.7589 20.0387 6.7589 19.9172C6.7589 19.7956 6.85786 19.6968 6.97929 19.6968H7.51345C7.63489 19.6968 7.73361 19.7956 7.73361 19.9172C7.73361 20.0387 7.63489 20.1375 7.51345 20.1375Z" fill="black"/>
<path d="M18.1645 19.1327H17.6303C17.1977 19.1327 16.8458 19.4846 16.8458 19.9172C16.8458 20.3497 17.1977 20.7016 17.6303 20.7016H18.1645C18.597 20.7016 18.949 20.3497 18.949 19.9172C18.949 19.4846 18.597 19.1327 18.1645 19.1327ZM18.1645 20.1375H17.6303C17.5089 20.1375 17.4099 20.0387 17.4099 19.9172C17.4099 19.7956 17.5089 19.6968 17.6303 19.6968H18.1645C18.2859 19.6968 18.3849 19.7956 18.3849 19.9172C18.3849 20.0387 18.2859 20.1375 18.1645 20.1375Z" fill="black"/>
<path d="M22.6336 14.166C22.7438 14.2762 22.9223 14.2762 23.0325 14.166C24.5019 12.6968 24.5019 10.3059 23.0325 8.83637C22.9223 8.72618 22.7438 8.72618 22.6336 8.83637C22.5234 8.94642 22.5234 9.12503 22.6336 9.23523C23.8831 10.4848 23.8831 12.5178 22.6336 13.7672C22.5234 13.8772 22.5234 14.0559 22.6336 14.166Z" fill="black"/>
<path d="M21.3608 12.8932C21.471 13.0034 21.6495 13.0034 21.7597 12.8932C22.5272 12.1257 22.5272 10.8768 21.7597 10.1093C21.6495 9.99912 21.471 9.99912 21.3608 10.1093C21.2507 10.2195 21.2507 10.398 21.3608 10.5082C21.9084 11.0557 21.9084 11.9468 21.3608 12.4944C21.2507 12.6046 21.2507 12.7831 21.3608 12.8932Z" fill="black"/>
<path d="M2.50992 8.83637C2.39973 8.72618 2.22126 8.72618 2.11107 8.83637C0.641708 10.3057 0.641708 12.6967 2.11107 14.166C2.22126 14.2762 2.39973 14.2762 2.50992 14.166C2.62012 14.056 2.62012 13.8774 2.50992 13.7672C1.26067 12.5178 1.26067 10.4847 2.50992 9.23523C2.62012 9.12503 2.62012 8.94642 2.50992 8.83637Z" fill="black"/>
<path d="M3.78274 10.1093C3.67255 9.99912 3.49408 9.99912 3.38388 10.1093C2.61638 10.8768 2.61638 12.1257 3.38388 12.8932C3.49408 13.0034 3.67255 13.0034 3.78274 12.8932C3.89293 12.7831 3.89293 12.6046 3.78274 12.4944C3.23516 11.9468 3.23516 11.0557 3.78274 10.5082C3.89293 10.398 3.89293 10.2195 3.78274 10.1093Z" fill="black"/>
</g>
<defs>
<clipPath id="clip0_1_477">
<rect width="23.6852" height="23.6852" fill="white" transform="translate(0.729187 0.411701)"/>
</clipPath>
</defs>
</svg>
