<svg fill="#000000" xmlns="http://www.w3.org/2000/svg"  viewBox="0 0 64 64" width="64px" height="64px"><path d="M 3 2 C 1.347656 2 0 3.347656 0 5 L 0 11 C 0 12.652344 1.347656 14 3 14 L 4 14 L 4 60 L 1 60 C 0.449219 60 0 60.445313 0 61 C 0 61.554688 0.449219 62 1 62 L 63 62 C 63.550781 62 64 61.554688 64 61 C 64 60.445313 63.550781 60 63 60 L 60 60 L 60 14 L 61 14 C 62.652344 14 64 12.652344 64 11 L 64 5 C 64 3.347656 62.652344 2 61 2 Z M 3 4 L 61 4 C 61.550781 4 62 4.449219 62 5 L 62 11 C 62 11.550781 61.550781 12 61 12 L 3 12 C 2.449219 12 2 11.550781 2 11 L 2 5 C 2 4.449219 2.449219 4 3 4 Z M 7 6 C 6.449219 6 6 6.445313 6 7 L 6 9 C 6 9.554688 6.449219 10 7 10 C 7.550781 10 8 9.554688 8 9 L 8 7 C 8 6.445313 7.550781 6 7 6 Z M 12 6 C 11.449219 6 11 6.445313 11 7 L 11 9 C 11 9.554688 11.449219 10 12 10 C 12.550781 10 13 9.554688 13 9 L 13 7 C 13 6.445313 12.550781 6 12 6 Z M 17 6 C 16.449219 6 16 6.445313 16 7 L 16 9 C 16 9.554688 16.449219 10 17 10 C 17.550781 10 18 9.554688 18 9 L 18 7 C 18 6.445313 17.550781 6 17 6 Z M 22 6 C 21.449219 6 21 6.445313 21 7 L 21 9 C 21 9.554688 21.449219 10 22 10 C 22.550781 10 23 9.554688 23 9 L 23 7 C 23 6.445313 22.550781 6 22 6 Z M 27 6 C 26.449219 6 26 6.445313 26 7 L 26 9 C 26 9.554688 26.449219 10 27 10 C 27.550781 10 28 9.554688 28 9 L 28 7 C 28 6.445313 27.550781 6 27 6 Z M 32 6 C 31.449219 6 31 6.445313 31 7 L 31 9 C 31 9.554688 31.449219 10 32 10 C 32.550781 10 33 9.554688 33 9 L 33 7 C 33 6.445313 32.550781 6 32 6 Z M 37 6 C 36.449219 6 36 6.445313 36 7 L 36 9 C 36 9.554688 36.449219 10 37 10 C 37.550781 10 38 9.554688 38 9 L 38 7 C 38 6.445313 37.550781 6 37 6 Z M 42 6 C 41.449219 6 41 6.445313 41 7 L 41 9 C 41 9.554688 41.449219 10 42 10 C 42.550781 10 43 9.554688 43 9 L 43 7 C 43 6.445313 42.550781 6 42 6 Z M 47 6 C 46.449219 6 46 6.445313 46 7 L 46 9 C 46 9.554688 46.449219 10 47 10 C 47.550781 10 48 9.554688 48 9 L 48 7 C 48 6.445313 47.550781 6 47 6 Z M 52 6 C 51.449219 6 51 6.445313 51 7 L 51 9 C 51 9.554688 51.449219 10 52 10 C 52.550781 10 53 9.554688 53 9 L 53 7 C 53 6.445313 52.550781 6 52 6 Z M 57 6 C 56.449219 6 56 6.445313 56 7 L 56 9 C 56 9.554688 56.449219 10 57 10 C 57.550781 10 58 9.554688 58 9 L 58 7 C 58 6.445313 57.550781 6 57 6 Z M 6 14 L 58 14 L 58 20 L 6 20 Z M 30 16 C 29.449219 16 29 16.445313 29 17 C 29 17.554688 29.449219 18 30 18 L 34 18 C 34.550781 18 35 17.554688 35 17 C 35 16.445313 34.550781 16 34 16 Z M 6 22 L 58 22 L 58 60 L 51.816406 60 C 51.929688 59.6875 52 59.351563 52 59 L 52 48.359375 C 52 46.660156 51.601563 44.960938 50.839844 43.441406 L 50.171875 42.109375 C 49.367188 40.496094 48.796875 38.78125 48.472656 37.011719 L 47.878906 33.746094 C 47.273438 30.417969 44.375 28 40.992188 28 L 23.007813 28 C 19.621094 28 16.726563 30.417969 16.121094 33.75 L 15.527344 37.011719 C 15.203125 38.785156 14.632813 40.5 13.828125 42.109375 L 13.160156 43.441406 C 12.402344 44.960938 12 46.660156 12 48.359375 L 12 59 C 12 59.351563 12.070313 59.6875 12.183594 60 L 6 60 Z M 23.007813 30 L 40.992188 30 C 43.410156 30 45.476563 31.726563 45.910156 34.105469 L 46.503906 37.367188 C 46.6875 38.386719 46.953125 39.382813 47.28125 40.359375 L 44.972656 41.488281 C 44.292969 41.824219 43.535156 42 42.777344 42 L 41.859375 42 C 41.410156 40.28125 39.859375 39 38 39 C 36.140625 39 34.589844 40.28125 34.140625 42 L 21.320313 42 C 20.554688 42 19.789063 41.820313 19.105469 41.480469 L 16.734375 40.3125 C 17.058594 39.351563 17.3125 38.367188 17.496094 37.367188 L 18.089844 34.105469 C 18.523438 31.726563 20.589844 30 23.007813 30 Z M 30.917969 32 C 30.367188 32 29.917969 32.445313 29.917969 33 C 29.917969 33.554688 30.367188 34 30.917969 34 L 33.167969 34 C 33.71875 34 34.167969 33.554688 34.167969 33 C 34.167969 32.445313 33.71875 32 33.167969 32 Z M 38 41 C 38.738281 41 39.375 41.40625 39.722656 42 L 36.28125 42 C 36.625 41.40625 37.265625 41 38 41 Z M 15.996094 42.175781 L 18.21875 43.277344 C 19.175781 43.75 20.25 44 21.320313 44 L 42.777344 44 C 43.835938 44 44.902344 43.753906 45.855469 43.285156 L 48.027344 42.222656 C 48.144531 42.484375 48.253906 42.746094 48.382813 43.003906 L 49.050781 44.335938 C 49.671875 45.578125 50 46.96875 50 48.359375 L 50 54 L 14 54 L 14 48.359375 C 14 46.96875 14.328125 45.578125 14.949219 44.335938 L 15.617188 43.003906 C 15.753906 42.730469 15.871094 42.453125 15.996094 42.175781 Z M 17.894531 46.183594 C 17.460938 46.207031 17.042969 46.367188 16.707031 46.65625 C 16.257813 47.035156 16 47.59375 16 48.183594 L 16 50 C 16 51.101563 16.898438 52 18 52 L 22 52 C 23.101563 52 24 51.101563 24 50 L 24 48.847656 C 24 47.867188 23.296875 47.035156 22.328125 46.875 L 18.328125 46.207031 C 18.183594 46.183594 18.039063 46.175781 17.894531 46.183594 Z M 46.105469 46.183594 C 45.960938 46.175781 45.816406 46.183594 45.671875 46.207031 L 41.671875 46.875 C 40.703125 47.035156 40 47.867188 40 48.847656 L 40 50 C 40 51.101563 40.898438 52 42 52 L 46 52 C 47.101563 52 48 51.101563 48 50 L 48 48.183594 C 48 47.59375 47.742188 47.035156 47.292969 46.65625 C 46.957031 46.367188 46.539063 46.207031 46.105469 46.183594 Z M 26.917969 48 C 26.367188 48 25.917969 48.445313 25.917969 49 C 25.917969 49.554688 26.367188 50 26.917969 50 L 37.167969 50 C 37.71875 50 38.167969 49.554688 38.167969 49 C 38.167969 48.445313 37.71875 48 37.167969 48 Z M 18 48.183594 L 22 48.847656 L 22 50 L 18 50 Z M 46 48.183594 L 46 50 L 42 50 L 42 48.847656 Z M 14 56 L 18 56 L 18 59 C 18 59.550781 17.550781 60 17 60 L 15 60 C 14.449219 60 14 59.550781 14 59 Z M 20 56 L 44 56 L 44 59 C 44 59.351563 44.070313 59.6875 44.183594 60 L 19.816406 60 C 19.929688 59.6875 20 59.351563 20 59 Z M 46 56 L 50 56 L 50 59 C 50 59.550781 49.550781 60 49 60 L 47 60 C 46.449219 60 46 59.550781 46 59 Z"/></svg>