<svg width="24" height="24" viewBox="0 0 24 24" fill="none" xmlns="http://www.w3.org/2000/svg">
<path fill-rule="evenodd" clip-rule="evenodd" d="M3.20531 13.5909C3.19341 12.9801 3.17915 12.2883 3.50478 11.7599C3.6141 11.5817 3.76148 11.5163 4.25106 11.3162C4.96942 11.023 5.43825 10.8184 5.58196 10.6367C6.16344 9.90156 6.56177 9.37811 6.95804 9.19411C7.3288 9.0225 7.85164 9.02302 8.89023 9.02349C10.0682 9.02565 11.1043 8.98283 11.6828 9.17845C12.1344 9.33081 12.4933 9.65687 13.2062 10.3062C13.5556 10.6246 13.9549 10.8091 14.4231 10.8687C14.9079 10.931 15.3975 11.0047 15.8799 11.0883C16.7169 11.2355 17.6977 11.2968 18.3184 11.8213C18.8626 12.2812 19.029 12.9293 19.1621 13.6093C19.1755 13.6766 19.1263 13.7359 19.0575 13.7359H16.3363C16.2388 12.886 15.5163 12.2244 14.6417 12.2244C13.7647 12.2244 13.0422 12.886 12.9424 13.7359H7.89922C7.80176 12.886 7.0769 12.2244 6.20231 12.2244C5.32771 12.2244 4.6028 12.886 4.5054 13.7359H3.35505C3.27425 13.7359 3.20771 13.6708 3.20531 13.5909ZM15.5472 10.4036C16.2629 7.73597 14.2492 5.11294 11.4927 5.11294C9.47967 5.11294 7.78035 6.51918 7.38108 8.44761C7.85353 8.38902 8.69147 8.40323 9.36795 8.40196C11.9561 8.39603 12.075 8.43617 13.6245 9.84674C13.8812 10.0794 14.1593 10.2087 14.5015 10.2522C14.8509 10.2971 15.2003 10.3475 15.5472 10.4036ZM4.38888 8.69597V9.93041L5.15417 10.179L5.19694 10.1227C5.86477 9.28324 6.19991 8.86189 6.69659 8.63014C6.70374 8.6268 6.7132 8.62351 6.72035 8.62016C7.06076 6.25608 9.09361 4.49146 11.4927 4.49146C14.6322 4.49146 16.9317 7.45278 16.1651 10.5058C16.5568 10.568 16.9593 10.6221 17.3582 10.7171C17.4059 10.5229 17.4018 10.3182 17.6173 10.2482L18.5964 9.93041V8.69597L17.6173 8.3782C17.5103 8.34352 17.4295 8.25317 17.4081 8.14244C17.2536 7.35909 16.9494 6.62355 16.5026 5.95784C16.4408 5.8642 16.4337 5.74392 16.4836 5.64364L16.9518 4.72651L16.0796 3.85379L15.1622 4.32083C15.0624 4.3717 14.9412 4.36478 14.8485 4.30182C14.183 3.85502 13.4462 3.55009 12.662 3.39607C12.5527 3.37447 12.4623 3.29462 12.4267 3.18719L12.1082 2.20944H10.8747L10.5562 3.18766C10.523 3.29462 10.4327 3.37447 10.3209 3.39635C9.53665 3.55061 8.80224 3.85506 8.13681 4.3021C8.04175 4.36483 7.92294 4.37222 7.82308 4.32088L6.90571 3.85384L6.03352 4.72651L6.49933 5.64341C6.55161 5.74368 6.5445 5.86372 6.48032 5.95737C6.03352 6.62308 5.72929 7.35867 5.57481 8.14296C5.5534 8.25373 5.4726 8.34357 5.36564 8.37825L4.38888 8.69597ZM14.6417 15.0203C15.2407 15.0203 15.7279 14.5326 15.7279 13.9331C15.7279 13.3335 15.2406 12.8461 14.6417 12.8461C14.0404 12.8461 13.5532 13.3336 13.5532 13.9331C13.5533 14.5326 14.0405 15.0203 14.6417 15.0203ZM6.20226 15.0203C6.8012 15.0203 7.28838 14.5326 7.28838 13.9331C7.28838 13.3335 6.80115 12.8461 6.20226 12.8461C5.60337 12.8461 5.11375 13.3336 5.11375 13.9331C5.11375 14.5326 5.60337 15.0203 6.20226 15.0203ZM6.20226 15.6417C6.99846 15.6417 7.66864 15.0949 7.8564 14.3574H12.9852C13.1753 15.0949 13.8455 15.6417 14.6417 15.6417C15.4355 15.6417 16.1058 15.0949 16.2959 14.3574H19.0575C19.5153 14.3574 19.8616 13.94 19.7729 13.489C19.6232 12.7282 19.4188 11.9356 18.72 11.3464C18.4895 11.1513 18.2281 11.0087 17.9524 10.9003C17.9619 10.8614 17.9714 10.8229 17.9809 10.7834L19.0029 10.4516C19.1312 10.41 19.2168 10.2907 19.2168 10.1562V8.4702C19.2168 8.33566 19.1312 8.21614 19.0029 8.17477L17.9809 7.84251C17.8146 7.10456 17.5246 6.40723 17.1206 5.76556L17.6078 4.80754C17.6696 4.68754 17.6458 4.54209 17.5508 4.44675L16.3577 3.25462C16.2627 3.15956 16.1177 3.13651 15.9965 3.19759L15.041 3.68575C14.3993 3.27961 13.7006 2.99082 12.9615 2.82419L12.6311 1.80297C12.5884 1.67488 12.4695 1.58787 12.3341 1.58787H10.649C10.5135 1.58787 10.3947 1.67436 10.3543 1.80297L10.0216 2.82471C9.28245 2.99082 8.58606 3.28008 7.94439 3.68575L6.9866 3.19759C6.86538 3.13651 6.7204 3.15956 6.62535 3.25462L5.43467 4.44675C5.33722 4.54204 5.31585 4.6875 5.37524 4.80754L5.86482 5.76509C5.45839 6.40704 5.16847 7.10433 5.00208 7.84302L3.9801 8.17482C3.85413 8.21618 3.76623 8.33571 3.76623 8.47024V10.1562C3.76623 10.2908 3.85418 10.4101 3.9801 10.4517L4.39128 10.585L4.01577 10.7411C3.48577 10.9567 3.19586 11.0755 2.97483 11.4349C2.55414 12.1184 2.5708 12.9417 2.58506 13.6033C2.59221 14.019 2.93916 14.3575 3.3551 14.3575H4.54582C4.73588 15.0949 5.40611 15.6417 6.20226 15.6417ZM19.7729 18.3395C19.8118 18.5742 19.8102 18.8027 19.7729 19.0378C19.7587 19.1309 19.7848 19.2258 19.849 19.2961L20.272 19.7664L19.9084 20.3979L19.2881 20.266C19.1954 20.2463 19.098 20.2698 19.0267 20.3299C18.8437 20.4794 18.6417 20.597 18.423 20.6792C18.3327 20.7123 18.2662 20.784 18.2353 20.8744L18.0404 21.4754H17.3107L17.1159 20.8739C17.0874 20.7841 17.0184 20.7123 16.9305 20.6792C16.7119 20.597 16.5075 20.4794 16.3268 20.3299C16.2531 20.2698 16.1557 20.2462 16.0654 20.266L15.4451 20.3979L15.0791 19.7664L15.5045 19.2961C15.5663 19.2262 15.5948 19.1309 15.5782 19.0378C15.5404 18.8178 15.5403 18.5591 15.5782 18.339C15.5948 18.2463 15.5663 18.151 15.5045 18.0809L15.0791 17.6103L15.4451 16.9794L16.0654 17.111C16.1557 17.1305 16.2531 17.107 16.3268 17.0469C16.5075 16.8974 16.7119 16.78 16.9305 16.698C17.0185 16.6645 17.0874 16.5927 17.1159 16.5029L17.3107 15.9013H18.0404L18.2353 16.5029C18.2661 16.5927 18.3327 16.6645 18.423 16.698C18.6416 16.78 18.8437 16.8974 19.0267 17.0469C19.098 17.107 19.1955 17.1306 19.2881 17.111L19.9084 16.9794L20.272 17.6103L19.849 18.0809C19.7848 18.151 19.7587 18.2463 19.7729 18.3395ZM7.63777 20.8238H7.1553V19.4477H7.63777V20.8238ZM11.3454 17.9292H10.8605V16.5534H11.3454V17.9292ZM20.8519 19.4815C20.9613 19.6036 20.9803 19.7816 20.8971 19.9247L20.3576 20.8606C20.2745 21.0034 20.1128 21.0764 19.9512 21.0422L19.3 20.9041C19.1384 21.0227 18.9649 21.123 18.7819 21.2034L18.5775 21.835C18.5252 21.9917 18.3802 22.097 18.2163 22.097H17.1349C16.9709 22.097 16.8259 21.9917 16.776 21.8348L16.5692 21.2034C16.3862 21.123 16.2127 21.0227 16.0511 20.9037L15.4023 21.0422C15.2407 21.0769 15.0767 21.0035 14.9935 20.8611L14.7558 20.4464H8.25807V20.9357C8.25807 21.2164 8.0299 21.4453 7.74949 21.4453H7.04123C6.76078 21.4453 6.53265 21.2164 6.53265 20.9357V20.4464H3.96109C3.78759 20.4464 3.64977 20.3076 3.64977 20.1355C3.64977 19.9642 3.78759 19.8249 3.96109 19.8249H6.53265V19.3361C6.53265 19.0551 6.76082 18.8263 7.04123 18.8263H7.74949C8.02994 18.8263 8.25807 19.0552 8.25807 19.3361V19.8249H14.4136C14.3851 19.7051 14.416 19.5763 14.5016 19.481L14.946 18.9876C14.9237 18.8012 14.9237 18.576 14.946 18.3897L14.5016 17.8958C14.416 17.8005 14.3851 17.6717 14.4136 17.5519H11.9657V18.0413C11.9657 18.3222 11.7375 18.5508 11.4571 18.5508H10.7488C10.4684 18.5508 10.2402 18.3222 10.2402 18.0413V17.5519H3.96109C3.78759 17.5519 3.64977 17.4127 3.64977 17.2413C3.64977 17.0697 3.78759 16.9305 3.96109 16.9305H10.2402V16.4411C10.2402 16.1602 10.4684 15.932 10.7488 15.932H11.457C11.7375 15.932 11.9656 16.1602 11.9656 16.4411V16.9305H14.7558L14.9935 16.5162C15.0767 16.3736 15.2407 16.3007 15.4023 16.3346L16.0511 16.4732C16.2127 16.3546 16.3862 16.2544 16.5692 16.174L16.7759 15.542C16.8259 15.3854 16.9709 15.2799 17.1348 15.2799H18.2162C18.3802 15.2799 18.5252 15.3849 18.5775 15.542L18.7819 16.174C18.9649 16.2543 19.1384 16.3546 19.3 16.4732L19.9512 16.3346C20.1128 16.3007 20.2744 16.3736 20.3576 16.5162L20.8971 17.4521C20.9803 17.595 20.9613 17.7732 20.8519 17.8954L20.4075 18.3897C20.4265 18.5886 20.4265 18.7882 20.4075 18.9872L20.8519 19.4815ZM17.6768 19.4465C18.095 19.4465 18.4349 19.1064 18.4349 18.6884C18.4349 18.2703 18.095 17.9302 17.6768 17.9302C17.2585 17.9302 16.9186 18.2704 16.9186 18.6884C16.9186 19.1064 17.2585 19.4465 17.6768 19.4465ZM17.6768 17.3087C16.9162 17.3087 16.2959 17.9276 16.2959 18.6884C16.2959 19.4491 16.9162 20.068 17.6768 20.068C18.4373 20.068 19.0552 19.4491 19.0552 18.6884C19.0552 17.9276 18.4373 17.3087 17.6768 17.3087Z" fill="black"/>
</svg>
