<?xml version="1.0" encoding="utf-8"?>
<!-- Generator: Adobe Illustrator 16.0.0, SVG Export Plug-In . SVG Version: 6.00 Build 0)  -->
<!DOCTYPE svg PUBLIC "-//W3C//DTD SVG 1.0//EN" "http://www.w3.org/TR/2001/REC-SVG-20010904/DTD/svg10.dtd">
<svg version="1.0" id="Layer_1" xmlns="http://www.w3.org/2000/svg" xmlns:xlink="http://www.w3.org/1999/xlink" x="0px" y="0px"
	 width="100px" height="100px" viewBox="0 0 100 100" enable-background="new 0 0 100 100" xml:space="preserve">
<path d="M90,36.667V30H66.668L46.667,50L10,60l3.334,20h17.139c1.487,5.742,6.658,10,12.861,10c6.205,0,11.374-4.258,12.862-10H90
	v-6.667H56.195c-1.488-5.742-6.657-10-12.862-10c-6.203,0-11.374,4.258-12.861,10H18.981l-1.414-8.486l29.991-8.18H90V50H56.094
	l13.334-13.333H90z M43.333,70C47.011,70,50,72.981,50,76.667c0,3.685-2.988,6.666-6.666,6.666c-3.68,0-6.667-2.981-6.667-6.666
	C36.667,72.981,39.654,70,43.333,70z"/>
<path d="M52.998,15.692l-6.637,6.639c-1.303,1.301-3.413,1.301-4.715,0c-1.301-1.303-1.301-3.414,0-4.715l6.639-6.639
	c-3.716-1.766-8.279-1.148-11.353,1.924c-3.073,3.075-3.69,7.639-1.924,11.354L17.643,41.62c-1.304,1.301-1.302,3.41,0,4.713
	s3.411,1.304,4.714,0l17.365-17.365c3.714,1.765,8.279,1.149,11.352-1.924C54.148,23.972,54.766,19.407,52.998,15.692z"/>
</svg>
