<?xml version="1.0" encoding="utf-8"?>
<!-- Generator: Adobe Illustrator 28.0.0, SVG Export Plug-In . SVG Version: 6.00 Build 0)  -->
<svg version="1.1" id="Layer_1" xmlns="http://www.w3.org/2000/svg" xmlns:xlink="http://www.w3.org/1999/xlink" x="0px" y="0px"
	 viewBox="0 0 64 64" style="enable-background:new 0 0 64 64;" xml:space="preserve">
<style type="text/css">
	.st0{fill:none;stroke:#231F20;stroke-width:2;stroke-linecap:round;stroke-linejoin:round;stroke-miterlimit:10;}
</style>
<g>
	<path class="st0" d="M60.3,50.5v-7c0-2.4-1.7-4.5-4.1-4.9l-8.8-1.5l-6.3-9c-0.8-1.2-2.1-1.9-3.6-1.9H24.4c-1.4,0-2.8,0.7-3.6,1.9
		l-6.3,9H9.9c-2.9,0-5.3,2.4-5.3,5.3v8"/>
	<path class="st0" d="M50.9,50.5h9.3c0.8,0,1.5,0.7,1.5,1.5v2.1c0,0.8-0.7,1.5-1.5,1.5h-6.6"/>
	<path class="st0" d="M9.3,55.6H3.8c-0.8,0-1.5-0.7-1.5-1.5V52c0-0.8,0.7-1.5,1.5-1.5h0.8H12"/>
	<line class="st0" x1="43.7" y1="50.5" x2="19.2" y2="50.5"/>
	<line class="st0" x1="41" y1="55.6" x2="21.9" y2="55.6"/>
	<circle class="st0" cx="15.6" cy="55.6" r="6.3"/>
	<circle class="st0" cx="15.6" cy="55.6" r="2.6"/>
	<circle class="st0" cx="47.3" cy="55.6" r="2.6"/>
	<circle class="st0" cx="47.3" cy="55.6" r="6.3"/>
	<polygon class="st0" points="43,38.4 19.2,38.4 24.2,30.5 38,30.5 	"/>
	<line class="st0" x1="30.9" y1="30.5" x2="30.9" y2="38.4"/>
	<path class="st0" d="M57.2,8.8H6.3c-1.7,0-3.1-1.4-3.1-3.1v0c0-1.7,1.4-3.1,3.1-3.1h50.8c1.7,0,3.1,1.4,3.1,3.1v0
		C60.3,7.4,58.9,8.8,57.2,8.8z"/>
	<line class="st0" x1="6.6" y1="11.8" x2="6.6" y2="17.9"/>
	<line class="st0" x1="6.6" y1="21.1" x2="6.6" y2="25.6"/>
	<line class="st0" x1="6.6" y1="28.9" x2="6.6" y2="33.8"/>
	<line class="st0" x1="56.3" y1="11.8" x2="56.3" y2="17.9"/>
	<line class="st0" x1="56.3" y1="21.1" x2="56.3" y2="25.6"/>
	<line class="st0" x1="56.3" y1="28.9" x2="56.3" y2="33.8"/>
	<line class="st0" x1="14.1" y1="11.8" x2="14.1" y2="16.3"/>
	<line class="st0" x1="14.1" y1="19.7" x2="14.1" y2="24.4"/>
	<line class="st0" x1="14.1" y1="27.8" x2="14.1" y2="32"/>
	<line class="st0" x1="48.4" y1="11.8" x2="48.4" y2="16.3"/>
	<line class="st0" x1="48.4" y1="19.7" x2="48.4" y2="24.4"/>
	<line class="st0" x1="48.4" y1="27.8" x2="48.4" y2="32"/>
	<line class="st0" x1="22.5" y1="11.8" x2="22.5" y2="15.5"/>
	<line class="st0" x1="22.5" y1="18.5" x2="22.5" y2="23.2"/>
	<line class="st0" x1="39.7" y1="11.8" x2="39.7" y2="15.5"/>
	<line class="st0" x1="39.7" y1="18.5" x2="39.7" y2="23.2"/>
	<line class="st0" x1="30.9" y1="11.8" x2="30.9" y2="15.5"/>
	<line class="st0" x1="30.9" y1="19.1" x2="30.9" y2="23.2"/>
</g>
</svg>
