<?xml version="1.0" encoding="UTF-8"?><svg id="Layer_1" xmlns="http://www.w3.org/2000/svg" viewBox="0 0 64 64"><g id="Car_Seat"><polygon points="43.84002686 56 45.54998779 53 18.45001221 53 20.15997314 56 43.84002686 56" style="stroke-width:0px;"/><path d="m11.89001465,50.08996582c.58996582-.23999023,1.20001221-.34997559,1.82995605-.34997559.96923828,0,1.89404297.29425049,2.68218994.81713867,3.65979004-8.8762207,5.59783936-18.52209473,5.59783936-28.10986328v-6.44726562h-2c-.40997314,0-.7800293.25-.92999268.64001465l-10,26c-.08001709.20996094-.09002686.43994141-.0300293.64996338l2.19000244,7.11999512c.21002197-.11999512.42999268-.22998047.66003418-.32000732Z" style="stroke-width:0px;"/><rect x="28" y="12" width="8" height="2" style="stroke-width:0px;"/><path d="m54.92999268,42.64001465l-10-26c-.14996338-.39001465-.52001953-.64001465-.92999268-.64001465h-2v6.44726562c0,9.58776855,1.93804932,19.23364258,5.59783936,28.10986328.78814697-.52288818,1.71295166-.81713867,2.68218994-.81713867.62994385,0,1.23999023.10998535,1.82995605.34997559.2300415.09002686.45001221.20001221.66003418.32000732l2.19000244-7.11999512c.05999756-.21002197.04998779-.44000244-.0300293-.64996338Z" style="stroke-width:0px;"/><path d="m25.88623047,10h12.22753906c.98388672,0,1.90576172-.48291016,2.46582031-1.29101562.56054688-.80859375.68896484-1.84130859.34375-2.76220703l-1.50048828-4c-.43652344-1.16455078-1.56542969-1.94677734-2.80908203-1.94677734h-9.22753906c-1.24365234,0-2.37255859.78222656-2.80957031,1.94677734l-1.5,4c-.34521484.92089844-.21679688,1.95361328.34375,2.76220703.56005859.80810547,1.48193359,1.29101562,2.46582031,1.29101562Z" style="stroke-width:0px;"/><path d="m40,22.44726562v-6.44726562h-16v6.44726562c0,9.73120117-1.93255615,19.52545166-5.60491943,28.55273438h27.2098999c-3.67236328-9.02728271-5.60498047-18.8215332-5.60498047-28.55273438Zm-6,3.55273438h-4c-.55224609,0-1-.44775391-1-1s.44775391-1,1-1h4c.55224609,0,1,.44775391,1,1s-.44775391,1-1,1Zm2-5h-8c-.55224609,0-1-.44775391-1-1s.44775391-1,1-1h8c.55224609,0,1,.44775391,1,1s-.44775391,1-1,1Z" style="stroke-width:0px;"/><path d="m51.3659668,51.9463501c-1.35650635-.54260254-2.90539551-.00238037-3.63024902,1.26611328l-2.73571777,4.78753662h-26l-2.73571777-4.78753662c-.72485352-1.26849365-2.27374268-1.80871582-3.63024902-1.26611328-1.46807861.58721924-2.20489502,2.23382568-1.66455078,3.7197876l2.07305908,5.70080566c.5748291,1.58074951,2.07714844,2.63305664,3.75915527,2.63305664h30.39660645c1.68200684,0,3.18432617-1.05230713,3.75915527-2.63305664l2.07305908-5.70080566c.54034424-1.48596191-.19647217-3.13256836-1.66455078-3.7197876Z" style="stroke-width:0px;"/></g></svg>