<?xml version="1.0" encoding="utf-8"?>
<!-- Generator: Adobe Illustrator 16.0.0, SVG Export Plug-In . SVG Version: 6.00 Build 0)  -->
<!DOCTYPE svg PUBLIC "-//W3C//DTD SVG 1.0//EN" "http://www.w3.org/TR/2001/REC-SVG-20010904/DTD/svg10.dtd">
<svg version="1.0" id="Layer_1" xmlns="http://www.w3.org/2000/svg" xmlns:xlink="http://www.w3.org/1999/xlink" x="0px" y="0px"
	 width="100px" height="100px" viewBox="0 0 100 100" enable-background="new 0 0 100 100" xml:space="preserve">
<path d="M90,36.667V30H66.667l-20,20L10,60l3.333,20h10v-1.667c0-9.189,7.477-16.666,16.667-16.666s16.667,7.477,16.667,16.666V80
	H90V50H56.094l13.333-13.333H90z"/>
<path d="M40,66.667c-6.44,0-11.667,5.221-11.667,11.666S33.56,90,40,90c6.439,0,11.667-5.222,11.667-11.667S46.439,66.667,40,66.667
	z M40,83.333c-2.76,0-5-2.236-5-5s2.24-5,5-5s5,2.236,5,5S42.76,83.333,40,83.333z"/>
<path d="M52.998,15.69l-6.637,6.641c-1.302,1.302-3.413,1.302-4.715,0c-1.3-1.302-1.3-3.411,0-4.713l6.639-6.641
	c-3.716-1.764-8.28-1.146-11.353,1.927c-3.073,3.073-3.69,7.637-1.924,11.351L17.643,41.621c-1.304,1.302-1.302,3.412,0,4.713
	c1.302,1.302,3.412,1.302,4.714,0l17.365-17.366c3.714,1.764,8.28,1.149,11.353-1.924C54.147,23.971,54.766,19.408,52.998,15.69z"/>
</svg>
