<?xml version="1.0" encoding="UTF-8"?><svg id="Layer_1" xmlns="http://www.w3.org/2000/svg" viewBox="0 0 64 64"><g id="Car_Seat"><path d="m51.73681641,50.01757812c-.4510498-.18048096-.91986084-.27026367-1.38433838-.27758789l2.60308838-8.44555664c.06591797-.21386719.05810547-.44433594-.02197266-.65332031l-10-26c-.14892578-.38623047-.52001953-.64111328-.93359375-.64111328h-6v-2h3.31201172c.95800781,0,1.83544922-.44091797,2.40722656-1.20947266s.74169922-1.73535156.46630859-2.65234375l-1.79980469-6.00048828c-.38378906-1.27832031-1.53857422-2.13769531-2.87402344-2.13769531h-11.0234375c-1.33544922,0-2.49023438.859375-2.87402344,2.13818359l-1.79980469,5.99951172c-.27539062.91748047-.10546875,1.88427734.46630859,2.65283203s1.44921875,1.20947266,2.40722656,1.20947266h3.31201172v2h-6c-.41357422,0-.78466797.25488281-.93359375.64111328l-10,26c-.08007812.20898438-.08789062.43945312-.02197266.65332031l2.60333252,8.44604492c-.46453857.00738525-.93347168.09710693-1.3850708.27758789-1.98144531.79248047-2.96240234,2.984375-2.23291016,4.98974609l2.07275391,5.70117188c.71582031,1.96826172,2.60449219,3.29101562,4.69921875,3.29101562h30.39648438c2.09472656,0,3.98339844-1.32275391,4.69921875-3.29101562l2.07275391-5.70117188c.72900391-2.00537109-.25146484-4.19726562-2.23339844-4.99023438Zm-27.73681641-27.56738281v-6.45019531h16v6.45019531c0,9.84796143,1.90563965,19.44104004,5.62145996,28.54980469h-27.24291992c3.71582031-9.10876465,5.62145996-18.70184326,5.62145996-28.54980469Zm22.13415527,30.54980469l-1.7142334,3h-24.83984375l-1.7142334-3h28.26831055Zm4.80822754-11.96386719l-2.90466309,9.42449951c-.12640381.08776855-.24926758.17871094-.36529541.28155518-3.75311279-9.01556396-5.67242432-18.52557373-5.67242432-28.29199219v-4.66400146l8.94238281,23.24993896ZM23.88574219,9.59667969c-.19091797-.25585938-.24707031-.578125-.15527344-.88427734l1.79980469-5.99951172c.12792969-.42626953.51269531-.71289062.95800781-.71289062h11.0234375c.4453125,0,.83007812.28662109.95800781.71240234l1.79980469,6.00048828c.09179688.30566406.03564453.62792969-.15527344.88378906-.19042969.25634766-.48291016.40332031-.80224609.40332031h-14.62402344c-.31933594,0-.61181641-.14697266-.80224609-.40332031Zm6.11425781,2.40332031h4v2h-4v-2Zm-8,5.78619385v4.66400146c0,9.76647949-1.91931152,19.27661133-5.67248535,28.29217529-.11602783-.1027832-.23883057-.19378662-.36517334-.28155518l-2.90472412-9.42468262,8.94238281-23.24993896Zm30.09033203,36.5380249l-2.07275391,5.70117188c-.42919922,1.18115234-1.5625,1.97460938-2.81933594,1.97460938h-30.39648438c-1.25683594,0-2.39013672-.79345703-2.81933594-1.97460938l-2.07275391-5.70117188c-.35839844-.984375.12304688-2.06005859,1.09570312-2.44921875.23144531-.09277344.47216797-.13671875.70996094-.13671875.67626953,0,1.32958984.35595703,1.68066406.97021484l2.73583984,4.78759766c.17773438.31152344.50927734.50390625.86816406.50390625h26c.35888672,0,.69042969-.19238281.86816406-.50390625l2.73583984-4.78759766c.47509766-.83007812,1.50341797-1.1875,2.39013672-.83398438.97314453.38964844,1.45458984,1.46533203,1.09619141,2.44970703Z" style="stroke-width:0px;"/><path d="m28,21h8c.55224609,0,1-.44775391,1-1s-.44775391-1-1-1h-8c-.55224609,0-1,.44775391-1,1s.44775391,1,1,1Z" style="stroke-width:0px;"/><path d="m34,24h-4c-.55224609,0-1,.44775391-1,1s.44775391,1,1,1h4c.55224609,0,1-.44775391,1-1s-.44775391-1-1-1Z" style="stroke-width:0px;"/></g></svg>