<?xml version="1.0" encoding="utf-8"?>
<!-- Generator: Adobe Illustrator 28.5.0, SVG Export Plug-In . SVG Version: 9.03 Build 54727)  -->
<svg version="1.0" id="Layer_1" xmlns="http://www.w3.org/2000/svg" xmlns:xlink="http://www.w3.org/1999/xlink" x="0px" y="0px"
	 viewBox="0 0 64 64" style="enable-background:new 0 0 64 64;" xml:space="preserve">
<style type="text/css">
	.st0{fill:#31323A;}
</style>
<g>
	<path class="st0" d="M56.7,8.6H5.8c-1.7,0-3.1-1.4-3.1-3.1v0c0-1.7,1.4-3.1,3.1-3.1h50.8c1.7,0,3.1,1.4,3.1,3.1v0
		C59.8,7.2,58.4,8.6,56.7,8.6z"/>
	<g>
		<path class="st0" d="M6.1,18.8c-0.6,0-1-0.4-1-1v-6.1c0-0.6,0.4-1,1-1s1,0.4,1,1v6.1C7.1,18.3,6.7,18.8,6.1,18.8z"/>
	</g>
	<g>
		<path class="st0" d="M6.1,26.4c-0.6,0-1-0.4-1-1v-4.5c0-0.6,0.4-1,1-1s1,0.4,1,1v4.5C7.1,26,6.7,26.4,6.1,26.4z"/>
	</g>
	<g>
		<path class="st0" d="M6.1,34.7c-0.6,0-1-0.4-1-1v-5c0-0.6,0.4-1,1-1s1,0.4,1,1v5C7.1,34.2,6.7,34.7,6.1,34.7z"/>
	</g>
	<g>
		<path class="st0" d="M55.8,18.8c-0.6,0-1-0.4-1-1v-6.1c0-0.6,0.4-1,1-1s1,0.4,1,1v6.1C56.8,18.3,56.4,18.8,55.8,18.8z"/>
	</g>
	<g>
		<path class="st0" d="M55.8,26.4c-0.6,0-1-0.4-1-1v-4.5c0-0.6,0.4-1,1-1s1,0.4,1,1v4.5C56.8,26,56.4,26.4,55.8,26.4z"/>
	</g>
	<g>
		<path class="st0" d="M55.8,34.7c-0.6,0-1-0.4-1-1v-5c0-0.6,0.4-1,1-1s1,0.4,1,1v5C56.8,34.2,56.4,34.7,55.8,34.7z"/>
	</g>
	<g>
		<path class="st0" d="M13.6,17.1c-0.6,0-1-0.4-1-1v-4.5c0-0.6,0.4-1,1-1s1,0.4,1,1v4.5C14.6,16.7,14.1,17.1,13.6,17.1z"/>
	</g>
	<g>
		<path class="st0" d="M13.6,25.2c-0.6,0-1-0.4-1-1v-4.7c0-0.6,0.4-1,1-1s1,0.4,1,1v4.7C14.6,24.8,14.1,25.2,13.6,25.2z"/>
	</g>
	<g>
		<path class="st0" d="M13.6,32.8c-0.6,0-1-0.4-1-1v-4.2c0-0.6,0.4-1,1-1s1,0.4,1,1v4.2C14.6,32.4,14.1,32.8,13.6,32.8z"/>
	</g>
	<g>
		<path class="st0" d="M47.9,17.1c-0.6,0-1-0.4-1-1v-4.5c0-0.6,0.4-1,1-1s1,0.4,1,1v4.5C48.9,16.7,48.5,17.1,47.9,17.1z"/>
	</g>
	<g>
		<path class="st0" d="M47.9,25.2c-0.6,0-1-0.4-1-1v-4.7c0-0.6,0.4-1,1-1s1,0.4,1,1v4.7C48.9,24.8,48.5,25.2,47.9,25.2z"/>
	</g>
	<g>
		<path class="st0" d="M47.9,32.8c-0.6,0-1-0.4-1-1v-4.2c0-0.6,0.4-1,1-1s1,0.4,1,1v4.2C48.9,32.4,48.5,32.8,47.9,32.8z"/>
	</g>
	<g>
		<path class="st0" d="M22,16.3c-0.6,0-1-0.4-1-1l0-3.6c0-0.6,0.4-1,1-1c0,0,0,0,0,0c0.6,0,1,0.4,1,1l0,3.6
			C23,15.8,22.6,16.3,22,16.3C22,16.3,22,16.3,22,16.3z"/>
	</g>
	<g>
		<path class="st0" d="M22,24.1c-0.6,0-1-0.4-1-1v-4.7c0-0.6,0.4-1,1-1s1,0.4,1,1v4.7C23,23.6,22.6,24.1,22,24.1z"/>
	</g>
	<g>
		<path class="st0" d="M39.2,16.3c-0.6,0-1-0.4-1-1l0-3.6c0-0.6,0.4-1,1-1c0,0,0,0,0,0c0.6,0,1,0.4,1,1l0,3.6
			C40.2,15.8,39.8,16.3,39.2,16.3C39.2,16.3,39.2,16.3,39.2,16.3z"/>
	</g>
	<g>
		<path class="st0" d="M39.2,24.1c-0.6,0-1-0.4-1-1v-4.7c0-0.6,0.4-1,1-1s1,0.4,1,1v4.7C40.2,23.6,39.8,24.1,39.2,24.1z"/>
	</g>
	<g>
		<path class="st0" d="M30.4,16.3c-0.6,0-1-0.4-1-1v-3.6c0-0.6,0.4-1,1-1s1,0.4,1,1v3.6C31.4,15.8,31,16.3,30.4,16.3z"/>
	</g>
	<g>
		<path class="st0" d="M30.4,24.1c-0.6,0-1-0.4-1-1v-4.1c0-0.6,0.4-1,1-1s1,0.4,1,1v4.1C31.4,23.6,31,24.1,30.4,24.1z"/>
	</g>
	<path class="st0" d="M59.8,51.1h-6c0.8,1.1,1.2,2.5,1.2,4c0,0.3,0,0.7-0.1,1h4.9c0.8,0,1.5-0.7,1.5-1.5v-2
		C61.3,51.8,60.6,51.1,59.8,51.1z"/>
	<path class="st0" d="M8.5,55.3c0-1.5,0.5-3,1.4-4.1H4.5c-0.7,0-1.3,0.7-1.3,1.5v2c0,0.8,0.6,1.5,1.3,1.5l4,0
		C8.5,55.9,8.5,55.6,8.5,55.3C8.5,55.3,8.5,55.3,8.5,55.3z"/>
	<path class="st0" d="M40.5,55.9c0-0.3,0-0.5,0-0.8c0,0,0,0,0,0c0-1.5,0.4-2.8,1.2-4H21.4c0.8,1.2,1.3,2.6,1.3,4.2
		c0,0.3,0,0.6-0.1,0.8h17.8C40.5,56.1,40.5,56,40.5,55.9L40.5,55.9z"/>
	<path class="st0" d="M19.2,50.2c-1-0.7-2.3-1.2-3.6-1.2S13,49.5,12,50.2c-1.6,1.1-2.7,3-2.7,5.1c0,0,0,0,0,0c0,3.5,2.8,6.3,6.3,6.3
		s6.3-2.8,6.3-6.3C21.9,53.2,20.9,51.3,19.2,50.2z M15.6,57.9c-1.4,0-2.6-1.2-2.6-2.6c0-1.4,1.2-2.6,2.6-2.6s2.6,1.2,2.6,2.6
		C18.2,56.8,17,57.9,15.6,57.9z"/>
	<path class="st0" d="M51.3,50c-1-0.7-2.3-1.2-3.6-1.2c-1.4,0-2.6,0.4-3.6,1.2c-1.6,1.1-2.7,3-2.7,5.1c0,0,0,0,0,0
		c0,3.5,2.8,6.3,6.3,6.3c3.5,0,6.3-2.8,6.3-6.3C54,53,53,51.1,51.3,50z M47.7,57.7c-1.4,0-2.6-1.2-2.6-2.6s1.2-2.6,2.6-2.6
		c1.4,0,2.6,1.2,2.6,2.6S49.1,57.7,47.7,57.7z"/>
	<path class="st0" d="M56.3,38.4L47.4,37l-6.3-8.8c-0.8-1.1-2.2-1.8-3.6-1.8H24.3c-1.4,0-2.8,0.7-3.6,1.8L14.4,37H9.7
		c-3,0-5.3,2.3-5.3,5.2V50h6.4c0.2-0.2,0.4-0.4,0.7-0.5c1.2-0.8,2.6-1.3,4.1-1.3c1.5,0,3,0.5,4.1,1.3c0.2,0.2,0.5,0.3,0.7,0.5h22.2
		c0.3-0.3,0.6-0.6,1-0.8c1.2-0.8,2.6-1.3,4.2-1.3s3,0.5,4.2,1.3c0.3,0.2,0.7,0.5,1,0.8h7.6v-6.8C60.4,40.9,58.7,38.8,56.3,38.4z
		 M19.1,37l5-7.4h5.7V37H19.1z M32,37v-7.4h6.1l5,7.4H32z"/>
</g>
</svg>
