<svg width="40" height="28" viewBox="0 0 40 28" fill="none" xmlns="http://www.w3.org/2000/svg">
<path fill-rule="evenodd" clip-rule="evenodd" d="M38.75 23.8591H33.9762C33.3838 23.8591 33.384 22.959 33.9762 22.959H38.3V19.1865C37.7931 19.0632 34.2219 18.2412 34.0532 18.1197L27.7466 13.5822L19.1912 13.5824C17.2047 13.5824 13.6175 15.0701 12.9483 16.9032C12.8837 17.0802 12.7145 17.1988 12.5255 17.1988H7.67093C4.57965 17.1988 1.94736 19.7931 1.71696 22.959H5.44927C6.04148 22.959 6.04148 23.8591 5.44927 23.8591H1.25054C1.00214 23.8591 0.800537 23.6572 0.800537 23.4091C0.800537 19.5548 3.94672 16.2986 7.6707 16.2986H12.2299C13.2779 14.1836 17.0121 12.6824 19.191 12.6824H27.8915C27.9858 12.6824 28.0778 12.7121 28.1543 12.767L34.5074 17.3374L38.856 18.3949C39.0578 18.444 39.2 18.6246 39.2 18.8321V23.4088C39.1998 23.6568 38.9982 23.8586 38.7498 23.8586L38.75 23.8591ZM27.5504 23.8591H11.8751C11.2826 23.8591 11.2826 22.959 11.8751 22.959H27.5504C28.1426 22.959 28.1426 23.8591 27.5504 23.8591Z" fill="#FEFEFE"/>
<path fill-rule="evenodd" clip-rule="evenodd" d="M8.66205 27.0721C6.64245 27.0721 4.99927 25.429 4.99927 23.4093C4.99927 21.3897 6.64245 19.7463 8.66205 19.7463C10.6817 19.7463 12.3248 21.3897 12.3248 23.4093C12.3248 25.429 10.6817 27.0721 8.66205 27.0721ZM8.66205 20.647C7.1388 20.647 5.89927 21.8863 5.89927 23.4098C5.89927 24.9333 7.13857 26.1724 8.66205 26.1724C10.1855 26.1724 11.4248 24.9333 11.4248 23.4098C11.4248 21.8865 10.1853 20.647 8.66205 20.647Z" fill="#FEFEFE"/>
<path fill-rule="evenodd" clip-rule="evenodd" d="M30.7631 27.0721C28.7435 27.0721 27.1001 25.429 27.1001 23.4093C27.1001 21.3897 28.7435 19.7463 30.7631 19.7463C32.7827 19.7463 34.4261 21.3897 34.4261 23.4093C34.4261 25.429 32.7827 27.0721 30.7631 27.0721ZM30.7631 20.647C29.2396 20.647 28.0003 21.8863 28.0003 23.4098C28.0003 24.9333 29.2396 26.1724 30.7631 26.1724C32.2866 26.1724 33.5259 24.9333 33.5259 23.4098C33.5259 21.8865 32.2866 20.647 30.7631 20.647Z" fill="#FEFEFE"/>
<path fill-rule="evenodd" clip-rule="evenodd" d="M8.66216 25.3667C6.08613 25.3667 6.08636 21.4517 8.66216 21.4517C11.238 21.4517 11.2382 25.3667 8.66216 25.3667ZM8.66216 22.3523C7.27054 22.3523 7.27099 24.4667 8.66216 24.4667C10.0536 24.4667 10.0538 22.3523 8.66216 22.3523Z" fill="#FEFEFE"/>
<path fill-rule="evenodd" clip-rule="evenodd" d="M31.8191 18.9338H23.0999C22.8515 18.9338 22.6499 18.732 22.6499 18.4838V15.188C22.6499 14.9396 22.8517 14.738 23.0999 14.738H27.5225C27.6217 14.738 27.7178 14.7704 27.7963 14.8312L32.093 18.127C32.4327 18.3878 32.2471 18.9338 31.8191 18.9338ZM23.5499 18.0336H30.4932L27.3702 15.638H23.5499V18.0336Z" fill="#FEFEFE"/>
<path fill-rule="evenodd" clip-rule="evenodd" d="M23.0999 18.9338H14.2416C13.9932 18.9338 13.7916 18.732 13.7916 18.4838C13.7916 16.311 16.7097 14.738 18.6768 14.738H23.0999C23.3483 14.738 23.5499 14.9399 23.5499 15.188V18.4838C23.5499 18.7322 23.3483 18.9338 23.0999 18.9338ZM14.7634 18.0336H22.6494V15.638H18.6768C17.1522 15.638 15.1637 16.7655 14.7634 18.0336Z" fill="#FEFEFE"/>
<path fill-rule="evenodd" clip-rule="evenodd" d="M24.6723 21.3961H15.3944C14.802 21.3961 14.802 20.4961 15.3944 20.4961H24.6723C25.2645 20.4961 25.2645 21.3961 24.6723 21.3961Z" fill="#FEFEFE"/>
<path fill-rule="evenodd" clip-rule="evenodd" d="M30.7632 25.3669C28.187 25.3669 28.187 21.4519 30.7632 21.4519C33.3391 21.4519 33.3391 25.3669 30.7632 25.3669ZM30.7632 22.3526C29.3718 22.3526 29.3718 24.4669 30.7632 24.4669C32.154 24.4669 32.1542 22.3526 30.7632 22.3526Z" fill="#FEFEFE"/>
<path fill-rule="evenodd" clip-rule="evenodd" d="M30.3775 10.2284C28.5523 10.2284 26.8879 9.14281 26.1402 7.49648H13.859C12.2204 11.1071 7.0575 11.1345 5.3961 7.5201C5.25997 7.22378 5.47867 6.882 5.80492 6.882H9.54961L9.98341 5.57857L9.54961 4.27514H5.80492C4.41374 4.27514 6.531 0.928711 9.62228 0.928711C11.4475 0.928711 13.1118 2.01434 13.859 3.66089L26.1405 3.66067C27.7796 0.0500832 32.9422 0.0221834 34.6039 3.63682C34.7402 3.93337 34.5208 4.27492 34.1948 4.27492H30.4501L30.0163 5.57835L30.4501 6.88178H34.1948C35.5867 6.88178 33.469 10.2282 30.3777 10.2282L30.3775 10.2284ZM13.5582 6.5967H26.4415C26.6296 6.5967 26.7975 6.7137 26.8634 6.88943C27.9036 9.67201 31.6469 10.2044 33.412 7.78223H30.1257C29.932 7.78223 29.7598 7.65825 29.6989 7.47443C28.9168 5.12002 28.9168 6.0378 29.6989 3.68362C29.7598 3.49979 29.932 3.37582 30.1257 3.37582H33.412C31.6474 0.953236 27.9036 1.48536 26.8634 4.26862C26.7975 4.44457 26.6296 4.56157 26.4415 4.56157H13.5584C13.3706 4.56157 13.2025 4.44457 13.137 4.26884C12.1011 1.49099 8.35553 0.949637 6.58792 3.37604H9.87428C10.068 3.37604 10.2399 3.50002 10.3011 3.68384C11.0825 6.0315 11.0832 5.12677 10.3011 7.47465C10.2399 7.65848 10.068 7.78245 9.87428 7.78245H6.58792C8.35665 10.2086 12.1011 9.66661 13.1366 6.88965C13.2023 6.71348 13.3703 6.59693 13.5582 6.59693V6.5967Z" fill="#FEFEFE"/>
</svg>
