<?xml version="1.0"?><svg fill="#000000" xmlns="http://www.w3.org/2000/svg"  viewBox="0 0 30 30" width="30px" height="30px">    <path d="M 15 3 A 2 2 0 0 0 14.039062 3.2480469 L 14.03125 3.2480469 L 5.0136719 8.2597656 L 5.0117188 8.2636719 A 2 2 0 0 0 4 10 L 4 24 C 4 25.105 4.895 26 6 26 L 24 26 C 25.105 26 26 25.105 26 24 L 26 10 A 2 2 0 0 0 24.986328 8.2597656 L 24.958984 8.2441406 A 2 2 0 0 0 24.953125 8.2421875 L 15.966797 3.2480469 A 2 2 0 0 1 15.964844 3.2480469 A 2 2 0 0 0 15 3 z M 11.013672 11 L 18.986328 11 C 20.329328 11 21.508047 11.893547 21.873047 13.185547 L 22.806641 16.492188 C 23.525641 16.805187 24 17.511641 24 18.306641 L 24 24 C 24 24.552 23.552 25 23 25 C 22.448 25 22 24.552 22 24 L 22 23.619141 C 20.636 23.803141 16.768 24 15 24 C 13.232 24 9.364 23.803141 8 23.619141 L 8 24 C 8 24.552 7.552 25 7 25 C 6.448 25 6 24.552 6 24 L 6 18.306641 C 6 17.511641 6.4743594 16.805187 7.1933594 16.492188 L 8.1269531 13.185547 C 8.4919531 11.893547 9.6706719 11 11.013672 11 z M 9 18 A 1 1 0 0 0 8 19 A 1 1 0 0 0 9 20 A 1 1 0 0 0 10 19 A 1 1 0 0 0 9 18 z M 21 18 A 1 1 0 0 0 20 19 A 1 1 0 0 0 21 20 A 1 1 0 0 0 22 19 A 1 1 0 0 0 21 18 z M 12.191406 20 C 11.772406 20 11.397906 20.260297 11.253906 20.654297 L 10.847656 21.759766 C 10.847656 21.759766 12.356953 22 15.001953 22 C 17.646953 22 19.173828 21.761719 19.173828 21.761719 L 18.767578 20.654297 C 18.621578 20.260297 18.245172 20 17.826172 20 L 12.191406 20 z"/></svg>