<svg width="37" height="35" viewBox="0 0 37 35" fill="none" xmlns="http://www.w3.org/2000/svg">
<path d="M11.9376 13.8513C11.9376 13.8517 11.9377 13.8522 11.9377 13.8526C11.9377 13.8531 11.9376 13.8535 11.9376 13.854C11.9376 14.0856 12.1256 14.2736 12.3573 14.2736H22.1523C22.3839 14.2736 22.5719 14.0856 22.5719 13.854C22.5719 13.8535 22.5718 13.8531 22.5718 13.8526C22.5718 13.8522 22.5719 13.8517 22.5719 13.8513C22.5719 13.6196 22.3839 13.4316 22.1523 13.4316H12.3573C12.1255 13.4316 11.9376 13.6196 11.9376 13.8513Z" fill="white"/>
<path d="M22.499 15.9219C22.499 15.6902 22.311 15.5022 22.0794 15.5022H12.4303C12.1987 15.5022 12.0107 15.6902 12.0107 15.9219C12.0107 16.1535 12.1987 16.3415 12.4303 16.3415H22.0794C22.311 16.3415 22.499 16.1536 22.499 15.9219Z" fill="white"/>
<path d="M35.2846 13.4435C35.2846 13.4148 35.2869 12.1499 35.2869 12.1785C35.2869 11.2638 35.0097 10.3897 34.5459 9.67535C33.6941 8.36256 32.252 7.57898 30.6881 7.57898H27.4169L24.5294 2.78573C24.3579 2.50036 24.1576 2.23794 23.9433 1.99264C23.8954 1.93735 23.8523 1.8786 23.8023 1.82511C23.7988 1.82142 23.7945 1.81873 23.7909 1.81515C22.707 0.661937 21.1791 0 19.5951 0H9.30236C7.41693 0 5.73753 1.19854 5.12327 2.98269L3.53865 7.5811C1.62972 7.6497 0.156672 9.19504 0.0942269 11.035C0.0846028 11.4108 0.129142 9.67367 0 14.7103C0 15.6097 0.731655 16.3414 1.63106 16.3414H1.8382C2.06985 16.3414 2.25786 16.1534 2.25786 15.9217C2.25786 15.6901 2.06985 15.5021 1.8382 15.5021H1.63106C1.19451 15.5021 0.839311 15.1469 0.839311 14.7103V14.2738H1.91083C2.14248 14.2738 2.33049 14.0858 2.33049 13.8541C2.33049 13.8537 2.33037 13.8532 2.33037 13.8528C2.33037 13.8523 2.33049 13.8519 2.33049 13.8514C2.33049 13.6198 2.14248 13.4318 1.91083 13.4318H0.853747L0.875457 12.7913H1.76927C2.68121 12.7913 3.42304 12.0496 3.42304 11.1375C3.42304 10.2255 2.68132 9.48377 1.76927 9.48377H1.50964C2.01961 8.82373 2.80845 8.41829 3.66779 8.41829H3.83856C4.0175 8.41829 4.17708 8.30459 4.23527 8.13527L5.91658 3.25597C6.41435 1.81067 7.77493 0.839423 9.30225 0.839423H19.595C20.5842 0.839423 21.5459 1.14415 22.3552 1.69216H17.5096C16.5891 1.69216 15.8403 2.44105 15.8403 3.3615V6.75019C15.8403 7.67063 16.5891 8.41952 17.5096 8.41952C22.7257 8.41907 27.3106 8.41874 30.688 8.4184C31.6812 8.4184 32.6113 8.80885 33.3047 9.48477H32.8397C32.2293 9.48477 31.7325 9.98142 31.7325 10.5919V11.685C31.7325 12.2953 32.2292 12.7921 32.8397 12.7921H34.4453V13.432H32.5989C32.3673 13.432 32.1793 13.62 32.1793 13.8517C32.1793 13.8521 32.1794 13.8525 32.1794 13.853C32.1794 13.8534 32.1793 13.8539 32.1793 13.8543C32.1793 14.086 32.3673 14.274 32.5989 14.274H35.1953C35.5346 14.274 35.8106 14.5488 35.8106 14.8868C35.8106 15.2261 35.5346 15.5023 35.1953 15.5023H32.6717C32.44 15.5023 32.252 15.6903 32.252 15.922C32.252 16.1536 32.44 16.3416 32.6717 16.3416H35.1953C35.9975 16.3416 36.6499 15.6888 36.6499 14.8868C36.6499 14.1164 36.0445 13.4906 35.2846 13.4435ZM2.58373 11.1377C2.58373 11.5869 2.21847 11.9521 1.76927 11.9521H0.903882C0.952115 11.3419 0.874674 10.9118 1.06402 10.3232H1.76927C2.21847 10.3232 2.58373 10.6885 2.58373 11.1377ZM17.5097 7.5801C17.0521 7.5801 16.6797 7.20767 16.6797 6.75007V3.36138C16.6797 2.90379 17.0521 2.53136 17.5097 2.53136H23.3012C23.3467 2.58318 23.3917 2.63532 23.4352 2.68938C23.4734 2.73705 23.5131 2.78371 23.5494 2.83262C23.6286 2.93949 23.7031 3.05061 23.7739 3.16487C23.7854 3.18345 23.7989 3.20091 23.8101 3.2196L26.4374 7.5801H17.5097ZM32.572 11.6849V10.5918C32.572 10.4443 32.6922 10.324 32.8398 10.324H33.9567C33.9592 10.3282 33.9619 10.3323 33.9643 10.3366C34.2249 10.7975 34.3969 11.3565 34.4359 11.9104C34.4369 11.9244 34.4366 11.9386 34.4375 11.9526H32.8399C32.6922 11.9527 32.572 11.8324 32.572 11.6849Z" fill="white"/>
<path d="M3.02905 15.0692C3.02905 17.3322 4.87028 19.1735 7.13328 19.1735C9.39629 19.1735 11.2372 17.3322 11.2372 15.0692C11.2372 12.8062 9.39629 10.9653 7.13328 10.9653C4.87028 10.9653 3.02905 12.8062 3.02905 15.0692ZM7.13328 11.8046C8.93344 11.8046 10.3979 13.2691 10.3979 15.0692C10.3979 16.8694 8.93344 18.3341 7.13328 18.3341C5.33313 18.3341 3.86836 16.8695 3.86836 15.0692C3.86836 13.269 5.33302 11.8046 7.13328 11.8046Z" fill="white"/>
<path d="M7.13333 16.9566C8.17397 16.9566 9.02066 16.1099 9.02066 15.069C9.02066 14.0283 8.17397 13.1816 7.13333 13.1816C6.09236 13.1816 5.24567 14.0283 5.24567 15.069C5.24567 16.1099 6.09236 16.9566 7.13333 16.9566ZM7.13333 14.021C7.71123 14.021 8.18135 14.4912 8.18135 15.069C8.18135 15.6471 7.71111 16.1173 7.13333 16.1173C6.55521 16.1173 6.08498 15.6471 6.08498 15.069C6.08498 14.4912 6.55521 14.021 7.13333 14.021Z" fill="white"/>
<path d="M27.3767 19.1735C29.6397 19.1735 31.4809 17.3322 31.4809 15.0692C31.4809 12.8062 29.6397 10.9653 27.3767 10.9653C25.1137 10.9653 23.2728 12.8062 23.2728 15.0692C23.2728 17.3322 25.1137 19.1735 27.3767 19.1735ZM27.3767 11.8046C29.1768 11.8046 30.6416 13.2691 30.6416 15.0692C30.6416 16.8694 29.1769 18.3341 27.3767 18.3341C25.5764 18.3341 24.1121 16.8695 24.1121 15.0692C24.1121 13.269 25.5765 11.8046 27.3767 11.8046Z" fill="white"/>
<path d="M12.9449 1.69263H11.2075C9.08002 1.69263 7.28222 3.21581 6.93307 5.31464L6.57216 7.48477C6.53333 7.7181 6.59891 7.95523 6.75189 8.13585C6.90487 8.31613 7.12812 8.41976 7.3647 8.41976H12.9448C13.3879 8.41976 13.7483 8.05941 13.7483 7.61648V2.4959C13.7484 2.05297 13.388 1.69263 12.9449 1.69263ZM12.9091 7.58034H7.40711L7.76096 5.45229C8.04263 3.76002 9.49207 2.53194 11.2075 2.53194H12.9091V7.58034Z" fill="white"/>
<path d="M27.3765 16.9566C28.4172 16.9566 29.2639 16.1099 29.2639 15.069C29.2639 14.0283 28.4172 13.1816 27.3765 13.1816C26.3359 13.1816 25.4892 14.0283 25.4892 15.069C25.4892 16.1099 26.3359 16.9566 27.3765 16.9566ZM27.3765 14.021C27.9544 14.021 28.4245 14.4912 28.4245 15.069C28.4245 15.6471 27.9543 16.1173 27.3765 16.1173C26.7987 16.1173 26.3285 15.6471 26.3285 15.069C26.3285 14.4912 26.7987 14.021 27.3765 14.021Z" fill="white"/>
<path d="M18.9747 10.3234C19.2064 10.3234 19.3944 10.1354 19.3944 9.90379C19.3944 9.67214 19.2064 9.48413 18.9747 9.48413H17.6428C17.4112 9.48413 17.2231 9.67214 17.2231 9.90379C17.2231 10.1354 17.4112 10.3234 17.6428 10.3234H18.9747Z" fill="white"/>
<path d="M20.3614 24.9735C19.9488 25.3861 19.9539 26.0554 20.3614 26.4631L23.3325 29.4343C24.4187 30.5205 25.9729 30.8603 27.3526 30.4535L30.0514 33.7861C30.9403 34.8836 32.5921 34.986 33.6061 33.9726C34.6088 32.9699 34.5255 31.3138 33.4198 30.4175L30.0862 27.7184C30.4921 26.3396 30.1522 24.7862 29.0664 23.7003C28.7629 23.3968 26.3352 20.969 26.0952 20.7288C25.6843 20.319 25.0165 20.3187 24.6056 20.7291L20.3614 24.9735ZM32.8915 31.0699C33.6291 31.6671 33.6474 32.744 33.0128 33.3792C32.3522 34.0392 31.2802 33.9692 30.7036 33.2576L28.158 30.114C28.8375 29.7393 29.3721 29.205 29.7472 28.5241L32.8915 31.0699ZM28.4731 28.8408C27.2191 30.0938 25.1796 30.0943 23.9261 28.8408L23.539 28.4537L28.086 23.9067L28.4732 24.2938C29.7266 25.5473 29.7266 27.587 28.4731 28.8408ZM25.5019 21.3228L27.4925 23.3132L22.9454 27.8603L20.9548 25.8697C20.8714 25.7861 20.8714 25.6506 20.9548 25.567L21.507 25.0149L22.2242 25.7324C22.3881 25.8963 22.6537 25.8963 22.8176 25.7324C22.9816 25.5688 22.9816 25.3029 22.8176 25.1389L22.1004 24.4215L22.7804 23.7416L23.4976 24.4588C23.6615 24.6228 23.9271 24.6228 24.091 24.4588C24.255 24.2949 24.255 24.0293 24.091 23.8654L23.3738 23.1482L24.0538 22.4683L24.7709 23.1854C24.9348 23.3494 25.2004 23.3494 25.3643 23.1854C25.5283 23.0215 25.5283 22.7559 25.3643 22.592L24.6472 21.875L25.1993 21.323C25.2827 21.2387 25.4197 21.24 25.5019 21.3228Z" fill="white"/>
</svg>
