<svg width="32" height="32" viewBox="0 0 32 32" fill="none" xmlns="http://www.w3.org/2000/svg">
<path d="M17.0665 26.6666C17.8048 26.6666 18.5266 26.4477 19.1406 26.0374C19.7545 25.6272 20.233 25.0441 20.5156 24.362C20.7982 23.6798 20.8721 22.9291 20.7281 22.2049C20.584 21.4808 20.2284 20.8155 19.7063 20.2934C19.1842 19.7713 18.519 19.4157 17.7948 19.2717C17.0706 19.1276 16.32 19.2016 15.6378 19.4841C14.9556 19.7667 14.3725 20.2452 13.9623 20.8592C13.5521 21.4731 13.3331 22.1949 13.3331 22.9333C13.3342 23.9231 13.7279 24.872 14.4278 25.5719C15.1277 26.2718 16.0767 26.6655 17.0665 26.6666ZM17.0665 20.2666C17.5939 20.2666 18.1095 20.423 18.548 20.716C18.9865 21.0091 19.3283 21.4255 19.5301 21.9128C19.732 22.4001 19.7848 22.9362 19.6819 23.4535C19.579 23.9708 19.325 24.446 18.9521 24.8189C18.5791 25.1918 18.104 25.4458 17.5867 25.5487C17.0694 25.6516 16.5332 25.5988 16.046 25.397C15.5587 25.1951 15.1422 24.8533 14.8492 24.4148C14.5562 23.9763 14.3998 23.4607 14.3998 22.9333C14.4006 22.2263 14.6818 21.5485 15.1817 21.0486C15.6817 20.5486 16.3595 20.2674 17.0665 20.2666Z" fill="white"/>
<path d="M24.4886 24.8698L25.7242 24.5735C25.8407 24.5456 25.9444 24.4792 26.0186 24.3852C26.0928 24.2911 26.1332 24.1747 26.1332 24.0549V21.8118C26.1332 21.692 26.0928 21.5757 26.0186 21.4816C25.9444 21.3875 25.8407 21.3211 25.7242 21.2932L24.4887 20.997C24.2895 20.9492 24.1044 20.855 23.9486 20.722C23.7928 20.589 23.6707 20.421 23.5923 20.2318C23.5139 20.0425 23.4814 19.8374 23.4974 19.6332C23.5135 19.429 23.5777 19.2315 23.6847 19.0569L24.3529 17.9664C24.4155 17.8642 24.4419 17.744 24.4278 17.625C24.4137 17.5061 24.36 17.3953 24.2753 17.3106L22.6892 15.7246C22.6045 15.64 22.4938 15.5862 22.3748 15.5722C22.2559 15.5581 22.1356 15.5845 22.0335 15.647L20.943 16.3153C20.7684 16.4223 20.5709 16.4864 20.3667 16.5025C20.1625 16.5185 19.9574 16.486 19.7682 16.4076C19.5789 16.3292 19.411 16.2071 19.278 16.0513C19.145 15.8955 19.0507 15.7105 19.003 15.5113L18.7067 14.2757C18.6788 14.1592 18.6124 14.0555 18.5183 13.9813C18.4242 13.9071 18.3079 13.8667 18.1881 13.8667H15.945C15.8251 13.8667 15.7088 13.907 15.6147 13.9812C15.5206 14.0554 15.4543 14.1592 15.4264 14.2757L15.1301 15.5112C15.0824 15.7104 14.9881 15.8955 14.8551 16.0513C14.7221 16.2071 14.5542 16.3292 14.3649 16.4076C14.1757 16.486 13.9706 16.5185 13.7664 16.5024C13.5622 16.4864 13.3647 16.4222 13.19 16.3152L12.0995 15.647L11.5422 16.5565L12.6327 17.2247C12.9509 17.4197 13.3107 17.5366 13.6827 17.5658C14.0548 17.5951 14.4285 17.5359 14.7732 17.393C15.118 17.2501 15.424 17.0277 15.6663 16.7439C15.9087 16.46 16.0803 16.1229 16.1674 15.76L16.3655 14.9334H17.7675L17.9657 15.76C18.0527 16.1229 18.2244 16.46 18.4667 16.7439C18.709 17.0277 19.015 17.2501 19.3598 17.393C19.7045 17.5359 20.0782 17.5951 20.4502 17.5659C20.8223 17.5366 21.1821 17.4197 21.5003 17.2248L22.2323 16.7762L23.2237 17.7675L22.7752 18.4995C22.5802 18.8177 22.4633 19.1775 22.434 19.5496C22.4048 19.9216 22.464 20.2953 22.6069 20.6401C22.7497 20.9848 22.9722 21.2909 23.256 21.5332C23.5398 21.7755 23.877 21.9472 24.2399 22.0342L25.0665 22.2324V23.6343L24.2399 23.8326C23.877 23.9196 23.5399 24.0913 23.256 24.3336C22.9722 24.5759 22.7498 24.8819 22.6069 25.2266C22.464 25.5714 22.4048 25.9451 22.434 26.3171C22.4633 26.6891 22.5801 27.049 22.7751 27.3672L23.2237 28.0992L22.2323 29.0906L21.5004 28.642C21.1822 28.447 20.8223 28.3301 20.4503 28.3009C20.0783 28.2716 19.7046 28.3309 19.3598 28.4737C19.015 28.6166 18.709 28.839 18.4667 29.1229C18.2244 29.4067 18.0527 29.7438 17.9657 30.1067L17.7675 30.9334H16.3655L16.1673 30.1067C16.0803 29.7438 15.9086 29.4067 15.6663 29.1229C15.424 28.839 15.118 28.6166 14.7732 28.4737C14.4285 28.3309 14.0548 28.2716 13.6828 28.3009C13.3108 28.3301 12.9509 28.447 12.6327 28.642L11.5422 29.3102L12.0995 30.2197L13.19 29.5515C13.3647 29.4445 13.5622 29.3803 13.7664 29.3643C13.9706 29.3482 14.1757 29.3807 14.3649 29.4591C14.5541 29.5376 14.7221 29.6596 14.8551 29.8154C14.9881 29.9712 15.0823 30.1563 15.1301 30.3554L15.4264 31.591C15.4543 31.7076 15.5206 31.8113 15.6147 31.8855C15.7088 31.9597 15.8251 32 15.945 32H18.1881C18.3079 32 18.4242 31.9597 18.5183 31.8855C18.6124 31.8113 18.6788 31.7076 18.7067 31.591L19.0029 30.3555C19.0507 30.1563 19.1449 29.9713 19.2779 29.8155C19.4109 29.6597 19.5789 29.5376 19.7681 29.4592C19.9573 29.3807 20.1624 29.3482 20.3667 29.3643C20.5709 29.3803 20.7684 29.4445 20.943 29.5515L22.0335 30.2198C22.1357 30.2823 22.2559 30.3087 22.3749 30.2946C22.4938 30.2806 22.6046 30.2268 22.6893 30.1422L24.2752 28.5562C24.3599 28.4714 24.4137 28.3607 24.4277 28.2417C24.4418 28.1227 24.4154 28.0025 24.3528 27.9004L23.6846 26.8099C23.5776 26.6352 23.5135 26.4377 23.4974 26.2335C23.4814 26.0293 23.5139 25.8242 23.5923 25.635C23.6707 25.4458 23.7928 25.2778 23.9486 25.1448C24.1044 25.0118 24.2894 24.9176 24.4886 24.8698Z" fill="white"/>
<path d="M31.4664 14.9334H29.3331V12.2667C29.3331 12.1253 29.2769 11.9896 29.1769 11.8896C29.0768 11.7896 28.9412 11.7334 28.7997 11.7334H26.6664C26.525 11.7334 26.3893 11.7896 26.2893 11.8896C26.1893 11.9896 26.1331 12.1253 26.1331 12.2667V14.9334H24.5331V16.0001H30.9331V18.1334H25.0664V19.2001H30.9331V21.3334H27.1997V22.4001H30.9331V24.5334H27.1997V25.6001H30.9331V27.7334H25.5997V28.8001H26.1331V31.4667C26.1331 31.6082 26.1893 31.7438 26.2893 31.8438C26.3893 31.9439 26.525 32.0001 26.6664 32.0001H28.7997C28.9412 32.0001 29.0768 31.9439 29.1769 31.8438C29.2769 31.7438 29.3331 31.6082 29.3331 31.4667V28.8001H31.4664C31.6079 28.8001 31.7435 28.7439 31.8435 28.6438C31.9435 28.5438 31.9997 28.4082 31.9997 28.2667V15.4667C31.9997 15.3253 31.9435 15.1896 31.8435 15.0896C31.7435 14.9896 31.6079 14.9334 31.4664 14.9334ZM28.2664 14.9334H27.1997V12.8001H28.2664V14.9334ZM28.2664 30.9334H27.1997V28.8001H28.2664V30.9334Z" fill="white"/>
<path d="M8.15208 15.3145L7.84792 16.3368C9.05827 16.6969 9.6 17.2305 9.6 17.5997C9.6 17.931 9.18268 18.3223 8.51087 18.6208C7.67096 18.9941 6.54245 19.1997 5.33333 19.1997C2.72878 19.1997 1.06667 18.2521 1.06667 17.5997C1.06667 17.2305 1.6084 16.6969 2.81875 16.3368L2.51458 15.3145C0.916537 15.7898 0 16.6228 0 17.5997V29.4855C0 30.2447 0.616406 30.9173 1.73574 31.3792C2.7054 31.7794 3.98301 31.9997 5.33333 31.9997C6.68366 31.9997 7.96126 31.7794 8.93092 31.3792C10.0503 30.9173 10.6667 30.2447 10.6667 29.4855V17.5997C10.6667 16.6228 9.75013 15.7898 8.15208 15.3145ZM2.13333 30.3892C1.48511 30.1199 1.06667 29.7658 1.06667 29.4855V28.3049C1.40051 28.5205 1.75852 28.6962 2.13333 28.8284V30.3892ZM4.8 30.9201C4.26192 30.8969 3.72671 30.8288 3.2 30.7164V29.1264C3.72739 29.2332 4.26239 29.2982 4.8 29.3208V30.9201ZM7.46667 30.7164C6.93995 30.8288 6.40475 30.8969 5.86667 30.9201V29.3208C6.40428 29.2982 6.93927 29.2332 7.46667 29.1264V30.7164ZM9.6 29.4855C9.6 29.7658 9.18156 30.1199 8.53333 30.3892V28.8284C8.90815 28.6962 9.26616 28.5205 9.6 28.3049V29.4855ZM9.6 26.6664C9.6 26.9977 9.18268 27.3889 8.51087 27.6875C7.67096 28.0608 6.54245 28.2664 5.33333 28.2664C2.72878 28.2664 1.06667 27.3188 1.06667 26.6664V19.2382C2.02376 19.8714 3.54945 20.2664 5.33333 20.2664C7.11722 20.2664 8.6429 19.8714 9.6 19.2382V26.6664Z" fill="white"/>
<path d="M3.19997 20.8H2.1333V26.6667H3.19997V20.8Z" fill="white"/>
<path d="M5.86672 21.3333H4.80005V27.1999H5.86672V21.3333Z" fill="white"/>
<path d="M8.53359 20.8H7.46692V26.6667H8.53359V20.8Z" fill="white"/>
<path d="M4.80007 13.3334C4.80007 13.1919 4.85626 13.0563 4.95627 12.9563C5.05629 12.8563 5.19195 12.8001 5.3334 12.8001C5.47485 12.8001 5.6105 12.8563 5.71052 12.9563C5.81054 13.0563 5.86673 13.1919 5.86673 13.3334V17.6001H6.9334V13.3334C6.9334 12.9091 6.76483 12.5021 6.46477 12.202C6.16471 11.902 5.75774 11.7334 5.3334 11.7334C4.90905 11.7334 4.50209 11.902 4.20203 12.202C3.90197 12.5021 3.7334 12.9091 3.7334 13.3334V17.6001H4.80007V13.3334Z" fill="white"/>
<path d="M6.40005 10.6667H14.1334L15.5734 12.5867C15.623 12.6529 15.6875 12.7067 15.7615 12.7437C15.8356 12.7807 15.9172 12.8 16 12.8C16.0829 12.8 16.1645 12.7807 16.2386 12.7437C16.3126 12.7067 16.3771 12.6529 16.4267 12.5867L17.8667 10.6667H25.6C26.0242 10.6662 26.4309 10.4975 26.7309 10.1975C27.0308 9.89755 27.1996 9.49086 27.2001 9.06667V1.6C27.1996 1.1758 27.0308 0.769118 26.7309 0.469165C26.4309 0.169212 26.0242 0.000485226 25.6 0H6.40005C5.97585 0.000485226 5.56917 0.169212 5.26921 0.469165C4.96926 0.769118 4.80053 1.1758 4.80005 1.6V9.06667C4.80053 9.49086 4.96926 9.89755 5.26921 10.1975C5.56917 10.4975 5.97585 10.6662 6.40005 10.6667ZM5.86672 1.6C5.86688 1.4586 5.92312 1.32304 6.0231 1.22305C6.12309 1.12307 6.25865 1.06683 6.40005 1.06667H25.6C25.7414 1.06683 25.877 1.12307 25.977 1.22305C26.077 1.32304 26.1332 1.4586 26.1334 1.6V9.06667C26.1332 9.20807 26.077 9.34363 25.977 9.44361C25.877 9.5436 25.7414 9.59984 25.6 9.6H17.6C17.5172 9.6 17.4356 9.61928 17.3615 9.65631C17.2875 9.69334 17.223 9.74711 17.1734 9.81335L16 11.3778L14.8267 9.81335C14.7771 9.74711 14.7126 9.69334 14.6386 9.65631C14.5645 9.61928 14.4829 9.6 14.4 9.6H6.40005C6.25865 9.59984 6.12309 9.5436 6.0231 9.44361C5.92312 9.34363 5.86688 9.20807 5.86672 9.06667V1.6Z" fill="white"/>
<path d="M10.6669 8.5333H12.8003C13.6489 8.5333 14.4629 8.19616 15.063 7.59604C15.6631 6.99593 16.0003 6.18199 16.0003 5.3333C16.0003 4.48461 15.6631 3.67068 15.063 3.07056C14.4629 2.47044 13.6489 2.1333 12.8003 2.1333H10.6669C9.81823 2.1333 9.00429 2.47044 8.40418 3.07056C7.80406 3.67068 7.46692 4.48461 7.46692 5.3333C7.46692 6.18199 7.80406 6.99593 8.40418 7.59604C9.00429 8.19616 9.81823 8.5333 10.6669 8.5333ZM14.8661 4.79997H13.8216C13.7221 4.21183 13.4597 3.66337 13.0642 3.21688C13.4883 3.27041 13.8867 3.44985 14.2079 3.73204C14.5291 4.01423 14.7584 4.38621 14.8661 4.79997ZM13.8216 5.86663H14.8661C14.7584 6.28039 14.5291 6.65238 14.2079 6.93456C13.8867 7.21675 13.4883 7.39619 13.0642 7.44972C13.4597 7.00323 13.7221 6.45477 13.8216 5.86663ZM10.6669 3.19997C11.0889 3.19997 11.5013 3.32509 11.8521 3.5595C12.203 3.79391 12.4764 4.12709 12.6379 4.51691C12.7993 4.90672 12.8416 5.33567 12.7593 5.74949C12.6769 6.16332 12.4738 6.54344 12.1754 6.84179C11.8771 7.14015 11.4969 7.34333 11.0831 7.42564C10.6693 7.50796 10.2403 7.46571 9.85053 7.30424C9.46071 7.14278 9.12753 6.86934 8.89312 6.51852C8.6587 6.16769 8.53359 5.75523 8.53359 5.3333C8.53423 4.7677 8.7592 4.22546 9.15914 3.82552C9.55908 3.42558 10.1013 3.20061 10.6669 3.19997Z" fill="white"/>
<path d="M20.2665 5.5542L20.956 6.24378C21.056 6.34377 21.1917 6.39993 21.3331 6.39993C21.4746 6.39993 21.6102 6.34377 21.7103 6.24378L23.9998 3.95426V5.3333H25.0665V2.66663C25.0665 2.52519 25.0103 2.38954 24.9103 2.28952C24.8102 2.1895 24.6746 2.13331 24.5331 2.1333H21.8665V3.19997H23.2455L21.3331 5.1124L20.6436 4.42282C20.5436 4.32283 20.4079 4.26667 20.2665 4.26667C20.125 4.26667 19.9894 4.32283 19.8893 4.42282L16.6893 7.62282L17.4436 8.37712L20.2665 5.5542Z" fill="white"/>
</svg>
