<svg xmlns="http://www.w3.org/2000/svg" viewBox="0 0 48 48"><title>crankshaft</title><g id="_crankshaft" data-name=" crankshaft"><path d="M40,22.87l-.48.48L37.89,21.7,34.58,25l1.66,1.65-.49.49a4,4,0,0,1-5.65,0L28,25l-3.31,3.31,3.55,3.55a2,2,0,0,1,0,2.83l-.48.49a2,2,0,0,1-2.83,0L18,28.32l-3.31,3.31,6.87,6.87a2,2,0,0,1,0,2.83l-.49.48a2,2,0,0,1-2.82,0l-3.56-3.55L11.4,41.57l-5-5,3.31-3.31L7.61,31.15a4,4,0,0,1,0-5.66L8.09,25l1.65,1.65,3.32-3.31L11.4,21.7l.48-.49a4,4,0,0,1,5.66,0l2.14,2.14L23,20l-3.55-3.55a2,2,0,0,1,0-2.83l.48-.48a2,2,0,0,1,2.83,0L29.61,20l3.32-3.31L26.06,9.87a2,2,0,0,1,0-2.83l.48-.49a2,2,0,0,1,2.83,0l4.38,4.38,3.18-3.17,3.32,3.32-3.18,3.17,3,3A4,4,0,0,1,40,22.87Z"/><path d="M39,1,36,4l8,8,3-3Z"/><rect x="1.46" y="40.88" width="7.07" height="4.24" transform="translate(-28.94 16.13) rotate(-45)"/></g></svg>