<?xml version="1.0" encoding="utf-8"?>
<!-- Generator: Adobe Illustrator 28.2.0, SVG Export Plug-In . SVG Version: 6.00 Build 0)  -->
<svg version="1.0" id="Layer_1" xmlns="http://www.w3.org/2000/svg" xmlns:xlink="http://www.w3.org/1999/xlink" x="0px" y="0px"
	 viewBox="0 0 64 64" style="enable-background:new 0 0 64 64;" xml:space="preserve">
<style type="text/css">
	.st0{fill:none;stroke:#282525;stroke-width:2;stroke-linecap:round;stroke-linejoin:round;stroke-miterlimit:10;}
	.st1{fill:none;stroke:#231F20;stroke-width:2;stroke-linecap:round;stroke-linejoin:round;stroke-miterlimit:10;}
</style>
<g>
	<circle class="st0" cx="32.4" cy="11.2" r="8.7"/>
	<path class="st0" d="M15.7,34v-2.9c0-6.2,5-11.2,11.2-11.2h11c6.2,0,11.2,5,11.2,11.2V34"/>
	<polygon class="st0" points="32.4,26.8 38.2,38.4 51,40.3 41.7,49.3 43.9,62.1 32.4,56.1 20.9,62.1 23.1,49.3 13.8,40.3 26.7,38.4 
			"/>
	<polyline class="st0" points="46.1,45.1 62.3,45.1 54.3,51.8 62.3,58.5 43.3,58.5 	"/>
	<polyline class="st0" points="18.8,45.1 2.5,45.1 10.5,51.8 2.5,58.5 21.6,58.5 	"/>
</g>
</svg>
