<svg xmlns="http://www.w3.org/2000/svg" viewBox="0 0 48 48"><defs><style>.cls-1{fill:#231f20;}</style></defs><title>crankshaft</title><g id="_crankshaft" data-name=" crankshaft"><path class="cls-1" d="M47.71,8.29l-8-8a1,1,0,0,0-1.42,0l-3,3a1,1,0,0,0,0,1.42l1.64,1.63L33.75,9.52,30.08,5.85a3,3,0,0,0-4.24,0l-.49.48a3,3,0,0,0,0,4.24l6.16,6.16-1.9,1.9-6.15-6.16a3.09,3.09,0,0,0-4.25,0l-.48.48a3,3,0,0,0,0,4.25L21.58,20l-1.9,1.9-1.43-1.43a5,5,0,0,0-7.07,0l-.49.48a1,1,0,0,0,0,1.41l1,1-1.9,1.9L8.8,24.3a1,1,0,0,0-1.42,0l-.48.49a5,5,0,0,0,0,7.07l1.43,1.43-2.6,2.6a1,1,0,0,0,0,1.42l.27.27L.29,43.29a1,1,0,0,0,0,1.42C3.41,47.82,3.42,48,4,48s.29.13,6.42-6c1.2,1.2,1.35.61,4.29-2.33,2.76,2.76,3.35,3.72,5,3.72,2.48,0,4.8-3.41,2.6-5.6l-6.15-6.16L18,29.73l6.16,6.16a3,3,0,0,0,4.24,0h0l.49-.48a3,3,0,0,0,0-4.24l-2.85-2.85,1.9-1.9,1.43,1.44a5,5,0,0,0,7.07,0l.48-.49a1,1,0,0,0,0-1.41L36,25l1.89-1.9c.89.89,1.11,1.24,1.66,1.24s.69-.28,1.19-.77a5,5,0,0,0,0-7.07l-2.26-2.26,3.18-3.18,1.63,1.64a1,1,0,0,0,1.42,0l3-3A1,1,0,0,0,47.71,8.29ZM4,45.59,2.41,44l5-5L9,40.58Zm7.4-5.44L7.85,36.6l1.89-1.9,3.56,3.56Zm9.47.47-.48.48a1,1,0,0,1-1.42,0L8.31,30.44a3,3,0,0,1-.21-4L20.87,39.2A1,1,0,0,1,20.87,40.62Zm-6.16-10.4-3.55-3.56,1.9-1.89,3.55,3.55ZM27.49,34l-.48.48a1,1,0,0,1-1.41,0L12.83,21.71a3,3,0,0,1,4,.21L27.49,32.58A1,1,0,0,1,27.49,34Zm-2.84-7.09-3.56-3.56L23,21.46c2,2,1.16,1.15,3.55,3.55Zm6.15-.47c-12.39-12.39-1.51-1.51-10.65-10.66a1,1,0,0,1,0-1.41c.6-.6.75-.78,1.19-.78.6,0-.39-.81,13.48,13.06A3,3,0,0,1,30.8,26.44Zm3.78-2.85L31,20l1.9-1.9,3.55,3.56Zm5-1.66L26.77,9.16a1,1,0,0,1,0-1.42C27.32,7.19,27.48,7,28,7s-.23-.64,11.37,11A3,3,0,0,1,39.54,21.93Zm-2.47-9.09-1.91-1.91,3.18-3.18,1.91,1.91ZM44,10.59,37.41,4,39,2.41,45.59,9Z"/></g></svg>