<?xml version="1.0" encoding="UTF-8"?>
<svg xmlns="http://www.w3.org/2000/svg" version="1.1" viewBox="0 0 64 64">
  <defs>
    <style>
      .cls-1 {
        fill: #282525;
      }
    </style>
  </defs>
  <!-- Generator: Adobe Illustrator 28.7.1, SVG Export Plug-In . SVG Version: 1.2.0 Build 142)  -->
  <g>
    <g id="Layer_1">
      <g>
        <circle class="cls-1" cx="32.4" cy="11.2" r="8.7"/>
        <path class="cls-1" d="M15.7,34v-2.9c0-6.2,5-11.2,11.2-11.2h11c6.2,0,11.2,5,11.2,11.2v2.9"/>
        <polygon class="cls-1" points="32.4 35.2 36.7 43.8 46.2 45.3 39.3 51.9 40.9 61.5 32.4 57 23.9 61.5 25.5 51.9 18.6 45.3 28.2 43.8 32.4 35.2"/>
        <polyline class="cls-1" points="42.6 48.8 54.6 48.8 48.7 53.8 54.6 58.8 40.5 58.8"/>
        <polyline class="cls-1" points="22.3 48.8 10.2 48.8 16.1 53.8 10.2 58.8 24.4 58.8"/>
      </g>
    </g>
  </g>
</svg>