<svg xmlns="http://www.w3.org/2000/svg" viewBox="0 0 48 48"><defs><style>.cls-1{fill:#231f20;}</style></defs><title>Tire</title><g id="Tire"><path class="cls-1" d="M40.05,18.41A17,17,0,1,0,11.24,35.24,17.22,17.22,0,0,0,24,41,17,17,0,0,0,40.05,18.41ZM35.87,33.13c-7.59-6.61-6.87-5.8-6.64-6.2l8.47,3.15A14.87,14.87,0,0,1,35.87,33.13ZM10.3,30.08c9.41-3.51,8.38-3.27,8.64-2.88l-6.81,5.93A14.87,14.87,0,0,1,10.3,30.08ZM9.55,20l1.88.67a13,13,0,0,0,.05,6.81l-1.87.69A14.74,14.74,0,0,1,9.55,20Zm2.43-5c7.71,6.49,7,5.68,6.74,6.09l-8.53-3A14.93,14.93,0,0,1,12,15.07Zm9.89,3.33a6,6,0,0,0-1.68,1l-3.86-3.25A11,11,0,0,1,21,13.43Zm-8.51,8.41a11,11,0,0,1,0-5.44l4.76,1.69a5.5,5.5,0,0,0,0,2ZM15,33.33a13.14,13.14,0,0,0,5.66,3.22l-.35,2a15,15,0,0,1-6.82-3.87Zm6,1.24A11,11,0,0,1,16.46,32l3.81-3.32a6,6,0,0,0,1.6.91ZM20,24a4,4,0,1,1,4,4A4,4,0,0,1,20,24Zm7-10.57a11,11,0,0,1,4.64,2.69l-3.86,3.25a6,6,0,0,0-1.68-1Zm10.78,4.71c-9.46,3.35-8.45,3.14-8.69,2.74L36,15.07A14.93,14.93,0,0,1,37.81,18.14Zm-3.17,8.67L29.9,25a5.5,5.5,0,0,0,0-2l4.76-1.69A11.13,11.13,0,0,1,34.64,26.81Zm-6.91,1.88L31.54,32A11,11,0,0,1,27,34.57l-.9-5A6,6,0,0,0,27.73,28.69Zm-.34,7.86a13.14,13.14,0,0,0,5.66-3.22l1.51,1.31a15,15,0,0,1-6.82,3.87Zm9.13-9a13,13,0,0,0,0-6.81L38.45,20a14.74,14.74,0,0,1-.06,8.17Zm-1.79-14L33.2,14.83a13,13,0,0,0-5.81-3.38l.35-2A15,15,0,0,1,34.73,13.54ZM25.78,9.12C24,19,24.24,18,24,18s0,1-1.78-8.88A13.26,13.26,0,0,1,25.78,9.12Zm-5.52.37.35,2a13,13,0,0,0-5.81,3.38l-1.53-1.29A15,15,0,0,1,20.26,9.49Zm2,29.39C24,29,23.76,30,24,30s0-1,1.78,8.88A13.26,13.26,0,0,1,22.22,38.88Z"/><path class="cls-1" d="M48,24A24,24,0,1,0,24,48,24,24,0,0,0,48,24ZM40,36.68a1,1,0,0,0-1.9.64L39,40.09A21.88,21.88,0,0,1,25.4,46L26,44.32a1,1,0,0,0-1.9-.64L23.29,46A22,22,0,0,1,9.52,40.55l1.8-.6a1,1,0,0,0-.64-1.9L7.91,39A21.88,21.88,0,0,1,2.05,25.4c1.8.6,1.74.6,2,.6a1,1,0,0,0,.32-1.95L2,23.29A21.91,21.91,0,0,1,7.57,9.39C8.14,10.52,8.26,11,9,11a1,1,0,0,0,.89-1.45L9.06,7.87A21.9,21.9,0,0,1,22.6,2.05l-.55,1.63a1,1,0,0,0,1.9.64L24.71,2a21.91,21.91,0,0,1,13.9,5.55l-1.06.54a1,1,0,0,0,.9,1.78l1.68-.83A21.9,21.9,0,0,1,46,22.6l-1.63-.55a1,1,0,0,0-.64,1.9l2.3.76a22,22,0,0,1-5.43,13.77Z"/><circle class="cls-1" cx="24" cy="24" r="2"/></g></svg>