<svg xmlns="http://www.w3.org/2000/svg" viewBox="0 0 48 48"><title>Tire</title><g id="Tire"><path d="M44.68,24a1,1,0,0,1,.64-1.9l1.63.54A22.82,22.82,0,0,0,40.74,8.25C39.32,9,39.3,9,39,9a1,1,0,0,1-.45-1.89l.67-.34A22.79,22.79,0,0,0,24.72,1C24.06,3,24,4,23,4a1,1,0,0,1-.95-1.32l.54-1.63A22.82,22.82,0,0,0,8.25,7.26l.64,1.29a1,1,0,0,1-1.78.9l-.34-.67A22.79,22.79,0,0,0,1,23.28l2.3.77A1,1,0,0,1,2.68,26l-1.63-.54A22.82,22.82,0,0,0,7.33,39.83l2.35-.78a1,1,0,0,1,.64,1.9L9,41.4A22.82,22.82,0,0,0,23.28,47l.77-2.3a1,1,0,0,1,1.9.64L25.41,47a22.82,22.82,0,0,0,14.42-6.28l-.78-2.35a1,1,0,0,1,1.9-.64L41.4,39A22.82,22.82,0,0,0,47,24.72ZM24,42A18,18,0,1,1,42,24,18,18,0,0,1,24,42Z"/><path d="M19.83,12.74c-.06-.31.05.25-.73-4a15.78,15.78,0,0,0-5.88,3.42l3.1,2.6A11.77,11.77,0,0,1,19.83,12.74Z"/><path d="M34.79,12.19A16,16,0,0,0,28.9,8.77c-.74,4-.69,3.73-.73,4a11.67,11.67,0,0,1,3.52,2C31.93,14.6,31.34,15.09,34.79,12.19Z"/><path d="M35.84,22a12.39,12.39,0,0,1,0,4.13c.37.16-.23-.07,3.78,1.43a16,16,0,0,0,.06-6.92C35.75,22.05,36.07,21.93,35.84,22Z"/><path d="M31.53,33.34a11.83,11.83,0,0,1-3.35,1.92c.05.34-.06-.29.72,4A16.26,16.26,0,0,0,34.59,36C31.49,33.29,31.74,33.5,31.53,33.34Z"/><path d="M13.41,35.89A16.42,16.42,0,0,0,19.25,39c.76-3.88.71-3.58.75-3.83a12.27,12.27,0,0,1-3.45-1.83C16.28,33.54,16.71,33.2,13.41,35.89Z"/><path d="M12.19,26.17a12.21,12.21,0,0,1,0-4.13c-.29-.12.48.16-3.82-1.37a16.15,16.15,0,0,0,.07,6.92C12.29,26.14,12,26.27,12.19,26.17Z"/><path d="M17.32,21.93a6.84,6.84,0,0,1,1.5-2.64c-4.73-3.71-3.15-2.42-7-5.66a15.65,15.65,0,0,0-2.93,5.11C13.63,20.43,11.73,19.71,17.32,21.93Z"/><path d="M18.87,28.76a6.91,6.91,0,0,1-1.54-2.62C11.8,28.5,13.69,27.75,9,29.51a16,16,0,0,0,3,5.07C15.79,31.27,14.24,32.59,18.87,28.76Z"/><path d="M25.45,30.85a6.91,6.91,0,0,1-2.9,0c-.94,5.94-.59,3.93-1.5,8.89a16.25,16.25,0,0,0,5.9,0C26,34.77,26.39,36.78,25.45,30.85Z"/><path d="M30.67,26.14a7,7,0,0,1-1.54,2.63c4.63,3.82,3.08,2.5,6.88,5.81a16,16,0,0,0,3-5.07C34.31,27.75,36.2,28.5,30.67,26.14Z"/><path d="M29.17,19.3a6.68,6.68,0,0,1,1.51,2.63c5.6-2.22,3.68-1.5,8.43-3.19a15.65,15.65,0,0,0-2.93-5.11C32.33,16.87,33.91,15.58,29.17,19.3Z"/><path d="M22.55,17.15a6.75,6.75,0,0,1,2.9,0c.94-5.94.59-3.93,1.5-8.89a16.25,16.25,0,0,0-5.9,0C22,13.23,21.61,11.22,22.55,17.15Z"/><path d="M28.82,22.67a5,5,0,1,0-3.68,6.2A5,5,0,0,0,28.82,22.67ZM24,27a3,3,0,1,1,3-3A3,3,0,0,1,24,27Z"/><path d="M24,23a1,1,0,0,0,0,2A1,1,0,0,0,24,23Z"/></g></svg>