<svg width="35" height="33" viewBox="0 0 35 33" fill="none" xmlns="http://www.w3.org/2000/svg">
<path fill-rule="evenodd" clip-rule="evenodd" d="M24.6456 12.0643C24.4815 12.0643 24.3175 11.9633 24.2355 11.8218L22.5747 8.97244C22.2671 8.44703 23.0873 7.98224 23.3948 8.50766L25.0557 11.357C25.2402 11.6601 24.9941 12.0643 24.6456 12.0643ZM3.73169 26.6344V23.3607C3.73169 23.1586 3.7727 22.9767 3.83421 22.8151C1.90685 22.3301 2.21441 19.4605 4.26479 19.4605H5.86409L7.34036 15.722C7.60691 15.0147 8.099 14.0447 9.20621 13.8022C10.0059 13.6203 17.9203 13.7618 19.4991 13.8022H19.6016C20.6883 14.0447 21.1804 15.0147 21.4675 15.722L22.9233 19.4605H24.5226C26.5729 19.4605 26.901 22.3301 24.9531 22.8151C25.0352 22.9767 25.0762 23.1586 25.0762 23.3607V27.7863C25.0762 28.6754 24.338 29.4029 23.4359 29.4029H22.4927V30.9994C22.4927 32.0906 21.5905 33 20.4833 33C19.3761 33 18.4534 32.0906 18.4534 30.9994V29.4029H10.3339V30.9994C10.3339 32.0906 9.43175 33 8.32455 33C7.21734 33 6.31517 32.0906 6.31517 30.9994V29.4029H5.372C4.46983 29.4029 3.73169 28.6754 3.73169 27.7863V26.6344ZM24.1125 26.1696V23.3607C24.1125 23.0576 23.8664 22.8555 23.5589 22.8555H5.18746C4.92091 22.8555 4.69537 23.0778 4.69537 23.3607V26.1696H10.5595V25.5836C10.5595 24.7551 11.2566 24.068 12.1178 24.068H16.6901C17.5308 24.068 18.2279 24.7551 18.2279 25.5836V26.1696H24.1125ZM4.67487 27.1194C4.67487 27.6448 4.57235 28.4734 5.372 28.4734H23.4359C24.215 28.4734 24.1125 27.6448 24.1125 27.1194H4.67487ZM4.90041 21.9259L5.49502 20.4103H4.26479V20.3901C3.26011 20.3901 3.2396 21.9259 4.26479 21.9259H4.90041ZM5.9256 21.9259H7.36087C7.66843 21.0367 9.18571 16.5101 9.47276 16.0251C9.6983 15.6614 10.4569 15.7624 10.9695 15.7624L18.9455 15.823C19.2941 15.8432 19.4376 16.207 19.5401 16.4697L21.447 21.9259H22.8617L20.5653 16.0655C20.2578 15.2774 19.9092 14.853 19.4376 14.7318C15.8289 14.6712 9.96485 14.6105 9.41125 14.7318C8.91916 14.8328 8.55009 15.2572 8.22203 16.0655L5.9256 21.9259ZM8.36555 21.9259H20.4218C20.2373 21.3601 18.72 16.9143 18.6175 16.7728L10.9695 16.7122C10.703 16.7122 10.4569 16.7122 10.1904 16.7122C9.98535 17.1972 8.67311 21.0974 8.36555 21.9259ZM7.27885 29.4029V30.9994C7.27885 32.3735 9.37024 32.3735 9.37024 30.9994V29.4029H7.27885ZM19.4171 29.4029V30.9994C19.4171 32.3735 21.529 32.3735 21.529 30.9994V29.4029H19.4171ZM23.8869 21.9259H24.5431C25.5477 21.9259 25.5477 20.3901 24.5431 20.3901H23.2923L23.8869 21.9259ZM11.5231 26.1696H17.2642C17.2642 25.725 17.3462 25.0178 16.6901 25.0178H12.1178C11.4411 25.0178 11.5231 25.725 11.5231 26.1696ZM32.9291 33C31.8014 33 30.8787 32.0704 30.8787 30.959V4.06185H24.379V5.35517C24.379 6.00184 23.8459 6.52725 23.1898 6.52725H18.0434C17.3872 6.52725 16.8541 6.00184 16.8541 5.35517V4.06185H11.9537V5.35517C11.9537 6.00184 11.4001 6.52725 10.7645 6.52725H5.59754C4.94142 6.52725 4.40832 6.00184 4.40832 5.35517V4.06185H2.07088C0.922671 4.06185 0 3.15248 0 2.04103C0 0.909369 0.922671 0 2.07088 0H32.9291C34.0568 0 35 0.909369 35 2.04103V30.959C35 32.0704 34.0773 33 32.9291 33ZM2.07088 0.949786C0.615114 0.949786 0.615114 3.11206 2.07088 3.11206H31.3503C31.6169 3.11206 31.8219 3.33435 31.8219 3.59706V30.959C31.8219 32.3938 34.0363 32.3938 34.0363 30.959V2.04103C34.0363 1.43478 33.5442 0.949786 32.9291 0.949786H2.07088ZM5.372 4.06185V5.35517C5.372 5.49663 5.47452 5.59767 5.59754 5.59767H10.744C10.8875 5.59767 10.99 5.47642 10.99 5.35517V4.06185H5.372ZM17.8178 4.06185V5.35517C17.8178 5.49663 17.9203 5.59767 18.0434 5.59767H23.1898C23.3128 5.59767 23.4153 5.47642 23.4153 5.35517V4.06185H17.8178ZM8.71412 24.9976H6.60223C5.98711 24.9976 5.98711 24.0478 6.60223 24.0478H8.71412C9.32923 24.0478 9.32923 24.9976 8.71412 24.9976ZM22.1851 24.9976H20.0937C19.4786 24.9976 19.4786 24.0478 20.0937 24.0478H22.1851C22.8002 24.0478 22.8002 24.9976 22.1851 24.9976ZM20.6063 12.0643C20.3603 12.0643 20.1347 11.842 20.1347 11.5793V8.30557C20.1347 7.69933 21.0984 7.69933 21.0984 8.30557V11.5793C21.0984 11.842 20.8729 12.0643 20.6063 12.0643ZM8.18102 12.0643C7.91447 12.0643 7.68893 11.842 7.68893 11.5793V8.30557C7.68893 7.69933 8.65261 7.69933 8.65261 8.30557V11.5793C8.65261 11.842 8.44757 12.0643 8.18102 12.0643ZM4.14177 12.0643C3.7932 12.0643 3.54716 11.6601 3.73169 11.357L5.3925 8.50766C5.70006 7.98224 6.54071 8.44703 6.23316 8.97244L4.55185 11.8218C4.46983 11.9633 4.3058 12.0643 4.14177 12.0643ZM12.1998 12.0643C12.0357 12.0643 11.8717 11.9633 11.7897 11.8218L10.1289 8.97244C9.82133 8.44703 10.6415 7.98224 10.949 8.50766L12.6098 11.357C12.7944 11.6601 12.5688 12.0643 12.1998 12.0643ZM16.5876 12.0643C16.239 12.0643 15.993 11.6601 16.1775 11.357L17.8383 8.50766C18.1459 7.98224 18.966 8.44703 18.6585 8.97244L16.9977 11.8218C16.9156 11.9633 16.7516 12.0643 16.5876 12.0643Z" fill="white"/>
</svg>
