<svg width="24" height="24" viewBox="0 0 24 24" fill="none" xmlns="http://www.w3.org/2000/svg">
<path fill-rule="evenodd" clip-rule="evenodd" d="M3.98307 13.0718L3.2943 14.5144C3.29359 14.5144 3.29265 14.5168 3.29195 14.5191C3.29148 14.5191 3.29148 14.5191 3.29148 14.5191C3.28649 14.5286 3.28103 14.5382 3.27534 14.5477C3.27534 14.5477 3.27534 14.5477 3.27487 14.5477C3.23684 14.6071 3.17788 14.6546 3.10541 14.676C3.10541 14.6783 3.10494 14.6783 3.10494 14.6783H3.09854C3.09854 14.6878 2.96683 14.7062 2.87418 14.6593L2.80218 14.6094L1.61362 13.5471C1.48553 13.433 1.47434 13.2358 1.58868 13.1074C1.70298 12.9791 1.8993 12.9696 2.02739 13.0836L2.48845 13.4948C1.95088 10.4607 2.91102 7.38107 5.0985 5.19317C8.59834 1.69262 14.1774 1.51484 17.901 4.7297C18.0308 4.84142 18.0453 5.03868 17.9324 5.167C17.8202 5.29773 17.6241 5.31198 17.4942 5.20027C15.9004 3.81944 13.8598 3.05891 11.7484 3.05891C6.25289 3.05891 2.11285 8.06522 3.11252 13.452L3.42196 12.8032C3.49613 12.6487 3.68125 12.5821 3.8362 12.6558C3.99116 12.7295 4.05676 12.9149 3.98307 13.0718ZM21.8759 13.4496C22.0207 13.3569 22.062 13.1644 21.9691 13.0194L21.0714 11.6315L21.0526 11.6149C21.0506 11.5938 20.9351 11.533 20.8502 11.5317C20.7085 11.5295 20.6384 11.6125 20.6327 11.6125C20.6284 11.6172 20.6239 11.622 20.6199 11.6267H20.6182C20.6139 11.6315 20.6101 11.6362 20.6066 11.641L19.5587 12.8459C19.446 12.9766 19.4601 13.1715 19.5893 13.2856C19.7189 13.3973 19.9154 13.3831 20.0276 13.2547L20.4874 12.7247C20.0437 17.1548 16.2939 20.6247 11.7483 20.6247C11.4723 20.6247 11.1938 20.6127 10.9203 20.5866C10.7496 20.57 10.598 20.6959 10.5818 20.8671C10.5662 21.0382 10.6916 21.1903 10.8625 21.2069C11.1548 21.2331 11.4534 21.2474 11.7483 21.2474C16.581 21.2474 20.6134 17.5893 21.1028 12.8221L21.4467 13.3569C21.5396 13.4996 21.7319 13.5423 21.8759 13.4496ZM16.469 8.74388L16.6523 8.28041L14.0382 7.24893L13.2315 7.46045L16.469 8.74388ZM13.9793 6.62152L12.1569 7.09684C11.8672 7.17425 11.8426 7.57795 12.1203 7.68863L16.5292 9.43787C16.6847 9.49881 16.8687 9.42601 16.9327 9.26197L17.3443 8.22098C17.4076 8.06174 17.3291 7.88114 17.1692 7.81695L14.172 6.63338C14.1107 6.60962 14.0432 6.60487 13.9793 6.62152ZM19.7849 8.58939C19.8458 8.4349 19.77 8.2614 19.6167 8.19962L14.2863 6.09628C14.1619 6.04668 14.0571 6.04099 13.9305 6.07491L10.0333 7.08974C9.84647 7.13962 9.71556 7.25608 9.64422 7.43673L8.50108 10.3315C8.4407 10.486 8.51651 10.6595 8.66982 10.7189L17.2804 14.1176C17.4352 14.1805 17.6093 14.1017 17.6686 13.9512L19.7849 8.58939ZM8.021 9.85615L8.48541 8.67974L7.85395 8.4302C7.8052 8.41118 7.74798 8.4373 7.72845 8.48488L7.33534 9.48069C7.31633 9.53062 7.34103 9.58765 7.38955 9.60666L8.021 9.85615ZM13.7739 5.47358L9.87668 6.4884C9.49807 6.58826 9.21003 6.84255 9.06623 7.20856L8.7133 8.10216L8.08185 7.85262C7.71556 7.70679 7.29595 7.88744 7.15045 8.25665L6.75734 9.25246C6.61189 9.62082 6.79348 10.0391 7.16161 10.1841L7.85941 10.4598C7.8668 10.8187 8.08641 11.1585 8.44145 11.2988L17.0525 14.6974C17.5196 14.8813 18.0601 14.6524 18.2471 14.1793L20.3633 8.81521C20.5493 8.34465 20.3169 7.80749 19.8447 7.62214L14.5143 5.5188C14.2702 5.4213 14.0277 5.40704 13.7739 5.47358ZM5.82619 17.0122C5.79023 17.4549 5.9474 17.9213 6.22857 18.2576C6.39684 18.4588 6.25242 18.7662 5.98994 18.7662C5.90082 18.7662 5.81263 18.7281 5.75085 18.6544C5.37082 18.1991 5.14772 17.5459 5.20824 16.9504C5.25863 16.4418 5.53763 15.9332 5.74205 15.5933C5.83117 15.4483 6.02227 15.4008 6.16937 15.4887C6.316 15.579 6.36282 15.7692 6.27369 15.9165C6.00157 16.3658 5.85541 16.7246 5.82619 17.0122ZM7.23407 19.9022C8.70046 19.9022 9.8933 18.6616 9.8933 17.1335C9.8933 16.1804 9.22852 15.2417 8.52484 14.2482C8.05662 13.5851 7.57632 12.9078 7.23407 12.1615C6.89136 12.9078 6.41129 13.5851 5.94354 14.2482C5.23958 15.2417 4.57457 16.1804 4.57457 17.1335C4.57462 18.6616 5.76746 19.9022 7.23407 19.9022ZM7.53237 11.1942C7.44762 10.8975 7.02091 10.8979 6.93536 11.1942C6.30132 13.3909 3.95314 15.0663 3.95314 17.1335C3.95314 19.0039 5.42474 20.5249 7.23412 20.5249C9.04322 20.5249 10.5149 19.0039 10.5149 17.1335C10.5148 15.0667 8.16594 13.3885 7.53237 11.1942Z" fill="black"/>
</svg>
