<svg width="26" height="26" viewBox="0 0 26 26" fill="none" xmlns="http://www.w3.org/2000/svg">
<path d="M18.4297 16.1863H18.5217C18.9351 16.1863 19.2715 15.8499 19.2715 15.4365V14.6703C19.2715 14.2569 18.9351 13.9205 18.5217 13.9205H17.2051C16.8633 13.9205 16.5473 14.0676 16.3241 14.3053L15.8793 13.3803C15.4775 12.5453 14.6846 12.0467 13.7582 12.0467H7.44766C6.5212 12.0467 5.72833 12.5453 5.32657 13.3803L4.88173 14.3053C4.6581 14.0676 4.3425 13.9205 4.00077 13.9205H2.68416C2.27078 13.9205 1.93437 14.2569 1.93437 14.6703V15.4365C1.93437 15.8499 2.27078 16.1863 2.68416 16.1863H2.78581C2.06894 16.7023 1.61684 17.5116 1.61684 18.427V22.2887C1.61684 22.4489 1.74705 22.5791 1.90726 22.5791H2.12944V23.2335C2.12944 23.9146 2.68368 24.4688 3.36473 24.4688H3.9117C4.59276 24.4688 5.14699 23.9146 5.14699 23.2335V22.5791H16.0598V23.2335C16.0598 23.9146 16.6141 24.4688 17.2951 24.4688H17.8421C18.5231 24.4688 19.0774 23.9146 19.0774 23.2335V22.5791H19.2991C19.4593 22.5791 19.5895 22.4489 19.5895 22.2887V18.427C19.5885 17.5097 19.1408 16.7013 18.4297 16.1863ZM17.2051 14.5008H18.5217C18.6151 14.5008 18.6906 14.5768 18.6906 14.6698V15.436C18.6906 15.5294 18.6146 15.605 18.5217 15.605H16.9495L16.616 14.9113C16.706 14.6693 16.9408 14.5008 17.2051 14.5008ZM5.84982 13.6315C6.15235 13.0027 6.74967 12.6271 7.44766 12.6271H13.7577C14.4557 12.6271 15.053 13.0027 15.3555 13.6315L16.2912 15.5764C12.3399 15.3426 8.51837 15.3412 4.9161 15.5735L5.84982 13.6315ZM2.51474 15.4365V14.6703C2.51474 14.5768 2.59074 14.5013 2.68368 14.5013H4.00028C4.26457 14.5013 4.49885 14.6698 4.58937 14.9123L4.25586 15.6059H2.68368C2.59074 15.6054 2.51474 15.5294 2.51474 15.4365ZM4.56565 23.2335C4.56565 23.5942 4.27232 23.888 3.91122 23.888H3.36424C3.00363 23.888 2.70981 23.5946 2.70981 23.2335V22.5791H4.56517V23.2335H4.56565ZM18.4955 23.2335C18.4955 23.5942 18.2022 23.888 17.8411 23.888H17.2941C16.9335 23.888 16.6397 23.5946 16.6397 23.2335V22.5791H18.4951V23.2335H18.4955ZM19.0077 21.9987H2.19769V18.4274C2.19769 17.2406 3.16966 16.2773 4.45916 16.1858C8.3296 15.9118 12.4648 15.9118 16.7486 16.1858C18.0367 16.2681 19.0082 17.2318 19.0082 18.4274V21.9987H19.0077ZM18.3068 17.8258C18.1528 17.6902 17.9563 17.6307 17.7525 17.6564L15.7404 17.9153C15.083 18 14.5869 18.5635 14.5869 19.2266V19.5185C14.5869 19.9062 14.9025 20.2213 15.2902 20.2213H17.6364C18.1378 20.2213 18.5459 19.8133 18.5459 19.3118V18.3534C18.5454 18.1486 18.4607 17.9613 18.3068 17.8258ZM17.9645 19.3118C17.9645 19.4928 17.8174 19.6405 17.6359 19.6405H15.2897C15.2224 19.6405 15.1672 19.5858 15.1672 19.5185V19.2266C15.1672 18.849 15.4393 18.5397 15.8139 18.4913L17.8261 18.2324C17.8334 18.2314 17.8397 18.2309 17.8464 18.2309C17.8755 18.2309 17.8987 18.2406 17.9224 18.2619C17.952 18.288 17.9641 18.3147 17.9641 18.3539V19.3118H17.9645ZM5.46549 17.9153L3.45331 17.6564C3.25001 17.6302 3.053 17.6902 2.89908 17.8258C2.74515 17.9613 2.66044 18.1486 2.66044 18.3539V19.3123C2.66044 19.8137 3.06849 20.2218 3.56996 20.2218H5.91614C6.30386 20.2218 6.61897 19.9062 6.61897 19.519V19.2271C6.61897 18.5635 6.12283 18 5.46549 17.9153ZM6.03812 19.5185C6.03812 19.5858 5.98342 19.6405 5.91614 19.6405H3.56948C3.38845 19.6405 3.24081 19.4933 3.24081 19.3118V18.3534C3.24081 18.3142 3.25291 18.2875 3.28244 18.2614C3.30664 18.2401 3.32988 18.2304 3.35844 18.2304C3.36473 18.2304 3.37151 18.2309 3.37877 18.2319L5.39095 18.4908C5.7656 18.5393 6.03763 18.8481 6.03763 19.2261V19.5185H6.03812ZM12.7591 18.2788C12.7591 18.4391 12.6289 18.5693 12.4687 18.5693H8.73716C8.57694 18.5693 8.44674 18.4391 8.44674 18.2788C8.44674 18.1186 8.57694 17.9884 8.73716 17.9884H12.4687C12.6289 17.9884 12.7591 18.1186 12.7591 18.2788ZM12.7591 19.593C12.7591 19.7532 12.6289 19.8834 12.4687 19.8834H8.73716C8.57694 19.8834 8.44674 19.7532 8.44674 19.593C8.44674 19.4328 8.57694 19.3026 8.73716 19.3026H12.4687C12.6289 19.3026 12.7591 19.4323 12.7591 19.593ZM23.9706 6.48939H23.2837C23.1235 6.48939 22.9933 6.6196 22.9933 6.77982V7.44877H22.3602V7.01313C22.3602 6.85291 22.23 6.7227 22.0697 6.7227H19.8993V5.9976C20.7827 5.63553 21.3824 4.75941 21.3824 3.79567V1.4282C21.3824 1.26798 21.2522 1.13777 21.092 1.13777H16.9176C16.7573 1.13777 16.6271 1.26798 16.6271 1.4282V3.79567C16.6271 4.75941 17.2273 5.63602 18.1102 5.9976V6.7227H15.0893C15.0123 6.7227 14.9383 6.7532 14.8841 6.80789L13.506 8.18598C13.3927 8.29924 13.3927 8.48318 13.506 8.59645L14.8841 9.97453C14.9383 10.0292 15.0123 10.0597 15.0893 10.0597H18.1858V10.7442C18.1858 11.3023 18.6398 11.7563 19.1979 11.7563H19.8659L20.5794 14.419C20.6132 14.5459 20.7285 14.6344 20.8601 14.6344H23.2963C23.3868 14.6344 23.4715 14.5923 23.5267 14.5207C23.5819 14.4491 23.6003 14.3561 23.5771 14.2685L22.3611 9.73057V9.33365H22.9943V10.0026C22.9943 10.1628 23.1245 10.293 23.2847 10.293H23.9716C24.5103 10.293 24.9489 9.85448 24.9489 9.31574V7.46523C24.9479 6.92745 24.5093 6.48939 23.9706 6.48939ZM16.2297 9.47935V7.30356H21.7798V9.47935H16.2297ZM20.8015 1.71863V2.3687H17.208V1.71863H20.8015ZM18.4854 5.51549C17.7332 5.28654 17.208 4.57934 17.208 3.79567V2.94956H20.8015V3.79519C20.8015 4.57886 20.2764 5.28605 19.5241 5.51501C19.4017 5.55228 19.3184 5.66506 19.3184 5.79285V6.7227H18.6916V5.79285C18.6916 5.66554 18.6078 5.55276 18.4854 5.51549ZM14.1217 8.3917L15.2094 7.30404H15.6489V9.47983H15.2094L14.1217 8.3917ZM19.1979 11.1764C18.9602 11.1764 18.7666 10.9828 18.7666 10.7451V10.0607H19.4114L19.7105 11.1769H19.1979V11.1764ZM21.0828 14.0546L20.0125 10.0607H21.8471L22.0107 10.6706H21.1714C21.0111 10.6706 20.8809 10.8008 20.8809 10.961C20.8809 11.1212 21.0111 11.2514 21.1714 11.2514H22.1666L22.3302 11.8613H21.4903C21.3301 11.8613 21.1999 11.9916 21.1999 12.1518C21.1999 12.312 21.3301 12.4422 21.4903 12.4422H22.4855L22.9178 14.0546H21.0828ZM22.3607 8.75376V8.02963H22.9938V8.75376H22.3607ZM24.367 9.31719C24.367 9.5355 24.1894 9.71363 23.9706 9.71363H23.5742V7.07073H23.9706C24.1889 7.07073 24.367 7.24838 24.367 7.46717V9.31719ZM9.62781 8.3917C9.62781 8.23148 9.75802 8.10127 9.91824 8.10127H12.079C12.2392 8.10127 12.3694 8.23148 12.3694 8.3917C12.3694 8.55192 12.2392 8.68212 12.079 8.68212H9.91824C9.75802 8.68212 9.62781 8.55192 9.62781 8.3917ZM10.8239 5.91483C10.7106 5.80156 10.7106 5.61762 10.8239 5.50436C10.9372 5.39109 11.1211 5.39109 11.2348 5.50436L12.7625 7.03201C12.8758 7.14528 12.8758 7.32921 12.7625 7.44248C12.7059 7.49911 12.6313 7.52767 12.5573 7.52767C12.4832 7.52767 12.4087 7.49911 12.352 7.44248L10.8239 5.91483ZM12.7625 9.34043C12.8758 9.45369 12.8758 9.63763 12.7625 9.7509L11.2348 11.2786C11.1782 11.3352 11.1037 11.3637 11.0296 11.3637C10.9555 11.3637 10.881 11.3352 10.8244 11.2786C10.7111 11.1653 10.7111 10.9813 10.8244 10.8681L12.352 9.34043C12.4648 9.22716 12.6487 9.22716 12.7625 9.34043Z" fill="black"/>
</svg>
