<svg width="24" height="24" viewBox="0 0 24 24" fill="none" xmlns="http://www.w3.org/2000/svg">
<path fill-rule="evenodd" clip-rule="evenodd" d="M6.4248 5.18663V18.5006C6.4248 18.6717 6.28598 18.8119 6.11418 18.8119C5.94261 18.8119 5.80332 18.6717 5.80332 18.5006V5.18663C5.80332 5.01313 5.94261 4.8753 6.11418 4.8753C6.28598 4.87525 6.4248 5.01313 6.4248 5.18663ZM10.2436 17.1221V15.38C11.2118 16.4258 12.5803 17.0413 14.056 17.0413C16.9217 17.0413 19.2533 14.7098 19.2533 11.8436C19.2533 8.97737 16.9218 6.64585 14.056 6.64585C12.5879 6.64585 11.2185 7.2543 10.2436 8.3095V6.56506C10.2436 6.15388 10.1761 5.75935 10.0518 5.39099C11.157 4.70176 12.422 4.31198 13.7451 4.25735V4.76594C13.7451 4.93944 13.8844 5.07727 14.056 5.07727C14.2278 5.07727 14.3666 4.93944 14.3666 4.76594V4.25735C16.2261 4.3334 17.915 5.07967 19.1972 6.26324L18.8397 6.61974C18.6447 6.81469 18.784 7.14974 19.0598 7.14974C19.1392 7.14974 19.2188 7.11882 19.2792 7.05944L19.6369 6.70294C20.8188 7.98396 21.5655 9.67376 21.6409 11.5323H21.132C20.9607 11.5323 20.8214 11.6725 20.8214 11.8436C20.8214 12.0147 20.9607 12.155 21.132 12.155H21.6409C21.5655 14.0135 20.8188 15.7009 19.6369 16.9843L19.2792 16.6278C19.158 16.5066 18.9612 16.5066 18.8402 16.6278C18.7188 16.749 18.7188 16.9463 18.8402 17.0651L19.1972 17.424C17.915 18.6052 16.2261 19.3538 14.3667 19.4275V18.9189C14.3667 18.7478 14.2278 18.6076 14.056 18.6076C13.8844 18.6076 13.7452 18.7478 13.7452 18.9189V19.4275C12.4314 19.3752 11.1651 18.9878 10.0523 18.2938C10.1766 17.9254 10.2436 17.5309 10.2436 17.1221ZM6.56357 20.1809C8.16378 20.1809 9.47996 18.9451 9.61044 17.3788L8.53407 18.0704C8.48179 18.1037 8.424 18.1203 8.36626 18.1203C8.05677 18.1203 7.93828 17.7142 8.19775 17.5475L9.62207 16.6325V14.5553C9.61303 14.5411 9.604 14.5268 9.59473 14.5102L8.53402 15.1922C8.48174 15.2255 8.42396 15.2422 8.36622 15.2422C8.05687 15.2422 7.93814 14.8363 8.19771 14.6694L8.95156 14.1846C9.1683 14.0135 9.39337 13.8685 9.62202 13.7496V11.6154L8.53397 12.3142C8.48169 12.3498 8.42391 12.364 8.36617 12.364C8.05847 12.364 7.9372 11.9612 8.19766 11.7937L9.62197 10.8763V8.73729L8.53393 9.43839C8.48165 9.47166 8.42386 9.48827 8.36612 9.48827C8.06392 9.48827 7.93381 9.08499 8.19761 8.91549L9.62192 8.00048V6.56496C9.62192 6.33919 9.59675 6.11816 9.5504 5.90664L8.53393 6.56021C8.48165 6.59348 8.42386 6.61014 8.36612 6.61014C8.05705 6.61014 7.93781 6.20461 8.19761 6.03737L8.33761 5.94706C8.6342 5.6595 8.94911 5.39805 9.27921 5.16037C8.76968 4.17881 7.74389 3.50623 6.56343 3.50623H5.44037C4.20476 3.50623 3.13907 4.243 2.65659 5.29825L3.80572 6.03737C3.95046 6.13007 3.9923 6.32258 3.8996 6.46756C3.80619 6.61292 3.61453 6.65296 3.46987 6.56026L2.4534 5.90669C2.40658 6.11821 2.38141 6.33923 2.38141 6.56501V8.00052L3.80572 8.91554C3.95046 9.00824 3.9923 9.20075 3.8996 9.34333C3.80421 9.49053 3.61533 9.53175 3.46987 9.43839L2.38136 8.73729V10.8763L3.80567 11.7937C3.95042 11.8864 3.99225 12.0789 3.89955 12.2215C3.80567 12.3663 3.61166 12.4082 3.46983 12.3142L2.38131 11.6154V13.7544L3.80562 14.6694C3.95037 14.7621 3.9922 14.9546 3.8995 15.0996C3.80609 15.2449 3.61457 15.285 3.46978 15.1923L2.38126 14.4935V16.6326L3.80558 17.5476C3.95032 17.6403 3.99216 17.8328 3.89945 17.9778C3.80605 18.1231 3.61448 18.1632 3.46973 18.0705L2.39289 17.3789C2.52385 18.9451 3.84002 20.181 5.44023 20.181H6.56357V20.1809ZM10.6048 8.83714C10.4758 8.98688 10.3548 9.14612 10.2436 9.31246V11.941C10.7044 11.6915 11.0279 11.3279 11.1715 10.8882C11.3844 10.2322 11.1731 9.48121 10.6048 8.83714ZM10.2436 14.1466V14.3747C10.8939 15.3563 11.8852 16.0384 13.0167 16.2998C13.1075 15.4323 12.8394 14.6908 12.2731 14.2797C11.7352 13.8875 10.9882 13.8542 10.2436 14.1466ZM18.6163 12.2168C18.7188 10.9473 18.2968 9.74891 17.5052 8.83954C16.9383 9.48361 16.7273 10.2323 16.9403 10.8882C17.1549 11.5489 17.7716 12.0314 18.6163 12.2168ZM15.095 16.2998C16.3171 16.0146 17.3526 15.2398 17.9813 14.1917C16.2994 13.4519 14.9037 14.4714 15.095 16.2998ZM12.2832 7.62266C13.2083 9.18127 14.9052 9.17976 15.8275 7.62506C14.7032 7.14964 13.414 7.15007 12.2832 7.62266ZM11.7264 7.90072C11.4849 8.0457 11.2563 8.20969 11.0436 8.39745C11.7804 9.21261 12.0489 10.1966 11.7621 11.0807C11.5379 11.7699 11.0022 12.3142 10.2436 12.6302V13.4882C11.1121 13.2125 11.9834 13.3005 12.6386 13.7758C13.3972 14.3272 13.7568 15.2921 13.6313 16.3996C13.9295 16.4248 14.1825 16.4249 14.4805 16.3996C14.2148 14.064 16.1236 12.6714 18.2651 13.638C18.3751 13.3813 18.4621 13.1104 18.5239 12.8323C17.4394 12.6065 16.638 11.9672 16.3495 11.0807C16.0633 10.199 16.3305 9.21506 17.0651 8.39985C16.8543 8.21449 16.6259 8.0481 16.3835 7.90552C15.2215 9.91488 12.8894 9.9162 11.7264 7.90072ZM19.8961 17.6118C21.3625 16.1287 22.2694 14.0896 22.2694 11.8436C22.2694 9.59772 21.3625 7.55857 19.8961 6.07313L19.8248 6.00184C18.3404 4.53781 16.3024 3.62995 14.056 3.62995C12.534 3.62995 11.0723 4.04348 9.80107 4.81591C9.1779 3.66561 7.96035 2.88372 6.56362 2.88372H5.44037C3.41096 2.88372 1.75988 4.5355 1.75988 6.56515V17.1222C1.75988 19.1519 3.41096 20.8013 5.44037 20.8013H6.56357C7.96078 20.8013 9.17837 20.0194 9.80149 18.8691C11.0823 19.6463 12.5456 20.0574 14.0559 20.0574C16.3023 20.0574 18.3408 19.1496 19.8248 17.6831L19.8961 17.6118ZM14.056 11.045C13.6153 11.045 13.2567 11.4015 13.2567 11.8436C13.2567 12.2833 13.6153 12.6421 14.056 12.6421C14.4966 12.6421 14.8552 12.2833 14.8552 11.8436C14.8552 11.4015 14.4966 11.045 14.056 11.045ZM14.056 13.2648C14.8393 13.2648 15.4765 12.6255 15.4765 11.8436C15.4765 11.0593 14.8393 10.4224 14.056 10.4224C13.2729 10.4224 12.635 11.0593 12.635 11.8436C12.635 12.6255 13.2729 13.2648 14.056 13.2648Z" fill="black"/>
</svg>
